G04*
G04 #@! TF.GenerationSoftware,Altium Limited,CircuitMaker,2.2.1 (2.2.1.6)*
G04*
G04 Layer_Color=13813960*
%FSAX24Y24*%
%MOIN*%
G70*
G04*
G04 #@! TF.SameCoordinates,0C81AED8-799D-43B9-9177-9323FDC10059*
G04*
G04*
G04 #@! TF.FilePolarity,Positive*
G04*
G01*
G75*
%ADD13C,0.0100*%
D13*
X129100Y037300D02*
Y037900D01*
X128900Y037700D01*
X128700Y037900D01*
Y037300D01*
X128500Y037700D02*
Y037400D01*
X128400Y037300D01*
X128100D01*
Y037700D01*
X127900Y037300D02*
X127600D01*
X127501Y037400D01*
X127600Y037500D01*
X127800D01*
X127900Y037600D01*
X127800Y037700D01*
X127501D01*
X127201Y037800D02*
Y037700D01*
X127301D01*
X127101D01*
X127201D01*
Y037400D01*
X127101Y037300D01*
X126701Y037700D02*
X126501D01*
X126401Y037600D01*
Y037300D01*
X126701D01*
X126801Y037400D01*
X126701Y037500D01*
X126401D01*
X126101Y037300D02*
Y037800D01*
Y037600D01*
X126201D01*
X126001D01*
X126101D01*
Y037800D01*
X126001Y037900D01*
X125601Y037700D02*
X125401D01*
X125301Y037600D01*
Y037300D01*
X125601D01*
X125701Y037400D01*
X125601Y037500D01*
X125301D01*
X124202Y037900D02*
X124402D01*
X124501Y037800D01*
Y037400D01*
X124402Y037300D01*
X124202D01*
X124102Y037400D01*
Y037800D01*
X124202Y037900D01*
X123902Y037300D02*
Y037900D01*
X123602D01*
X123502Y037800D01*
Y037600D01*
X123602Y037500D01*
X123902D01*
X123702D02*
X123502Y037300D01*
X123302Y037900D02*
Y037300D01*
Y037600D01*
X122902D01*
Y037900D01*
Y037300D01*
X122402Y037900D02*
X122602D01*
X122702Y037800D01*
Y037400D01*
X122602Y037300D01*
X122402D01*
X122302Y037400D01*
Y037800D01*
X122402Y037900D01*
X122102Y037300D02*
Y037900D01*
X121702Y037300D01*
Y037900D01*
M02*
