M48
;Layer_Color=6321
;FILE_FORMAT=2:4
INCH
;TYPE=PLATED
T1F00S00C0.0262
T2F00S00C0.0276
T3F00S00C0.0295
T4F00S00C0.0300
T5F00S00C0.0319
T6F00S00C0.0354
T7F00S00C0.0394
T8F00S00C0.0402
T9F00S00C0.0472
T10F00S00C0.0866
T11F00S00C0.1250
T12F00S00C0.1299
%
T01
X093300Y019116
Y020100
X077992Y039800
X077008
X077016Y043500
X078000
T02
X085916Y019600
X086900
X065892Y041500
X064908
T03
X078500Y023700
Y027700
X075750
X072950
X070250
X067500
X064750
Y023700
X067500
X070250
X072950
X075750
X062000
Y027700
X056500
X053750
X051000
X048250
Y023700
X051000
X053750
X056500
X045500
Y027700
X058400Y037500
X061400
Y041500
X058400
X075400Y045700
X079400
T04
X045500Y012350
Y014350
X051000
Y012350
X056500
Y014350
X062000
Y012350
X067500
Y014350
X073000
Y012350
X078500
Y014350
X096700Y011900
Y015900
X075750Y018700
Y020700
X070250
Y018700
X064750
Y020700
X053750
Y018700
X048250
Y020700
X050500Y043100
Y044100
X053400Y041500
X054400
X055400
T05
X077000Y041500
X078000
T06
X096700Y019313
Y020100
X090500
Y019600
Y019100
X073914Y040471
Y041471
Y042471
Y043471
X070914
Y042471
Y041471
Y040471
T07
X086900Y012200
X087884
X088869
X093300Y011900
Y012900
T08
X042800Y042100
Y043100
T09
X046900Y039132
Y043068
T10
X090291Y045200
X095291
T11
X011800Y011800
X099800
Y047500
X011800
T12
X097482Y030448
X088100
Y039200
X097482
M30
