M48
;Layer_Color=6321
;FILE_FORMAT=2:4
INCH,TZ
;TYPE=PLATED
T1F00S00C0.0140
T2F00S00C0.0150
T3F00S00C0.0250
T4F00S00C0.0280
T5F00S00C0.0300
T6F00S00C0.0315
T7F00S00C0.0787
%
T01
X5597Y10716
X6307Y10695
X6570Y12530
X7357
X8347
X9437
X10397
Y13716
X11227
X12080
Y14740
X11227
X13210
Y13699
X13240Y12280
X14177
X15000
Y11236
X14177
X13240
X12160
Y12280
Y10116
X13240
X14177
X15000
Y9006
X14177
X13240
X12160
Y7906
X13240
X14177
X15000
X9437Y13716
X8347
X7357
Y14486
X7327Y15196
X6570Y15186
Y14506
Y13716
X4540Y14180
Y15070
X3200Y15220
Y14210
Y13339
X16410Y15430
Y16870
Y18450
Y19820
X15410Y20980
X13650
X11730
X11580Y22480
X12070
X12570
X14109Y23103
X12030Y24490
X9846Y23530
X9890Y22300
X9969Y21920
X9240
X8140
X7300
X7229Y22663
X6270
Y23390
Y24090
Y24830
X5510Y24820
Y24080
Y23400
Y22663
X5530Y21920
X6290
X4649
X3860
X3750Y20980
X3910Y20200
X4510
X5140
Y19710
X5810Y19720
Y20200
X5380Y20980
X7420
X9760
X11227Y15740
X12080
X13210Y15720
X6550Y16320
X4540Y15770
X3200Y16090
X3510Y17210
Y17920
Y18610
X3140Y19500
Y20200
X8560Y30140
X8540Y30660
X9400
X9410Y30140
X14505Y30950
X13790Y31250
X15150Y31350
X16120Y31370
X17150Y31390
T02
X4124Y28302
X10450Y25950
X10380Y25090
Y24500
X13890Y26760
X10300Y33326
X8280Y33346
X8760Y34400
T03
X3650Y16710
X4110Y19130
X6890Y19610
X6120Y15888
T04
X15523Y15023
T05
X15040Y12980
X4140Y16160
T06
X4090Y22900
Y25900
T07
X9820Y8970
Y10742
M30
