G04*
G04 #@! TF.GenerationSoftware,Altium Limited,CircuitMaker,2.2.1 (2.2.1.6)*
G04*
G04 Layer_Physical_Order=2*
G04 Layer_Color=11436288*
%FSLAX25Y25*%
%MOIN*%
G70*
G04*
G04 #@! TF.SameCoordinates,3F80FBB2-A1F2-450A-AE04-FF917F864492*
G04*
G04*
G04 #@! TF.FilePolarity,Positive*
G04*
G01*
G75*
%ADD11C,0.01000*%
%ADD16C,0.00600*%
%ADD21R,0.04134X0.03937*%
%ADD67C,0.03000*%
%ADD73C,0.05118*%
%ADD74R,0.05118X0.05118*%
%ADD75C,0.09055*%
%ADD76C,0.02200*%
%ADD77C,0.02500*%
%ADD78C,0.02800*%
G36*
X183600Y355900D02*
Y68000D01*
X160814D01*
X160000Y68814D01*
X160000Y118974D01*
X158841Y120133D01*
Y205500D01*
X158841Y205501D01*
Y206047D01*
X157887Y207000D01*
X157399D01*
X157300Y207041D01*
X157300Y207041D01*
X30752D01*
X30752Y207041D01*
X30653Y207000D01*
X29500D01*
X28500Y208000D01*
Y354500D01*
Y356000D01*
X183500D01*
X183600Y355900D01*
D02*
G37*
G36*
X158300Y205500D02*
Y119700D01*
X158302Y119677D01*
X159400Y118578D01*
Y68500D01*
X158900Y68000D01*
X29100D01*
X28500Y68600D01*
Y204248D01*
X30752Y206500D01*
X157300D01*
X158300Y205500D01*
D02*
G37*
%LPC*%
G36*
X83118Y335056D02*
X82482D01*
X81894Y334812D01*
X81557Y334475D01*
X59456D01*
X59066Y334398D01*
X58735Y334177D01*
X48279Y323721D01*
X48058Y323390D01*
X47980Y323000D01*
Y295722D01*
X40479Y288221D01*
X40258Y287890D01*
X40180Y287500D01*
Y284225D01*
X39880Y283925D01*
X39637Y283337D01*
Y282700D01*
X39880Y282112D01*
X40330Y281662D01*
X40396Y281635D01*
X40479Y281510D01*
X40810Y281289D01*
X41200Y281212D01*
X41590Y281289D01*
X41921Y281510D01*
X41958Y281547D01*
X41993Y281600D01*
X42143Y281662D01*
X42593Y282112D01*
X42837Y282700D01*
Y283337D01*
X42593Y283925D01*
X42220Y284299D01*
Y287078D01*
X49721Y294579D01*
X49942Y294910D01*
X50020Y295300D01*
Y322578D01*
X59878Y332436D01*
X81557D01*
X81894Y332100D01*
X82482Y331856D01*
X83118D01*
X83706Y332100D01*
X84156Y332550D01*
X84400Y333138D01*
Y333774D01*
X84156Y334362D01*
X83706Y334812D01*
X83118Y335056D01*
D02*
G37*
G36*
X138248Y314250D02*
X137552D01*
X136909Y313984D01*
X136416Y313491D01*
X136150Y312848D01*
Y312152D01*
X136416Y311509D01*
X136909Y311016D01*
X137552Y310750D01*
X138248D01*
X138891Y311016D01*
X139384Y311509D01*
X139456Y311684D01*
X141712D01*
X143373Y310024D01*
X143300Y309848D01*
Y309152D01*
X143566Y308509D01*
X144059Y308016D01*
X144702Y307750D01*
X145398D01*
X146041Y308016D01*
X146534Y308509D01*
X146800Y309152D01*
Y309848D01*
X146534Y310491D01*
X146041Y310984D01*
X145398Y311250D01*
X144702D01*
X144526Y311177D01*
X142627Y313077D01*
X142362Y313254D01*
X142050Y313316D01*
X142050Y313316D01*
X139456D01*
X139384Y313491D01*
X138891Y313984D01*
X138248Y314250D01*
D02*
G37*
G36*
X87918Y345600D02*
X87282D01*
X86694Y345356D01*
X86244Y344906D01*
X86000Y344318D01*
Y343682D01*
X86244Y343094D01*
X86680Y342657D01*
Y313500D01*
X86758Y313110D01*
X86979Y312779D01*
X90379Y309379D01*
X90710Y309158D01*
X91100Y309080D01*
X112778D01*
X116480Y305378D01*
Y286120D01*
X105700D01*
X105310Y286042D01*
X104979Y285821D01*
X103679Y284521D01*
X103458Y284190D01*
X103380Y283800D01*
X103458Y283410D01*
X103480Y283376D01*
Y260743D01*
X103144Y260406D01*
X102900Y259818D01*
Y259182D01*
X103144Y258594D01*
X103594Y258144D01*
X104182Y257900D01*
X104818D01*
X105406Y258144D01*
X105856Y258594D01*
X106100Y259182D01*
Y259818D01*
X105856Y260406D01*
X105520Y260743D01*
Y283478D01*
X106122Y284080D01*
X117500D01*
X117890Y284158D01*
X118221Y284379D01*
X118442Y284710D01*
X118520Y285100D01*
Y305800D01*
X118442Y306190D01*
X118221Y306521D01*
X114362Y310380D01*
X114569Y310880D01*
X132978D01*
X137880Y305978D01*
Y268843D01*
X137544Y268506D01*
X137300Y267918D01*
Y267282D01*
X137544Y266694D01*
X137994Y266244D01*
X138582Y266000D01*
X139218D01*
X139806Y266244D01*
X140256Y266694D01*
X140500Y267282D01*
Y267918D01*
X140256Y268506D01*
X139920Y268843D01*
Y306400D01*
X139842Y306790D01*
X139621Y307121D01*
X134121Y312621D01*
X133790Y312842D01*
X133400Y312920D01*
X109670D01*
Y330350D01*
X109592Y330740D01*
X109371Y331071D01*
X106721Y333721D01*
X106390Y333942D01*
X106000Y334020D01*
X104416D01*
X104357Y334163D01*
X103907Y334613D01*
X103319Y334856D01*
X102682D01*
X102094Y334613D01*
X101644Y334163D01*
X101400Y333575D01*
Y332938D01*
X101644Y332350D01*
X102094Y331900D01*
X102682Y331656D01*
X103319D01*
X103907Y331900D01*
X103987Y331980D01*
X105578D01*
X107630Y329928D01*
Y312300D01*
X107708Y311910D01*
X107902Y311620D01*
X107864Y311459D01*
X107681Y311120D01*
X91522D01*
X88720Y313922D01*
Y342857D01*
X88956Y343094D01*
X89200Y343682D01*
Y344318D01*
X88956Y344906D01*
X88506Y345356D01*
X87918Y345600D01*
D02*
G37*
G36*
X43959Y262059D02*
X37841D01*
Y255941D01*
X43959D01*
Y262059D01*
D02*
G37*
G36*
X111114Y253468D02*
X105980D01*
Y251920D01*
X105043D01*
X104706Y252256D01*
X104118Y252500D01*
X103482D01*
X102894Y252256D01*
X102444Y251806D01*
X102200Y251218D01*
Y250582D01*
X102444Y249994D01*
X102894Y249544D01*
X103482Y249300D01*
X104118D01*
X104706Y249544D01*
X105043Y249880D01*
X105980D01*
Y248532D01*
X111114D01*
Y253468D01*
D02*
G37*
G36*
Y247468D02*
X105980D01*
Y246020D01*
X105043D01*
X104706Y246356D01*
X104118Y246600D01*
X103482D01*
X102894Y246356D01*
X102444Y245906D01*
X102200Y245318D01*
Y244682D01*
X102444Y244094D01*
X102894Y243644D01*
X103482Y243400D01*
X104118D01*
X104706Y243644D01*
X105043Y243980D01*
X105980D01*
Y242531D01*
X111114D01*
Y247468D01*
D02*
G37*
G36*
X117020D02*
X111886D01*
Y242531D01*
X117020D01*
Y243880D01*
X118558D01*
X118605Y243767D01*
X119167Y243204D01*
X119902Y242900D01*
X120698D01*
X121433Y243204D01*
X121995Y243767D01*
X122300Y244502D01*
Y245298D01*
X121995Y246033D01*
X121433Y246596D01*
X120698Y246900D01*
X119902D01*
X119167Y246596D01*
X118605Y246033D01*
X118558Y245920D01*
X117020D01*
Y247468D01*
D02*
G37*
G36*
X151898Y315500D02*
X151102D01*
X150367Y315195D01*
X149804Y314633D01*
X149500Y313898D01*
Y313102D01*
X149804Y312367D01*
X150367Y311805D01*
X150684Y311673D01*
Y311500D01*
X150684Y311500D01*
X150746Y311188D01*
X150923Y310923D01*
X155023Y306823D01*
X155023Y306823D01*
X155288Y306646D01*
X155600Y306584D01*
X155600Y306584D01*
X163262D01*
X167284Y302562D01*
Y245838D01*
X144262Y222816D01*
X128838D01*
X127569Y224085D01*
X127700Y224402D01*
Y225198D01*
X127395Y225933D01*
X126833Y226496D01*
X126098Y226800D01*
X125302D01*
X124567Y226496D01*
X124004Y225933D01*
X123700Y225198D01*
Y224402D01*
X124004Y223667D01*
X124567Y223105D01*
X125302Y222800D01*
X126098D01*
X126415Y222931D01*
X127923Y221423D01*
X127923Y221423D01*
X128188Y221246D01*
X128500Y221184D01*
X128500Y221184D01*
X144600D01*
X144600Y221184D01*
X144912Y221246D01*
X145177Y221423D01*
X168677Y244923D01*
X168677Y244923D01*
X168854Y245188D01*
X168916Y245500D01*
X168916Y245500D01*
Y302900D01*
X168916Y302900D01*
X168854Y303212D01*
X168677Y303477D01*
X164177Y307977D01*
X163912Y308154D01*
X163600Y308216D01*
X163600Y308216D01*
X155938D01*
X152586Y311568D01*
X152633Y311805D01*
X153196Y312367D01*
X153500Y313102D01*
Y313898D01*
X153196Y314633D01*
X152633Y315195D01*
X151898Y315500D01*
D02*
G37*
G36*
X99248Y224750D02*
X98552D01*
X97909Y224484D01*
X97416Y223991D01*
X97150Y223348D01*
Y222652D01*
X97416Y222009D01*
X97909Y221516D01*
X98552Y221250D01*
X99248D01*
X99891Y221516D01*
X100384Y222009D01*
X100650Y222652D01*
Y223348D01*
X100384Y223991D01*
X99891Y224484D01*
X99248Y224750D01*
D02*
G37*
G36*
X161598Y315700D02*
X160802D01*
X160067Y315395D01*
X159504Y314833D01*
X159200Y314098D01*
Y313302D01*
X159504Y312567D01*
X160067Y312004D01*
X160802Y311700D01*
X161346D01*
X164023Y309023D01*
X164023Y309023D01*
X164288Y308846D01*
X164600Y308784D01*
X164600Y308784D01*
X172562D01*
X173639Y307708D01*
Y246392D01*
X147562Y220316D01*
X126338D01*
X122569Y224085D01*
X122700Y224402D01*
Y225198D01*
X122396Y225933D01*
X121833Y226496D01*
X121098Y226800D01*
X120302D01*
X119567Y226496D01*
X119004Y225933D01*
X118700Y225198D01*
Y224402D01*
X119004Y223667D01*
X119567Y223105D01*
X120302Y222800D01*
X121098D01*
X121415Y222931D01*
X125423Y218923D01*
X125423Y218923D01*
X125688Y218746D01*
X126000Y218684D01*
X147900D01*
X147900Y218684D01*
X148212Y218746D01*
X148477Y218923D01*
X175031Y245477D01*
X175031Y245478D01*
X175208Y245742D01*
X175270Y246054D01*
X175270Y246054D01*
Y308046D01*
X175270Y308046D01*
X175208Y308358D01*
X175031Y308623D01*
X175031Y308623D01*
X173477Y310177D01*
X173212Y310354D01*
X172900Y310416D01*
X172900Y310416D01*
X164938D01*
X162841Y312513D01*
X162896Y312567D01*
X163200Y313302D01*
Y314098D01*
X162896Y314833D01*
X162333Y315395D01*
X161598Y315700D01*
D02*
G37*
G36*
X171898Y315900D02*
X171102D01*
X170367Y315596D01*
X169805Y315033D01*
X169500Y314298D01*
Y313502D01*
X169805Y312767D01*
X170367Y312205D01*
X171102Y311900D01*
X171898D01*
X172633Y312205D01*
X173196Y312767D01*
X173327Y313084D01*
X175962D01*
X179495Y309551D01*
Y241649D01*
X155962Y218116D01*
X123638D01*
X117669Y224085D01*
X117800Y224402D01*
Y225198D01*
X117496Y225933D01*
X116933Y226496D01*
X116198Y226800D01*
X115402D01*
X114667Y226496D01*
X114104Y225933D01*
X113800Y225198D01*
Y224402D01*
X114104Y223667D01*
X114667Y223105D01*
X115402Y222800D01*
X116198D01*
X116515Y222931D01*
X122723Y216723D01*
X122723Y216723D01*
X122988Y216546D01*
X123300Y216484D01*
X156300D01*
X156300Y216484D01*
X156612Y216546D01*
X156877Y216723D01*
X180888Y240734D01*
X180888Y240734D01*
X181064Y240999D01*
X181127Y241311D01*
X181127Y241311D01*
Y309889D01*
X181127Y309889D01*
X181064Y310201D01*
X180888Y310466D01*
X180888Y310466D01*
X176877Y314477D01*
X176612Y314654D01*
X176300Y314716D01*
X176300Y314716D01*
X173327D01*
X173196Y315033D01*
X172633Y315596D01*
X171898Y315900D01*
D02*
G37*
G36*
X41448Y193050D02*
X40752D01*
X40109Y192784D01*
X39645Y192320D01*
X35500D01*
X35110Y192242D01*
X34779Y192021D01*
X31379Y188621D01*
X31158Y188290D01*
X31080Y187900D01*
Y168400D01*
X31158Y168010D01*
X31379Y167679D01*
X32679Y166379D01*
X33010Y166158D01*
X33400Y166080D01*
X35045D01*
X35509Y165616D01*
X36152Y165350D01*
X36848D01*
X37491Y165616D01*
X37984Y166109D01*
X38250Y166752D01*
Y167448D01*
X37984Y168091D01*
X37491Y168584D01*
X36848Y168850D01*
X36152D01*
X35509Y168584D01*
X35045Y168120D01*
X33822D01*
X33120Y168822D01*
Y170545D01*
X33620Y170752D01*
X33967Y170405D01*
X34702Y170100D01*
X35498D01*
X36233Y170405D01*
X36795Y170967D01*
X37100Y171702D01*
Y172498D01*
X36795Y173233D01*
X36233Y173795D01*
X35498Y174100D01*
X34702D01*
X33967Y173795D01*
X33620Y173448D01*
X33120Y173655D01*
Y177645D01*
X33620Y177852D01*
X33967Y177505D01*
X34702Y177200D01*
X35498D01*
X36233Y177505D01*
X36795Y178067D01*
X37100Y178802D01*
Y179598D01*
X36795Y180333D01*
X36233Y180895D01*
X35498Y181200D01*
X34702D01*
X33967Y180895D01*
X33620Y180548D01*
X33120Y180755D01*
Y184545D01*
X33620Y184752D01*
X33967Y184405D01*
X34702Y184100D01*
X35498D01*
X36233Y184405D01*
X36795Y184967D01*
X37100Y185702D01*
Y186498D01*
X36795Y187233D01*
X36233Y187795D01*
X35498Y188100D01*
X34702D01*
X34270Y187921D01*
X33987Y188345D01*
X35922Y190280D01*
X39645D01*
X40109Y189816D01*
X40752Y189550D01*
X41448D01*
X42091Y189816D01*
X42584Y190309D01*
X42850Y190952D01*
Y191648D01*
X42584Y192291D01*
X42091Y192784D01*
X41448Y193050D01*
D02*
G37*
G36*
X69248Y197850D02*
X68552D01*
X67909Y197584D01*
X67416Y197091D01*
X67150Y196448D01*
Y195752D01*
X67416Y195109D01*
X67880Y194645D01*
Y162966D01*
X64813Y159898D01*
X62655D01*
X62191Y160362D01*
X61548Y160629D01*
X60852D01*
X60209Y160362D01*
X59716Y159870D01*
X59450Y159227D01*
Y158531D01*
X59716Y157887D01*
X60209Y157395D01*
X60852Y157129D01*
X61548D01*
X62191Y157395D01*
X62655Y157859D01*
X65235D01*
X65626Y157937D01*
X65956Y158158D01*
X69621Y161822D01*
X69842Y162153D01*
X69920Y162543D01*
Y194645D01*
X70384Y195109D01*
X70650Y195752D01*
Y196448D01*
X70384Y197091D01*
X69891Y197584D01*
X69248Y197850D01*
D02*
G37*
G36*
X135328Y153469D02*
X134938Y153392D01*
X134607Y153171D01*
X134386Y152840D01*
X134309Y152450D01*
Y151119D01*
X134351Y150907D01*
X134386Y150729D01*
X134386Y150729D01*
X134386Y150729D01*
X134497Y150563D01*
X134607Y150398D01*
X135493Y149512D01*
X135493Y149512D01*
X135493Y149512D01*
X135669Y149395D01*
X135824Y149291D01*
X135824Y149291D01*
X135824Y149291D01*
X136035Y149249D01*
X136214Y149213D01*
X136214Y149213D01*
X136214Y149213D01*
X155233D01*
X155623Y149291D01*
X155954Y149512D01*
X156175Y149843D01*
X156253Y150233D01*
X156175Y150623D01*
X155954Y150954D01*
X155623Y151175D01*
X155233Y151253D01*
X136637D01*
X136348Y151541D01*
Y152450D01*
X136270Y152840D01*
X136049Y153171D01*
X135719Y153392D01*
X135328Y153469D01*
D02*
G37*
G36*
X41798Y163600D02*
X41002D01*
X40267Y163295D01*
X39704Y162733D01*
X39400Y161998D01*
Y161202D01*
X39704Y160467D01*
X40267Y159905D01*
X40380Y159857D01*
Y133700D01*
X40458Y133310D01*
X40679Y132979D01*
X44579Y129079D01*
X44910Y128858D01*
X45300Y128780D01*
X148658D01*
X148705Y128667D01*
X149267Y128104D01*
X150002Y127800D01*
X150798D01*
X151533Y128104D01*
X152095Y128667D01*
X152400Y129402D01*
Y130198D01*
X152095Y130933D01*
X151533Y131495D01*
X150798Y131800D01*
X150002D01*
X149267Y131495D01*
X148705Y130933D01*
X148658Y130820D01*
X45722D01*
X42420Y134122D01*
Y159857D01*
X42533Y159905D01*
X43095Y160467D01*
X43400Y161202D01*
Y161998D01*
X43095Y162733D01*
X42533Y163295D01*
X41798Y163600D01*
D02*
G37*
%LPD*%
D11*
X103000Y333256D02*
X103256Y333000D01*
X106000D01*
X108650Y312300D02*
Y330350D01*
X106000Y333000D02*
X108650Y330350D01*
X41200Y282231D02*
Y287500D01*
X49000Y323000D02*
X59456Y333456D01*
X82800D01*
X49000Y295300D02*
Y323000D01*
X87600Y344000D02*
X87700Y343900D01*
Y313500D02*
Y343900D01*
X41237Y282268D02*
Y283019D01*
X41200Y282231D02*
X41237Y282268D01*
X133400Y311900D02*
X138900Y306400D01*
X103800Y245000D02*
X108547D01*
X138900Y267600D02*
Y306400D01*
X109050Y311900D02*
X133400D01*
X108650Y312300D02*
X109050Y311900D01*
X41200Y287500D02*
X49000Y295300D01*
X87700Y313500D02*
X91100Y310100D01*
X113200D01*
X117500Y305800D01*
Y285100D02*
Y305800D01*
X105700Y285100D02*
X117500D01*
X104400Y283800D02*
X105700Y285100D01*
X104400Y283800D02*
X104500Y283700D01*
Y259500D02*
Y283700D01*
X103800Y250900D02*
X108447D01*
X108547Y251000D01*
X114453Y245000D02*
X114553Y244900D01*
X120300D01*
X33400Y167100D02*
X36500D01*
X32100Y187900D02*
X35500Y191300D01*
X41100D01*
X32100Y168400D02*
Y187900D01*
Y168400D02*
X33400Y167100D01*
X45300Y129800D02*
X150400D01*
X41400Y133700D02*
X45300Y129800D01*
X41400Y133700D02*
Y161600D01*
X68900Y162543D02*
Y196100D01*
X65235Y158879D02*
X68900Y162543D01*
X61200Y158879D02*
X65235D01*
X135328Y151119D02*
X136214Y150233D01*
X135328Y151119D02*
Y152450D01*
X136214Y150233D02*
X155233D01*
X184100Y356000D02*
G03*
X183600Y356500I-500J0D01*
G01*
X184100Y356000D02*
G03*
X183600Y356500I-500J0D01*
G01*
Y67500D02*
G03*
X184100Y68000I0J500D01*
G01*
X183600Y67500D02*
G03*
X184100Y68000I0J500D01*
G01*
X28500Y356500D02*
G03*
X28000Y356000I0J-500D01*
G01*
X28500Y356500D02*
G03*
X28000Y356000I0J-500D01*
G01*
Y68000D02*
G03*
X28500Y67500I500J0D01*
G01*
X28000Y68000D02*
G03*
X28500Y67500I500J0D01*
G01*
X184100Y68000D02*
Y356000D01*
X28500Y356500D02*
X183600D01*
X28500Y67500D02*
X183600D01*
X28000Y68000D02*
Y356000D01*
D16*
X176300Y313900D02*
X180311Y309889D01*
Y241311D02*
Y309889D01*
X156300Y217300D02*
X180311Y241311D01*
X172900Y309600D02*
X174454Y308046D01*
Y246054D02*
Y308046D01*
X147900Y219500D02*
X174454Y246054D01*
X144600Y222000D02*
X168100Y245500D01*
X128500Y222000D02*
X144600D01*
X125700Y224800D02*
X128500Y222000D01*
X151500Y311500D02*
Y313500D01*
Y311500D02*
X155600Y307400D01*
X163600D01*
X168100Y302900D01*
Y245500D02*
Y302900D01*
X164600Y309600D02*
X172900D01*
X161200Y313000D02*
Y313700D01*
Y313000D02*
X164600Y309600D01*
X171500Y313900D02*
X176300D01*
X126000Y219500D02*
X147900D01*
X120700Y224800D02*
X126000Y219500D01*
X123300Y217300D02*
X156300D01*
X115800Y224800D02*
X123300Y217300D01*
X137900Y312500D02*
X142050D01*
X145050Y309500D01*
D21*
X114453Y245000D02*
D03*
X108547D02*
D03*
Y251000D02*
D03*
X114453D02*
D03*
D67*
X151500Y313500D02*
D03*
X161200Y313700D02*
D03*
X171500Y313900D02*
D03*
X125700Y224800D02*
D03*
X120700D02*
D03*
X115800D02*
D03*
X164100Y184500D02*
D03*
Y154300D02*
D03*
Y168700D02*
D03*
Y198200D02*
D03*
X31400Y202000D02*
D03*
X120300Y244900D02*
D03*
X51400Y202000D02*
D03*
X45100D02*
D03*
X39100D02*
D03*
X132097Y136990D02*
D03*
Y157200D02*
D03*
X132400Y112356D02*
D03*
X141774D02*
D03*
X150000D02*
D03*
X121600D02*
D03*
X150000Y122800D02*
D03*
X58100Y202000D02*
D03*
X31400Y195000D02*
D03*
X51400Y197100D02*
D03*
X132097Y147400D02*
D03*
X121600Y90056D02*
D03*
X150000Y79056D02*
D03*
X141774D02*
D03*
X132400D02*
D03*
X121600D02*
D03*
X150000Y90056D02*
D03*
X141774D02*
D03*
X132400D02*
D03*
X150000Y101156D02*
D03*
X141774D02*
D03*
X132400D02*
D03*
X121600D02*
D03*
X141774Y122800D02*
D03*
X132400D02*
D03*
X121600D02*
D03*
X103974Y125300D02*
D03*
X94374D02*
D03*
X83474D02*
D03*
X73574D02*
D03*
X65700D02*
D03*
X63066Y106952D02*
D03*
X55974Y107156D02*
D03*
X120800Y137156D02*
D03*
X112274D02*
D03*
X103974D02*
D03*
X120800Y147400D02*
D03*
X112274D02*
D03*
X120800Y157400D02*
D03*
X112274D02*
D03*
X94374Y137156D02*
D03*
X83474D02*
D03*
X73574D02*
D03*
X65700D02*
D03*
X73574Y144856D02*
D03*
X65700Y145056D02*
D03*
X73274Y151956D02*
D03*
X65700Y151856D02*
D03*
X65500Y163200D02*
D03*
X32000Y133386D02*
D03*
X45400Y141800D02*
D03*
Y150700D02*
D03*
Y157700D02*
D03*
X32000Y142098D02*
D03*
Y152200D02*
D03*
Y160900D02*
D03*
X35100Y172100D02*
D03*
Y179200D02*
D03*
Y186100D02*
D03*
X58100Y197200D02*
D03*
X41400Y161600D02*
D03*
X150400Y129800D02*
D03*
D73*
X40900Y229000D02*
D03*
D74*
Y259000D02*
D03*
D75*
X98200Y107417D02*
D03*
Y89700D02*
D03*
D76*
X103000Y333256D02*
D03*
X82800Y333456D02*
D03*
X87600Y344000D02*
D03*
X41237Y283019D02*
D03*
X103800Y245000D02*
D03*
X138900Y267600D02*
D03*
X104500Y259500D02*
D03*
X103800Y250900D02*
D03*
D77*
X94100Y301400D02*
D03*
X85600D02*
D03*
X94000Y306600D02*
D03*
X98900Y223000D02*
D03*
X85400Y306600D02*
D03*
X92400Y219200D02*
D03*
X99690D02*
D03*
X55300D02*
D03*
X38600D02*
D03*
X46490D02*
D03*
X62900D02*
D03*
X73000D02*
D03*
X81400D02*
D03*
X62700Y226631D02*
D03*
X72290D02*
D03*
X55100D02*
D03*
X62700Y240900D02*
D03*
X55100Y240800D02*
D03*
X62700Y248300D02*
D03*
X55100Y248200D02*
D03*
X62700Y233900D02*
D03*
X55100Y234000D02*
D03*
X98456Y235296D02*
D03*
X141090Y231031D02*
D03*
X137900Y312500D02*
D03*
X145050Y309500D02*
D03*
X154100Y209800D02*
D03*
X136500D02*
D03*
X117300D02*
D03*
X97600D02*
D03*
X74200D02*
D03*
X53800D02*
D03*
X37500D02*
D03*
X36500Y167100D02*
D03*
X41100Y191300D02*
D03*
X61200Y158879D02*
D03*
X68900Y196100D02*
D03*
D78*
X155233Y150233D02*
D03*
M02*
