G04*
G04 #@! TF.GenerationSoftware,Altium Limited,CircuitMaker,2.2.1 (2.2.1.6)*
G04*
G04 Layer_Color=7318015*
%FSLAX25Y25*%
%MOIN*%
G70*
G04*
G04 #@! TF.SameCoordinates,3F80FBB2-A1F2-450A-AE04-FF917F864492*
G04*
G04*
G04 #@! TF.FilePolarity,Positive*
G04*
G01*
G75*
%ADD11C,0.01000*%
%ADD20R,0.05000X0.14488*%
%ADD21R,0.04134X0.03937*%
%ADD22R,0.03937X0.04134*%
%ADD23R,0.05905X0.07874*%
%ADD24R,0.05512X0.07087*%
%ADD25R,0.00866X0.06693*%
%ADD26R,0.06693X0.00866*%
%ADD27R,0.03543X0.02756*%
%ADD28R,0.04331X0.07480*%
%ADD29R,0.09842X0.07874*%
%ADD30R,0.12437X0.10799*%
G04:AMPARAMS|DCode=31|XSize=26.38mil|YSize=11.81mil|CornerRadius=2.95mil|HoleSize=0mil|Usage=FLASHONLY|Rotation=90.000|XOffset=0mil|YOffset=0mil|HoleType=Round|Shape=RoundedRectangle|*
%AMROUNDEDRECTD31*
21,1,0.02638,0.00591,0,0,90.0*
21,1,0.02047,0.01181,0,0,90.0*
1,1,0.00591,0.00295,0.01024*
1,1,0.00591,0.00295,-0.01024*
1,1,0.00591,-0.00295,-0.01024*
1,1,0.00591,-0.00295,0.01024*
%
%ADD31ROUNDEDRECTD31*%
%ADD32R,0.07000X0.07087*%
%ADD33R,0.04331X0.04134*%
%ADD34R,0.12500X0.10000*%
G04:AMPARAMS|DCode=35|XSize=39.37mil|YSize=39.37mil|CornerRadius=5.91mil|HoleSize=0mil|Usage=FLASHONLY|Rotation=90.000|XOffset=0mil|YOffset=0mil|HoleType=Round|Shape=RoundedRectangle|*
%AMROUNDEDRECTD35*
21,1,0.03937,0.02756,0,0,90.0*
21,1,0.02756,0.03937,0,0,90.0*
1,1,0.01181,0.01378,0.01378*
1,1,0.01181,0.01378,-0.01378*
1,1,0.01181,-0.01378,-0.01378*
1,1,0.01181,-0.01378,0.01378*
%
%ADD35ROUNDEDRECTD35*%
%ADD36R,0.03347X0.05315*%
%ADD37R,0.02756X0.03543*%
%ADD38R,0.03543X0.03347*%
%ADD39R,0.15748X0.22047*%
%ADD40R,0.05984X0.06614*%
%ADD41R,0.12402X0.07008*%
D11*
X184100Y356000D02*
G03*
X183600Y356500I-500J0D01*
G01*
X184100Y356000D02*
G03*
X183600Y356500I-500J0D01*
G01*
Y67500D02*
G03*
X184100Y68000I0J500D01*
G01*
X183600Y67500D02*
G03*
X184100Y68000I0J500D01*
G01*
X28500Y356500D02*
G03*
X28000Y356000I0J-500D01*
G01*
X28500Y356500D02*
G03*
X28000Y356000I0J-500D01*
G01*
Y68000D02*
G03*
X28500Y67500I500J0D01*
G01*
X28000Y68000D02*
G03*
X28500Y67500I500J0D01*
G01*
X184100Y68000D02*
Y356000D01*
X28500Y356500D02*
X183600D01*
X28500Y67500D02*
X183600D01*
X28000Y68000D02*
Y356000D01*
D20*
X161000Y345744D02*
D03*
X151000D02*
D03*
X141000D02*
D03*
X131000D02*
D03*
X171000D02*
D03*
Y326256D02*
D03*
X161000D02*
D03*
X151000D02*
D03*
X141000D02*
D03*
X131000D02*
D03*
X93000Y343000D02*
D03*
X83000D02*
D03*
X73000D02*
D03*
X63000D02*
D03*
X103000D02*
D03*
Y323512D02*
D03*
X93000D02*
D03*
X83000D02*
D03*
X73000D02*
D03*
X63000D02*
D03*
D21*
X72698Y274800D02*
D03*
X78604D02*
D03*
X77047Y241000D02*
D03*
X82953D02*
D03*
X64153Y143410D02*
D03*
Y149410D02*
D03*
X135328Y158450D02*
D03*
Y152450D02*
D03*
X141234D02*
D03*
Y158450D02*
D03*
X58247Y143410D02*
D03*
Y149410D02*
D03*
D22*
X106642Y294189D02*
D03*
Y288283D02*
D03*
X100700Y294160D02*
D03*
Y288254D02*
D03*
X110643Y225735D02*
D03*
Y219830D02*
D03*
X54000Y282953D02*
D03*
Y277047D02*
D03*
X90500Y251153D02*
D03*
Y245247D02*
D03*
X78700Y294153D02*
D03*
Y288247D02*
D03*
X136211Y225735D02*
D03*
Y219830D02*
D03*
X152100Y271500D02*
D03*
Y277406D02*
D03*
X71400Y173353D02*
D03*
Y167447D02*
D03*
D23*
X41300Y276058D02*
D03*
Y308342D02*
D03*
D24*
X73157Y249239D02*
D03*
X82606Y266561D02*
D03*
X73157D02*
D03*
X82606Y249239D02*
D03*
D25*
X136178Y279934D02*
D03*
X114524D02*
D03*
X132213Y233466D02*
D03*
X130245D02*
D03*
X134209Y279934D02*
D03*
X106650D02*
D03*
X108619D02*
D03*
X110587D02*
D03*
X112556D02*
D03*
X116493D02*
D03*
X118461D02*
D03*
X120430D02*
D03*
X122398D02*
D03*
X124367D02*
D03*
X126335D02*
D03*
X128304D02*
D03*
X130272D02*
D03*
X132241D02*
D03*
X136150Y233466D02*
D03*
X134182D02*
D03*
X128276D02*
D03*
X126308D02*
D03*
X124339D02*
D03*
X122371D02*
D03*
X120402D02*
D03*
X118434D02*
D03*
X116465D02*
D03*
X114497D02*
D03*
X112528D02*
D03*
X110560D02*
D03*
X108591D02*
D03*
X106623D02*
D03*
D26*
X98166Y271450D02*
D03*
Y269482D02*
D03*
Y257671D02*
D03*
Y251765D02*
D03*
Y255702D02*
D03*
X144634Y271450D02*
D03*
Y269482D02*
D03*
Y267513D02*
D03*
Y265545D02*
D03*
Y263576D02*
D03*
Y261608D02*
D03*
Y259639D02*
D03*
Y257671D02*
D03*
Y255702D02*
D03*
Y253734D02*
D03*
Y251765D02*
D03*
Y249797D02*
D03*
Y247828D02*
D03*
Y245860D02*
D03*
Y243891D02*
D03*
Y241923D02*
D03*
X98166D02*
D03*
Y243891D02*
D03*
Y245860D02*
D03*
Y247828D02*
D03*
Y249797D02*
D03*
Y253734D02*
D03*
Y259639D02*
D03*
Y261608D02*
D03*
Y263576D02*
D03*
Y265545D02*
D03*
Y267513D02*
D03*
D27*
X51200Y253188D02*
D03*
Y258700D02*
D03*
X112300Y293156D02*
D03*
Y287644D02*
D03*
X51300Y186056D02*
D03*
X70744Y185856D02*
D03*
X41100Y186056D02*
D03*
X65244Y185856D02*
D03*
X70744Y180344D02*
D03*
X65244Y180344D02*
D03*
X51300Y180544D02*
D03*
X41100Y180544D02*
D03*
D28*
X84779Y289900D02*
D03*
X94621D02*
D03*
D29*
X121417Y114515D02*
D03*
Y90015D02*
D03*
X74917Y114515D02*
D03*
Y90015D02*
D03*
D30*
X58369Y105400D02*
D03*
X37031D02*
D03*
D31*
X62213Y164187D02*
D03*
X58316D02*
D03*
X56347Y170013D02*
D03*
Y164187D02*
D03*
X60284Y170013D02*
D03*
X62213D02*
D03*
X60284Y164187D02*
D03*
X58316Y170013D02*
D03*
D32*
X67200Y156910D02*
D03*
X132281Y135950D02*
D03*
Y144950D02*
D03*
X144281Y135950D02*
D03*
Y144950D02*
D03*
X55200Y156910D02*
D03*
D33*
X58200Y186056D02*
D03*
Y180544D02*
D03*
D34*
X87900Y139200D02*
D03*
Y167200D02*
D03*
D35*
X154275Y122618D02*
D03*
X161181D02*
D03*
D36*
X155233Y143118D02*
D03*
Y136418D02*
D03*
X161729Y143118D02*
D03*
Y136418D02*
D03*
D37*
X41288Y167100D02*
D03*
X155525Y128918D02*
D03*
X161037D02*
D03*
X46756Y172700D02*
D03*
X46800Y167100D02*
D03*
X41244Y172700D02*
D03*
D38*
X46200Y185759D02*
D03*
Y180641D02*
D03*
D39*
X111192Y186200D02*
D03*
X85208D02*
D03*
D40*
X51293Y119900D02*
D03*
X37907D02*
D03*
D41*
X41600Y76109D02*
D03*
Y89691D02*
D03*
M02*
