G04*
G04 #@! TF.GenerationSoftware,Altium Limited,CircuitMaker,2.2.1 (2.2.1.6)*
G04*
G04 Layer_Color=128*
%FSLAX25Y25*%
%MOIN*%
G70*
G04*
G04 #@! TF.SameCoordinates,3F80FBB2-A1F2-450A-AE04-FF917F864492*
G04*
G04*
G04 #@! TF.FilePolarity,Positive*
G04*
G01*
G75*
%ADD11C,0.01000*%
%ADD79C,0.00200*%
D11*
X184100Y356000D02*
G03*
X183600Y356500I-500J0D01*
G01*
X184100Y356000D02*
G03*
X183600Y356500I-500J0D01*
G01*
Y67500D02*
G03*
X184100Y68000I0J500D01*
G01*
X183600Y67500D02*
G03*
X184100Y68000I0J500D01*
G01*
X28500Y356500D02*
G03*
X28000Y356000I0J-500D01*
G01*
X28500Y356500D02*
G03*
X28000Y356000I0J-500D01*
G01*
Y68000D02*
G03*
X28500Y67500I500J0D01*
G01*
X28000Y68000D02*
G03*
X28500Y67500I500J0D01*
G01*
X184100Y68000D02*
Y356000D01*
X28500Y356500D02*
X183600D01*
X28500Y67500D02*
X183600D01*
X28000Y68000D02*
Y356000D01*
D79*
X39325Y229000D02*
X42475D01*
X40900Y227425D02*
Y230575D01*
X39325Y259000D02*
X42475D01*
X40900Y257425D02*
Y260575D01*
X94263Y107417D02*
X102137D01*
X98200Y103480D02*
Y111354D01*
X94263Y89700D02*
X102137D01*
X98200Y85763D02*
Y93637D01*
X102250Y333256D02*
X103750D01*
X103000Y332506D02*
Y334006D01*
X82050Y333456D02*
X83550D01*
X82800Y332706D02*
Y334206D01*
X86850Y344000D02*
X88350D01*
X87600Y343250D02*
Y344750D01*
X40487Y283019D02*
X41987D01*
X41237Y282269D02*
Y283769D01*
X93400Y301400D02*
X94800D01*
X94100Y300700D02*
Y302100D01*
X84900Y301400D02*
X86300D01*
X85600Y300700D02*
Y302100D01*
X93300Y306600D02*
X94700D01*
X94000Y305900D02*
Y307300D01*
X98200Y223000D02*
X99600D01*
X98900Y222300D02*
Y223700D01*
X84700Y306600D02*
X86100D01*
X85400Y305900D02*
Y307300D01*
X91700Y219200D02*
X93100D01*
X92400Y218500D02*
Y219900D01*
X98990Y219200D02*
X100390D01*
X99690Y218500D02*
Y219900D01*
X54600Y219200D02*
X56000D01*
X55300Y218500D02*
Y219900D01*
X37900Y219200D02*
X39300D01*
X38600Y218500D02*
Y219900D01*
X45790Y219200D02*
X47190D01*
X46490Y218500D02*
Y219900D01*
X62200Y219200D02*
X63600D01*
X62900Y218500D02*
Y219900D01*
X72300Y219200D02*
X73700D01*
X73000Y218500D02*
Y219900D01*
X80700Y219200D02*
X82100D01*
X81400Y218500D02*
Y219900D01*
X62000Y226631D02*
X63400D01*
X62700Y225931D02*
Y227331D01*
X71590Y226631D02*
X72990D01*
X72290Y225931D02*
Y227331D01*
X54400Y226631D02*
X55800D01*
X55100Y225931D02*
Y227331D01*
X62000Y240900D02*
X63400D01*
X62700Y240200D02*
Y241600D01*
X54400Y240800D02*
X55800D01*
X55100Y240100D02*
Y241500D01*
X62000Y248300D02*
X63400D01*
X62700Y247600D02*
Y249000D01*
X54400Y248200D02*
X55800D01*
X55100Y247500D02*
Y248900D01*
X62000Y233900D02*
X63400D01*
X62700Y233200D02*
Y234600D01*
X54400Y234000D02*
X55800D01*
X55100Y233300D02*
Y234700D01*
X97756Y235296D02*
X99156D01*
X98456Y234596D02*
Y235996D01*
X140390Y231031D02*
X141790D01*
X141090Y230331D02*
Y231731D01*
X150800Y313500D02*
X152200D01*
X151500Y312800D02*
Y314200D01*
X160500Y313700D02*
X161900D01*
X161200Y313000D02*
Y314400D01*
X170800Y313900D02*
X172200D01*
X171500Y313200D02*
Y314600D01*
X125000Y224800D02*
X126400D01*
X125700Y224100D02*
Y225500D01*
X120000Y224800D02*
X121400D01*
X120700Y224100D02*
Y225500D01*
X115100Y224800D02*
X116500D01*
X115800Y224100D02*
Y225500D01*
X137200Y312500D02*
X138600D01*
X137900Y311800D02*
Y313200D01*
X144350Y309500D02*
X145750D01*
X145050Y308800D02*
Y310200D01*
X103050Y245000D02*
X104550D01*
X103800Y244250D02*
Y245750D01*
X163400Y184500D02*
X164800D01*
X164100Y183800D02*
Y185200D01*
X163400Y154300D02*
X164800D01*
X164100Y153600D02*
Y155000D01*
X163400Y168700D02*
X164800D01*
X164100Y168000D02*
Y169400D01*
X163400Y198200D02*
X164800D01*
X164100Y197500D02*
Y198900D01*
X153400Y209800D02*
X154800D01*
X154100Y209100D02*
Y210500D01*
X135800Y209800D02*
X137200D01*
X136500Y209100D02*
Y210500D01*
X116600Y209800D02*
X118000D01*
X117300Y209100D02*
Y210500D01*
X96900Y209800D02*
X98300D01*
X97600Y209100D02*
Y210500D01*
X73500Y209800D02*
X74900D01*
X74200Y209100D02*
Y210500D01*
X53100Y209800D02*
X54500D01*
X53800Y209100D02*
Y210500D01*
X36800Y209800D02*
X38200D01*
X37500Y209100D02*
Y210500D01*
X138150Y267600D02*
X139650D01*
X138900Y266850D02*
Y268350D01*
X103750Y259500D02*
X105250D01*
X104500Y258750D02*
Y260250D01*
X103050Y250900D02*
X104550D01*
X103800Y250150D02*
Y251650D01*
X30700Y202000D02*
X32100D01*
X31400Y201300D02*
Y202700D01*
X119600Y244900D02*
X121000D01*
X120300Y244200D02*
Y245600D01*
X50700Y202000D02*
X52100D01*
X51400Y201300D02*
Y202700D01*
X44400Y202000D02*
X45800D01*
X45100Y201300D02*
Y202700D01*
X38400Y202000D02*
X39800D01*
X39100Y201300D02*
Y202700D01*
X131397Y136990D02*
X132797D01*
X132097Y136290D02*
Y137690D01*
X131397Y157200D02*
X132797D01*
X132097Y156500D02*
Y157900D01*
X131700Y112356D02*
X133100D01*
X132400Y111656D02*
Y113056D01*
X141074Y112356D02*
X142474D01*
X141774Y111656D02*
Y113056D01*
X149300Y112356D02*
X150700D01*
X150000Y111656D02*
Y113056D01*
X120900Y112356D02*
X122300D01*
X121600Y111656D02*
Y113056D01*
X149300Y122800D02*
X150700D01*
X150000Y122100D02*
Y123500D01*
X57400Y202000D02*
X58800D01*
X58100Y201300D02*
Y202700D01*
X30700Y195000D02*
X32100D01*
X31400Y194300D02*
Y195700D01*
X50700Y197100D02*
X52100D01*
X51400Y196400D02*
Y197800D01*
X35250Y167100D02*
X37750D01*
X36500Y165850D02*
Y168350D01*
X131397Y147400D02*
X132797D01*
X132097Y146700D02*
Y148100D01*
X120900Y90056D02*
X122300D01*
X121600Y89356D02*
Y90756D01*
X39850Y191300D02*
X42350D01*
X41100Y190050D02*
Y192550D01*
X149300Y79056D02*
X150700D01*
X150000Y78356D02*
Y79756D01*
X141074Y79056D02*
X142474D01*
X141774Y78356D02*
Y79756D01*
X131700Y79056D02*
X133100D01*
X132400Y78356D02*
Y79756D01*
X120900Y79056D02*
X122300D01*
X121600Y78356D02*
Y79756D01*
X149300Y90056D02*
X150700D01*
X150000Y89356D02*
Y90756D01*
X141074Y90056D02*
X142474D01*
X141774Y89356D02*
Y90756D01*
X131700Y90056D02*
X133100D01*
X132400Y89356D02*
Y90756D01*
X149300Y101156D02*
X150700D01*
X150000Y100456D02*
Y101856D01*
X141074Y101156D02*
X142474D01*
X141774Y100456D02*
Y101856D01*
X131700Y101156D02*
X133100D01*
X132400Y100456D02*
Y101856D01*
X120900Y101156D02*
X122300D01*
X121600Y100456D02*
Y101856D01*
X141074Y122800D02*
X142474D01*
X141774Y122100D02*
Y123500D01*
X131700Y122800D02*
X133100D01*
X132400Y122100D02*
Y123500D01*
X120900Y122800D02*
X122300D01*
X121600Y122100D02*
Y123500D01*
X103274Y125300D02*
X104674D01*
X103974Y124600D02*
Y126000D01*
X93674Y125300D02*
X95074D01*
X94374Y124600D02*
Y126000D01*
X82774Y125300D02*
X84174D01*
X83474Y124600D02*
Y126000D01*
X72874Y125300D02*
X74274D01*
X73574Y124600D02*
Y126000D01*
X65000Y125300D02*
X66400D01*
X65700Y124600D02*
Y126000D01*
X62366Y106952D02*
X63766D01*
X63066Y106252D02*
Y107652D01*
X55274Y107156D02*
X56674D01*
X55974Y106456D02*
Y107856D01*
X120100Y137156D02*
X121500D01*
X120800Y136456D02*
Y137856D01*
X111574Y137156D02*
X112974D01*
X112274Y136456D02*
Y137856D01*
X103274Y137156D02*
X104674D01*
X103974Y136456D02*
Y137856D01*
X120100Y147400D02*
X121500D01*
X120800Y146700D02*
Y148100D01*
X111574Y147400D02*
X112974D01*
X112274Y146700D02*
Y148100D01*
X120100Y157400D02*
X121500D01*
X120800Y156700D02*
Y158100D01*
X111574Y157400D02*
X112974D01*
X112274Y156700D02*
Y158100D01*
X93674Y137156D02*
X95074D01*
X94374Y136456D02*
Y137856D01*
X82774Y137156D02*
X84174D01*
X83474Y136456D02*
Y137856D01*
X72874Y137156D02*
X74274D01*
X73574Y136456D02*
Y137856D01*
X65000Y137156D02*
X66400D01*
X65700Y136456D02*
Y137856D01*
X72874Y144856D02*
X74274D01*
X73574Y144156D02*
Y145556D01*
X65000Y145056D02*
X66400D01*
X65700Y144356D02*
Y145756D01*
X72574Y151956D02*
X73974D01*
X73274Y151256D02*
Y152656D01*
X65000Y151856D02*
X66400D01*
X65700Y151156D02*
Y152556D01*
X64800Y163200D02*
X66200D01*
X65500Y162500D02*
Y163900D01*
X31300Y133386D02*
X32700D01*
X32000Y132686D02*
Y134086D01*
X44700Y141800D02*
X46100D01*
X45400Y141100D02*
Y142500D01*
X44700Y150700D02*
X46100D01*
X45400Y150000D02*
Y151400D01*
X44700Y157700D02*
X46100D01*
X45400Y157000D02*
Y158400D01*
X31300Y142098D02*
X32700D01*
X32000Y141398D02*
Y142798D01*
X31300Y152200D02*
X32700D01*
X32000Y151500D02*
Y152900D01*
X31300Y160900D02*
X32700D01*
X32000Y160200D02*
Y161600D01*
X34400Y172100D02*
X35800D01*
X35100Y171400D02*
Y172800D01*
X34400Y179200D02*
X35800D01*
X35100Y178500D02*
Y179900D01*
X34400Y186100D02*
X35800D01*
X35100Y185400D02*
Y186800D01*
X57400Y197200D02*
X58800D01*
X58100Y196500D02*
Y197900D01*
X39900Y161600D02*
X42900D01*
X41400Y160100D02*
Y163100D01*
X148900Y129800D02*
X151900D01*
X150400Y128300D02*
Y131300D01*
X153833Y150233D02*
X156633D01*
X155233Y148833D02*
Y151633D01*
X59950Y158879D02*
X62450D01*
X61200Y157629D02*
Y160129D01*
X67650Y196100D02*
X70150D01*
X68900Y194850D02*
Y197350D01*
M02*
