G04*
G04 #@! TF.GenerationSoftware,Altium Limited,CircuitMaker,2.2.1 (2.2.1.6)*
G04*
G04 Layer_Color=20142*
%FSLAX25Y25*%
%MOIN*%
G70*
G04*
G04 #@! TF.SameCoordinates,3F80FBB2-A1F2-450A-AE04-FF917F864492*
G04*
G04*
G04 #@! TF.FilePolarity,Negative*
G04*
G01*
G75*
%ADD11C,0.01000*%
%ADD42R,0.05800X0.15288*%
%ADD43R,0.04934X0.04737*%
%ADD44R,0.04737X0.04934*%
%ADD45R,0.06706X0.08674*%
%ADD46R,0.06312X0.07887*%
%ADD47R,0.01666X0.07493*%
%ADD48R,0.07493X0.01666*%
%ADD49R,0.04343X0.03556*%
%ADD50R,0.05131X0.08280*%
%ADD51R,0.10642X0.08674*%
%ADD52R,0.13237X0.11599*%
G04:AMPARAMS|DCode=53|XSize=30.32mil|YSize=15.75mil|CornerRadius=4.92mil|HoleSize=0mil|Usage=FLASHONLY|Rotation=90.000|XOffset=0mil|YOffset=0mil|HoleType=Round|Shape=RoundedRectangle|*
%AMROUNDEDRECTD53*
21,1,0.03032,0.00591,0,0,90.0*
21,1,0.02047,0.01575,0,0,90.0*
1,1,0.00984,0.00295,0.01024*
1,1,0.00984,0.00295,-0.01024*
1,1,0.00984,-0.00295,-0.01024*
1,1,0.00984,-0.00295,0.01024*
%
%ADD53ROUNDEDRECTD53*%
%ADD54R,0.07800X0.07887*%
%ADD55R,0.05131X0.04934*%
%ADD56R,0.13300X0.10800*%
G04:AMPARAMS|DCode=57|XSize=47.37mil|YSize=47.37mil|CornerRadius=9.9mil|HoleSize=0mil|Usage=FLASHONLY|Rotation=90.000|XOffset=0mil|YOffset=0mil|HoleType=Round|Shape=RoundedRectangle|*
%AMROUNDEDRECTD57*
21,1,0.04737,0.02756,0,0,90.0*
21,1,0.02756,0.04737,0,0,90.0*
1,1,0.01981,0.01378,0.01378*
1,1,0.01981,0.01378,-0.01378*
1,1,0.01981,-0.01378,-0.01378*
1,1,0.01981,-0.01378,0.01378*
%
%ADD57ROUNDEDRECTD57*%
%ADD58R,0.04147X0.06115*%
%ADD59R,0.03556X0.04343*%
%ADD60R,0.04343X0.04147*%
%ADD61R,0.16548X0.22847*%
%ADD62R,0.06784X0.07414*%
%ADD63R,0.13202X0.07808*%
%ADD64C,0.05918*%
%ADD65R,0.05918X0.05918*%
%ADD66C,0.09855*%
%ADD67C,0.03000*%
%ADD68C,0.03300*%
%ADD69C,0.03800*%
%ADD70C,0.03600*%
D11*
X184100Y356000D02*
G03*
X183600Y356500I-500J0D01*
G01*
X184100Y356000D02*
G03*
X183600Y356500I-500J0D01*
G01*
Y67500D02*
G03*
X184100Y68000I0J500D01*
G01*
X183600Y67500D02*
G03*
X184100Y68000I0J500D01*
G01*
X28500Y356500D02*
G03*
X28000Y356000I0J-500D01*
G01*
X28500Y356500D02*
G03*
X28000Y356000I0J-500D01*
G01*
Y68000D02*
G03*
X28500Y67500I500J0D01*
G01*
X28000Y68000D02*
G03*
X28500Y67500I500J0D01*
G01*
X184100Y68000D02*
Y356000D01*
X28500Y356500D02*
X183600D01*
X28500Y67500D02*
X183600D01*
X28000Y68000D02*
Y356000D01*
D42*
X161000Y345744D02*
D03*
X151000D02*
D03*
X141000D02*
D03*
X131000D02*
D03*
X171000D02*
D03*
Y326256D02*
D03*
X161000D02*
D03*
X151000D02*
D03*
X141000D02*
D03*
X131000D02*
D03*
X93000Y343000D02*
D03*
X83000D02*
D03*
X73000D02*
D03*
X63000D02*
D03*
X103000D02*
D03*
Y323512D02*
D03*
X93000D02*
D03*
X83000D02*
D03*
X73000D02*
D03*
X63000D02*
D03*
D43*
X72698Y274800D02*
D03*
X78604D02*
D03*
X77047Y241000D02*
D03*
X82953D02*
D03*
X64153Y143410D02*
D03*
Y149410D02*
D03*
X135328Y158450D02*
D03*
Y152450D02*
D03*
X141234D02*
D03*
Y158450D02*
D03*
X58247Y143410D02*
D03*
Y149410D02*
D03*
D44*
X106642Y294189D02*
D03*
Y288283D02*
D03*
X100700Y294160D02*
D03*
Y288254D02*
D03*
X110643Y225735D02*
D03*
Y219830D02*
D03*
X54000Y282953D02*
D03*
Y277047D02*
D03*
X90500Y251153D02*
D03*
Y245247D02*
D03*
X78700Y294153D02*
D03*
Y288247D02*
D03*
X136211Y225735D02*
D03*
Y219830D02*
D03*
X152100Y271500D02*
D03*
Y277406D02*
D03*
X71400Y173353D02*
D03*
Y167447D02*
D03*
D45*
X41300Y276058D02*
D03*
Y308342D02*
D03*
D46*
X73157Y249239D02*
D03*
X82606Y266561D02*
D03*
X73157D02*
D03*
X82606Y249239D02*
D03*
D47*
X136178Y279934D02*
D03*
X114524D02*
D03*
X132213Y233466D02*
D03*
X130245D02*
D03*
X134209Y279934D02*
D03*
X106650D02*
D03*
X108619D02*
D03*
X110587D02*
D03*
X112556D02*
D03*
X116493D02*
D03*
X118461D02*
D03*
X120430D02*
D03*
X122398D02*
D03*
X124367D02*
D03*
X126335D02*
D03*
X128304D02*
D03*
X130272D02*
D03*
X132241D02*
D03*
X136150Y233466D02*
D03*
X134182D02*
D03*
X128276D02*
D03*
X126308D02*
D03*
X124339D02*
D03*
X122371D02*
D03*
X120402D02*
D03*
X118434D02*
D03*
X116465D02*
D03*
X114497D02*
D03*
X112528D02*
D03*
X110560D02*
D03*
X108591D02*
D03*
X106623D02*
D03*
D48*
X98166Y271450D02*
D03*
Y269482D02*
D03*
Y257671D02*
D03*
Y251765D02*
D03*
Y255702D02*
D03*
X144634Y271450D02*
D03*
Y269482D02*
D03*
Y267513D02*
D03*
Y265545D02*
D03*
Y263576D02*
D03*
Y261608D02*
D03*
Y259639D02*
D03*
Y257671D02*
D03*
Y255702D02*
D03*
Y253734D02*
D03*
Y251765D02*
D03*
Y249797D02*
D03*
Y247828D02*
D03*
Y245860D02*
D03*
Y243891D02*
D03*
Y241923D02*
D03*
X98166D02*
D03*
Y243891D02*
D03*
Y245860D02*
D03*
Y247828D02*
D03*
Y249797D02*
D03*
Y253734D02*
D03*
Y259639D02*
D03*
Y261608D02*
D03*
Y263576D02*
D03*
Y265545D02*
D03*
Y267513D02*
D03*
D49*
X51200Y253188D02*
D03*
Y258700D02*
D03*
X112300Y293156D02*
D03*
Y287644D02*
D03*
X51300Y186056D02*
D03*
X70744Y185856D02*
D03*
X41100Y186056D02*
D03*
X65244Y185856D02*
D03*
X70744Y180344D02*
D03*
X65244Y180344D02*
D03*
X51300Y180544D02*
D03*
X41100Y180544D02*
D03*
D50*
X84779Y289900D02*
D03*
X94621D02*
D03*
D51*
X121417Y114515D02*
D03*
Y90015D02*
D03*
X74917Y114515D02*
D03*
Y90015D02*
D03*
D52*
X58369Y105400D02*
D03*
X37031D02*
D03*
D53*
X62213Y164187D02*
D03*
X58316D02*
D03*
X56347Y170013D02*
D03*
Y164187D02*
D03*
X60284Y170013D02*
D03*
X62213D02*
D03*
X60284Y164187D02*
D03*
X58316Y170013D02*
D03*
D54*
X67200Y156910D02*
D03*
X132281Y135950D02*
D03*
Y144950D02*
D03*
X144281Y135950D02*
D03*
Y144950D02*
D03*
X55200Y156910D02*
D03*
D55*
X58200Y186056D02*
D03*
Y180544D02*
D03*
D56*
X87900Y139200D02*
D03*
Y167200D02*
D03*
D57*
X154275Y122618D02*
D03*
X161181D02*
D03*
D58*
X155233Y143118D02*
D03*
Y136418D02*
D03*
X161729Y143118D02*
D03*
Y136418D02*
D03*
D59*
X41288Y167100D02*
D03*
X155525Y128918D02*
D03*
X161037D02*
D03*
X46756Y172700D02*
D03*
X46800Y167100D02*
D03*
X41244Y172700D02*
D03*
D60*
X46200Y185759D02*
D03*
Y180641D02*
D03*
D61*
X111192Y186200D02*
D03*
X85208D02*
D03*
D62*
X51293Y119900D02*
D03*
X37907D02*
D03*
D63*
X41600Y76109D02*
D03*
Y89691D02*
D03*
D64*
X40900Y229000D02*
D03*
D65*
Y259000D02*
D03*
D66*
X98200Y107417D02*
D03*
Y89700D02*
D03*
D67*
X103000Y333256D02*
D03*
X82800Y333456D02*
D03*
X87600Y344000D02*
D03*
X41237Y283019D02*
D03*
X103800Y245000D02*
D03*
X138900Y267600D02*
D03*
X104500Y259500D02*
D03*
X103800Y250900D02*
D03*
D68*
X94100Y301400D02*
D03*
X85600D02*
D03*
X94000Y306600D02*
D03*
X98900Y223000D02*
D03*
X85400Y306600D02*
D03*
X92400Y219200D02*
D03*
X99690D02*
D03*
X55300D02*
D03*
X38600D02*
D03*
X46490D02*
D03*
X62900D02*
D03*
X73000D02*
D03*
X81400D02*
D03*
X62700Y226631D02*
D03*
X72290D02*
D03*
X55100D02*
D03*
X62700Y240900D02*
D03*
X55100Y240800D02*
D03*
X62700Y248300D02*
D03*
X55100Y248200D02*
D03*
X62700Y233900D02*
D03*
X55100Y234000D02*
D03*
X98456Y235296D02*
D03*
X141090Y231031D02*
D03*
X137900Y312500D02*
D03*
X145050Y309500D02*
D03*
X154100Y209800D02*
D03*
X136500D02*
D03*
X117300D02*
D03*
X97600D02*
D03*
X74200D02*
D03*
X53800D02*
D03*
X37500D02*
D03*
X36500Y167100D02*
D03*
X41100Y191300D02*
D03*
X61200Y158879D02*
D03*
X68900Y196100D02*
D03*
D69*
X151500Y313500D02*
D03*
X161200Y313700D02*
D03*
X171500Y313900D02*
D03*
X125700Y224800D02*
D03*
X120700D02*
D03*
X115800D02*
D03*
X164100Y184500D02*
D03*
Y154300D02*
D03*
Y168700D02*
D03*
Y198200D02*
D03*
X31400Y202000D02*
D03*
X120300Y244900D02*
D03*
X51400Y202000D02*
D03*
X45100D02*
D03*
X39100D02*
D03*
X132097Y136990D02*
D03*
Y157200D02*
D03*
X132400Y112356D02*
D03*
X141774D02*
D03*
X150000D02*
D03*
X121600D02*
D03*
X150000Y122800D02*
D03*
X58100Y202000D02*
D03*
X31400Y195000D02*
D03*
X51400Y197100D02*
D03*
X132097Y147400D02*
D03*
X121600Y90056D02*
D03*
X150000Y79056D02*
D03*
X141774D02*
D03*
X132400D02*
D03*
X121600D02*
D03*
X150000Y90056D02*
D03*
X141774D02*
D03*
X132400D02*
D03*
X150000Y101156D02*
D03*
X141774D02*
D03*
X132400D02*
D03*
X121600D02*
D03*
X141774Y122800D02*
D03*
X132400D02*
D03*
X121600D02*
D03*
X103974Y125300D02*
D03*
X94374D02*
D03*
X83474D02*
D03*
X73574D02*
D03*
X65700D02*
D03*
X63066Y106952D02*
D03*
X55974Y107156D02*
D03*
X120800Y137156D02*
D03*
X112274D02*
D03*
X103974D02*
D03*
X120800Y147400D02*
D03*
X112274D02*
D03*
X120800Y157400D02*
D03*
X112274D02*
D03*
X94374Y137156D02*
D03*
X83474D02*
D03*
X73574D02*
D03*
X65700D02*
D03*
X73574Y144856D02*
D03*
X65700Y145056D02*
D03*
X73274Y151956D02*
D03*
X65700Y151856D02*
D03*
X65500Y163200D02*
D03*
X32000Y133386D02*
D03*
X45400Y141800D02*
D03*
Y150700D02*
D03*
Y157700D02*
D03*
X32000Y142098D02*
D03*
Y152200D02*
D03*
Y160900D02*
D03*
X35100Y172100D02*
D03*
Y179200D02*
D03*
Y186100D02*
D03*
X58100Y197200D02*
D03*
X41400Y161600D02*
D03*
X150400Y129800D02*
D03*
D70*
X155233Y150233D02*
D03*
M02*
