G04*
G04 #@! TF.GenerationSoftware,Altium Limited,CircuitMaker,2.2.1 (2.2.1.6)*
G04*
G04 Layer_Color=13813960*
%FSLAX25Y25*%
%MOIN*%
G70*
G04*
G04 #@! TF.SameCoordinates,3F80FBB2-A1F2-450A-AE04-FF917F864492*
G04*
G04*
G04 #@! TF.FilePolarity,Positive*
G04*
G01*
G75*
%ADD11C,0.01000*%
D11*
X126666Y253099D02*
X129332D01*
Y251100D01*
X127999D01*
X129332D01*
Y249101D01*
X125333Y253099D02*
Y249101D01*
X123334D01*
X122667Y249767D01*
Y250434D01*
X123334Y251100D01*
X125333D01*
X123334D01*
X122667Y251766D01*
Y252433D01*
X123334Y253099D01*
X125333D01*
X118668Y249101D02*
X121334D01*
X118668Y251766D01*
Y252433D01*
X119335Y253099D01*
X120668D01*
X121334Y252433D01*
X125399Y246899D02*
X128065D01*
Y244900D01*
X126732D01*
X128065D01*
Y242901D01*
X124066Y246899D02*
Y242901D01*
X122067D01*
X121401Y243567D01*
Y244234D01*
X122067Y244900D01*
X124066D01*
X122067D01*
X121401Y245566D01*
Y246233D01*
X122067Y246899D01*
X124066D01*
X120068Y242901D02*
X118735D01*
X119401D01*
Y246899D01*
X120068Y246233D01*
X184100Y356000D02*
G03*
X183600Y356500I-500J0D01*
G01*
X184100Y356000D02*
G03*
X183600Y356500I-500J0D01*
G01*
Y67500D02*
G03*
X184100Y68000I0J500D01*
G01*
X183600Y67500D02*
G03*
X184100Y68000I0J500D01*
G01*
X28500Y356500D02*
G03*
X28000Y356000I0J-500D01*
G01*
X28500Y356500D02*
G03*
X28000Y356000I0J-500D01*
G01*
Y68000D02*
G03*
X28500Y67500I500J0D01*
G01*
X28000Y68000D02*
G03*
X28500Y67500I500J0D01*
G01*
X184100Y68000D02*
Y356000D01*
X28500Y356500D02*
X183600D01*
X28500Y67500D02*
X183600D01*
X28000Y68000D02*
Y356000D01*
M02*
