G04*
G04 #@! TF.GenerationSoftware,Altium Limited,CircuitMaker,2.2.1 (2.2.1.6)*
G04*
G04 Layer_Color=2752767*
%FSLAX25Y25*%
%MOIN*%
G70*
G04*
G04 #@! TF.SameCoordinates,3F80FBB2-A1F2-450A-AE04-FF917F864492*
G04*
G04*
G04 #@! TF.FilePolarity,Positive*
G04*
G01*
G75*
%ADD11C,0.01000*%
%ADD79C,0.00200*%
%ADD80C,0.00267*%
D11*
X184100Y356000D02*
G03*
X183600Y356500I-500J0D01*
G01*
X184100Y356000D02*
G03*
X183600Y356500I-500J0D01*
G01*
Y67500D02*
G03*
X184100Y68000I0J500D01*
G01*
X183600Y67500D02*
G03*
X184100Y68000I0J500D01*
G01*
X28500Y356500D02*
G03*
X28000Y356000I0J-500D01*
G01*
X28500Y356500D02*
G03*
X28000Y356000I0J-500D01*
G01*
Y68000D02*
G03*
X28500Y67500I500J0D01*
G01*
X28000Y68000D02*
G03*
X28500Y67500I500J0D01*
G01*
X184100Y68000D02*
Y356000D01*
X28500Y356500D02*
X183600D01*
X28500Y67500D02*
X183600D01*
X28000Y68000D02*
Y356000D01*
D79*
X40100Y228200D02*
Y229800D01*
X41700D01*
Y228200D01*
X40100D01*
Y258200D02*
Y259800D01*
X41700D01*
Y258200D01*
X40100D01*
X103000Y332456D02*
X102200Y334056D01*
X103800D01*
X103000Y332456D01*
X82800Y332656D02*
X82000Y334256D01*
X83600D01*
X82800Y332656D01*
X87600Y343200D02*
X86800Y344800D01*
X88400D01*
X87600Y343200D01*
X41237Y282219D02*
X40437Y283819D01*
X42037D01*
X41237Y282219D01*
X94100Y300600D02*
X94500Y301000D01*
X94900D01*
X94500Y301400D01*
X94900Y301800D01*
X94500D01*
X94100Y302200D01*
X93700Y301800D01*
X93300D01*
X93700Y301400D01*
X93300Y301000D01*
X93700D01*
X94100Y300600D01*
X85600D02*
X86000Y301000D01*
X86400D01*
X86000Y301400D01*
X86400Y301800D01*
X86000D01*
X85600Y302200D01*
X85200Y301800D01*
X84800D01*
X85200Y301400D01*
X84800Y301000D01*
X85200D01*
X85600Y300600D01*
X94000Y305800D02*
X94400Y306200D01*
X94800D01*
X94400Y306600D01*
X94800Y307000D01*
X94400D01*
X94000Y307400D01*
X93600Y307000D01*
X93200D01*
X93600Y306600D01*
X93200Y306200D01*
X93600D01*
X94000Y305800D01*
X98900Y222200D02*
X99300Y222600D01*
X99700D01*
X99300Y223000D01*
X99700Y223400D01*
X99300D01*
X98900Y223800D01*
X98500Y223400D01*
X98100D01*
X98500Y223000D01*
X98100Y222600D01*
X98500D01*
X98900Y222200D01*
X85400Y305800D02*
X85800Y306200D01*
X86200D01*
X85800Y306600D01*
X86200Y307000D01*
X85800D01*
X85400Y307400D01*
X85000Y307000D01*
X84600D01*
X85000Y306600D01*
X84600Y306200D01*
X85000D01*
X85400Y305800D01*
X92400Y218400D02*
X92800Y218800D01*
X93200D01*
X92800Y219200D01*
X93200Y219600D01*
X92800D01*
X92400Y220000D01*
X92000Y219600D01*
X91600D01*
X92000Y219200D01*
X91600Y218800D01*
X92000D01*
X92400Y218400D01*
X99690D02*
X100090Y218800D01*
X100490D01*
X100090Y219200D01*
X100490Y219600D01*
X100090D01*
X99690Y220000D01*
X99290Y219600D01*
X98890D01*
X99290Y219200D01*
X98890Y218800D01*
X99290D01*
X99690Y218400D01*
X55300D02*
X55700Y218800D01*
X56100D01*
X55700Y219200D01*
X56100Y219600D01*
X55700D01*
X55300Y220000D01*
X54900Y219600D01*
X54500D01*
X54900Y219200D01*
X54500Y218800D01*
X54900D01*
X55300Y218400D01*
X38600D02*
X39000Y218800D01*
X39400D01*
X39000Y219200D01*
X39400Y219600D01*
X39000D01*
X38600Y220000D01*
X38200Y219600D01*
X37800D01*
X38200Y219200D01*
X37800Y218800D01*
X38200D01*
X38600Y218400D01*
X46490D02*
X46890Y218800D01*
X47290D01*
X46890Y219200D01*
X47290Y219600D01*
X46890D01*
X46490Y220000D01*
X46090Y219600D01*
X45690D01*
X46090Y219200D01*
X45690Y218800D01*
X46090D01*
X46490Y218400D01*
X62900D02*
X63300Y218800D01*
X63700D01*
X63300Y219200D01*
X63700Y219600D01*
X63300D01*
X62900Y220000D01*
X62500Y219600D01*
X62100D01*
X62500Y219200D01*
X62100Y218800D01*
X62500D01*
X62900Y218400D01*
X73000D02*
X73400Y218800D01*
X73800D01*
X73400Y219200D01*
X73800Y219600D01*
X73400D01*
X73000Y220000D01*
X72600Y219600D01*
X72200D01*
X72600Y219200D01*
X72200Y218800D01*
X72600D01*
X73000Y218400D01*
X81400D02*
X81800Y218800D01*
X82200D01*
X81800Y219200D01*
X82200Y219600D01*
X81800D01*
X81400Y220000D01*
X81000Y219600D01*
X80600D01*
X81000Y219200D01*
X80600Y218800D01*
X81000D01*
X81400Y218400D01*
X62700Y225831D02*
X63100Y226231D01*
X63500D01*
X63100Y226631D01*
X63500Y227031D01*
X63100D01*
X62700Y227431D01*
X62300Y227031D01*
X61900D01*
X62300Y226631D01*
X61900Y226231D01*
X62300D01*
X62700Y225831D01*
X72290D02*
X72690Y226231D01*
X73090D01*
X72690Y226631D01*
X73090Y227031D01*
X72690D01*
X72290Y227431D01*
X71890Y227031D01*
X71490D01*
X71890Y226631D01*
X71490Y226231D01*
X71890D01*
X72290Y225831D01*
X55100D02*
X55500Y226231D01*
X55900D01*
X55500Y226631D01*
X55900Y227031D01*
X55500D01*
X55100Y227431D01*
X54700Y227031D01*
X54300D01*
X54700Y226631D01*
X54300Y226231D01*
X54700D01*
X55100Y225831D01*
X62700Y240100D02*
X63100Y240500D01*
X63500D01*
X63100Y240900D01*
X63500Y241300D01*
X63100D01*
X62700Y241700D01*
X62300Y241300D01*
X61900D01*
X62300Y240900D01*
X61900Y240500D01*
X62300D01*
X62700Y240100D01*
X55100Y240000D02*
X55500Y240400D01*
X55900D01*
X55500Y240800D01*
X55900Y241200D01*
X55500D01*
X55100Y241600D01*
X54700Y241200D01*
X54300D01*
X54700Y240800D01*
X54300Y240400D01*
X54700D01*
X55100Y240000D01*
X62700Y247500D02*
X63100Y247900D01*
X63500D01*
X63100Y248300D01*
X63500Y248700D01*
X63100D01*
X62700Y249100D01*
X62300Y248700D01*
X61900D01*
X62300Y248300D01*
X61900Y247900D01*
X62300D01*
X62700Y247500D01*
X55100Y247400D02*
X55500Y247800D01*
X55900D01*
X55500Y248200D01*
X55900Y248600D01*
X55500D01*
X55100Y249000D01*
X54700Y248600D01*
X54300D01*
X54700Y248200D01*
X54300Y247800D01*
X54700D01*
X55100Y247400D01*
X62700Y233100D02*
X63100Y233500D01*
X63500D01*
X63100Y233900D01*
X63500Y234300D01*
X63100D01*
X62700Y234700D01*
X62300Y234300D01*
X61900D01*
X62300Y233900D01*
X61900Y233500D01*
X62300D01*
X62700Y233100D01*
X55100Y233200D02*
X55500Y233600D01*
X55900D01*
X55500Y234000D01*
X55900Y234400D01*
X55500D01*
X55100Y234800D01*
X54700Y234400D01*
X54300D01*
X54700Y234000D01*
X54300Y233600D01*
X54700D01*
X55100Y233200D01*
X98456Y234496D02*
X98856Y234896D01*
X99256D01*
X98856Y235296D01*
X99256Y235696D01*
X98856D01*
X98456Y236096D01*
X98056Y235696D01*
X97656D01*
X98056Y235296D01*
X97656Y234896D01*
X98056D01*
X98456Y234496D01*
X141090Y230231D02*
X141490Y230631D01*
X141890D01*
X141490Y231031D01*
X141890Y231431D01*
X141490D01*
X141090Y231831D01*
X140690Y231431D01*
X140290D01*
X140690Y231031D01*
X140290Y230631D01*
X140690D01*
X141090Y230231D01*
X151500Y312700D02*
X151900Y313100D01*
X152300D01*
X151900Y313500D01*
X152300Y313900D01*
X151900D01*
X151500Y314300D01*
X151100Y313900D01*
X150700D01*
X151100Y313500D01*
X150700Y313100D01*
X151100D01*
X151500Y312700D01*
X161200Y312900D02*
X161600Y313300D01*
X162000D01*
X161600Y313700D01*
X162000Y314100D01*
X161600D01*
X161200Y314500D01*
X160800Y314100D01*
X160400D01*
X160800Y313700D01*
X160400Y313300D01*
X160800D01*
X161200Y312900D01*
X171500Y313100D02*
X171900Y313500D01*
X172300D01*
X171900Y313900D01*
X172300Y314300D01*
X171900D01*
X171500Y314700D01*
X171100Y314300D01*
X170700D01*
X171100Y313900D01*
X170700Y313500D01*
X171100D01*
X171500Y313100D01*
X125700Y224000D02*
X126100Y224400D01*
X126500D01*
X126100Y224800D01*
X126500Y225200D01*
X126100D01*
X125700Y225600D01*
X125300Y225200D01*
X124900D01*
X125300Y224800D01*
X124900Y224400D01*
X125300D01*
X125700Y224000D01*
X120700D02*
X121100Y224400D01*
X121500D01*
X121100Y224800D01*
X121500Y225200D01*
X121100D01*
X120700Y225600D01*
X120300Y225200D01*
X119900D01*
X120300Y224800D01*
X119900Y224400D01*
X120300D01*
X120700Y224000D01*
X115800D02*
X116200Y224400D01*
X116600D01*
X116200Y224800D01*
X116600Y225200D01*
X116200D01*
X115800Y225600D01*
X115400Y225200D01*
X115000D01*
X115400Y224800D01*
X115000Y224400D01*
X115400D01*
X115800Y224000D01*
X137900Y311700D02*
X138300Y312100D01*
X138700D01*
X138300Y312500D01*
X138700Y312900D01*
X138300D01*
X137900Y313300D01*
X137500Y312900D01*
X137100D01*
X137500Y312500D01*
X137100Y312100D01*
X137500D01*
X137900Y311700D01*
X145050Y308700D02*
X145450Y309100D01*
X145850D01*
X145450Y309500D01*
X145850Y309900D01*
X145450D01*
X145050Y310300D01*
X144650Y309900D01*
X144250D01*
X144650Y309500D01*
X144250Y309100D01*
X144650D01*
X145050Y308700D01*
X103800Y244200D02*
X103000Y245800D01*
X104600D01*
X103800Y244200D01*
X164100Y183700D02*
X164500Y184100D01*
X164900D01*
X164500Y184500D01*
X164900Y184900D01*
X164500D01*
X164100Y185300D01*
X163700Y184900D01*
X163300D01*
X163700Y184500D01*
X163300Y184100D01*
X163700D01*
X164100Y183700D01*
Y153500D02*
X164500Y153900D01*
X164900D01*
X164500Y154300D01*
X164900Y154700D01*
X164500D01*
X164100Y155100D01*
X163700Y154700D01*
X163300D01*
X163700Y154300D01*
X163300Y153900D01*
X163700D01*
X164100Y153500D01*
Y167900D02*
X164500Y168300D01*
X164900D01*
X164500Y168700D01*
X164900Y169100D01*
X164500D01*
X164100Y169500D01*
X163700Y169100D01*
X163300D01*
X163700Y168700D01*
X163300Y168300D01*
X163700D01*
X164100Y167900D01*
Y197400D02*
X164500Y197800D01*
X164900D01*
X164500Y198200D01*
X164900Y198600D01*
X164500D01*
X164100Y199000D01*
X163700Y198600D01*
X163300D01*
X163700Y198200D01*
X163300Y197800D01*
X163700D01*
X164100Y197400D01*
X154100Y209000D02*
X154500Y209400D01*
X154900D01*
X154500Y209800D01*
X154900Y210200D01*
X154500D01*
X154100Y210600D01*
X153700Y210200D01*
X153300D01*
X153700Y209800D01*
X153300Y209400D01*
X153700D01*
X154100Y209000D01*
X136500D02*
X136900Y209400D01*
X137300D01*
X136900Y209800D01*
X137300Y210200D01*
X136900D01*
X136500Y210600D01*
X136100Y210200D01*
X135700D01*
X136100Y209800D01*
X135700Y209400D01*
X136100D01*
X136500Y209000D01*
X117300D02*
X117700Y209400D01*
X118100D01*
X117700Y209800D01*
X118100Y210200D01*
X117700D01*
X117300Y210600D01*
X116900Y210200D01*
X116500D01*
X116900Y209800D01*
X116500Y209400D01*
X116900D01*
X117300Y209000D01*
X97600D02*
X98000Y209400D01*
X98400D01*
X98000Y209800D01*
X98400Y210200D01*
X98000D01*
X97600Y210600D01*
X97200Y210200D01*
X96800D01*
X97200Y209800D01*
X96800Y209400D01*
X97200D01*
X97600Y209000D01*
X74200D02*
X74600Y209400D01*
X75000D01*
X74600Y209800D01*
X75000Y210200D01*
X74600D01*
X74200Y210600D01*
X73800Y210200D01*
X73400D01*
X73800Y209800D01*
X73400Y209400D01*
X73800D01*
X74200Y209000D01*
X53800D02*
X54200Y209400D01*
X54600D01*
X54200Y209800D01*
X54600Y210200D01*
X54200D01*
X53800Y210600D01*
X53400Y210200D01*
X53000D01*
X53400Y209800D01*
X53000Y209400D01*
X53400D01*
X53800Y209000D01*
X37500D02*
X37900Y209400D01*
X38300D01*
X37900Y209800D01*
X38300Y210200D01*
X37900D01*
X37500Y210600D01*
X37100Y210200D01*
X36700D01*
X37100Y209800D01*
X36700Y209400D01*
X37100D01*
X37500Y209000D01*
X138900Y266800D02*
X138100Y268400D01*
X139700D01*
X138900Y266800D01*
X104500Y258700D02*
X103700Y260300D01*
X105300D01*
X104500Y258700D01*
X103800Y250100D02*
X103000Y251700D01*
X104600D01*
X103800Y250100D01*
X31400Y201200D02*
X31800Y201600D01*
X32200D01*
X31800Y202000D01*
X32200Y202400D01*
X31800D01*
X31400Y202800D01*
X31000Y202400D01*
X30600D01*
X31000Y202000D01*
X30600Y201600D01*
X31000D01*
X31400Y201200D01*
X120300Y244100D02*
X120700Y244500D01*
X121100D01*
X120700Y244900D01*
X121100Y245300D01*
X120700D01*
X120300Y245700D01*
X119900Y245300D01*
X119500D01*
X119900Y244900D01*
X119500Y244500D01*
X119900D01*
X120300Y244100D01*
X51400Y201200D02*
X51800Y201600D01*
X52200D01*
X51800Y202000D01*
X52200Y202400D01*
X51800D01*
X51400Y202800D01*
X51000Y202400D01*
X50600D01*
X51000Y202000D01*
X50600Y201600D01*
X51000D01*
X51400Y201200D01*
X45100D02*
X45500Y201600D01*
X45900D01*
X45500Y202000D01*
X45900Y202400D01*
X45500D01*
X45100Y202800D01*
X44700Y202400D01*
X44300D01*
X44700Y202000D01*
X44300Y201600D01*
X44700D01*
X45100Y201200D01*
X39100D02*
X39500Y201600D01*
X39900D01*
X39500Y202000D01*
X39900Y202400D01*
X39500D01*
X39100Y202800D01*
X38700Y202400D01*
X38300D01*
X38700Y202000D01*
X38300Y201600D01*
X38700D01*
X39100Y201200D01*
X132097Y136190D02*
X132497Y136590D01*
X132897D01*
X132497Y136990D01*
X132897Y137390D01*
X132497D01*
X132097Y137790D01*
X131697Y137390D01*
X131297D01*
X131697Y136990D01*
X131297Y136590D01*
X131697D01*
X132097Y136190D01*
Y156400D02*
X132497Y156800D01*
X132897D01*
X132497Y157200D01*
X132897Y157600D01*
X132497D01*
X132097Y158000D01*
X131697Y157600D01*
X131297D01*
X131697Y157200D01*
X131297Y156800D01*
X131697D01*
X132097Y156400D01*
X132400Y111556D02*
X132800Y111956D01*
X133200D01*
X132800Y112356D01*
X133200Y112756D01*
X132800D01*
X132400Y113156D01*
X132000Y112756D01*
X131600D01*
X132000Y112356D01*
X131600Y111956D01*
X132000D01*
X132400Y111556D01*
X141774D02*
X142174Y111956D01*
X142574D01*
X142174Y112356D01*
X142574Y112756D01*
X142174D01*
X141774Y113156D01*
X141374Y112756D01*
X140974D01*
X141374Y112356D01*
X140974Y111956D01*
X141374D01*
X141774Y111556D01*
X150000D02*
X150400Y111956D01*
X150800D01*
X150400Y112356D01*
X150800Y112756D01*
X150400D01*
X150000Y113156D01*
X149600Y112756D01*
X149200D01*
X149600Y112356D01*
X149200Y111956D01*
X149600D01*
X150000Y111556D01*
X121600D02*
X122000Y111956D01*
X122400D01*
X122000Y112356D01*
X122400Y112756D01*
X122000D01*
X121600Y113156D01*
X121200Y112756D01*
X120800D01*
X121200Y112356D01*
X120800Y111956D01*
X121200D01*
X121600Y111556D01*
X150000Y122000D02*
X150400Y122400D01*
X150800D01*
X150400Y122800D01*
X150800Y123200D01*
X150400D01*
X150000Y123600D01*
X149600Y123200D01*
X149200D01*
X149600Y122800D01*
X149200Y122400D01*
X149600D01*
X150000Y122000D01*
X58100Y201200D02*
X58500Y201600D01*
X58900D01*
X58500Y202000D01*
X58900Y202400D01*
X58500D01*
X58100Y202800D01*
X57700Y202400D01*
X57300D01*
X57700Y202000D01*
X57300Y201600D01*
X57700D01*
X58100Y201200D01*
X31400Y194200D02*
X31800Y194600D01*
X32200D01*
X31800Y195000D01*
X32200Y195400D01*
X31800D01*
X31400Y195800D01*
X31000Y195400D01*
X30600D01*
X31000Y195000D01*
X30600Y194600D01*
X31000D01*
X31400Y194200D01*
X51400Y196300D02*
X51800Y196700D01*
X52200D01*
X51800Y197100D01*
X52200Y197500D01*
X51800D01*
X51400Y197900D01*
X51000Y197500D01*
X50600D01*
X51000Y197100D01*
X50600Y196700D01*
X51000D01*
X51400Y196300D01*
X35700Y166300D02*
X36100Y167100D01*
X35700Y167900D01*
X36500Y167500D01*
X37300Y167900D01*
X36900Y167100D01*
X37300Y166300D01*
X36500Y166700D01*
X35700Y166300D01*
X132097Y146600D02*
X132497Y147000D01*
X132897D01*
X132497Y147400D01*
X132897Y147800D01*
X132497D01*
X132097Y148200D01*
X131697Y147800D01*
X131297D01*
X131697Y147400D01*
X131297Y147000D01*
X131697D01*
X132097Y146600D01*
X121600Y89256D02*
X122000Y89656D01*
X122400D01*
X122000Y90056D01*
X122400Y90456D01*
X122000D01*
X121600Y90856D01*
X121200Y90456D01*
X120800D01*
X121200Y90056D01*
X120800Y89656D01*
X121200D01*
X121600Y89256D01*
X40300Y190500D02*
X40700Y191300D01*
X40300Y192100D01*
X41100Y191700D01*
X41900Y192100D01*
X41500Y191300D01*
X41900Y190500D01*
X41100Y190900D01*
X40300Y190500D01*
X150000Y78256D02*
X150400Y78656D01*
X150800D01*
X150400Y79056D01*
X150800Y79456D01*
X150400D01*
X150000Y79856D01*
X149600Y79456D01*
X149200D01*
X149600Y79056D01*
X149200Y78656D01*
X149600D01*
X150000Y78256D01*
X141774D02*
X142174Y78656D01*
X142574D01*
X142174Y79056D01*
X142574Y79456D01*
X142174D01*
X141774Y79856D01*
X141374Y79456D01*
X140974D01*
X141374Y79056D01*
X140974Y78656D01*
X141374D01*
X141774Y78256D01*
X132400D02*
X132800Y78656D01*
X133200D01*
X132800Y79056D01*
X133200Y79456D01*
X132800D01*
X132400Y79856D01*
X132000Y79456D01*
X131600D01*
X132000Y79056D01*
X131600Y78656D01*
X132000D01*
X132400Y78256D01*
X121600D02*
X122000Y78656D01*
X122400D01*
X122000Y79056D01*
X122400Y79456D01*
X122000D01*
X121600Y79856D01*
X121200Y79456D01*
X120800D01*
X121200Y79056D01*
X120800Y78656D01*
X121200D01*
X121600Y78256D01*
X150000Y89256D02*
X150400Y89656D01*
X150800D01*
X150400Y90056D01*
X150800Y90456D01*
X150400D01*
X150000Y90856D01*
X149600Y90456D01*
X149200D01*
X149600Y90056D01*
X149200Y89656D01*
X149600D01*
X150000Y89256D01*
X141774D02*
X142174Y89656D01*
X142574D01*
X142174Y90056D01*
X142574Y90456D01*
X142174D01*
X141774Y90856D01*
X141374Y90456D01*
X140974D01*
X141374Y90056D01*
X140974Y89656D01*
X141374D01*
X141774Y89256D01*
X132400D02*
X132800Y89656D01*
X133200D01*
X132800Y90056D01*
X133200Y90456D01*
X132800D01*
X132400Y90856D01*
X132000Y90456D01*
X131600D01*
X132000Y90056D01*
X131600Y89656D01*
X132000D01*
X132400Y89256D01*
X150000Y100356D02*
X150400Y100756D01*
X150800D01*
X150400Y101156D01*
X150800Y101556D01*
X150400D01*
X150000Y101956D01*
X149600Y101556D01*
X149200D01*
X149600Y101156D01*
X149200Y100756D01*
X149600D01*
X150000Y100356D01*
X141774D02*
X142174Y100756D01*
X142574D01*
X142174Y101156D01*
X142574Y101556D01*
X142174D01*
X141774Y101956D01*
X141374Y101556D01*
X140974D01*
X141374Y101156D01*
X140974Y100756D01*
X141374D01*
X141774Y100356D01*
X132400D02*
X132800Y100756D01*
X133200D01*
X132800Y101156D01*
X133200Y101556D01*
X132800D01*
X132400Y101956D01*
X132000Y101556D01*
X131600D01*
X132000Y101156D01*
X131600Y100756D01*
X132000D01*
X132400Y100356D01*
X121600D02*
X122000Y100756D01*
X122400D01*
X122000Y101156D01*
X122400Y101556D01*
X122000D01*
X121600Y101956D01*
X121200Y101556D01*
X120800D01*
X121200Y101156D01*
X120800Y100756D01*
X121200D01*
X121600Y100356D01*
X141774Y122000D02*
X142174Y122400D01*
X142574D01*
X142174Y122800D01*
X142574Y123200D01*
X142174D01*
X141774Y123600D01*
X141374Y123200D01*
X140974D01*
X141374Y122800D01*
X140974Y122400D01*
X141374D01*
X141774Y122000D01*
X132400D02*
X132800Y122400D01*
X133200D01*
X132800Y122800D01*
X133200Y123200D01*
X132800D01*
X132400Y123600D01*
X132000Y123200D01*
X131600D01*
X132000Y122800D01*
X131600Y122400D01*
X132000D01*
X132400Y122000D01*
X121600D02*
X122000Y122400D01*
X122400D01*
X122000Y122800D01*
X122400Y123200D01*
X122000D01*
X121600Y123600D01*
X121200Y123200D01*
X120800D01*
X121200Y122800D01*
X120800Y122400D01*
X121200D01*
X121600Y122000D01*
X103974Y124500D02*
X104374Y124900D01*
X104774D01*
X104374Y125300D01*
X104774Y125700D01*
X104374D01*
X103974Y126100D01*
X103574Y125700D01*
X103174D01*
X103574Y125300D01*
X103174Y124900D01*
X103574D01*
X103974Y124500D01*
X94374D02*
X94774Y124900D01*
X95174D01*
X94774Y125300D01*
X95174Y125700D01*
X94774D01*
X94374Y126100D01*
X93974Y125700D01*
X93574D01*
X93974Y125300D01*
X93574Y124900D01*
X93974D01*
X94374Y124500D01*
X83474D02*
X83874Y124900D01*
X84274D01*
X83874Y125300D01*
X84274Y125700D01*
X83874D01*
X83474Y126100D01*
X83074Y125700D01*
X82674D01*
X83074Y125300D01*
X82674Y124900D01*
X83074D01*
X83474Y124500D01*
X73574D02*
X73974Y124900D01*
X74374D01*
X73974Y125300D01*
X74374Y125700D01*
X73974D01*
X73574Y126100D01*
X73174Y125700D01*
X72774D01*
X73174Y125300D01*
X72774Y124900D01*
X73174D01*
X73574Y124500D01*
X65700D02*
X66100Y124900D01*
X66500D01*
X66100Y125300D01*
X66500Y125700D01*
X66100D01*
X65700Y126100D01*
X65300Y125700D01*
X64900D01*
X65300Y125300D01*
X64900Y124900D01*
X65300D01*
X65700Y124500D01*
X63066Y106152D02*
X63466Y106552D01*
X63866D01*
X63466Y106952D01*
X63866Y107352D01*
X63466D01*
X63066Y107752D01*
X62666Y107352D01*
X62266D01*
X62666Y106952D01*
X62266Y106552D01*
X62666D01*
X63066Y106152D01*
X55974Y106356D02*
X56374Y106756D01*
X56774D01*
X56374Y107156D01*
X56774Y107556D01*
X56374D01*
X55974Y107956D01*
X55574Y107556D01*
X55174D01*
X55574Y107156D01*
X55174Y106756D01*
X55574D01*
X55974Y106356D01*
X120800Y136356D02*
X121200Y136756D01*
X121600D01*
X121200Y137156D01*
X121600Y137556D01*
X121200D01*
X120800Y137956D01*
X120400Y137556D01*
X120000D01*
X120400Y137156D01*
X120000Y136756D01*
X120400D01*
X120800Y136356D01*
X112274D02*
X112674Y136756D01*
X113074D01*
X112674Y137156D01*
X113074Y137556D01*
X112674D01*
X112274Y137956D01*
X111874Y137556D01*
X111474D01*
X111874Y137156D01*
X111474Y136756D01*
X111874D01*
X112274Y136356D01*
X103974D02*
X104374Y136756D01*
X104774D01*
X104374Y137156D01*
X104774Y137556D01*
X104374D01*
X103974Y137956D01*
X103574Y137556D01*
X103174D01*
X103574Y137156D01*
X103174Y136756D01*
X103574D01*
X103974Y136356D01*
X120800Y146600D02*
X121200Y147000D01*
X121600D01*
X121200Y147400D01*
X121600Y147800D01*
X121200D01*
X120800Y148200D01*
X120400Y147800D01*
X120000D01*
X120400Y147400D01*
X120000Y147000D01*
X120400D01*
X120800Y146600D01*
X112274D02*
X112674Y147000D01*
X113074D01*
X112674Y147400D01*
X113074Y147800D01*
X112674D01*
X112274Y148200D01*
X111874Y147800D01*
X111474D01*
X111874Y147400D01*
X111474Y147000D01*
X111874D01*
X112274Y146600D01*
X120800Y156600D02*
X121200Y157000D01*
X121600D01*
X121200Y157400D01*
X121600Y157800D01*
X121200D01*
X120800Y158200D01*
X120400Y157800D01*
X120000D01*
X120400Y157400D01*
X120000Y157000D01*
X120400D01*
X120800Y156600D01*
X112274D02*
X112674Y157000D01*
X113074D01*
X112674Y157400D01*
X113074Y157800D01*
X112674D01*
X112274Y158200D01*
X111874Y157800D01*
X111474D01*
X111874Y157400D01*
X111474Y157000D01*
X111874D01*
X112274Y156600D01*
X94374Y136356D02*
X94774Y136756D01*
X95174D01*
X94774Y137156D01*
X95174Y137556D01*
X94774D01*
X94374Y137956D01*
X93974Y137556D01*
X93574D01*
X93974Y137156D01*
X93574Y136756D01*
X93974D01*
X94374Y136356D01*
X83474D02*
X83874Y136756D01*
X84274D01*
X83874Y137156D01*
X84274Y137556D01*
X83874D01*
X83474Y137956D01*
X83074Y137556D01*
X82674D01*
X83074Y137156D01*
X82674Y136756D01*
X83074D01*
X83474Y136356D01*
X73574D02*
X73974Y136756D01*
X74374D01*
X73974Y137156D01*
X74374Y137556D01*
X73974D01*
X73574Y137956D01*
X73174Y137556D01*
X72774D01*
X73174Y137156D01*
X72774Y136756D01*
X73174D01*
X73574Y136356D01*
X65700D02*
X66100Y136756D01*
X66500D01*
X66100Y137156D01*
X66500Y137556D01*
X66100D01*
X65700Y137956D01*
X65300Y137556D01*
X64900D01*
X65300Y137156D01*
X64900Y136756D01*
X65300D01*
X65700Y136356D01*
X73574Y144056D02*
X73974Y144456D01*
X74374D01*
X73974Y144856D01*
X74374Y145256D01*
X73974D01*
X73574Y145656D01*
X73174Y145256D01*
X72774D01*
X73174Y144856D01*
X72774Y144456D01*
X73174D01*
X73574Y144056D01*
X65700Y144256D02*
X66100Y144656D01*
X66500D01*
X66100Y145056D01*
X66500Y145456D01*
X66100D01*
X65700Y145856D01*
X65300Y145456D01*
X64900D01*
X65300Y145056D01*
X64900Y144656D01*
X65300D01*
X65700Y144256D01*
X73274Y151156D02*
X73674Y151556D01*
X74074D01*
X73674Y151956D01*
X74074Y152356D01*
X73674D01*
X73274Y152756D01*
X72874Y152356D01*
X72474D01*
X72874Y151956D01*
X72474Y151556D01*
X72874D01*
X73274Y151156D01*
X65700Y151056D02*
X66100Y151456D01*
X66500D01*
X66100Y151856D01*
X66500Y152256D01*
X66100D01*
X65700Y152656D01*
X65300Y152256D01*
X64900D01*
X65300Y151856D01*
X64900Y151456D01*
X65300D01*
X65700Y151056D01*
X65500Y162400D02*
X65900Y162800D01*
X66300D01*
X65900Y163200D01*
X66300Y163600D01*
X65900D01*
X65500Y164000D01*
X65100Y163600D01*
X64700D01*
X65100Y163200D01*
X64700Y162800D01*
X65100D01*
X65500Y162400D01*
X32000Y132586D02*
X32400Y132986D01*
X32800D01*
X32400Y133386D01*
X32800Y133786D01*
X32400D01*
X32000Y134186D01*
X31600Y133786D01*
X31200D01*
X31600Y133386D01*
X31200Y132986D01*
X31600D01*
X32000Y132586D01*
X45400Y141000D02*
X45800Y141400D01*
X46200D01*
X45800Y141800D01*
X46200Y142200D01*
X45800D01*
X45400Y142600D01*
X45000Y142200D01*
X44600D01*
X45000Y141800D01*
X44600Y141400D01*
X45000D01*
X45400Y141000D01*
Y149900D02*
X45800Y150300D01*
X46200D01*
X45800Y150700D01*
X46200Y151100D01*
X45800D01*
X45400Y151500D01*
X45000Y151100D01*
X44600D01*
X45000Y150700D01*
X44600Y150300D01*
X45000D01*
X45400Y149900D01*
Y156900D02*
X45800Y157300D01*
X46200D01*
X45800Y157700D01*
X46200Y158100D01*
X45800D01*
X45400Y158500D01*
X45000Y158100D01*
X44600D01*
X45000Y157700D01*
X44600Y157300D01*
X45000D01*
X45400Y156900D01*
X32000Y141298D02*
X32400Y141698D01*
X32800D01*
X32400Y142098D01*
X32800Y142498D01*
X32400D01*
X32000Y142898D01*
X31600Y142498D01*
X31200D01*
X31600Y142098D01*
X31200Y141698D01*
X31600D01*
X32000Y141298D01*
Y151400D02*
X32400Y151800D01*
X32800D01*
X32400Y152200D01*
X32800Y152600D01*
X32400D01*
X32000Y153000D01*
X31600Y152600D01*
X31200D01*
X31600Y152200D01*
X31200Y151800D01*
X31600D01*
X32000Y151400D01*
Y160100D02*
X32400Y160500D01*
X32800D01*
X32400Y160900D01*
X32800Y161300D01*
X32400D01*
X32000Y161700D01*
X31600Y161300D01*
X31200D01*
X31600Y160900D01*
X31200Y160500D01*
X31600D01*
X32000Y160100D01*
X35100Y171300D02*
X35500Y171700D01*
X35900D01*
X35500Y172100D01*
X35900Y172500D01*
X35500D01*
X35100Y172900D01*
X34700Y172500D01*
X34300D01*
X34700Y172100D01*
X34300Y171700D01*
X34700D01*
X35100Y171300D01*
Y178400D02*
X35500Y178800D01*
X35900D01*
X35500Y179200D01*
X35900Y179600D01*
X35500D01*
X35100Y180000D01*
X34700Y179600D01*
X34300D01*
X34700Y179200D01*
X34300Y178800D01*
X34700D01*
X35100Y178400D01*
Y185300D02*
X35500Y185700D01*
X35900D01*
X35500Y186100D01*
X35900Y186500D01*
X35500D01*
X35100Y186900D01*
X34700Y186500D01*
X34300D01*
X34700Y186100D01*
X34300Y185700D01*
X34700D01*
X35100Y185300D01*
X58100Y196400D02*
X58500Y196800D01*
X58900D01*
X58500Y197200D01*
X58900Y197600D01*
X58500D01*
X58100Y198000D01*
X57700Y197600D01*
X57300D01*
X57700Y197200D01*
X57300Y196800D01*
X57700D01*
X58100Y196400D01*
X41000Y161200D02*
Y160800D01*
X41800D01*
Y161200D01*
X42200D01*
Y162000D01*
X41800D01*
Y162400D01*
X41000D01*
Y162000D01*
X40600D01*
Y161200D01*
X41000D01*
X150000Y129400D02*
Y129000D01*
X150800D01*
Y129400D01*
X151200D01*
Y130200D01*
X150800D01*
Y130600D01*
X150000D01*
Y130200D01*
X149600D01*
Y129400D01*
X150000D01*
X154433Y149433D02*
X154833D01*
X155233Y149833D01*
X155633Y149433D01*
X156033D01*
Y149833D01*
X155633Y150233D01*
X156033Y150633D01*
Y151033D01*
X155633D01*
X155233Y150633D01*
X154833Y151033D01*
X154433D01*
Y150633D01*
X154833Y150233D01*
X154433Y149833D01*
Y149433D01*
X60400Y158079D02*
X60800Y158879D01*
X60400Y159679D01*
X61200Y159279D01*
X62000Y159679D01*
X61600Y158879D01*
X62000Y158079D01*
X61200Y158479D01*
X60400Y158079D01*
X68100Y195300D02*
X68500Y196100D01*
X68100Y196900D01*
X68900Y196500D01*
X69700Y196900D01*
X69300Y196100D01*
X69700Y195300D01*
X68900Y195700D01*
X68100Y195300D01*
D80*
X99000Y107417D02*
G03*
X99000Y107417I-800J0D01*
G01*
Y89700D02*
G03*
X99000Y89700I-800J0D01*
G01*
M02*
