G04*
G04 #@! TF.GenerationSoftware,Altium Limited,CircuitMaker,2.2.1 (2.2.1.6)*
G04*
G04 Layer_Color=8150272*
%FSLAX25Y25*%
%MOIN*%
G70*
G04*
G04 #@! TF.SameCoordinates,3F80FBB2-A1F2-450A-AE04-FF917F864492*
G04*
G04*
G04 #@! TF.FilePolarity,Negative*
G04*
G01*
G75*
%ADD11C,0.01000*%
%ADD43R,0.04934X0.04737*%
%ADD64C,0.05918*%
%ADD65R,0.05918X0.05918*%
%ADD66C,0.09855*%
%ADD67C,0.03000*%
%ADD68C,0.03300*%
%ADD69C,0.03800*%
%ADD70C,0.03600*%
D11*
X184100Y356000D02*
G03*
X183600Y356500I-500J0D01*
G01*
X184100Y356000D02*
G03*
X183600Y356500I-500J0D01*
G01*
Y67500D02*
G03*
X184100Y68000I0J500D01*
G01*
X183600Y67500D02*
G03*
X184100Y68000I0J500D01*
G01*
X28500Y356500D02*
G03*
X28000Y356000I0J-500D01*
G01*
X28500Y356500D02*
G03*
X28000Y356000I0J-500D01*
G01*
Y68000D02*
G03*
X28500Y67500I500J0D01*
G01*
X28000Y68000D02*
G03*
X28500Y67500I500J0D01*
G01*
X184100Y68000D02*
Y356000D01*
X28500Y356500D02*
X183600D01*
X28500Y67500D02*
X183600D01*
X28000Y68000D02*
Y356000D01*
D43*
X114453Y245000D02*
D03*
X108547D02*
D03*
Y251000D02*
D03*
X114453D02*
D03*
D64*
X40900Y229000D02*
D03*
D65*
Y259000D02*
D03*
D66*
X98200Y107417D02*
D03*
Y89700D02*
D03*
D67*
X103000Y333256D02*
D03*
X82800Y333456D02*
D03*
X87600Y344000D02*
D03*
X41237Y283019D02*
D03*
X103800Y245000D02*
D03*
X138900Y267600D02*
D03*
X104500Y259500D02*
D03*
X103800Y250900D02*
D03*
D68*
X94100Y301400D02*
D03*
X85600D02*
D03*
X94000Y306600D02*
D03*
X98900Y223000D02*
D03*
X85400Y306600D02*
D03*
X92400Y219200D02*
D03*
X99690D02*
D03*
X55300D02*
D03*
X38600D02*
D03*
X46490D02*
D03*
X62900D02*
D03*
X73000D02*
D03*
X81400D02*
D03*
X62700Y226631D02*
D03*
X72290D02*
D03*
X55100D02*
D03*
X62700Y240900D02*
D03*
X55100Y240800D02*
D03*
X62700Y248300D02*
D03*
X55100Y248200D02*
D03*
X62700Y233900D02*
D03*
X55100Y234000D02*
D03*
X98456Y235296D02*
D03*
X141090Y231031D02*
D03*
X137900Y312500D02*
D03*
X145050Y309500D02*
D03*
X154100Y209800D02*
D03*
X136500D02*
D03*
X117300D02*
D03*
X97600D02*
D03*
X74200D02*
D03*
X53800D02*
D03*
X37500D02*
D03*
X36500Y167100D02*
D03*
X41100Y191300D02*
D03*
X61200Y158879D02*
D03*
X68900Y196100D02*
D03*
D69*
X151500Y313500D02*
D03*
X161200Y313700D02*
D03*
X171500Y313900D02*
D03*
X125700Y224800D02*
D03*
X120700D02*
D03*
X115800D02*
D03*
X164100Y184500D02*
D03*
Y154300D02*
D03*
Y168700D02*
D03*
Y198200D02*
D03*
X31400Y202000D02*
D03*
X120300Y244900D02*
D03*
X51400Y202000D02*
D03*
X45100D02*
D03*
X39100D02*
D03*
X132097Y136990D02*
D03*
Y157200D02*
D03*
X132400Y112356D02*
D03*
X141774D02*
D03*
X150000D02*
D03*
X121600D02*
D03*
X150000Y122800D02*
D03*
X58100Y202000D02*
D03*
X31400Y195000D02*
D03*
X51400Y197100D02*
D03*
X132097Y147400D02*
D03*
X121600Y90056D02*
D03*
X150000Y79056D02*
D03*
X141774D02*
D03*
X132400D02*
D03*
X121600D02*
D03*
X150000Y90056D02*
D03*
X141774D02*
D03*
X132400D02*
D03*
X150000Y101156D02*
D03*
X141774D02*
D03*
X132400D02*
D03*
X121600D02*
D03*
X141774Y122800D02*
D03*
X132400D02*
D03*
X121600D02*
D03*
X103974Y125300D02*
D03*
X94374D02*
D03*
X83474D02*
D03*
X73574D02*
D03*
X65700D02*
D03*
X63066Y106952D02*
D03*
X55974Y107156D02*
D03*
X120800Y137156D02*
D03*
X112274D02*
D03*
X103974D02*
D03*
X120800Y147400D02*
D03*
X112274D02*
D03*
X120800Y157400D02*
D03*
X112274D02*
D03*
X94374Y137156D02*
D03*
X83474D02*
D03*
X73574D02*
D03*
X65700D02*
D03*
X73574Y144856D02*
D03*
X65700Y145056D02*
D03*
X73274Y151956D02*
D03*
X65700Y151856D02*
D03*
X65500Y163200D02*
D03*
X32000Y133386D02*
D03*
X45400Y141800D02*
D03*
Y150700D02*
D03*
Y157700D02*
D03*
X32000Y142098D02*
D03*
Y152200D02*
D03*
Y160900D02*
D03*
X35100Y172100D02*
D03*
Y179200D02*
D03*
Y186100D02*
D03*
X58100Y197200D02*
D03*
X41400Y161600D02*
D03*
X150400Y129800D02*
D03*
D70*
X155233Y150233D02*
D03*
M02*
