G04*
G04 #@! TF.GenerationSoftware,Altium Limited,CircuitMaker,2.2.1 (2.2.1.6)*
G04*
G04 Layer_Color=20142*
%FSAX24Y24*%
%MOIN*%
G70*
G04*
G04 #@! TF.SameCoordinates,0C81AED8-799D-43B9-9177-9323FDC10059*
G04*
G04*
G04 #@! TF.FilePolarity,Negative*
G04*
G01*
G75*
%ADD15C,0.0880*%
%ADD16C,0.0680*%
%ADD17R,0.0671X0.0671*%
%ADD18C,0.0671*%
%ADD19C,0.0710*%
%ADD20R,0.0671X0.0671*%
D15*
X127900Y033500D02*
D03*
X110300D02*
D03*
X107500D02*
D03*
X089900D02*
D03*
X069500Y033522D02*
D03*
X087100D02*
D03*
D16*
X026700Y030200D02*
D03*
X029700D02*
D03*
X018700D02*
D03*
X021700D02*
D03*
X054300Y033000D02*
D03*
X053300D02*
D03*
X054300Y031700D02*
D03*
X053300D02*
D03*
X041600Y037200D02*
D03*
X047800Y037000D02*
D03*
X058350Y034700D02*
D03*
X052000Y036453D02*
D03*
X005700Y030200D02*
D03*
X009700Y037000D02*
D03*
X013700Y030200D02*
D03*
X017800Y037000D02*
D03*
X025700D02*
D03*
X033700D02*
D03*
X059350Y035700D02*
D03*
X058350Y030450D02*
D03*
X002700Y030200D02*
D03*
X006700Y037000D02*
D03*
X010700Y030200D02*
D03*
X014800Y037000D02*
D03*
X022700D02*
D03*
X030700D02*
D03*
X059350Y031450D02*
D03*
X041600Y036200D02*
D03*
X047800Y036000D02*
D03*
X053000Y036453D02*
D03*
X057350Y031450D02*
D03*
Y035700D02*
D03*
D17*
X063666Y033400D02*
D03*
X037100Y037000D02*
D03*
X043400D02*
D03*
X049000Y035000D02*
D03*
D18*
X066000Y030800D02*
D03*
X046400Y036000D02*
D03*
Y037000D02*
D03*
X052000Y035000D02*
D03*
X049000Y032000D02*
D03*
X064650Y033400D02*
D03*
X040100Y037000D02*
D03*
X037100Y032000D02*
D03*
X043400D02*
D03*
X037100Y035000D02*
D03*
X043400Y033000D02*
D03*
X037100Y036000D02*
D03*
X043400Y034000D02*
D03*
X049000Y033000D02*
D03*
X037100Y031000D02*
D03*
X040100Y030000D02*
D03*
Y031000D02*
D03*
Y032000D02*
D03*
Y033000D02*
D03*
Y034000D02*
D03*
Y035000D02*
D03*
Y036000D02*
D03*
X052000Y034000D02*
D03*
Y032000D02*
D03*
Y033000D02*
D03*
X049000Y034000D02*
D03*
X046400Y035000D02*
D03*
X043400Y031000D02*
D03*
Y036000D02*
D03*
X037100Y030000D02*
D03*
Y033000D02*
D03*
Y034000D02*
D03*
X065634Y033400D02*
D03*
X043400Y035000D02*
D03*
X046400Y034000D02*
D03*
Y033000D02*
D03*
Y032000D02*
D03*
Y031000D02*
D03*
D19*
X031700Y033600D02*
D03*
X027700D02*
D03*
X023700D02*
D03*
X019700D02*
D03*
X015700D02*
D03*
X011700D02*
D03*
X007700D02*
D03*
X003700Y033600D02*
D03*
X004700D02*
D03*
X008700Y033600D02*
D03*
X012700D02*
D03*
X016700D02*
D03*
X020700D02*
D03*
X024700D02*
D03*
X028700D02*
D03*
X032700D02*
D03*
D20*
X066000Y030013D02*
D03*
M02*
