G04*
G04 #@! TF.GenerationSoftware,Altium Limited,CircuitMaker,2.2.1 (2.2.1.6)*
G04*
G04 Layer_Color=15132400*
%FSAX24Y24*%
%MOIN*%
G70*
G04*
G04 #@! TF.SameCoordinates,0C81AED8-799D-43B9-9177-9323FDC10059*
G04*
G04*
G04 #@! TF.FilePolarity,Positive*
G04*
G01*
G75*
%ADD10C,0.0079*%
%ADD11C,0.0098*%
%ADD12C,0.0236*%
%ADD13C,0.0100*%
%ADD14C,0.0050*%
D10*
X005077Y034331D02*
G03*
X003228Y034198I-000877J-000731D01*
G01*
X003267Y034258D02*
G03*
X005081Y032874I000933J-000658D01*
G01*
X009077Y034331D02*
G03*
X007228Y034198I-000877J-000731D01*
G01*
X007267Y034258D02*
G03*
X009081Y032874I000933J-000658D01*
G01*
X013077Y034331D02*
G03*
X011228Y034198I-000877J-000731D01*
G01*
X011267Y034258D02*
G03*
X013081Y032874I000933J-000658D01*
G01*
X017077Y034331D02*
G03*
X015228Y034198I-000877J-000731D01*
G01*
X015267Y034258D02*
G03*
X017081Y032874I000933J-000658D01*
G01*
X021077Y034331D02*
G03*
X019228Y034198I-000877J-000731D01*
G01*
X019267Y034258D02*
G03*
X021081Y032874I000933J-000658D01*
G01*
X025077Y034331D02*
G03*
X023228Y034198I-000877J-000731D01*
G01*
X023267Y034258D02*
G03*
X025081Y032874I000933J-000658D01*
G01*
X029077Y034331D02*
G03*
X027228Y034198I-000877J-000731D01*
G01*
X027267Y034258D02*
G03*
X029081Y032874I000933J-000658D01*
G01*
X033077Y034331D02*
G03*
X031228Y034198I-000877J-000731D01*
G01*
X031267Y034258D02*
G03*
X033081Y032874I000933J-000658D01*
G01*
X038350Y037700D02*
G03*
X038850Y037700I000250J000000D01*
G01*
X050250Y035528D02*
G03*
X050750Y035528I000250J000000D01*
G01*
X044650Y037878D02*
G03*
X045150Y037878I000250J000000D01*
G01*
X027200Y029750D02*
X029200D01*
X027200D02*
Y030650D01*
X029200Y029750D02*
Y030650D01*
X027200D02*
X029200D01*
X019200Y029750D02*
X021200D01*
X019200D02*
Y030650D01*
X021200Y029750D02*
Y030650D01*
X019200D02*
X021200D01*
X003200D02*
X005200D01*
Y029750D02*
Y030650D01*
X003200Y029750D02*
Y030650D01*
Y029750D02*
X005200D01*
X011200Y030650D02*
X013200D01*
Y029750D02*
Y030650D01*
X011200Y029750D02*
Y030650D01*
Y029750D02*
X013200D01*
X023200Y037450D02*
X025200D01*
Y036550D02*
Y037450D01*
X023200Y036550D02*
Y037450D01*
Y036550D02*
X025200D01*
X015300Y037450D02*
X017300D01*
Y036550D02*
Y037450D01*
X015300Y036550D02*
Y037450D01*
Y036550D02*
X017300D01*
X007200Y037450D02*
X009200D01*
Y036550D02*
Y037450D01*
X007200Y036550D02*
Y037450D01*
Y036550D02*
X009200D01*
X005100Y032900D02*
Y034300D01*
X009100Y032900D02*
Y034300D01*
X013100Y032900D02*
Y034300D01*
X017100Y032900D02*
Y034300D01*
X021100Y032900D02*
Y034300D01*
X025100Y032900D02*
Y034300D01*
X029100Y032900D02*
Y034300D01*
X033100Y032900D02*
Y034300D01*
X031200Y037450D02*
X033200D01*
Y036550D02*
Y037450D01*
X031200Y036550D02*
Y037450D01*
Y036550D02*
X033200D01*
X037557Y029200D02*
Y037750D01*
X039643Y029200D02*
Y037750D01*
X037557D02*
X038350D01*
X038850D02*
X039643D01*
X037557Y029200D02*
X039643D01*
X062367Y034187D02*
X066933D01*
Y032613D02*
Y034187D01*
X062367Y032613D02*
X066933D01*
X062367D02*
Y034187D01*
X049457Y031472D02*
Y035528D01*
X051543Y031472D02*
Y035528D01*
X049457D02*
X050250D01*
X050750D02*
X051543D01*
X049457Y031472D02*
X051543D01*
X043857Y030122D02*
Y037878D01*
X045943Y030122D02*
Y037878D01*
X043857D02*
X044650D01*
X045150D02*
X045943D01*
X043857Y030122D02*
X045943D01*
D11*
X037149Y037512D02*
G03*
X037149Y037512I-000049J000000D01*
G01*
X063715Y034443D02*
G03*
X063715Y034443I-000049J000000D01*
G01*
X049049Y035512D02*
G03*
X049049Y035512I-000049J000000D01*
G01*
X043449Y037512D02*
G03*
X043449Y037512I-000049J000000D01*
G01*
X111660Y033008D02*
Y033992D01*
X111168Y033500D02*
X112152D01*
X109199Y036060D02*
X109260D01*
X109199Y030940D02*
X109260D01*
X109199D02*
Y036060D01*
X088799Y030940D02*
Y036060D01*
Y030940D02*
X088860D01*
X088799Y036060D02*
X088860D01*
X090768Y033500D02*
X091752D01*
X091260Y033008D02*
Y033992D01*
X070860Y033030D02*
Y034014D01*
X070368Y033522D02*
X071352D01*
X068399Y036082D02*
X068460D01*
X068399Y030962D02*
X068460D01*
X068399D02*
Y036082D01*
D12*
X038018Y037350D02*
G03*
X038018Y037350I-000118J000000D01*
G01*
X049969Y035134D02*
G03*
X049969Y035134I-000118J000000D01*
G01*
X044369Y037484D02*
G03*
X044369Y037484I-000118J000000D01*
G01*
D13*
X066984Y030406D02*
G03*
X066984Y030406I-000984J000000D01*
G01*
X128940Y030940D02*
Y036060D01*
X109260Y030940D02*
Y036060D01*
Y030940D02*
X128940D01*
X109260Y036060D02*
X128940D01*
X088860D02*
X108540D01*
X088860Y030940D02*
X108540D01*
X088860D02*
Y036060D01*
X108540Y030940D02*
Y036060D01*
X088140Y030962D02*
Y036082D01*
X068460Y030962D02*
Y036082D01*
Y030962D02*
X088140D01*
X068460Y036082D02*
X088140D01*
X056450Y033350D02*
X060250D01*
Y029550D02*
Y033350D01*
X056450Y029550D02*
X060250D01*
X056450D02*
Y033350D01*
Y037600D02*
X060250D01*
Y033800D02*
Y037600D01*
X056450Y033800D02*
X060250D01*
X056450D02*
Y037600D01*
X041500Y038400D02*
X041400Y038500D01*
X041200D01*
X041100Y038400D01*
Y038000D01*
X041200Y037900D01*
X041400D01*
X041500Y038000D01*
X042100Y038500D02*
X041900Y038400D01*
X041700Y038200D01*
Y038000D01*
X041800Y037900D01*
X042000D01*
X042100Y038000D01*
Y038100D01*
X042000Y038200D01*
X041700D01*
X065500Y035500D02*
X065300D01*
X065200Y035400D01*
Y035000D01*
X065300Y034900D01*
X065500D01*
X065600Y035000D01*
Y035400D01*
X065500Y035500D01*
X066200D02*
X065800D01*
Y035200D01*
X066000D01*
X065800D01*
Y034900D01*
X066799Y035500D02*
X066400D01*
Y035200D01*
X066600D01*
X066400D01*
Y034900D01*
X063100Y035500D02*
X062900D01*
X062800Y035400D01*
Y035000D01*
X062900Y034900D01*
X063100D01*
X063200Y035000D01*
Y035400D01*
X063100Y035500D01*
X063400Y034900D02*
Y035500D01*
X063800Y034900D01*
Y035500D01*
X080666Y037666D02*
X080500Y037833D01*
X080167D01*
X080000Y037666D01*
Y037500D01*
X080167Y037333D01*
X080500D01*
X080666Y037166D01*
Y037000D01*
X080500Y036833D01*
X080167D01*
X080000Y037000D01*
X081500Y036833D02*
X081166D01*
X081000Y037000D01*
Y037333D01*
X081166Y037500D01*
X081500D01*
X081666Y037333D01*
Y037166D01*
X081000D01*
X082666Y036500D02*
Y037500D01*
X082166D01*
X081999Y037333D01*
Y037000D01*
X082166Y036833D01*
X082666D01*
X082999Y037500D02*
Y037000D01*
X083166Y036833D01*
X083665D01*
Y037500D01*
X084499Y036833D02*
X084165D01*
X083999Y037000D01*
Y037333D01*
X084165Y037500D01*
X084499D01*
X084665Y037333D01*
Y037166D01*
X083999D01*
X084998Y036833D02*
Y037500D01*
X085498D01*
X085665Y037333D01*
Y036833D01*
X086665Y037500D02*
X086165D01*
X085998Y037333D01*
Y037000D01*
X086165Y036833D01*
X086665D01*
X086998D02*
X087331D01*
X087164D01*
Y037500D01*
X086998D01*
X087831Y036833D02*
Y037500D01*
X088331D01*
X088497Y037333D01*
Y036833D01*
X089164Y036500D02*
X089330D01*
X089497Y036667D01*
Y037500D01*
X088997D01*
X088830Y037333D01*
Y037000D01*
X088997Y036833D01*
X089497D01*
X090830D02*
Y037833D01*
X091163Y037500D01*
X091496Y037833D01*
Y036833D01*
X091996Y037500D02*
X092329D01*
X092496Y037333D01*
Y036833D01*
X091996D01*
X091830Y037000D01*
X091996Y037166D01*
X092496D01*
X093162Y036500D02*
X093329D01*
X093496Y036667D01*
Y037500D01*
X092996D01*
X092829Y037333D01*
Y037000D01*
X092996Y036833D01*
X093496D01*
X093829D02*
X094162D01*
X093995D01*
Y037500D01*
X093829D01*
X095328D02*
X094829D01*
X094662Y037333D01*
Y037000D01*
X094829Y036833D01*
X095328D01*
X096661Y037833D02*
Y036833D01*
X096995Y037166D01*
X097328Y036833D01*
Y037833D01*
X097828Y037500D02*
X098161D01*
X098327Y037333D01*
Y036833D01*
X097828D01*
X097661Y037000D01*
X097828Y037166D01*
X098327D01*
X098661Y036833D02*
Y037500D01*
X099160D01*
X099327Y037333D01*
Y036833D01*
X100327Y037833D02*
Y036833D01*
X099827D01*
X099660Y037000D01*
Y037333D01*
X099827Y037500D01*
X100327D01*
X101660Y037833D02*
Y037166D01*
X101993Y036833D01*
X102326Y037166D01*
Y037833D01*
X103159Y036833D02*
X102826D01*
X102659Y037000D01*
Y037333D01*
X102826Y037500D01*
X103159D01*
X103326Y037333D01*
Y037166D01*
X102659D01*
X103659Y037500D02*
Y036833D01*
Y037166D01*
X103826Y037333D01*
X103992Y037500D01*
X104159D01*
X104659Y036833D02*
X105159D01*
X105325Y037000D01*
X105159Y037166D01*
X104825D01*
X104659Y037333D01*
X104825Y037500D01*
X105325D01*
X105658Y036833D02*
X105992D01*
X105825D01*
Y037500D01*
X105658D01*
X106658Y036833D02*
X106991D01*
X107158Y037000D01*
Y037333D01*
X106991Y037500D01*
X106658D01*
X106491Y037333D01*
Y037000D01*
X106658Y036833D01*
X107491D02*
Y037500D01*
X107991D01*
X108158Y037333D01*
Y036833D01*
X109490D02*
X109824D01*
X109657D01*
Y037833D01*
X109490Y037666D01*
X110324Y036833D02*
Y037000D01*
X110490D01*
Y036833D01*
X110324D01*
X111157Y037666D02*
X111323Y037833D01*
X111656D01*
X111823Y037666D01*
Y037000D01*
X111656Y036833D01*
X111323D01*
X111157Y037000D01*
Y037666D01*
X066850Y031556D02*
Y031156D01*
X067050Y031356D02*
X066650D01*
X109700Y035600D02*
Y035000D01*
X110000D01*
X110100Y035100D01*
Y035200D01*
X110000Y035300D01*
X109700D01*
X110000D01*
X110100Y035400D01*
Y035500D01*
X110000Y035600D01*
X109700D01*
X110300D02*
X110700D01*
X110500D01*
Y035000D01*
X110900Y035500D02*
X111000Y035600D01*
X111200D01*
X111300Y035500D01*
Y035400D01*
X111200Y035300D01*
X111100D01*
X111200D01*
X111300Y035200D01*
Y035100D01*
X111200Y035000D01*
X111000D01*
X110900Y035100D01*
X089300Y035600D02*
Y035000D01*
X089600D01*
X089700Y035100D01*
Y035200D01*
X089600Y035300D01*
X089300D01*
X089600D01*
X089700Y035400D01*
Y035500D01*
X089600Y035600D01*
X089300D01*
X089900D02*
X090300D01*
X090100D01*
Y035000D01*
X090900D02*
X090500D01*
X090900Y035400D01*
Y035500D01*
X090800Y035600D01*
X090600D01*
X090500Y035500D01*
X069100Y035600D02*
Y035000D01*
X069400D01*
X069500Y035100D01*
Y035200D01*
X069400Y035300D01*
X069100D01*
X069400D01*
X069500Y035400D01*
Y035500D01*
X069400Y035600D01*
X069100D01*
X069700D02*
X070100D01*
X069900D01*
Y035000D01*
X070300D02*
X070500D01*
X070400D01*
Y035600D01*
X070300Y035500D01*
X038150Y036400D02*
Y035900D01*
X038250Y035800D01*
X038450D01*
X038550Y035900D01*
Y036400D01*
X038750Y036300D02*
X038850Y036400D01*
X039050D01*
X039150Y036300D01*
Y036200D01*
X039050Y036100D01*
X038950D01*
X039050D01*
X039150Y036000D01*
Y035900D01*
X039050Y035800D01*
X038850D01*
X038750Y035900D01*
X044400Y036650D02*
Y036150D01*
X044500Y036050D01*
X044700D01*
X044800Y036150D01*
Y036650D01*
X045400Y036050D02*
X045000D01*
X045400Y036450D01*
Y036550D01*
X045300Y036650D01*
X045100D01*
X045000Y036550D01*
X050150Y034650D02*
Y034150D01*
X050250Y034050D01*
X050450D01*
X050550Y034150D01*
Y034650D01*
X050750Y034050D02*
X050950D01*
X050850D01*
Y034650D01*
X050750Y034550D01*
X063000Y032100D02*
X062900Y032200D01*
X062700D01*
X062600Y032100D01*
Y032000D01*
X062700Y031900D01*
X062900D01*
X063000Y031800D01*
Y031700D01*
X062900Y031600D01*
X062700D01*
X062600Y031700D01*
X063200Y032200D02*
Y031600D01*
X063400Y031800D01*
X063600Y031600D01*
Y032200D01*
X063800Y031600D02*
X064000D01*
X063900D01*
Y032200D01*
X063800Y032100D01*
X003700Y029900D02*
Y030500D01*
X004000D01*
X004100Y030400D01*
Y030200D01*
X004000Y030100D01*
X003700D01*
X003900D02*
X004100Y029900D01*
X004300Y030400D02*
X004400Y030500D01*
X004600D01*
X004700Y030400D01*
Y030300D01*
X004600Y030200D01*
X004700Y030100D01*
Y030000D01*
X004600Y029900D01*
X004400D01*
X004300Y030000D01*
Y030100D01*
X004400Y030200D01*
X004300Y030300D01*
Y030400D01*
X004400Y030200D02*
X004600D01*
X007700Y036700D02*
Y037300D01*
X008000D01*
X008100Y037200D01*
Y037000D01*
X008000Y036900D01*
X007700D01*
X007900D02*
X008100Y036700D01*
X008300Y037300D02*
X008700D01*
Y037200D01*
X008300Y036800D01*
Y036700D01*
X011700Y029900D02*
Y030500D01*
X012000D01*
X012100Y030400D01*
Y030200D01*
X012000Y030100D01*
X011700D01*
X011900D02*
X012100Y029900D01*
X012700Y030500D02*
X012500Y030400D01*
X012300Y030200D01*
Y030000D01*
X012400Y029900D01*
X012600D01*
X012700Y030000D01*
Y030100D01*
X012600Y030200D01*
X012300D01*
X015800Y036700D02*
Y037300D01*
X016100D01*
X016200Y037200D01*
Y037000D01*
X016100Y036900D01*
X015800D01*
X016000D02*
X016200Y036700D01*
X016800Y037300D02*
X016400D01*
Y037000D01*
X016600Y037100D01*
X016700D01*
X016800Y037000D01*
Y036800D01*
X016700Y036700D01*
X016500D01*
X016400Y036800D01*
X019700Y029900D02*
Y030500D01*
X020000D01*
X020100Y030400D01*
Y030200D01*
X020000Y030100D01*
X019700D01*
X019900D02*
X020100Y029900D01*
X020600D02*
Y030500D01*
X020300Y030200D01*
X020700D01*
X023700Y036700D02*
Y037300D01*
X024000D01*
X024100Y037200D01*
Y037000D01*
X024000Y036900D01*
X023700D01*
X023900D02*
X024100Y036700D01*
X024300Y037200D02*
X024400Y037300D01*
X024600D01*
X024700Y037200D01*
Y037100D01*
X024600Y037000D01*
X024500D01*
X024600D01*
X024700Y036900D01*
Y036800D01*
X024600Y036700D01*
X024400D01*
X024300Y036800D01*
X027700Y029900D02*
Y030500D01*
X028000D01*
X028100Y030400D01*
Y030200D01*
X028000Y030100D01*
X027700D01*
X027900D02*
X028100Y029900D01*
X028700D02*
X028300D01*
X028700Y030300D01*
Y030400D01*
X028600Y030500D01*
X028400D01*
X028300Y030400D01*
X031800Y036700D02*
Y037300D01*
X032100D01*
X032200Y037200D01*
Y037000D01*
X032100Y036900D01*
X031800D01*
X032000D02*
X032200Y036700D01*
X032400D02*
X032600D01*
X032500D01*
Y037300D01*
X032400Y037200D01*
X057250Y032150D02*
Y032750D01*
X057550D01*
X057650Y032650D01*
Y032450D01*
X057550Y032350D01*
X057250D01*
X058150Y032750D02*
X057950D01*
X057850Y032650D01*
Y032250D01*
X057950Y032150D01*
X058150D01*
X058250Y032250D01*
Y032650D01*
X058150Y032750D01*
X058450D02*
X058850D01*
X058650D01*
Y032150D01*
X059050Y032750D02*
Y032150D01*
X059350D01*
X059450Y032250D01*
Y032350D01*
X059350Y032450D01*
X059050D01*
X059350D01*
X059450Y032550D01*
Y032650D01*
X059350Y032750D01*
X059050D01*
X057250Y036600D02*
Y037200D01*
X057550D01*
X057650Y037100D01*
Y036900D01*
X057550Y036800D01*
X057250D01*
X058150Y037200D02*
X057950D01*
X057850Y037100D01*
Y036700D01*
X057950Y036600D01*
X058150D01*
X058250Y036700D01*
Y037100D01*
X058150Y037200D01*
X058450D02*
X058850D01*
X058650D01*
Y036600D01*
X059050D02*
Y037000D01*
X059250Y037200D01*
X059450Y037000D01*
Y036600D01*
Y036900D01*
X059050D01*
X001600Y033800D02*
Y033200D01*
X001900D01*
X002000Y033300D01*
Y033700D01*
X001900Y033800D01*
X001600D01*
X002200Y033700D02*
X002300Y033800D01*
X002500D01*
X002600Y033700D01*
Y033600D01*
X002500Y033500D01*
X002600Y033400D01*
Y033300D01*
X002500Y033200D01*
X002300D01*
X002200Y033300D01*
Y033400D01*
X002300Y033500D01*
X002200Y033600D01*
Y033700D01*
X002300Y033500D02*
X002500D01*
X005700Y033901D02*
Y033301D01*
X006000D01*
X006100Y033401D01*
Y033801D01*
X006000Y033901D01*
X005700D01*
X006300D02*
X006700D01*
Y033801D01*
X006300Y033401D01*
Y033301D01*
X009800Y033901D02*
Y033301D01*
X010100D01*
X010200Y033401D01*
Y033801D01*
X010100Y033901D01*
X009800D01*
X010800D02*
X010600Y033801D01*
X010400Y033601D01*
Y033401D01*
X010500Y033301D01*
X010700D01*
X010800Y033401D01*
Y033501D01*
X010700Y033601D01*
X010400D01*
X013700Y033900D02*
Y033300D01*
X014000D01*
X014100Y033400D01*
Y033800D01*
X014000Y033900D01*
X013700D01*
X014700D02*
X014300D01*
Y033600D01*
X014500Y033700D01*
X014600D01*
X014700Y033600D01*
Y033400D01*
X014600Y033300D01*
X014400D01*
X014300Y033400D01*
X017800Y033900D02*
Y033300D01*
X018100D01*
X018200Y033400D01*
Y033800D01*
X018100Y033900D01*
X017800D01*
X018700Y033300D02*
Y033900D01*
X018400Y033600D01*
X018800D01*
X021800Y034000D02*
Y033400D01*
X022100D01*
X022200Y033500D01*
Y033900D01*
X022100Y034000D01*
X021800D01*
X022400Y033900D02*
X022500Y034000D01*
X022700D01*
X022800Y033900D01*
Y033800D01*
X022700Y033700D01*
X022600D01*
X022700D01*
X022800Y033600D01*
Y033500D01*
X022700Y033400D01*
X022500D01*
X022400Y033500D01*
X025800Y034000D02*
Y033400D01*
X026100D01*
X026200Y033500D01*
Y033900D01*
X026100Y034000D01*
X025800D01*
X026800Y033400D02*
X026400D01*
X026800Y033800D01*
Y033900D01*
X026700Y034000D01*
X026500D01*
X026400Y033900D01*
X029900Y034000D02*
Y033400D01*
X030200D01*
X030300Y033500D01*
Y033900D01*
X030200Y034000D01*
X029900D01*
X030500Y033400D02*
X030700D01*
X030600D01*
Y034000D01*
X030500Y033900D01*
X047700Y038078D02*
X047600Y038178D01*
X047400D01*
X047300Y038078D01*
Y037678D01*
X047400Y037578D01*
X047600D01*
X047700Y037678D01*
X048300Y038178D02*
X047900D01*
Y037878D01*
X048100Y037978D01*
X048200D01*
X048300Y037878D01*
Y037678D01*
X048200Y037578D01*
X048000D01*
X047900Y037678D01*
X053700Y030918D02*
X053600Y031018D01*
X053400D01*
X053300Y030918D01*
Y030519D01*
X053400Y030419D01*
X053600D01*
X053700Y030519D01*
X054200Y030419D02*
Y031018D01*
X053900Y030719D01*
X054300D01*
X053700Y034250D02*
X053600Y034350D01*
X053400D01*
X053300Y034250D01*
Y033850D01*
X053400Y033750D01*
X053600D01*
X053700Y033850D01*
X053900Y034250D02*
X054000Y034350D01*
X054200D01*
X054300Y034250D01*
Y034150D01*
X054200Y034050D01*
X054100D01*
X054200D01*
X054300Y033950D01*
Y033850D01*
X054200Y033750D01*
X054000D01*
X053900Y033850D01*
X052400Y037653D02*
X052300Y037753D01*
X052100D01*
X052000Y037653D01*
Y037253D01*
X052100Y037153D01*
X052300D01*
X052400Y037253D01*
X053000Y037153D02*
X052600D01*
X053000Y037553D01*
Y037653D01*
X052900Y037753D01*
X052700D01*
X052600Y037653D01*
X066000Y032100D02*
X065900Y032200D01*
X065700D01*
X065600Y032100D01*
Y031700D01*
X065700Y031600D01*
X065900D01*
X066000Y031700D01*
X066200Y031600D02*
X066400D01*
X066300D01*
Y032200D01*
X066200Y032100D01*
D14*
X053900Y033000D02*
X054300D01*
X053900Y032600D02*
Y033400D01*
X053700Y032600D02*
Y033400D01*
X053300Y033000D02*
X053700D01*
X053900Y031700D02*
X054300D01*
X053900Y031300D02*
Y032100D01*
X053700Y031300D02*
Y032100D01*
X053300Y031700D02*
X053700D01*
X052600Y036453D02*
X053000D01*
X052600Y036053D02*
Y036853D01*
X052400Y036053D02*
Y036853D01*
X052000Y036453D02*
X052400D01*
X047800Y036000D02*
Y036400D01*
X047400D02*
X048200D01*
X047400Y036600D02*
X048200D01*
X047800D02*
Y037000D01*
X041600Y036200D02*
Y036600D01*
X041200D02*
X042000D01*
X041200Y036800D02*
X042000D01*
X041600D02*
Y037200D01*
M02*
