G04 EAGLE Gerber RS-274X export*
G75*
%MOMM*%
%FSLAX34Y34*%
%LPD*%
%INBottom Copper*%
%IPPOS*%
%AMOC8*
5,1,8,0,0,1.08239X$1,22.5*%
G01*
%ADD10R,1.000000X0.970000*%
%ADD11C,1.308000*%
%ADD12R,0.350000X0.800000*%
%ADD13R,0.310000X0.410000*%
%ADD14R,1.000000X1.100000*%
%ADD15C,0.756400*%
%ADD16C,0.254000*%
%ADD17C,0.760000*%
%ADD18C,0.300000*%
%ADD19C,0.600000*%
%ADD20C,0.508000*%
%ADD21C,0.152400*%
%ADD22C,0.200000*%
%ADD23C,0.250000*%
%ADD24C,0.500000*%

G36*
X396325Y10173D02*
X396325Y10173D01*
X396399Y10175D01*
X396445Y10192D01*
X396494Y10200D01*
X396558Y10235D01*
X396627Y10261D01*
X396665Y10292D01*
X396709Y10315D01*
X396759Y10369D01*
X396816Y10416D01*
X396842Y10458D01*
X396876Y10493D01*
X396906Y10560D01*
X396945Y10623D01*
X396956Y10671D01*
X396976Y10716D01*
X396984Y10789D01*
X397000Y10860D01*
X396996Y10909D01*
X397001Y10959D01*
X396984Y11030D01*
X396977Y11103D01*
X396956Y11148D01*
X396945Y11196D01*
X396906Y11259D01*
X396876Y11326D01*
X396830Y11382D01*
X396817Y11404D01*
X396804Y11414D01*
X396783Y11440D01*
X369249Y38974D01*
X369169Y39031D01*
X369094Y39093D01*
X369071Y39101D01*
X369050Y39116D01*
X368957Y39144D01*
X368866Y39179D01*
X368833Y39182D01*
X368817Y39187D01*
X368792Y39186D01*
X368719Y39193D01*
X365802Y39193D01*
X362693Y42302D01*
X362693Y46698D01*
X365802Y49807D01*
X370198Y49807D01*
X373307Y46698D01*
X373307Y43781D01*
X373323Y43685D01*
X373332Y43588D01*
X373342Y43565D01*
X373346Y43540D01*
X373392Y43454D01*
X373433Y43366D01*
X373454Y43340D01*
X373461Y43325D01*
X373480Y43308D01*
X373526Y43251D01*
X399654Y17123D01*
X399734Y17066D01*
X399809Y17005D01*
X399832Y16996D01*
X399853Y16981D01*
X399946Y16953D01*
X400037Y16918D01*
X400070Y16915D01*
X400086Y16910D01*
X400111Y16911D01*
X400184Y16904D01*
X948436Y16904D01*
X948532Y16920D01*
X948629Y16929D01*
X948652Y16939D01*
X948677Y16943D01*
X948763Y16989D01*
X948851Y17030D01*
X948877Y17051D01*
X948892Y17058D01*
X948892Y17059D01*
X948909Y17077D01*
X948966Y17123D01*
X958756Y26913D01*
X958813Y26993D01*
X958875Y27068D01*
X958883Y27091D01*
X958898Y27112D01*
X958926Y27205D01*
X958961Y27296D01*
X958964Y27329D01*
X958969Y27345D01*
X958968Y27370D01*
X958975Y27443D01*
X958975Y152210D01*
X958959Y152306D01*
X958950Y152403D01*
X958940Y152426D01*
X958936Y152450D01*
X958890Y152536D01*
X958849Y152625D01*
X958828Y152651D01*
X958821Y152665D01*
X958802Y152682D01*
X958756Y152739D01*
X956693Y154802D01*
X956693Y159198D01*
X959802Y162307D01*
X964198Y162307D01*
X967307Y159198D01*
X967307Y154802D01*
X965244Y152739D01*
X965187Y152660D01*
X965125Y152585D01*
X965117Y152561D01*
X965102Y152541D01*
X965074Y152448D01*
X965039Y152356D01*
X965036Y152323D01*
X965031Y152307D01*
X965032Y152283D01*
X965025Y152210D01*
X965025Y24627D01*
X963033Y22636D01*
X951837Y11440D01*
X951795Y11380D01*
X951744Y11326D01*
X951724Y11282D01*
X951695Y11241D01*
X951674Y11171D01*
X951644Y11104D01*
X951639Y11055D01*
X951624Y11008D01*
X951627Y10935D01*
X951620Y10861D01*
X951631Y10813D01*
X951632Y10764D01*
X951658Y10695D01*
X951675Y10624D01*
X951701Y10582D01*
X951718Y10536D01*
X951765Y10479D01*
X951804Y10416D01*
X951842Y10385D01*
X951873Y10347D01*
X951935Y10308D01*
X951992Y10261D01*
X952038Y10244D01*
X952080Y10218D01*
X952152Y10201D01*
X952220Y10175D01*
X952293Y10168D01*
X952318Y10162D01*
X952334Y10164D01*
X952367Y10161D01*
X986590Y10161D01*
X986614Y10165D01*
X986639Y10162D01*
X986734Y10184D01*
X986831Y10200D01*
X986852Y10212D01*
X986876Y10218D01*
X986960Y10269D01*
X987046Y10315D01*
X987063Y10333D01*
X987084Y10346D01*
X987146Y10422D01*
X987213Y10493D01*
X987223Y10516D01*
X987239Y10535D01*
X987273Y10626D01*
X987314Y10716D01*
X987316Y10740D01*
X987325Y10763D01*
X987339Y10910D01*
X987339Y835090D01*
X987336Y835112D01*
X987338Y835134D01*
X987337Y835135D01*
X987338Y835139D01*
X987316Y835234D01*
X987300Y835331D01*
X987288Y835352D01*
X987282Y835376D01*
X987231Y835460D01*
X987185Y835546D01*
X987167Y835563D01*
X987154Y835584D01*
X987078Y835646D01*
X987007Y835713D01*
X986984Y835723D01*
X986965Y835739D01*
X986874Y835773D01*
X986784Y835814D01*
X986760Y835816D01*
X986737Y835825D01*
X986590Y835839D01*
X6910Y835839D01*
X6886Y835835D01*
X6861Y835838D01*
X6766Y835816D01*
X6669Y835800D01*
X6648Y835788D01*
X6624Y835782D01*
X6540Y835731D01*
X6454Y835685D01*
X6437Y835667D01*
X6416Y835654D01*
X6354Y835578D01*
X6287Y835507D01*
X6277Y835484D01*
X6261Y835465D01*
X6227Y835374D01*
X6186Y835284D01*
X6184Y835260D01*
X6175Y835237D01*
X6161Y835090D01*
X6161Y410500D01*
X6165Y410476D01*
X6162Y410451D01*
X6184Y410356D01*
X6200Y410259D01*
X6212Y410238D01*
X6218Y410214D01*
X6269Y410130D01*
X6315Y410044D01*
X6333Y410027D01*
X6346Y410006D01*
X6422Y409944D01*
X6493Y409877D01*
X6516Y409867D01*
X6535Y409852D01*
X6626Y409817D01*
X6716Y409776D01*
X6740Y409774D01*
X6763Y409765D01*
X6910Y409751D01*
X302751Y409751D01*
X302751Y10910D01*
X302755Y10886D01*
X302752Y10861D01*
X302775Y10766D01*
X302790Y10669D01*
X302802Y10648D01*
X302808Y10624D01*
X302859Y10540D01*
X302905Y10454D01*
X302923Y10437D01*
X302936Y10416D01*
X303012Y10354D01*
X303084Y10287D01*
X303106Y10277D01*
X303125Y10261D01*
X303216Y10227D01*
X303306Y10186D01*
X303330Y10184D01*
X303353Y10175D01*
X303500Y10161D01*
X396253Y10161D01*
X396325Y10173D01*
G37*
G36*
X299012Y10175D02*
X299012Y10175D01*
X299103Y10183D01*
X299133Y10195D01*
X299165Y10200D01*
X299245Y10243D01*
X299329Y10279D01*
X299361Y10305D01*
X299382Y10316D01*
X299404Y10339D01*
X299460Y10384D01*
X300538Y11462D01*
X300591Y11536D01*
X300651Y11605D01*
X300663Y11635D01*
X300682Y11661D01*
X300709Y11748D01*
X300743Y11833D01*
X300747Y11874D01*
X300754Y11897D01*
X300753Y11929D01*
X300761Y12000D01*
X300761Y398000D01*
X300747Y398090D01*
X300739Y398181D01*
X300727Y398211D01*
X300722Y398243D01*
X300679Y398323D01*
X300643Y398407D01*
X300617Y398439D01*
X300606Y398460D01*
X300583Y398482D01*
X300538Y398538D01*
X293538Y405538D01*
X293464Y405591D01*
X293395Y405651D01*
X293365Y405663D01*
X293339Y405682D01*
X293252Y405709D01*
X293167Y405743D01*
X293126Y405747D01*
X293103Y405754D01*
X293071Y405753D01*
X293000Y405761D01*
X13000Y405761D01*
X12910Y405747D01*
X12819Y405739D01*
X12789Y405727D01*
X12757Y405722D01*
X12677Y405679D01*
X12593Y405643D01*
X12561Y405617D01*
X12540Y405606D01*
X12518Y405583D01*
X12462Y405538D01*
X8462Y401538D01*
X8409Y401464D01*
X8349Y401395D01*
X8337Y401365D01*
X8318Y401339D01*
X8291Y401252D01*
X8257Y401167D01*
X8253Y401126D01*
X8246Y401103D01*
X8247Y401071D01*
X8239Y401000D01*
X8239Y10922D01*
X8242Y10902D01*
X8240Y10883D01*
X8262Y10781D01*
X8279Y10679D01*
X8288Y10662D01*
X8292Y10642D01*
X8345Y10553D01*
X8394Y10462D01*
X8408Y10448D01*
X8418Y10431D01*
X8497Y10364D01*
X8572Y10292D01*
X8590Y10284D01*
X8605Y10271D01*
X8701Y10232D01*
X8795Y10189D01*
X8815Y10187D01*
X8833Y10179D01*
X9000Y10161D01*
X298922Y10161D01*
X299012Y10175D01*
G37*
%LPC*%
G36*
X426984Y622245D02*
X426984Y622245D01*
X426975Y622249D01*
X426902Y622256D01*
X426878Y622262D01*
X426861Y622260D01*
X426828Y622263D01*
X425882Y622263D01*
X425213Y622933D01*
X425153Y622975D01*
X425099Y623025D01*
X425088Y623031D01*
X423540Y624579D01*
X423536Y624588D01*
X423489Y624645D01*
X423476Y624666D01*
X423464Y624677D01*
X423443Y624703D01*
X422773Y625372D01*
X422773Y626318D01*
X422761Y626391D01*
X422759Y626464D01*
X422755Y626476D01*
X422755Y628666D01*
X422759Y628675D01*
X422766Y628748D01*
X422772Y628772D01*
X422770Y628789D01*
X422773Y628822D01*
X422773Y629768D01*
X423443Y630437D01*
X423485Y630497D01*
X423535Y630551D01*
X423541Y630562D01*
X464456Y671476D01*
X464513Y671556D01*
X464575Y671631D01*
X464583Y671654D01*
X464598Y671674D01*
X464626Y671768D01*
X464661Y671859D01*
X464664Y671892D01*
X464669Y671908D01*
X464668Y671933D01*
X464675Y672006D01*
X464675Y800059D01*
X465486Y802016D01*
X492381Y828911D01*
X493984Y830514D01*
X495941Y831325D01*
X666559Y831325D01*
X668516Y830514D01*
X727746Y771284D01*
X727826Y771227D01*
X727901Y771165D01*
X727924Y771157D01*
X727944Y771142D01*
X728038Y771114D01*
X728129Y771079D01*
X728162Y771076D01*
X728178Y771071D01*
X728203Y771072D01*
X728276Y771065D01*
X796184Y771065D01*
X813065Y754184D01*
X813065Y727750D01*
X813081Y727654D01*
X813090Y727557D01*
X813100Y727534D01*
X813104Y727510D01*
X813150Y727424D01*
X813191Y727335D01*
X813212Y727309D01*
X813219Y727295D01*
X813238Y727278D01*
X813284Y727221D01*
X814307Y726198D01*
X814307Y721802D01*
X811198Y718693D01*
X806802Y718693D01*
X803693Y721802D01*
X803693Y726198D01*
X804716Y727221D01*
X804773Y727300D01*
X804835Y727375D01*
X804843Y727399D01*
X804858Y727419D01*
X804886Y727512D01*
X804921Y727604D01*
X804924Y727637D01*
X804929Y727653D01*
X804928Y727677D01*
X804935Y727750D01*
X804935Y750506D01*
X804919Y750602D01*
X804910Y750699D01*
X804900Y750722D01*
X804896Y750747D01*
X804850Y750833D01*
X804809Y750922D01*
X804788Y750947D01*
X804781Y750962D01*
X804762Y750979D01*
X804716Y751036D01*
X793036Y762716D01*
X792956Y762773D01*
X792881Y762835D01*
X792858Y762843D01*
X792837Y762858D01*
X792744Y762886D01*
X792653Y762921D01*
X792620Y762924D01*
X792604Y762929D01*
X792579Y762928D01*
X792506Y762935D01*
X727250Y762935D01*
X727154Y762919D01*
X727057Y762910D01*
X727034Y762900D01*
X727010Y762896D01*
X726924Y762850D01*
X726835Y762809D01*
X726809Y762788D01*
X726795Y762781D01*
X726778Y762762D01*
X726721Y762716D01*
X726198Y762193D01*
X725252Y762193D01*
X725179Y762181D01*
X725106Y762179D01*
X725094Y762175D01*
X722904Y762175D01*
X722895Y762179D01*
X722822Y762186D01*
X722798Y762192D01*
X722781Y762190D01*
X722748Y762193D01*
X721802Y762193D01*
X721133Y762863D01*
X721073Y762905D01*
X721019Y762955D01*
X721008Y762961D01*
X663514Y820456D01*
X663434Y820513D01*
X663359Y820575D01*
X663336Y820583D01*
X663316Y820598D01*
X663222Y820626D01*
X663131Y820661D01*
X663098Y820664D01*
X663082Y820669D01*
X663057Y820668D01*
X662984Y820675D01*
X643074Y820675D01*
X643050Y820671D01*
X643025Y820674D01*
X642930Y820652D01*
X642833Y820636D01*
X642812Y820624D01*
X642788Y820618D01*
X642704Y820567D01*
X642618Y820521D01*
X642601Y820503D01*
X642580Y820490D01*
X642518Y820414D01*
X642451Y820343D01*
X642441Y820320D01*
X642425Y820301D01*
X642391Y820210D01*
X642350Y820120D01*
X642348Y820096D01*
X642339Y820073D01*
X642325Y819926D01*
X642325Y818404D01*
X642321Y818395D01*
X642314Y818322D01*
X642308Y818298D01*
X642310Y818281D01*
X642307Y818248D01*
X642307Y817302D01*
X641637Y816633D01*
X641595Y816573D01*
X641545Y816519D01*
X641539Y816508D01*
X639991Y814960D01*
X639982Y814956D01*
X639925Y814909D01*
X639904Y814896D01*
X639893Y814884D01*
X639867Y814863D01*
X639198Y814193D01*
X638252Y814193D01*
X638179Y814181D01*
X638106Y814179D01*
X638094Y814175D01*
X635904Y814175D01*
X635895Y814179D01*
X635822Y814186D01*
X635798Y814192D01*
X635781Y814190D01*
X635748Y814193D01*
X634802Y814193D01*
X634133Y814863D01*
X634073Y814905D01*
X634019Y814955D01*
X634008Y814961D01*
X632460Y816509D01*
X632456Y816518D01*
X632409Y816575D01*
X632396Y816596D01*
X632384Y816607D01*
X632363Y816633D01*
X631693Y817302D01*
X631693Y818248D01*
X631681Y818321D01*
X631679Y818394D01*
X631675Y818406D01*
X631675Y819926D01*
X631671Y819950D01*
X631674Y819975D01*
X631652Y820070D01*
X631636Y820167D01*
X631624Y820188D01*
X631618Y820212D01*
X631567Y820296D01*
X631521Y820382D01*
X631503Y820399D01*
X631490Y820420D01*
X631414Y820482D01*
X631343Y820549D01*
X631320Y820559D01*
X631301Y820575D01*
X631210Y820609D01*
X631120Y820650D01*
X631096Y820652D01*
X631073Y820661D01*
X630926Y820675D01*
X499516Y820675D01*
X499420Y820659D01*
X499323Y820650D01*
X499300Y820640D01*
X499275Y820636D01*
X499189Y820590D01*
X499100Y820549D01*
X499075Y820528D01*
X499060Y820521D01*
X499043Y820502D01*
X498986Y820456D01*
X475544Y797014D01*
X475487Y796934D01*
X475425Y796859D01*
X475417Y796836D01*
X475402Y796816D01*
X475374Y796722D01*
X475339Y796631D01*
X475336Y796598D01*
X475331Y796582D01*
X475332Y796557D01*
X475325Y796484D01*
X475325Y731556D01*
X475329Y731532D01*
X475326Y731507D01*
X475348Y731412D01*
X475364Y731315D01*
X475376Y731294D01*
X475382Y731270D01*
X475433Y731186D01*
X475479Y731100D01*
X475497Y731083D01*
X475510Y731062D01*
X475586Y731000D01*
X475657Y730933D01*
X475680Y730923D01*
X475699Y730907D01*
X475790Y730873D01*
X475880Y730832D01*
X475904Y730830D01*
X475927Y730821D01*
X476074Y730807D01*
X479698Y730807D01*
X482807Y727698D01*
X482807Y723302D01*
X479698Y720193D01*
X476074Y720193D01*
X476050Y720189D01*
X476025Y720192D01*
X475930Y720170D01*
X475833Y720154D01*
X475812Y720142D01*
X475788Y720136D01*
X475704Y720085D01*
X475618Y720039D01*
X475601Y720021D01*
X475580Y720008D01*
X475518Y719932D01*
X475451Y719861D01*
X475441Y719838D01*
X475425Y719819D01*
X475391Y719728D01*
X475350Y719638D01*
X475348Y719614D01*
X475339Y719591D01*
X475325Y719444D01*
X475325Y668431D01*
X474514Y666474D01*
X431071Y623030D01*
X431062Y623026D01*
X431005Y622979D01*
X430984Y622966D01*
X430973Y622954D01*
X430947Y622933D01*
X430278Y622263D01*
X429332Y622263D01*
X429259Y622251D01*
X429186Y622249D01*
X429174Y622245D01*
X426984Y622245D01*
G37*
%LPD*%
%LPC*%
G36*
X595053Y507213D02*
X595053Y507213D01*
X519272Y582994D01*
X519193Y583051D01*
X519118Y583113D01*
X519094Y583121D01*
X519074Y583136D01*
X518981Y583164D01*
X518889Y583199D01*
X518856Y583202D01*
X518840Y583207D01*
X518816Y583206D01*
X518742Y583213D01*
X417528Y583213D01*
X417432Y583197D01*
X417335Y583188D01*
X417312Y583178D01*
X417288Y583174D01*
X417202Y583128D01*
X417113Y583087D01*
X417087Y583066D01*
X417073Y583059D01*
X417056Y583040D01*
X416999Y582994D01*
X414198Y580193D01*
X409802Y580193D01*
X406693Y583302D01*
X406693Y587698D01*
X409802Y590807D01*
X414198Y590807D01*
X416999Y588006D01*
X417078Y587949D01*
X417153Y587887D01*
X417177Y587879D01*
X417197Y587864D01*
X417290Y587836D01*
X417382Y587801D01*
X417415Y587798D01*
X417431Y587793D01*
X417455Y587794D01*
X417528Y587787D01*
X520947Y587787D01*
X596728Y512006D01*
X596807Y511949D01*
X596882Y511887D01*
X596906Y511879D01*
X596926Y511864D01*
X597019Y511836D01*
X597111Y511801D01*
X597144Y511798D01*
X597160Y511793D01*
X597184Y511794D01*
X597258Y511787D01*
X678572Y511787D01*
X678669Y511803D01*
X678766Y511812D01*
X678788Y511822D01*
X678813Y511826D01*
X678899Y511872D01*
X678988Y511913D01*
X679014Y511934D01*
X679028Y511941D01*
X679045Y511960D01*
X679102Y512006D01*
X683494Y516398D01*
X683551Y516477D01*
X683613Y516552D01*
X683621Y516576D01*
X683636Y516596D01*
X683664Y516689D01*
X683699Y516781D01*
X683702Y516814D01*
X683707Y516830D01*
X683706Y516854D01*
X683713Y516928D01*
X683713Y638447D01*
X697053Y651787D01*
X699900Y651787D01*
X699972Y651799D01*
X700045Y651801D01*
X700092Y651818D01*
X700140Y651826D01*
X700205Y651861D01*
X700274Y651887D01*
X700312Y651918D01*
X700356Y651941D01*
X700406Y651995D01*
X700463Y652042D01*
X700489Y652083D01*
X700522Y652119D01*
X700553Y652186D01*
X700592Y652249D01*
X700603Y652297D01*
X700623Y652342D01*
X700630Y652415D01*
X700647Y652486D01*
X700642Y652535D01*
X700647Y652585D01*
X700631Y652656D01*
X700623Y652729D01*
X700603Y652774D01*
X700592Y652822D01*
X700553Y652885D01*
X700523Y652952D01*
X700476Y653008D01*
X700463Y653030D01*
X700450Y653040D01*
X700429Y653066D01*
X697501Y655994D01*
X697422Y656051D01*
X697347Y656113D01*
X697323Y656121D01*
X697303Y656136D01*
X697210Y656164D01*
X697118Y656199D01*
X697085Y656202D01*
X697069Y656207D01*
X697045Y656206D01*
X696972Y656213D01*
X689758Y656213D01*
X689661Y656197D01*
X689564Y656188D01*
X689542Y656178D01*
X689517Y656174D01*
X689431Y656128D01*
X689342Y656087D01*
X689316Y656066D01*
X689302Y656059D01*
X689285Y656040D01*
X689228Y655994D01*
X681506Y648272D01*
X681457Y648204D01*
X681443Y648189D01*
X681440Y648181D01*
X681387Y648118D01*
X681379Y648094D01*
X681364Y648074D01*
X681336Y647981D01*
X681301Y647889D01*
X681298Y647856D01*
X681293Y647840D01*
X681294Y647816D01*
X681287Y647742D01*
X681287Y520553D01*
X674947Y514213D01*
X607053Y514213D01*
X523772Y597494D01*
X523693Y597551D01*
X523618Y597613D01*
X523594Y597621D01*
X523574Y597636D01*
X523481Y597664D01*
X523389Y597699D01*
X523356Y597702D01*
X523340Y597707D01*
X523316Y597706D01*
X523242Y597713D01*
X416528Y597713D01*
X416432Y597697D01*
X416335Y597688D01*
X416312Y597678D01*
X416288Y597674D01*
X416202Y597628D01*
X416113Y597587D01*
X416087Y597566D01*
X416073Y597559D01*
X416056Y597540D01*
X415999Y597494D01*
X413198Y594693D01*
X408802Y594693D01*
X405693Y597802D01*
X405693Y602198D01*
X408802Y605307D01*
X413198Y605307D01*
X415999Y602506D01*
X416078Y602449D01*
X416153Y602387D01*
X416177Y602379D01*
X416197Y602364D01*
X416290Y602336D01*
X416382Y602301D01*
X416415Y602298D01*
X416431Y602293D01*
X416455Y602294D01*
X416528Y602287D01*
X525447Y602287D01*
X608728Y519006D01*
X608807Y518949D01*
X608882Y518887D01*
X608906Y518879D01*
X608926Y518864D01*
X609019Y518836D01*
X609111Y518801D01*
X609144Y518798D01*
X609160Y518793D01*
X609184Y518794D01*
X609258Y518787D01*
X672742Y518787D01*
X672839Y518803D01*
X672936Y518812D01*
X672958Y518822D01*
X672983Y518826D01*
X673069Y518872D01*
X673158Y518913D01*
X673184Y518934D01*
X673198Y518941D01*
X673215Y518960D01*
X673272Y519006D01*
X676494Y522228D01*
X676551Y522307D01*
X676613Y522382D01*
X676621Y522406D01*
X676636Y522426D01*
X676664Y522519D01*
X676699Y522611D01*
X676702Y522644D01*
X676707Y522660D01*
X676706Y522684D01*
X676713Y522758D01*
X676713Y649947D01*
X687553Y660787D01*
X696972Y660787D01*
X697068Y660803D01*
X697165Y660812D01*
X697188Y660822D01*
X697212Y660826D01*
X697298Y660872D01*
X697387Y660913D01*
X697413Y660934D01*
X697427Y660941D01*
X697444Y660960D01*
X697501Y661006D01*
X700302Y663807D01*
X704698Y663807D01*
X707807Y660698D01*
X707807Y656302D01*
X704571Y653066D01*
X704528Y653006D01*
X704478Y652952D01*
X704457Y652908D01*
X704428Y652867D01*
X704407Y652797D01*
X704377Y652730D01*
X704372Y652681D01*
X704358Y652634D01*
X704360Y652561D01*
X704353Y652487D01*
X704364Y652439D01*
X704366Y652390D01*
X704391Y652321D01*
X704408Y652250D01*
X704434Y652208D01*
X704451Y652162D01*
X704498Y652105D01*
X704537Y652042D01*
X704575Y652011D01*
X704606Y651973D01*
X704668Y651934D01*
X704725Y651887D01*
X704771Y651870D01*
X704813Y651844D01*
X704885Y651827D01*
X704953Y651801D01*
X705027Y651794D01*
X705051Y651788D01*
X705067Y651790D01*
X705100Y651787D01*
X727972Y651787D01*
X728068Y651803D01*
X728165Y651812D01*
X728188Y651822D01*
X728212Y651826D01*
X728298Y651872D01*
X728387Y651913D01*
X728413Y651934D01*
X728427Y651941D01*
X728444Y651960D01*
X728501Y652006D01*
X731302Y654807D01*
X735698Y654807D01*
X738807Y651698D01*
X738807Y647302D01*
X735698Y644193D01*
X731302Y644193D01*
X728501Y646994D01*
X728422Y647051D01*
X728347Y647113D01*
X728323Y647121D01*
X728303Y647136D01*
X728210Y647164D01*
X728118Y647199D01*
X728085Y647202D01*
X728069Y647207D01*
X728045Y647206D01*
X727972Y647213D01*
X699258Y647213D01*
X699161Y647197D01*
X699064Y647188D01*
X699042Y647178D01*
X699017Y647174D01*
X698931Y647128D01*
X698842Y647087D01*
X698816Y647066D01*
X698802Y647059D01*
X698785Y647040D01*
X698728Y646994D01*
X688506Y636772D01*
X688449Y636693D01*
X688387Y636618D01*
X688379Y636594D01*
X688364Y636574D01*
X688336Y636481D01*
X688301Y636389D01*
X688298Y636356D01*
X688293Y636340D01*
X688294Y636316D01*
X688287Y636242D01*
X688287Y514723D01*
X680777Y507213D01*
X595053Y507213D01*
G37*
%LPD*%
%LPC*%
G36*
X571302Y343693D02*
X571302Y343693D01*
X568193Y346802D01*
X568193Y349719D01*
X568177Y349815D01*
X568168Y349912D01*
X568158Y349935D01*
X568154Y349960D01*
X568108Y350046D01*
X568067Y350134D01*
X568046Y350160D01*
X568039Y350175D01*
X568020Y350192D01*
X567974Y350249D01*
X567475Y350747D01*
X567475Y497253D01*
X575747Y505525D01*
X687437Y505525D01*
X687533Y505541D01*
X687630Y505550D01*
X687653Y505560D01*
X687678Y505564D01*
X687764Y505610D01*
X687852Y505651D01*
X687878Y505672D01*
X687893Y505679D01*
X687910Y505698D01*
X687967Y505744D01*
X692756Y510533D01*
X692813Y510613D01*
X692875Y510688D01*
X692883Y510711D01*
X692898Y510732D01*
X692926Y510825D01*
X692961Y510916D01*
X692964Y510949D01*
X692969Y510965D01*
X692968Y510990D01*
X692975Y511063D01*
X692975Y599210D01*
X692959Y599306D01*
X692950Y599403D01*
X692940Y599426D01*
X692936Y599450D01*
X692890Y599536D01*
X692849Y599625D01*
X692828Y599651D01*
X692821Y599665D01*
X692802Y599682D01*
X692756Y599739D01*
X690693Y601802D01*
X690693Y606198D01*
X693802Y609307D01*
X698198Y609307D01*
X700511Y606994D01*
X700590Y606937D01*
X700665Y606875D01*
X700689Y606867D01*
X700709Y606852D01*
X700802Y606824D01*
X700894Y606789D01*
X700927Y606786D01*
X700943Y606781D01*
X700967Y606782D01*
X701040Y606775D01*
X745040Y606775D01*
X745137Y606791D01*
X745234Y606800D01*
X745256Y606810D01*
X745281Y606814D01*
X745367Y606860D01*
X745456Y606901D01*
X745482Y606922D01*
X745496Y606929D01*
X745513Y606948D01*
X745570Y606994D01*
X752506Y613930D01*
X752563Y614009D01*
X752625Y614084D01*
X752633Y614108D01*
X752648Y614128D01*
X752676Y614222D01*
X752711Y614313D01*
X752714Y614346D01*
X752719Y614362D01*
X752718Y614387D01*
X752725Y614460D01*
X752725Y621960D01*
X752709Y622056D01*
X752700Y622153D01*
X752690Y622176D01*
X752686Y622200D01*
X752640Y622286D01*
X752599Y622375D01*
X752578Y622401D01*
X752571Y622416D01*
X752552Y622433D01*
X752506Y622489D01*
X750193Y624802D01*
X750193Y629198D01*
X752256Y631261D01*
X752313Y631340D01*
X752375Y631415D01*
X752383Y631439D01*
X752398Y631459D01*
X752426Y631552D01*
X752461Y631643D01*
X752464Y631676D01*
X752469Y631692D01*
X752468Y631717D01*
X752475Y631790D01*
X752475Y678253D01*
X762347Y688125D01*
X952523Y688125D01*
X952653Y688146D01*
X952763Y688164D01*
X952764Y688164D01*
X952863Y688217D01*
X952979Y688279D01*
X953057Y688363D01*
X953146Y688457D01*
X953146Y688458D01*
X953215Y688587D01*
X953663Y689668D01*
X955932Y691937D01*
X958896Y693165D01*
X962104Y693165D01*
X965068Y691937D01*
X967337Y689668D01*
X968565Y686704D01*
X968565Y683496D01*
X967337Y680532D01*
X965068Y678263D01*
X962104Y677035D01*
X958896Y677035D01*
X955932Y678263D01*
X953663Y680532D01*
X953215Y681613D01*
X953161Y681700D01*
X953087Y681820D01*
X953086Y681820D01*
X953002Y681889D01*
X952898Y681975D01*
X952765Y682025D01*
X952670Y682061D01*
X952669Y682061D01*
X952668Y682061D01*
X952523Y682075D01*
X765163Y682075D01*
X765067Y682059D01*
X764970Y682050D01*
X764947Y682040D01*
X764922Y682036D01*
X764836Y681990D01*
X764748Y681949D01*
X764722Y681928D01*
X764707Y681921D01*
X764690Y681902D01*
X764633Y681856D01*
X758744Y675967D01*
X758687Y675887D01*
X758625Y675812D01*
X758617Y675789D01*
X758602Y675768D01*
X758574Y675675D01*
X758539Y675584D01*
X758536Y675551D01*
X758531Y675535D01*
X758532Y675510D01*
X758525Y675437D01*
X758525Y631790D01*
X758541Y631694D01*
X758550Y631597D01*
X758560Y631574D01*
X758564Y631550D01*
X758610Y631464D01*
X758651Y631375D01*
X758672Y631349D01*
X758679Y631334D01*
X758698Y631317D01*
X758744Y631261D01*
X760807Y629198D01*
X760807Y624802D01*
X758494Y622489D01*
X758437Y622410D01*
X758375Y622335D01*
X758367Y622311D01*
X758352Y622291D01*
X758324Y622198D01*
X758289Y622107D01*
X758286Y622074D01*
X758281Y622058D01*
X758282Y622033D01*
X758275Y621960D01*
X758275Y611851D01*
X747649Y601225D01*
X701040Y601225D01*
X700944Y601209D01*
X700847Y601200D01*
X700824Y601190D01*
X700800Y601186D01*
X700714Y601140D01*
X700625Y601099D01*
X700599Y601078D01*
X700585Y601071D01*
X700568Y601052D01*
X700511Y601006D01*
X699244Y599739D01*
X699187Y599660D01*
X699125Y599585D01*
X699117Y599561D01*
X699102Y599541D01*
X699074Y599448D01*
X699039Y599356D01*
X699036Y599323D01*
X699031Y599307D01*
X699032Y599283D01*
X699025Y599210D01*
X699025Y508247D01*
X690253Y499475D01*
X578563Y499475D01*
X578467Y499459D01*
X578370Y499450D01*
X578347Y499440D01*
X578322Y499436D01*
X578236Y499390D01*
X578148Y499349D01*
X578122Y499328D01*
X578107Y499321D01*
X578090Y499302D01*
X578033Y499256D01*
X573744Y494967D01*
X573687Y494887D01*
X573625Y494812D01*
X573617Y494789D01*
X573602Y494768D01*
X573574Y494675D01*
X573539Y494584D01*
X573536Y494551D01*
X573531Y494535D01*
X573532Y494510D01*
X573525Y494437D01*
X573525Y355056D01*
X573529Y355032D01*
X573526Y355007D01*
X573548Y354912D01*
X573564Y354815D01*
X573576Y354794D01*
X573582Y354770D01*
X573633Y354686D01*
X573679Y354600D01*
X573697Y354583D01*
X573710Y354562D01*
X573786Y354500D01*
X573857Y354433D01*
X573880Y354423D01*
X573899Y354407D01*
X573990Y354373D01*
X574080Y354332D01*
X574104Y354330D01*
X574127Y354321D01*
X574274Y354307D01*
X575698Y354307D01*
X578807Y351198D01*
X578807Y346802D01*
X575698Y343693D01*
X571302Y343693D01*
G37*
%LPD*%
%LPC*%
G36*
X48842Y159205D02*
X48842Y159205D01*
X29205Y178842D01*
X29205Y279975D01*
X29191Y280065D01*
X29183Y280156D01*
X29171Y280185D01*
X29166Y280217D01*
X29123Y280298D01*
X29087Y280382D01*
X29061Y280414D01*
X29050Y280435D01*
X29027Y280457D01*
X28982Y280513D01*
X26693Y282802D01*
X26693Y287198D01*
X29802Y290307D01*
X34198Y290307D01*
X37307Y287198D01*
X37307Y282802D01*
X35018Y280513D01*
X34965Y280439D01*
X34905Y280369D01*
X34893Y280339D01*
X34874Y280313D01*
X34847Y280226D01*
X34813Y280141D01*
X34809Y280100D01*
X34802Y280078D01*
X34803Y280046D01*
X34795Y279975D01*
X34795Y181473D01*
X34809Y181383D01*
X34817Y181292D01*
X34829Y181262D01*
X34834Y181230D01*
X34877Y181150D01*
X34913Y181066D01*
X34939Y181034D01*
X34950Y181013D01*
X34973Y180991D01*
X35018Y180935D01*
X50935Y165018D01*
X51009Y164965D01*
X51078Y164905D01*
X51108Y164893D01*
X51134Y164874D01*
X51221Y164847D01*
X51306Y164813D01*
X51347Y164809D01*
X51369Y164802D01*
X51402Y164803D01*
X51473Y164795D01*
X270444Y164795D01*
X270464Y164798D01*
X270483Y164796D01*
X270585Y164818D01*
X270687Y164834D01*
X270704Y164844D01*
X270724Y164848D01*
X270813Y164901D01*
X270904Y164950D01*
X270918Y164964D01*
X270935Y164974D01*
X271002Y165053D01*
X271074Y165128D01*
X271082Y165146D01*
X271095Y165161D01*
X271134Y165257D01*
X271177Y165351D01*
X271179Y165371D01*
X271187Y165389D01*
X271205Y165556D01*
X271205Y166975D01*
X271200Y167009D01*
X271201Y167018D01*
X271191Y167061D01*
X271191Y167065D01*
X271183Y167156D01*
X271171Y167185D01*
X271166Y167217D01*
X271151Y167244D01*
X271148Y167258D01*
X271119Y167307D01*
X271087Y167382D01*
X271061Y167414D01*
X271050Y167435D01*
X271033Y167452D01*
X271022Y167469D01*
X271007Y167482D01*
X270982Y167513D01*
X268693Y169802D01*
X268693Y174198D01*
X271802Y177307D01*
X276198Y177307D01*
X279307Y174198D01*
X279307Y169802D01*
X277018Y167513D01*
X276975Y167454D01*
X276930Y167406D01*
X276922Y167390D01*
X276905Y167369D01*
X276893Y167339D01*
X276874Y167313D01*
X276849Y167232D01*
X276827Y167183D01*
X276825Y167171D01*
X276813Y167141D01*
X276809Y167100D01*
X276802Y167078D01*
X276803Y167046D01*
X276795Y166975D01*
X276795Y160842D01*
X275158Y159205D01*
X48842Y159205D01*
G37*
%LPD*%
%LPC*%
G36*
X764454Y711475D02*
X764454Y711475D01*
X751956Y723974D01*
X751876Y724031D01*
X751801Y724093D01*
X751778Y724101D01*
X751757Y724116D01*
X751664Y724144D01*
X751573Y724179D01*
X751540Y724182D01*
X751524Y724187D01*
X751499Y724186D01*
X751426Y724193D01*
X747802Y724193D01*
X744693Y727302D01*
X744693Y731698D01*
X747802Y734807D01*
X752198Y734807D01*
X755307Y731698D01*
X755307Y728074D01*
X755323Y727978D01*
X755332Y727881D01*
X755342Y727858D01*
X755346Y727833D01*
X755392Y727747D01*
X755433Y727659D01*
X755454Y727633D01*
X755461Y727618D01*
X755480Y727601D01*
X755526Y727544D01*
X766326Y716744D01*
X766406Y716687D01*
X766481Y716625D01*
X766504Y716617D01*
X766525Y716602D01*
X766618Y716574D01*
X766709Y716539D01*
X766742Y716536D01*
X766758Y716531D01*
X766783Y716532D01*
X766856Y716525D01*
X813144Y716525D01*
X813240Y716541D01*
X813337Y716550D01*
X813360Y716560D01*
X813385Y716564D01*
X813471Y716610D01*
X813559Y716651D01*
X813585Y716672D01*
X813600Y716679D01*
X813617Y716698D01*
X813674Y716744D01*
X815756Y718826D01*
X815813Y718906D01*
X815875Y718981D01*
X815883Y719004D01*
X815898Y719025D01*
X815926Y719118D01*
X815961Y719209D01*
X815964Y719242D01*
X815969Y719258D01*
X815968Y719283D01*
X815975Y719356D01*
X815975Y782546D01*
X817454Y784025D01*
X828710Y784025D01*
X828806Y784041D01*
X828903Y784050D01*
X828926Y784060D01*
X828950Y784064D01*
X829036Y784110D01*
X829125Y784151D01*
X829151Y784172D01*
X829165Y784179D01*
X829182Y784198D01*
X829239Y784244D01*
X831802Y786807D01*
X836198Y786807D01*
X838761Y784244D01*
X838840Y784187D01*
X838915Y784125D01*
X838939Y784117D01*
X838959Y784102D01*
X839052Y784074D01*
X839144Y784039D01*
X839177Y784036D01*
X839193Y784031D01*
X839217Y784032D01*
X839290Y784025D01*
X847710Y784025D01*
X847806Y784041D01*
X847903Y784050D01*
X847926Y784060D01*
X847950Y784064D01*
X848036Y784110D01*
X848125Y784151D01*
X848151Y784172D01*
X848165Y784179D01*
X848183Y784198D01*
X848239Y784244D01*
X850305Y786310D01*
X850348Y786370D01*
X850398Y786424D01*
X850419Y786468D01*
X850448Y786509D01*
X850469Y786579D01*
X850499Y786646D01*
X850504Y786695D01*
X850518Y786742D01*
X850516Y786815D01*
X850523Y786889D01*
X850512Y786937D01*
X850510Y786986D01*
X850485Y787055D01*
X850468Y787126D01*
X850442Y787168D01*
X850425Y787214D01*
X850378Y787271D01*
X850339Y787334D01*
X850301Y787365D01*
X850270Y787403D01*
X850208Y787442D01*
X850151Y787489D01*
X850105Y787506D01*
X850063Y787532D01*
X849991Y787549D01*
X849923Y787575D01*
X849849Y787582D01*
X849825Y787588D01*
X849809Y787586D01*
X849776Y787589D01*
X849134Y787589D01*
X843837Y789783D01*
X839783Y793837D01*
X837589Y799134D01*
X837589Y804866D01*
X839783Y810163D01*
X843837Y814217D01*
X849134Y816411D01*
X854866Y816411D01*
X860163Y814217D01*
X864217Y810163D01*
X866411Y804866D01*
X866411Y799134D01*
X864217Y793837D01*
X860163Y789783D01*
X855584Y787886D01*
X855542Y787860D01*
X855496Y787843D01*
X855439Y787796D01*
X855376Y787757D01*
X855345Y787720D01*
X855307Y787688D01*
X855268Y787626D01*
X855222Y787569D01*
X855204Y787523D01*
X855178Y787481D01*
X855162Y787410D01*
X855136Y787341D01*
X855134Y787291D01*
X855123Y787244D01*
X855130Y787170D01*
X855127Y787097D01*
X855142Y787050D01*
X855146Y787001D01*
X855177Y786934D01*
X855198Y786863D01*
X855227Y786823D01*
X855247Y786779D01*
X855340Y786665D01*
X855341Y786664D01*
X858307Y783698D01*
X858307Y779302D01*
X855198Y776193D01*
X850802Y776193D01*
X848239Y778756D01*
X848160Y778813D01*
X848085Y778875D01*
X848061Y778883D01*
X848041Y778898D01*
X847948Y778926D01*
X847856Y778961D01*
X847823Y778964D01*
X847807Y778969D01*
X847783Y778968D01*
X847710Y778975D01*
X839290Y778975D01*
X839194Y778959D01*
X839097Y778950D01*
X839074Y778940D01*
X839050Y778936D01*
X838964Y778890D01*
X838875Y778849D01*
X838849Y778828D01*
X838835Y778821D01*
X838818Y778802D01*
X838761Y778756D01*
X836198Y776193D01*
X831802Y776193D01*
X829239Y778756D01*
X829160Y778813D01*
X829085Y778875D01*
X829061Y778883D01*
X829041Y778898D01*
X828948Y778926D01*
X828856Y778961D01*
X828823Y778964D01*
X828807Y778969D01*
X828783Y778968D01*
X828710Y778975D01*
X821774Y778975D01*
X821750Y778971D01*
X821725Y778974D01*
X821630Y778952D01*
X821533Y778936D01*
X821512Y778924D01*
X821488Y778918D01*
X821404Y778867D01*
X821318Y778821D01*
X821301Y778803D01*
X821280Y778790D01*
X821218Y778714D01*
X821151Y778643D01*
X821141Y778620D01*
X821125Y778601D01*
X821091Y778510D01*
X821050Y778420D01*
X821048Y778396D01*
X821039Y778373D01*
X821025Y778226D01*
X821025Y716954D01*
X815546Y711475D01*
X764454Y711475D01*
G37*
%LPD*%
%LPC*%
G36*
X446118Y106975D02*
X446118Y106975D01*
X445225Y107868D01*
X445225Y117132D01*
X445994Y117900D01*
X446051Y117980D01*
X446113Y118055D01*
X446121Y118078D01*
X446136Y118098D01*
X446164Y118192D01*
X446199Y118283D01*
X446202Y118316D01*
X446207Y118332D01*
X446206Y118357D01*
X446213Y118430D01*
X446213Y118947D01*
X446994Y119728D01*
X447986Y120720D01*
X448001Y120740D01*
X448019Y120756D01*
X448071Y120839D01*
X448128Y120919D01*
X448136Y120942D01*
X448148Y120963D01*
X448171Y121058D01*
X448199Y121152D01*
X448199Y121176D01*
X448204Y121200D01*
X448195Y121298D01*
X448191Y121396D01*
X448183Y121419D01*
X448180Y121443D01*
X448140Y121533D01*
X448106Y121624D01*
X448090Y121643D01*
X448080Y121666D01*
X447986Y121780D01*
X446213Y123553D01*
X446213Y125570D01*
X446211Y125585D01*
X446212Y125594D01*
X446204Y125629D01*
X446197Y125666D01*
X446188Y125763D01*
X446178Y125786D01*
X446174Y125811D01*
X446128Y125897D01*
X446087Y125986D01*
X446066Y126011D01*
X446059Y126026D01*
X446040Y126043D01*
X445994Y126100D01*
X445225Y126868D01*
X445225Y136132D01*
X446118Y137025D01*
X449433Y137025D01*
X449505Y137037D01*
X449578Y137039D01*
X449625Y137056D01*
X449673Y137064D01*
X449738Y137099D01*
X449807Y137125D01*
X449845Y137156D01*
X449888Y137179D01*
X449939Y137233D01*
X449996Y137280D01*
X450022Y137322D01*
X450055Y137357D01*
X450086Y137424D01*
X450125Y137487D01*
X450136Y137535D01*
X450156Y137580D01*
X450163Y137653D01*
X450180Y137724D01*
X450175Y137773D01*
X450180Y137823D01*
X450164Y137894D01*
X450156Y137967D01*
X450136Y138012D01*
X450125Y138060D01*
X450086Y138123D01*
X450056Y138190D01*
X450009Y138246D01*
X449996Y138268D01*
X449983Y138278D01*
X449962Y138304D01*
X447272Y140994D01*
X447193Y141051D01*
X447118Y141113D01*
X447094Y141121D01*
X447074Y141136D01*
X446981Y141164D01*
X446889Y141199D01*
X446856Y141202D01*
X446840Y141207D01*
X446816Y141206D01*
X446742Y141213D01*
X433053Y141213D01*
X425792Y148474D01*
X425713Y148531D01*
X425638Y148593D01*
X425614Y148601D01*
X425594Y148616D01*
X425501Y148644D01*
X425409Y148679D01*
X425376Y148682D01*
X425360Y148687D01*
X425336Y148686D01*
X425262Y148693D01*
X424802Y148693D01*
X421693Y151802D01*
X421693Y156198D01*
X424802Y159307D01*
X429198Y159307D01*
X432307Y156198D01*
X432307Y151802D01*
X431149Y150644D01*
X431135Y150624D01*
X431116Y150609D01*
X431064Y150526D01*
X431007Y150446D01*
X431000Y150423D01*
X430987Y150402D01*
X430965Y150306D01*
X430936Y150212D01*
X430937Y150188D01*
X430931Y150164D01*
X430941Y150067D01*
X430944Y149969D01*
X430953Y149946D01*
X430955Y149921D01*
X430995Y149832D01*
X431030Y149740D01*
X431045Y149721D01*
X431056Y149699D01*
X431149Y149585D01*
X434728Y146006D01*
X434807Y145949D01*
X434882Y145887D01*
X434906Y145879D01*
X434926Y145864D01*
X435019Y145836D01*
X435111Y145801D01*
X435144Y145798D01*
X435160Y145793D01*
X435184Y145794D01*
X435258Y145787D01*
X447671Y145787D01*
X447743Y145799D01*
X447816Y145801D01*
X447863Y145818D01*
X447911Y145826D01*
X447976Y145861D01*
X448045Y145887D01*
X448083Y145918D01*
X448126Y145941D01*
X448177Y145995D01*
X448234Y146042D01*
X448260Y146084D01*
X448293Y146119D01*
X448324Y146186D01*
X448363Y146249D01*
X448374Y146297D01*
X448394Y146342D01*
X448401Y146415D01*
X448418Y146486D01*
X448413Y146535D01*
X448418Y146585D01*
X448402Y146656D01*
X448394Y146729D01*
X448374Y146774D01*
X448363Y146822D01*
X448324Y146885D01*
X448294Y146952D01*
X448247Y147008D01*
X448234Y147030D01*
X448221Y147040D01*
X448200Y147066D01*
X447272Y147994D01*
X447193Y148051D01*
X447118Y148113D01*
X447094Y148121D01*
X447074Y148136D01*
X446981Y148164D01*
X446889Y148199D01*
X446856Y148202D01*
X446840Y148207D01*
X446816Y148206D01*
X446742Y148213D01*
X443053Y148213D01*
X441792Y149474D01*
X441713Y149531D01*
X441638Y149593D01*
X441614Y149601D01*
X441594Y149616D01*
X441501Y149644D01*
X441409Y149679D01*
X441376Y149682D01*
X441360Y149687D01*
X441336Y149686D01*
X441262Y149693D01*
X437802Y149693D01*
X434693Y152802D01*
X434693Y157198D01*
X437802Y160307D01*
X442198Y160307D01*
X445307Y157198D01*
X445307Y153536D01*
X445311Y153512D01*
X445308Y153487D01*
X445330Y153392D01*
X445346Y153295D01*
X445358Y153274D01*
X445364Y153250D01*
X445415Y153166D01*
X445461Y153080D01*
X445479Y153063D01*
X445492Y153042D01*
X445568Y152980D01*
X445639Y152913D01*
X445662Y152903D01*
X445681Y152887D01*
X445772Y152853D01*
X445862Y152812D01*
X445886Y152810D01*
X445909Y152801D01*
X446056Y152787D01*
X447485Y152787D01*
X447509Y152791D01*
X447533Y152788D01*
X447629Y152810D01*
X447726Y152826D01*
X447747Y152838D01*
X447771Y152844D01*
X447854Y152895D01*
X447941Y152941D01*
X447957Y152959D01*
X447978Y152972D01*
X448041Y153048D01*
X448108Y153119D01*
X448118Y153142D01*
X448133Y153161D01*
X448168Y153252D01*
X448208Y153342D01*
X448211Y153366D01*
X448219Y153389D01*
X448234Y153536D01*
X448234Y158239D01*
X451343Y161347D01*
X455739Y161347D01*
X458847Y158239D01*
X458847Y154197D01*
X458863Y154100D01*
X458873Y154004D01*
X458883Y153981D01*
X458887Y153956D01*
X458933Y153870D01*
X458973Y153781D01*
X458994Y153756D01*
X459002Y153741D01*
X459020Y153724D01*
X459067Y153667D01*
X470287Y142447D01*
X470287Y126053D01*
X467006Y122772D01*
X466800Y122566D01*
X466757Y122506D01*
X466707Y122452D01*
X466686Y122408D01*
X466658Y122368D01*
X466636Y122297D01*
X466606Y122230D01*
X466601Y122181D01*
X466587Y122134D01*
X466589Y122061D01*
X466582Y121987D01*
X466593Y121939D01*
X466595Y121890D01*
X466620Y121821D01*
X466637Y121750D01*
X466663Y121708D01*
X466680Y121662D01*
X466727Y121605D01*
X466766Y121542D01*
X466804Y121511D01*
X466835Y121473D01*
X466897Y121434D01*
X466954Y121387D01*
X467000Y121370D01*
X467042Y121344D01*
X467114Y121327D01*
X467183Y121301D01*
X467256Y121294D01*
X467280Y121288D01*
X467296Y121290D01*
X467329Y121287D01*
X472742Y121287D01*
X472839Y121303D01*
X472936Y121312D01*
X472958Y121322D01*
X472983Y121326D01*
X473069Y121372D01*
X473158Y121413D01*
X473184Y121434D01*
X473198Y121441D01*
X473215Y121460D01*
X473272Y121506D01*
X475494Y123728D01*
X475551Y123807D01*
X475613Y123882D01*
X475621Y123906D01*
X475636Y123926D01*
X475664Y124019D01*
X475699Y124111D01*
X475702Y124144D01*
X475707Y124160D01*
X475706Y124184D01*
X475713Y124258D01*
X475713Y149472D01*
X475697Y149568D01*
X475688Y149665D01*
X475678Y149688D01*
X475674Y149712D01*
X475628Y149798D01*
X475587Y149887D01*
X475566Y149913D01*
X475559Y149927D01*
X475540Y149944D01*
X475494Y150001D01*
X472693Y152802D01*
X472693Y157198D01*
X475802Y160307D01*
X480198Y160307D01*
X483307Y157198D01*
X483307Y152802D01*
X480506Y150001D01*
X480449Y149922D01*
X480387Y149847D01*
X480379Y149823D01*
X480364Y149803D01*
X480336Y149710D01*
X480301Y149618D01*
X480298Y149585D01*
X480293Y149569D01*
X480294Y149545D01*
X480287Y149472D01*
X480287Y122053D01*
X474947Y116713D01*
X465524Y116713D01*
X465500Y116709D01*
X465475Y116712D01*
X465380Y116690D01*
X465283Y116674D01*
X465262Y116662D01*
X465238Y116656D01*
X465154Y116605D01*
X465068Y116559D01*
X465051Y116541D01*
X465030Y116528D01*
X464968Y116452D01*
X464901Y116381D01*
X464891Y116358D01*
X464875Y116339D01*
X464841Y116248D01*
X464800Y116158D01*
X464798Y116134D01*
X464789Y116111D01*
X464775Y115964D01*
X464775Y107868D01*
X463882Y106975D01*
X459118Y106975D01*
X458225Y107868D01*
X458225Y115964D01*
X458221Y115988D01*
X458224Y116013D01*
X458202Y116108D01*
X458186Y116205D01*
X458174Y116226D01*
X458168Y116250D01*
X458117Y116334D01*
X458071Y116420D01*
X458053Y116437D01*
X458040Y116458D01*
X457964Y116520D01*
X457893Y116587D01*
X457870Y116597D01*
X457851Y116613D01*
X457760Y116647D01*
X457670Y116688D01*
X457646Y116690D01*
X457623Y116699D01*
X457476Y116713D01*
X452524Y116713D01*
X452500Y116709D01*
X452475Y116712D01*
X452380Y116690D01*
X452283Y116674D01*
X452262Y116662D01*
X452238Y116656D01*
X452154Y116605D01*
X452068Y116559D01*
X452051Y116541D01*
X452030Y116528D01*
X451968Y116452D01*
X451901Y116381D01*
X451891Y116358D01*
X451875Y116339D01*
X451841Y116248D01*
X451800Y116158D01*
X451798Y116134D01*
X451789Y116111D01*
X451775Y115964D01*
X451775Y107868D01*
X450882Y106975D01*
X446118Y106975D01*
G37*
%LPD*%
%LPC*%
G36*
X508802Y498693D02*
X508802Y498693D01*
X505693Y501802D01*
X505693Y506198D01*
X507756Y508261D01*
X507813Y508340D01*
X507875Y508415D01*
X507883Y508439D01*
X507898Y508459D01*
X507926Y508552D01*
X507961Y508644D01*
X507964Y508677D01*
X507969Y508693D01*
X507968Y508717D01*
X507975Y508790D01*
X507975Y546437D01*
X507959Y546533D01*
X507950Y546630D01*
X507940Y546653D01*
X507936Y546678D01*
X507890Y546764D01*
X507849Y546852D01*
X507828Y546878D01*
X507821Y546893D01*
X507802Y546910D01*
X507756Y546967D01*
X498967Y555756D01*
X498887Y555813D01*
X498812Y555875D01*
X498789Y555883D01*
X498768Y555898D01*
X498675Y555926D01*
X498584Y555961D01*
X498551Y555964D01*
X498535Y555969D01*
X498510Y555968D01*
X498437Y555975D01*
X371790Y555975D01*
X371694Y555959D01*
X371597Y555950D01*
X371574Y555940D01*
X371550Y555936D01*
X371464Y555890D01*
X371375Y555849D01*
X371349Y555828D01*
X371335Y555821D01*
X371318Y555802D01*
X371261Y555756D01*
X369198Y553693D01*
X364802Y553693D01*
X361693Y556802D01*
X361693Y561198D01*
X364802Y564307D01*
X369198Y564307D01*
X371261Y562244D01*
X371340Y562187D01*
X371415Y562125D01*
X371439Y562117D01*
X371459Y562102D01*
X371552Y562074D01*
X371644Y562039D01*
X371677Y562036D01*
X371693Y562031D01*
X371717Y562032D01*
X371790Y562025D01*
X501253Y562025D01*
X514025Y549253D01*
X514025Y508790D01*
X514041Y508694D01*
X514050Y508597D01*
X514060Y508574D01*
X514064Y508550D01*
X514110Y508464D01*
X514151Y508375D01*
X514172Y508349D01*
X514179Y508335D01*
X514198Y508318D01*
X514244Y508261D01*
X516307Y506198D01*
X516307Y501802D01*
X513198Y498693D01*
X508802Y498693D01*
G37*
%LPD*%
%LPC*%
G36*
X577802Y185693D02*
X577802Y185693D01*
X574693Y188802D01*
X574693Y193198D01*
X577802Y196307D01*
X582198Y196307D01*
X584491Y194014D01*
X584570Y193957D01*
X584645Y193895D01*
X584669Y193887D01*
X584689Y193872D01*
X584782Y193844D01*
X584874Y193809D01*
X584907Y193806D01*
X584923Y193801D01*
X584947Y193802D01*
X585020Y193795D01*
X600785Y193795D01*
X600881Y193811D01*
X600978Y193820D01*
X601001Y193830D01*
X601025Y193834D01*
X601112Y193880D01*
X601200Y193921D01*
X601226Y193942D01*
X601241Y193949D01*
X601258Y193968D01*
X601314Y194014D01*
X616302Y209002D01*
X616303Y209002D01*
X618159Y210859D01*
X662532Y210859D01*
X662628Y210875D01*
X662725Y210884D01*
X662748Y210894D01*
X662773Y210898D01*
X662859Y210944D01*
X662948Y210985D01*
X662973Y211006D01*
X662988Y211013D01*
X663005Y211032D01*
X663062Y211078D01*
X667986Y216002D01*
X668043Y216082D01*
X668105Y216157D01*
X668113Y216180D01*
X668128Y216200D01*
X668156Y216294D01*
X668191Y216385D01*
X668194Y216418D01*
X668199Y216434D01*
X668198Y216459D01*
X668205Y216532D01*
X668205Y222980D01*
X668203Y222992D01*
X668204Y222996D01*
X668200Y223014D01*
X668189Y223076D01*
X668180Y223173D01*
X668170Y223195D01*
X668166Y223220D01*
X668119Y223306D01*
X668079Y223395D01*
X668058Y223421D01*
X668051Y223435D01*
X668032Y223453D01*
X667986Y223509D01*
X666530Y224965D01*
X666510Y224980D01*
X666494Y224999D01*
X666411Y225050D01*
X666331Y225107D01*
X666308Y225115D01*
X666287Y225128D01*
X666192Y225150D01*
X666098Y225178D01*
X666074Y225178D01*
X666050Y225183D01*
X665952Y225174D01*
X665854Y225170D01*
X665831Y225162D01*
X665807Y225159D01*
X665718Y225119D01*
X665626Y225085D01*
X665607Y225069D01*
X665584Y225059D01*
X665470Y224965D01*
X662198Y221693D01*
X658956Y221693D01*
X658860Y221677D01*
X658763Y221668D01*
X658740Y221658D01*
X658715Y221654D01*
X658629Y221608D01*
X658540Y221567D01*
X658515Y221546D01*
X658500Y221539D01*
X658483Y221520D01*
X658426Y221474D01*
X654158Y217205D01*
X606020Y217205D01*
X605924Y217189D01*
X605827Y217180D01*
X605804Y217170D01*
X605780Y217166D01*
X605694Y217120D01*
X605605Y217079D01*
X605579Y217058D01*
X605565Y217051D01*
X605548Y217032D01*
X605491Y216986D01*
X603198Y214693D01*
X598802Y214693D01*
X595693Y217802D01*
X595693Y222198D01*
X598802Y225307D01*
X603198Y225307D01*
X605491Y223014D01*
X605570Y222957D01*
X605645Y222895D01*
X605669Y222887D01*
X605689Y222872D01*
X605782Y222844D01*
X605874Y222809D01*
X605907Y222806D01*
X605923Y222801D01*
X605947Y222802D01*
X606020Y222795D01*
X651532Y222795D01*
X651628Y222811D01*
X651725Y222820D01*
X651748Y222830D01*
X651773Y222834D01*
X651859Y222880D01*
X651948Y222921D01*
X651973Y222942D01*
X651988Y222949D01*
X652005Y222968D01*
X652062Y223014D01*
X654474Y225426D01*
X654519Y225489D01*
X654556Y225528D01*
X654563Y225545D01*
X654593Y225581D01*
X654601Y225604D01*
X654616Y225625D01*
X654644Y225718D01*
X654679Y225809D01*
X654682Y225842D01*
X654687Y225858D01*
X654686Y225883D01*
X654693Y225956D01*
X654693Y229198D01*
X657802Y232307D01*
X662198Y232307D01*
X664470Y230035D01*
X664490Y230020D01*
X664506Y230001D01*
X664589Y229950D01*
X664669Y229893D01*
X664692Y229885D01*
X664713Y229872D01*
X664808Y229850D01*
X664902Y229822D01*
X664927Y229822D01*
X664950Y229817D01*
X665048Y229826D01*
X665146Y229830D01*
X665169Y229838D01*
X665193Y229841D01*
X665282Y229881D01*
X665374Y229915D01*
X665393Y229931D01*
X665416Y229941D01*
X665530Y230035D01*
X668802Y233307D01*
X673198Y233307D01*
X676307Y230198D01*
X676307Y225802D01*
X674014Y223509D01*
X673957Y223430D01*
X673895Y223355D01*
X673887Y223331D01*
X673872Y223311D01*
X673844Y223218D01*
X673809Y223126D01*
X673806Y223093D01*
X673801Y223077D01*
X673802Y223053D01*
X673795Y222980D01*
X673795Y213906D01*
X671938Y212050D01*
X667014Y207126D01*
X665158Y205269D01*
X620785Y205269D01*
X620688Y205253D01*
X620591Y205244D01*
X620569Y205234D01*
X620544Y205230D01*
X620458Y205184D01*
X620369Y205143D01*
X620343Y205122D01*
X620329Y205115D01*
X620312Y205096D01*
X620255Y205050D01*
X605267Y190062D01*
X603410Y188205D01*
X585020Y188205D01*
X584924Y188189D01*
X584827Y188180D01*
X584804Y188170D01*
X584780Y188166D01*
X584694Y188120D01*
X584605Y188079D01*
X584579Y188058D01*
X584565Y188051D01*
X584548Y188032D01*
X584491Y187986D01*
X582198Y185693D01*
X577802Y185693D01*
G37*
%LPD*%
%LPC*%
G36*
X216802Y593693D02*
X216802Y593693D01*
X213693Y596802D01*
X213693Y601198D01*
X215986Y603491D01*
X216043Y603570D01*
X216105Y603645D01*
X216113Y603669D01*
X216128Y603689D01*
X216156Y603782D01*
X216191Y603874D01*
X216194Y603907D01*
X216199Y603923D01*
X216198Y603947D01*
X216205Y604020D01*
X216205Y658158D01*
X221842Y663795D01*
X296532Y663795D01*
X296628Y663811D01*
X296725Y663820D01*
X296748Y663830D01*
X296773Y663834D01*
X296859Y663880D01*
X296948Y663921D01*
X296973Y663942D01*
X296988Y663949D01*
X297005Y663968D01*
X297062Y664014D01*
X306986Y673938D01*
X307043Y674018D01*
X307105Y674093D01*
X307113Y674116D01*
X307128Y674137D01*
X307156Y674230D01*
X307191Y674321D01*
X307194Y674354D01*
X307199Y674370D01*
X307198Y674395D01*
X307205Y674468D01*
X307205Y705980D01*
X307189Y706076D01*
X307180Y706173D01*
X307170Y706196D01*
X307166Y706220D01*
X307120Y706306D01*
X307079Y706395D01*
X307058Y706421D01*
X307051Y706435D01*
X307032Y706452D01*
X306986Y706509D01*
X304693Y708802D01*
X304693Y713198D01*
X307802Y716307D01*
X312198Y716307D01*
X315307Y713198D01*
X315307Y708802D01*
X313014Y706509D01*
X312957Y706430D01*
X312895Y706355D01*
X312887Y706331D01*
X312872Y706311D01*
X312844Y706218D01*
X312809Y706126D01*
X312806Y706093D01*
X312801Y706077D01*
X312802Y706053D01*
X312795Y705980D01*
X312795Y671842D01*
X299158Y658205D01*
X224468Y658205D01*
X224372Y658189D01*
X224275Y658180D01*
X224252Y658170D01*
X224227Y658166D01*
X224141Y658120D01*
X224052Y658079D01*
X224027Y658058D01*
X224012Y658051D01*
X223995Y658032D01*
X223938Y657986D01*
X222014Y656062D01*
X221957Y655982D01*
X221895Y655907D01*
X221887Y655884D01*
X221872Y655863D01*
X221844Y655770D01*
X221809Y655679D01*
X221806Y655646D01*
X221801Y655630D01*
X221802Y655605D01*
X221795Y655532D01*
X221795Y604020D01*
X221811Y603924D01*
X221820Y603827D01*
X221830Y603804D01*
X221834Y603780D01*
X221880Y603694D01*
X221921Y603605D01*
X221942Y603579D01*
X221949Y603565D01*
X221968Y603548D01*
X222014Y603491D01*
X224307Y601198D01*
X224307Y596802D01*
X221198Y593693D01*
X216802Y593693D01*
G37*
%LPD*%
%LPC*%
G36*
X502802Y459693D02*
X502802Y459693D01*
X499693Y462802D01*
X499693Y465719D01*
X499690Y465738D01*
X499692Y465753D01*
X499677Y465814D01*
X499677Y465815D01*
X499668Y465912D01*
X499658Y465935D01*
X499654Y465960D01*
X499608Y466046D01*
X499567Y466134D01*
X499546Y466160D01*
X499539Y466175D01*
X499520Y466192D01*
X499474Y466249D01*
X420967Y544756D01*
X420887Y544813D01*
X420812Y544875D01*
X420789Y544883D01*
X420768Y544898D01*
X420675Y544926D01*
X420584Y544961D01*
X420551Y544964D01*
X420535Y544969D01*
X420510Y544968D01*
X420437Y544975D01*
X364790Y544975D01*
X364694Y544959D01*
X364597Y544950D01*
X364574Y544940D01*
X364550Y544936D01*
X364464Y544890D01*
X364375Y544849D01*
X364349Y544828D01*
X364335Y544821D01*
X364318Y544802D01*
X364261Y544756D01*
X362198Y542693D01*
X357802Y542693D01*
X354693Y545802D01*
X354693Y550198D01*
X357802Y553307D01*
X362198Y553307D01*
X364261Y551244D01*
X364340Y551187D01*
X364415Y551125D01*
X364439Y551117D01*
X364459Y551102D01*
X364552Y551074D01*
X364644Y551039D01*
X364677Y551036D01*
X364693Y551031D01*
X364717Y551032D01*
X364790Y551025D01*
X423253Y551025D01*
X503751Y470526D01*
X503831Y470469D01*
X503906Y470407D01*
X503929Y470399D01*
X503950Y470384D01*
X504043Y470356D01*
X504134Y470321D01*
X504167Y470318D01*
X504183Y470313D01*
X504208Y470314D01*
X504281Y470307D01*
X507198Y470307D01*
X510307Y467198D01*
X510307Y462802D01*
X507198Y459693D01*
X502802Y459693D01*
G37*
%LPD*%
%LPC*%
G36*
X162279Y85369D02*
X162279Y85369D01*
X155236Y88286D01*
X149846Y93676D01*
X146929Y100719D01*
X146929Y108341D01*
X149846Y115384D01*
X155236Y120774D01*
X162279Y123691D01*
X169901Y123691D01*
X176944Y120774D01*
X182334Y115384D01*
X185251Y108341D01*
X185251Y100719D01*
X182334Y93676D01*
X176944Y88286D01*
X169901Y85369D01*
X162279Y85369D01*
G37*
%LPD*%
%LPC*%
G36*
X618268Y77625D02*
X618268Y77625D01*
X617375Y78518D01*
X617375Y90782D01*
X618268Y91675D01*
X619126Y91675D01*
X619150Y91679D01*
X619175Y91676D01*
X619270Y91698D01*
X619367Y91714D01*
X619388Y91726D01*
X619412Y91732D01*
X619496Y91783D01*
X619582Y91829D01*
X619599Y91847D01*
X619620Y91860D01*
X619682Y91936D01*
X619749Y92007D01*
X619759Y92030D01*
X619775Y92049D01*
X619809Y92140D01*
X619850Y92230D01*
X619852Y92254D01*
X619861Y92277D01*
X619875Y92424D01*
X619875Y98310D01*
X619859Y98406D01*
X619850Y98503D01*
X619840Y98526D01*
X619836Y98550D01*
X619790Y98636D01*
X619749Y98725D01*
X619728Y98751D01*
X619721Y98765D01*
X619702Y98782D01*
X619656Y98839D01*
X618693Y99802D01*
X618693Y104198D01*
X621802Y107307D01*
X626198Y107307D01*
X629307Y104198D01*
X629307Y99802D01*
X628144Y98639D01*
X628087Y98560D01*
X628025Y98485D01*
X628017Y98461D01*
X628002Y98441D01*
X627974Y98348D01*
X627939Y98256D01*
X627936Y98223D01*
X627931Y98207D01*
X627932Y98183D01*
X627925Y98110D01*
X627925Y92424D01*
X627929Y92400D01*
X627926Y92375D01*
X627948Y92280D01*
X627964Y92183D01*
X627976Y92162D01*
X627982Y92138D01*
X628033Y92054D01*
X628079Y91968D01*
X628097Y91951D01*
X628110Y91930D01*
X628186Y91868D01*
X628257Y91801D01*
X628280Y91791D01*
X628299Y91775D01*
X628390Y91741D01*
X628480Y91700D01*
X628504Y91698D01*
X628527Y91689D01*
X628674Y91675D01*
X629532Y91675D01*
X630425Y90782D01*
X630425Y89424D01*
X630429Y89400D01*
X630426Y89375D01*
X630448Y89280D01*
X630464Y89183D01*
X630476Y89162D01*
X630482Y89138D01*
X630533Y89054D01*
X630579Y88968D01*
X630597Y88951D01*
X630610Y88930D01*
X630686Y88868D01*
X630757Y88801D01*
X630780Y88791D01*
X630799Y88775D01*
X630890Y88741D01*
X630980Y88700D01*
X631004Y88698D01*
X631027Y88689D01*
X631174Y88675D01*
X632626Y88675D01*
X632650Y88679D01*
X632675Y88676D01*
X632770Y88698D01*
X632867Y88714D01*
X632888Y88726D01*
X632912Y88732D01*
X632996Y88783D01*
X633082Y88829D01*
X633099Y88847D01*
X633120Y88860D01*
X633182Y88936D01*
X633249Y89007D01*
X633259Y89030D01*
X633275Y89049D01*
X633309Y89140D01*
X633350Y89230D01*
X633352Y89254D01*
X633361Y89277D01*
X633375Y89424D01*
X633375Y90782D01*
X634268Y91675D01*
X645532Y91675D01*
X646425Y90782D01*
X646425Y89424D01*
X646429Y89400D01*
X646426Y89375D01*
X646448Y89280D01*
X646464Y89183D01*
X646476Y89162D01*
X646482Y89138D01*
X646533Y89054D01*
X646579Y88968D01*
X646597Y88951D01*
X646610Y88930D01*
X646686Y88868D01*
X646757Y88801D01*
X646780Y88791D01*
X646799Y88775D01*
X646890Y88741D01*
X646980Y88700D01*
X647004Y88698D01*
X647027Y88689D01*
X647174Y88675D01*
X648626Y88675D01*
X648650Y88679D01*
X648675Y88676D01*
X648770Y88698D01*
X648867Y88714D01*
X648888Y88726D01*
X648912Y88732D01*
X648996Y88783D01*
X649082Y88829D01*
X649099Y88847D01*
X649120Y88860D01*
X649182Y88936D01*
X649249Y89007D01*
X649259Y89030D01*
X649275Y89049D01*
X649309Y89140D01*
X649350Y89230D01*
X649352Y89254D01*
X649361Y89277D01*
X649375Y89424D01*
X649375Y90782D01*
X650268Y91675D01*
X661532Y91675D01*
X662425Y90782D01*
X662425Y89274D01*
X662429Y89250D01*
X662426Y89225D01*
X662448Y89130D01*
X662464Y89033D01*
X662476Y89012D01*
X662482Y88988D01*
X662533Y88904D01*
X662579Y88818D01*
X662597Y88801D01*
X662610Y88780D01*
X662686Y88718D01*
X662757Y88651D01*
X662780Y88641D01*
X662799Y88625D01*
X662890Y88591D01*
X662980Y88550D01*
X663004Y88548D01*
X663027Y88539D01*
X663174Y88525D01*
X699210Y88525D01*
X699306Y88541D01*
X699403Y88550D01*
X699426Y88560D01*
X699450Y88564D01*
X699536Y88610D01*
X699625Y88651D01*
X699651Y88672D01*
X699666Y88679D01*
X699683Y88698D01*
X699739Y88744D01*
X700802Y89807D01*
X705198Y89807D01*
X708307Y86698D01*
X708307Y82302D01*
X705198Y79193D01*
X700802Y79193D01*
X699739Y80256D01*
X699660Y80313D01*
X699585Y80375D01*
X699561Y80383D01*
X699541Y80398D01*
X699448Y80426D01*
X699357Y80461D01*
X699324Y80464D01*
X699308Y80469D01*
X699283Y80468D01*
X699210Y80475D01*
X663174Y80475D01*
X663150Y80471D01*
X663125Y80474D01*
X663030Y80452D01*
X662933Y80436D01*
X662912Y80424D01*
X662888Y80418D01*
X662804Y80367D01*
X662718Y80321D01*
X662701Y80303D01*
X662680Y80290D01*
X662618Y80214D01*
X662551Y80143D01*
X662541Y80120D01*
X662525Y80101D01*
X662491Y80010D01*
X662450Y79920D01*
X662448Y79896D01*
X662439Y79873D01*
X662425Y79726D01*
X662425Y78518D01*
X661532Y77625D01*
X650268Y77625D01*
X649375Y78518D01*
X649375Y79876D01*
X649373Y79887D01*
X649374Y79890D01*
X649371Y79899D01*
X649371Y79900D01*
X649374Y79925D01*
X649352Y80020D01*
X649336Y80117D01*
X649324Y80138D01*
X649318Y80162D01*
X649267Y80246D01*
X649221Y80332D01*
X649203Y80349D01*
X649190Y80370D01*
X649114Y80432D01*
X649043Y80499D01*
X649020Y80509D01*
X649001Y80525D01*
X648910Y80559D01*
X648820Y80600D01*
X648796Y80602D01*
X648773Y80611D01*
X648626Y80625D01*
X647174Y80625D01*
X647150Y80621D01*
X647125Y80624D01*
X647030Y80602D01*
X646933Y80586D01*
X646912Y80574D01*
X646888Y80568D01*
X646804Y80517D01*
X646718Y80471D01*
X646701Y80453D01*
X646680Y80440D01*
X646618Y80364D01*
X646551Y80293D01*
X646541Y80270D01*
X646525Y80251D01*
X646491Y80160D01*
X646450Y80070D01*
X646448Y80046D01*
X646439Y80023D01*
X646425Y79876D01*
X646425Y78518D01*
X645532Y77625D01*
X634268Y77625D01*
X633375Y78518D01*
X633375Y79876D01*
X633373Y79887D01*
X633374Y79890D01*
X633371Y79899D01*
X633371Y79900D01*
X633374Y79925D01*
X633352Y80020D01*
X633336Y80117D01*
X633324Y80138D01*
X633318Y80162D01*
X633267Y80246D01*
X633221Y80332D01*
X633203Y80349D01*
X633190Y80370D01*
X633114Y80432D01*
X633043Y80499D01*
X633020Y80509D01*
X633001Y80525D01*
X632910Y80559D01*
X632820Y80600D01*
X632796Y80602D01*
X632773Y80611D01*
X632626Y80625D01*
X631174Y80625D01*
X631150Y80621D01*
X631125Y80624D01*
X631030Y80602D01*
X630933Y80586D01*
X630912Y80574D01*
X630888Y80568D01*
X630804Y80517D01*
X630718Y80471D01*
X630701Y80453D01*
X630680Y80440D01*
X630618Y80364D01*
X630551Y80293D01*
X630541Y80270D01*
X630525Y80251D01*
X630491Y80160D01*
X630450Y80070D01*
X630448Y80046D01*
X630439Y80023D01*
X630425Y79876D01*
X630425Y78518D01*
X629532Y77625D01*
X618268Y77625D01*
G37*
%LPD*%
%LPC*%
G36*
X162478Y41369D02*
X162478Y41369D01*
X155803Y44134D01*
X150694Y49243D01*
X147929Y55918D01*
X147929Y63142D01*
X150694Y69817D01*
X155803Y74926D01*
X162478Y77691D01*
X169702Y77691D01*
X176377Y74926D01*
X181486Y69817D01*
X184251Y63142D01*
X184251Y55918D01*
X181486Y49243D01*
X176377Y44134D01*
X169702Y41369D01*
X162478Y41369D01*
G37*
%LPD*%
%LPC*%
G36*
X622333Y118975D02*
X622333Y118975D01*
X622102Y119206D01*
X622023Y119263D01*
X621948Y119325D01*
X621924Y119333D01*
X621904Y119348D01*
X621892Y119352D01*
X620836Y120408D01*
X620799Y120488D01*
X620778Y120514D01*
X620771Y120529D01*
X620752Y120546D01*
X620706Y120602D01*
X619975Y121333D01*
X619975Y124667D01*
X620706Y125398D01*
X620763Y125477D01*
X620825Y125552D01*
X620833Y125576D01*
X620848Y125596D01*
X620866Y125657D01*
X620875Y125667D01*
X620883Y125690D01*
X620898Y125710D01*
X620926Y125804D01*
X620961Y125895D01*
X620964Y125928D01*
X620969Y125944D01*
X620968Y125969D01*
X620975Y126042D01*
X620975Y137710D01*
X620959Y137806D01*
X620950Y137903D01*
X620940Y137925D01*
X620936Y137950D01*
X620889Y138036D01*
X620849Y138125D01*
X620828Y138151D01*
X620821Y138165D01*
X620802Y138183D01*
X620756Y138239D01*
X620280Y138715D01*
X620260Y138730D01*
X620244Y138749D01*
X620161Y138800D01*
X620082Y138857D01*
X620058Y138865D01*
X620037Y138878D01*
X619942Y138900D01*
X619848Y138928D01*
X619824Y138928D01*
X619800Y138933D01*
X619702Y138924D01*
X619604Y138920D01*
X619581Y138912D01*
X619557Y138909D01*
X619467Y138869D01*
X619376Y138835D01*
X619357Y138819D01*
X619334Y138809D01*
X619220Y138715D01*
X617014Y136509D01*
X616957Y136430D01*
X616895Y136355D01*
X616887Y136331D01*
X616872Y136311D01*
X616844Y136218D01*
X616809Y136126D01*
X616806Y136093D01*
X616801Y136077D01*
X616802Y136053D01*
X616795Y135980D01*
X616795Y126272D01*
X616797Y126256D01*
X616796Y126246D01*
X616806Y126206D01*
X616811Y126176D01*
X616820Y126079D01*
X616830Y126056D01*
X616834Y126031D01*
X616880Y125945D01*
X616921Y125856D01*
X616942Y125831D01*
X616949Y125816D01*
X616968Y125799D01*
X617014Y125742D01*
X617075Y125682D01*
X617075Y120318D01*
X616182Y119425D01*
X611818Y119425D01*
X610925Y120318D01*
X610925Y125682D01*
X610986Y125742D01*
X611043Y125822D01*
X611105Y125897D01*
X611113Y125920D01*
X611128Y125940D01*
X611156Y126034D01*
X611191Y126125D01*
X611194Y126158D01*
X611199Y126174D01*
X611198Y126199D01*
X611205Y126272D01*
X611205Y135980D01*
X611189Y136076D01*
X611180Y136173D01*
X611170Y136196D01*
X611166Y136220D01*
X611120Y136306D01*
X611079Y136395D01*
X611058Y136421D01*
X611051Y136435D01*
X611032Y136452D01*
X610986Y136509D01*
X608693Y138802D01*
X608693Y143198D01*
X611802Y146307D01*
X616198Y146307D01*
X618720Y143785D01*
X618740Y143770D01*
X618756Y143751D01*
X618839Y143700D01*
X618919Y143643D01*
X618942Y143635D01*
X618963Y143622D01*
X619058Y143600D01*
X619152Y143572D01*
X619177Y143572D01*
X619200Y143567D01*
X619298Y143576D01*
X619396Y143580D01*
X619419Y143588D01*
X619443Y143591D01*
X619532Y143631D01*
X619624Y143665D01*
X619643Y143681D01*
X619666Y143691D01*
X619780Y143785D01*
X622802Y146807D01*
X627198Y146807D01*
X629970Y144035D01*
X629990Y144020D01*
X630006Y144001D01*
X630089Y143950D01*
X630169Y143893D01*
X630192Y143885D01*
X630213Y143872D01*
X630308Y143850D01*
X630402Y143822D01*
X630427Y143822D01*
X630450Y143817D01*
X630548Y143826D01*
X630646Y143830D01*
X630669Y143838D01*
X630693Y143841D01*
X630782Y143881D01*
X630874Y143915D01*
X630893Y143931D01*
X630916Y143941D01*
X631030Y144035D01*
X633302Y146307D01*
X637698Y146307D01*
X640970Y143035D01*
X640990Y143020D01*
X641006Y143001D01*
X641089Y142950D01*
X641169Y142893D01*
X641192Y142885D01*
X641213Y142872D01*
X641308Y142850D01*
X641402Y142822D01*
X641427Y142822D01*
X641450Y142817D01*
X641548Y142826D01*
X641646Y142830D01*
X641669Y142838D01*
X641693Y142841D01*
X641782Y142881D01*
X641874Y142915D01*
X641893Y142931D01*
X641916Y142941D01*
X642030Y143035D01*
X644802Y145807D01*
X649198Y145807D01*
X651970Y143035D01*
X651990Y143020D01*
X652006Y143001D01*
X652089Y142950D01*
X652169Y142893D01*
X652192Y142885D01*
X652213Y142872D01*
X652308Y142850D01*
X652402Y142822D01*
X652427Y142822D01*
X652450Y142817D01*
X652548Y142826D01*
X652646Y142830D01*
X652669Y142838D01*
X652693Y142841D01*
X652782Y142881D01*
X652874Y142915D01*
X652893Y142931D01*
X652916Y142941D01*
X653030Y143035D01*
X655802Y145807D01*
X660198Y145807D01*
X663307Y142698D01*
X663307Y138302D01*
X660198Y135193D01*
X657544Y135193D01*
X657520Y135189D01*
X657495Y135192D01*
X657400Y135170D01*
X657303Y135154D01*
X657282Y135142D01*
X657258Y135136D01*
X657174Y135085D01*
X657088Y135039D01*
X657071Y135021D01*
X657050Y135008D01*
X656988Y134932D01*
X656921Y134861D01*
X656911Y134838D01*
X656895Y134819D01*
X656861Y134728D01*
X656820Y134638D01*
X656818Y134614D01*
X656809Y134591D01*
X656795Y134444D01*
X656795Y126272D01*
X656797Y126256D01*
X656796Y126246D01*
X656806Y126206D01*
X656811Y126176D01*
X656820Y126079D01*
X656830Y126056D01*
X656834Y126031D01*
X656880Y125945D01*
X656921Y125856D01*
X656942Y125831D01*
X656949Y125816D01*
X656968Y125799D01*
X657014Y125742D01*
X657075Y125682D01*
X657075Y120318D01*
X656182Y119425D01*
X651818Y119425D01*
X650925Y120318D01*
X650925Y125682D01*
X650986Y125742D01*
X651043Y125822D01*
X651105Y125897D01*
X651113Y125920D01*
X651128Y125940D01*
X651156Y126034D01*
X651191Y126125D01*
X651194Y126158D01*
X651199Y126174D01*
X651198Y126199D01*
X651205Y126272D01*
X651205Y135392D01*
X651193Y135464D01*
X651191Y135537D01*
X651174Y135584D01*
X651166Y135632D01*
X651131Y135697D01*
X651105Y135766D01*
X651074Y135804D01*
X651051Y135848D01*
X650997Y135898D01*
X650950Y135955D01*
X650908Y135981D01*
X650873Y136014D01*
X650806Y136045D01*
X650743Y136084D01*
X650695Y136095D01*
X650650Y136115D01*
X650577Y136122D01*
X650506Y136139D01*
X650457Y136134D01*
X650407Y136139D01*
X650336Y136123D01*
X650263Y136115D01*
X650218Y136095D01*
X650170Y136084D01*
X650107Y136045D01*
X650040Y136015D01*
X649984Y135968D01*
X649962Y135955D01*
X649952Y135942D01*
X649926Y135921D01*
X649198Y135193D01*
X647544Y135193D01*
X647520Y135189D01*
X647495Y135192D01*
X647400Y135170D01*
X647303Y135154D01*
X647282Y135142D01*
X647258Y135136D01*
X647174Y135085D01*
X647088Y135039D01*
X647071Y135021D01*
X647050Y135008D01*
X646988Y134932D01*
X646921Y134861D01*
X646911Y134838D01*
X646895Y134819D01*
X646861Y134728D01*
X646820Y134638D01*
X646818Y134614D01*
X646809Y134591D01*
X646795Y134444D01*
X646795Y126272D01*
X646797Y126256D01*
X646796Y126246D01*
X646806Y126206D01*
X646811Y126176D01*
X646820Y126079D01*
X646830Y126056D01*
X646834Y126031D01*
X646880Y125945D01*
X646921Y125856D01*
X646942Y125831D01*
X646949Y125816D01*
X646968Y125799D01*
X647014Y125742D01*
X647075Y125682D01*
X647075Y120318D01*
X646182Y119425D01*
X641818Y119425D01*
X640925Y120318D01*
X640925Y125682D01*
X640986Y125742D01*
X641043Y125822D01*
X641105Y125897D01*
X641113Y125920D01*
X641128Y125940D01*
X641156Y126034D01*
X641191Y126125D01*
X641194Y126158D01*
X641199Y126174D01*
X641198Y126199D01*
X641205Y126272D01*
X641205Y137392D01*
X641193Y137464D01*
X641191Y137537D01*
X641174Y137584D01*
X641166Y137632D01*
X641131Y137697D01*
X641105Y137766D01*
X641074Y137804D01*
X641051Y137848D01*
X640997Y137898D01*
X640950Y137955D01*
X640908Y137981D01*
X640873Y138014D01*
X640806Y138045D01*
X640743Y138084D01*
X640695Y138095D01*
X640650Y138115D01*
X640577Y138122D01*
X640506Y138139D01*
X640457Y138134D01*
X640407Y138139D01*
X640336Y138123D01*
X640263Y138115D01*
X640218Y138095D01*
X640170Y138084D01*
X640107Y138045D01*
X640040Y138015D01*
X639984Y137969D01*
X639962Y137955D01*
X639952Y137942D01*
X639926Y137921D01*
X637698Y135693D01*
X637544Y135693D01*
X637520Y135689D01*
X637495Y135692D01*
X637400Y135670D01*
X637303Y135654D01*
X637282Y135642D01*
X637258Y135636D01*
X637174Y135585D01*
X637088Y135539D01*
X637071Y135521D01*
X637050Y135508D01*
X636988Y135432D01*
X636921Y135361D01*
X636911Y135338D01*
X636895Y135319D01*
X636861Y135228D01*
X636820Y135138D01*
X636818Y135114D01*
X636809Y135091D01*
X636795Y134944D01*
X636795Y126272D01*
X636797Y126256D01*
X636796Y126246D01*
X636806Y126206D01*
X636811Y126176D01*
X636820Y126079D01*
X636830Y126056D01*
X636834Y126031D01*
X636880Y125945D01*
X636921Y125856D01*
X636942Y125831D01*
X636949Y125816D01*
X636968Y125799D01*
X637014Y125742D01*
X637075Y125682D01*
X637075Y120318D01*
X636182Y119425D01*
X631818Y119425D01*
X630925Y120318D01*
X630925Y125682D01*
X630986Y125742D01*
X631043Y125822D01*
X631105Y125897D01*
X631113Y125920D01*
X631128Y125940D01*
X631156Y126034D01*
X631191Y126125D01*
X631194Y126158D01*
X631199Y126174D01*
X631198Y126199D01*
X631205Y126272D01*
X631205Y137480D01*
X631189Y137576D01*
X631180Y137673D01*
X631170Y137696D01*
X631166Y137720D01*
X631120Y137806D01*
X631079Y137895D01*
X631058Y137921D01*
X631051Y137935D01*
X631032Y137952D01*
X630986Y138009D01*
X630530Y138465D01*
X630510Y138480D01*
X630494Y138499D01*
X630411Y138550D01*
X630331Y138607D01*
X630308Y138615D01*
X630287Y138628D01*
X630192Y138650D01*
X630098Y138678D01*
X630073Y138678D01*
X630050Y138683D01*
X629952Y138674D01*
X629854Y138670D01*
X629831Y138662D01*
X629807Y138659D01*
X629717Y138619D01*
X629626Y138585D01*
X629607Y138569D01*
X629584Y138559D01*
X629470Y138465D01*
X629244Y138239D01*
X629187Y138160D01*
X629125Y138085D01*
X629117Y138061D01*
X629102Y138041D01*
X629074Y137948D01*
X629039Y137856D01*
X629036Y137823D01*
X629031Y137807D01*
X629032Y137783D01*
X629025Y137710D01*
X629025Y122333D01*
X627294Y120602D01*
X627237Y120523D01*
X627175Y120448D01*
X627167Y120424D01*
X627152Y120404D01*
X627148Y120392D01*
X626092Y119336D01*
X626012Y119299D01*
X625986Y119278D01*
X625971Y119271D01*
X625954Y119252D01*
X625898Y119206D01*
X625667Y118975D01*
X622333Y118975D01*
G37*
%LPD*%
%LPC*%
G36*
X110802Y225693D02*
X110802Y225693D01*
X107693Y228802D01*
X107693Y233198D01*
X110982Y236487D01*
X111026Y236548D01*
X111061Y236585D01*
X111068Y236599D01*
X111095Y236631D01*
X111107Y236661D01*
X111126Y236687D01*
X111153Y236774D01*
X111187Y236859D01*
X111191Y236900D01*
X111198Y236922D01*
X111197Y236954D01*
X111205Y237025D01*
X111205Y371975D01*
X111191Y372065D01*
X111183Y372156D01*
X111171Y372185D01*
X111166Y372217D01*
X111123Y372298D01*
X111087Y372382D01*
X111061Y372414D01*
X111050Y372435D01*
X111027Y372457D01*
X110982Y372513D01*
X108693Y374802D01*
X108693Y379198D01*
X111802Y382307D01*
X116198Y382307D01*
X119307Y379198D01*
X119307Y374802D01*
X117018Y372513D01*
X116965Y372439D01*
X116905Y372369D01*
X116893Y372339D01*
X116874Y372313D01*
X116847Y372226D01*
X116813Y372141D01*
X116809Y372100D01*
X116802Y372078D01*
X116803Y372046D01*
X116795Y371975D01*
X116795Y235025D01*
X116809Y234935D01*
X116817Y234844D01*
X116829Y234815D01*
X116834Y234783D01*
X116877Y234702D01*
X116913Y234618D01*
X116939Y234586D01*
X116950Y234565D01*
X116973Y234543D01*
X117018Y234487D01*
X118307Y233198D01*
X118307Y228802D01*
X115198Y225693D01*
X110802Y225693D01*
G37*
%LPD*%
%LPC*%
G36*
X583736Y29589D02*
X583736Y29589D01*
X577704Y32088D01*
X573088Y36704D01*
X570589Y42736D01*
X570589Y49264D01*
X573088Y55296D01*
X577704Y59912D01*
X583736Y62411D01*
X590264Y62411D01*
X596296Y59912D01*
X600912Y55296D01*
X603411Y49264D01*
X603411Y42736D01*
X600912Y36704D01*
X596296Y32088D01*
X590264Y29589D01*
X583736Y29589D01*
G37*
%LPD*%
%LPC*%
G36*
X663736Y29589D02*
X663736Y29589D01*
X657704Y32088D01*
X653088Y36704D01*
X650589Y42736D01*
X650589Y49264D01*
X653088Y55296D01*
X657704Y59912D01*
X663736Y62411D01*
X670264Y62411D01*
X676296Y59912D01*
X680912Y55296D01*
X683411Y49264D01*
X683411Y42736D01*
X680912Y36704D01*
X676296Y32088D01*
X670264Y29589D01*
X663736Y29589D01*
G37*
%LPD*%
%LPC*%
G36*
X194802Y763693D02*
X194802Y763693D01*
X191693Y766802D01*
X191693Y771198D01*
X194802Y774307D01*
X199198Y774307D01*
X199491Y774014D01*
X199570Y773957D01*
X199645Y773895D01*
X199669Y773887D01*
X199689Y773872D01*
X199782Y773844D01*
X199874Y773809D01*
X199907Y773806D01*
X199923Y773801D01*
X199947Y773802D01*
X200020Y773795D01*
X304980Y773795D01*
X305076Y773811D01*
X305173Y773820D01*
X305196Y773830D01*
X305220Y773834D01*
X305306Y773880D01*
X305395Y773921D01*
X305421Y773942D01*
X305435Y773949D01*
X305452Y773968D01*
X305509Y774014D01*
X307802Y776307D01*
X312198Y776307D01*
X315307Y773198D01*
X315307Y768802D01*
X312198Y765693D01*
X307802Y765693D01*
X305509Y767986D01*
X305430Y768043D01*
X305355Y768105D01*
X305331Y768113D01*
X305311Y768128D01*
X305218Y768156D01*
X305126Y768191D01*
X305093Y768194D01*
X305077Y768199D01*
X305053Y768198D01*
X304980Y768205D01*
X203056Y768205D01*
X203032Y768201D01*
X203007Y768204D01*
X202912Y768182D01*
X202815Y768166D01*
X202794Y768154D01*
X202770Y768148D01*
X202686Y768097D01*
X202600Y768051D01*
X202583Y768033D01*
X202562Y768020D01*
X202500Y767944D01*
X202433Y767873D01*
X202423Y767850D01*
X202407Y767831D01*
X202373Y767740D01*
X202332Y767650D01*
X202330Y767626D01*
X202321Y767603D01*
X202307Y767456D01*
X202307Y766802D01*
X199198Y763693D01*
X194802Y763693D01*
G37*
%LPD*%
%LPC*%
G36*
X364564Y789309D02*
X364564Y789309D01*
X359267Y791503D01*
X355213Y795557D01*
X353019Y800854D01*
X353019Y806586D01*
X355213Y811883D01*
X359267Y815937D01*
X364564Y818131D01*
X370296Y818131D01*
X375593Y815937D01*
X379647Y811883D01*
X381841Y806586D01*
X381841Y800854D01*
X379647Y795557D01*
X375593Y791503D01*
X370296Y789309D01*
X364564Y789309D01*
G37*
%LPD*%
%LPC*%
G36*
X402564Y789309D02*
X402564Y789309D01*
X397267Y791503D01*
X393213Y795557D01*
X391019Y800854D01*
X391019Y806586D01*
X393213Y811883D01*
X397267Y815937D01*
X402564Y818131D01*
X408296Y818131D01*
X413593Y815937D01*
X417647Y811883D01*
X419841Y806586D01*
X419841Y800854D01*
X417647Y795557D01*
X413593Y791503D01*
X408296Y789309D01*
X402564Y789309D01*
G37*
%LPD*%
%LPC*%
G36*
X811134Y787589D02*
X811134Y787589D01*
X805837Y789783D01*
X801783Y793837D01*
X799589Y799134D01*
X799589Y804866D01*
X801783Y810163D01*
X805837Y814217D01*
X811134Y816411D01*
X816866Y816411D01*
X822163Y814217D01*
X826217Y810163D01*
X828411Y804866D01*
X828411Y799134D01*
X826217Y793837D01*
X822163Y789783D01*
X816866Y787589D01*
X811134Y787589D01*
G37*
%LPD*%
%LPC*%
G36*
X79802Y258693D02*
X79802Y258693D01*
X76693Y261802D01*
X76693Y266198D01*
X79957Y269462D01*
X79968Y269478D01*
X79984Y269490D01*
X80040Y269578D01*
X80100Y269661D01*
X80106Y269680D01*
X80117Y269697D01*
X80142Y269798D01*
X80173Y269897D01*
X80172Y269916D01*
X80177Y269936D01*
X80169Y270039D01*
X80166Y270142D01*
X80160Y270161D01*
X80158Y270181D01*
X80118Y270276D01*
X80082Y270373D01*
X80069Y270389D01*
X80062Y270407D01*
X79957Y270538D01*
X76693Y273802D01*
X76693Y278198D01*
X79802Y281307D01*
X84198Y281307D01*
X86962Y278543D01*
X86978Y278532D01*
X86990Y278516D01*
X87078Y278460D01*
X87161Y278400D01*
X87180Y278394D01*
X87197Y278383D01*
X87298Y278358D01*
X87397Y278327D01*
X87416Y278328D01*
X87436Y278323D01*
X87539Y278331D01*
X87642Y278334D01*
X87661Y278340D01*
X87681Y278342D01*
X87776Y278382D01*
X87873Y278418D01*
X87889Y278431D01*
X87907Y278438D01*
X88038Y278543D01*
X90802Y281307D01*
X95198Y281307D01*
X97962Y278543D01*
X97978Y278532D01*
X97990Y278516D01*
X98078Y278460D01*
X98161Y278400D01*
X98180Y278394D01*
X98197Y278383D01*
X98298Y278358D01*
X98397Y278327D01*
X98416Y278328D01*
X98436Y278323D01*
X98539Y278331D01*
X98642Y278334D01*
X98661Y278340D01*
X98681Y278342D01*
X98776Y278382D01*
X98873Y278418D01*
X98889Y278431D01*
X98907Y278438D01*
X99038Y278543D01*
X101802Y281307D01*
X106198Y281307D01*
X109307Y278198D01*
X109307Y273802D01*
X106043Y270538D01*
X106032Y270522D01*
X106016Y270510D01*
X105960Y270422D01*
X105900Y270339D01*
X105894Y270320D01*
X105883Y270303D01*
X105858Y270202D01*
X105827Y270103D01*
X105828Y270084D01*
X105823Y270064D01*
X105831Y269961D01*
X105834Y269858D01*
X105840Y269839D01*
X105842Y269819D01*
X105882Y269724D01*
X105918Y269627D01*
X105931Y269611D01*
X105938Y269593D01*
X106043Y269462D01*
X109307Y266198D01*
X109307Y261802D01*
X106198Y258693D01*
X101802Y258693D01*
X99038Y261457D01*
X99022Y261468D01*
X99010Y261484D01*
X98922Y261540D01*
X98839Y261600D01*
X98820Y261606D01*
X98803Y261617D01*
X98702Y261642D01*
X98603Y261673D01*
X98584Y261672D01*
X98564Y261677D01*
X98461Y261669D01*
X98358Y261666D01*
X98339Y261660D01*
X98319Y261658D01*
X98224Y261618D01*
X98127Y261582D01*
X98111Y261569D01*
X98093Y261562D01*
X97962Y261457D01*
X95198Y258693D01*
X90802Y258693D01*
X88038Y261457D01*
X88022Y261468D01*
X88010Y261484D01*
X87922Y261540D01*
X87839Y261600D01*
X87820Y261606D01*
X87803Y261617D01*
X87702Y261642D01*
X87603Y261673D01*
X87584Y261672D01*
X87564Y261677D01*
X87461Y261669D01*
X87358Y261666D01*
X87339Y261660D01*
X87319Y261658D01*
X87224Y261618D01*
X87127Y261582D01*
X87111Y261569D01*
X87093Y261562D01*
X86962Y261457D01*
X84198Y258693D01*
X79802Y258693D01*
G37*
%LPD*%
%LPC*%
G36*
X775802Y118693D02*
X775802Y118693D01*
X772693Y121802D01*
X772693Y126198D01*
X775802Y129307D01*
X779426Y129307D01*
X779522Y129323D01*
X779619Y129332D01*
X779642Y129342D01*
X779667Y129346D01*
X779753Y129392D01*
X779841Y129433D01*
X779867Y129454D01*
X779882Y129461D01*
X779899Y129480D01*
X779956Y129526D01*
X790256Y139826D01*
X790313Y139906D01*
X790375Y139981D01*
X790383Y140004D01*
X790398Y140025D01*
X790426Y140118D01*
X790461Y140209D01*
X790464Y140242D01*
X790469Y140258D01*
X790468Y140283D01*
X790475Y140356D01*
X790475Y187046D01*
X794674Y191245D01*
X819480Y191245D01*
X819576Y191261D01*
X819673Y191270D01*
X819696Y191280D01*
X819720Y191284D01*
X819806Y191330D01*
X819895Y191371D01*
X819921Y191392D01*
X819935Y191399D01*
X819952Y191418D01*
X820009Y191464D01*
X822572Y194027D01*
X826968Y194027D01*
X830077Y190918D01*
X830077Y186522D01*
X826968Y183413D01*
X822572Y183413D01*
X820009Y185976D01*
X819930Y186033D01*
X819855Y186095D01*
X819831Y186103D01*
X819811Y186118D01*
X819718Y186146D01*
X819626Y186181D01*
X819593Y186184D01*
X819577Y186189D01*
X819553Y186188D01*
X819480Y186195D01*
X797076Y186195D01*
X796980Y186179D01*
X796883Y186170D01*
X796860Y186160D01*
X796835Y186156D01*
X796749Y186110D01*
X796661Y186069D01*
X796635Y186048D01*
X796620Y186041D01*
X796603Y186022D01*
X796546Y185976D01*
X795744Y185174D01*
X795687Y185094D01*
X795625Y185019D01*
X795617Y184996D01*
X795602Y184975D01*
X795574Y184882D01*
X795539Y184791D01*
X795536Y184758D01*
X795531Y184742D01*
X795532Y184717D01*
X795525Y184644D01*
X795525Y137954D01*
X783526Y125956D01*
X783469Y125876D01*
X783407Y125801D01*
X783399Y125778D01*
X783384Y125757D01*
X783356Y125664D01*
X783321Y125573D01*
X783318Y125540D01*
X783313Y125524D01*
X783314Y125499D01*
X783307Y125426D01*
X783307Y121802D01*
X780198Y118693D01*
X775802Y118693D01*
G37*
%LPD*%
%LPC*%
G36*
X620802Y172193D02*
X620802Y172193D01*
X617693Y175302D01*
X617693Y179698D01*
X620802Y182807D01*
X625399Y182807D01*
X625407Y182806D01*
X625423Y182801D01*
X625447Y182802D01*
X625520Y182795D01*
X696444Y182795D01*
X696468Y182799D01*
X696493Y182796D01*
X696588Y182818D01*
X696685Y182834D01*
X696706Y182846D01*
X696730Y182852D01*
X696814Y182903D01*
X696900Y182949D01*
X696917Y182967D01*
X696938Y182980D01*
X697000Y183056D01*
X697067Y183127D01*
X697077Y183150D01*
X697093Y183169D01*
X697127Y183260D01*
X697168Y183350D01*
X697170Y183374D01*
X697179Y183397D01*
X697193Y183544D01*
X697193Y186198D01*
X700302Y189307D01*
X704698Y189307D01*
X707807Y186198D01*
X707807Y181802D01*
X704698Y178693D01*
X701456Y178693D01*
X701360Y178677D01*
X701263Y178668D01*
X701240Y178658D01*
X701215Y178654D01*
X701129Y178608D01*
X701040Y178567D01*
X701015Y178546D01*
X701000Y178539D01*
X700983Y178520D01*
X700926Y178474D01*
X699658Y177205D01*
X629056Y177205D01*
X629032Y177201D01*
X629007Y177204D01*
X628912Y177182D01*
X628815Y177166D01*
X628794Y177154D01*
X628770Y177148D01*
X628686Y177097D01*
X628600Y177051D01*
X628583Y177033D01*
X628562Y177020D01*
X628500Y176944D01*
X628433Y176873D01*
X628423Y176850D01*
X628407Y176831D01*
X628373Y176740D01*
X628332Y176650D01*
X628330Y176626D01*
X628321Y176603D01*
X628307Y176456D01*
X628307Y175302D01*
X625198Y172193D01*
X620802Y172193D01*
G37*
%LPD*%
%LPC*%
G36*
X856802Y95193D02*
X856802Y95193D01*
X853693Y98302D01*
X853693Y102698D01*
X856802Y105807D01*
X861198Y105807D01*
X863999Y103006D01*
X864078Y102949D01*
X864153Y102887D01*
X864177Y102879D01*
X864197Y102864D01*
X864290Y102836D01*
X864382Y102801D01*
X864415Y102798D01*
X864431Y102793D01*
X864455Y102794D01*
X864528Y102787D01*
X901242Y102787D01*
X901339Y102803D01*
X901436Y102812D01*
X901458Y102822D01*
X901483Y102826D01*
X901569Y102872D01*
X901658Y102913D01*
X901684Y102934D01*
X901698Y102941D01*
X901715Y102960D01*
X901772Y103006D01*
X913494Y114728D01*
X913551Y114807D01*
X913613Y114882D01*
X913621Y114906D01*
X913636Y114926D01*
X913664Y115019D01*
X913699Y115111D01*
X913702Y115144D01*
X913707Y115160D01*
X913706Y115184D01*
X913713Y115258D01*
X913713Y137472D01*
X913697Y137568D01*
X913688Y137665D01*
X913678Y137688D01*
X913674Y137712D01*
X913628Y137798D01*
X913587Y137887D01*
X913566Y137913D01*
X913559Y137927D01*
X913540Y137944D01*
X913494Y138001D01*
X910693Y140802D01*
X910693Y145198D01*
X913802Y148307D01*
X918198Y148307D01*
X921307Y145198D01*
X921307Y140802D01*
X918506Y138001D01*
X918449Y137922D01*
X918387Y137847D01*
X918379Y137823D01*
X918364Y137803D01*
X918336Y137710D01*
X918301Y137618D01*
X918298Y137585D01*
X918293Y137569D01*
X918294Y137545D01*
X918287Y137472D01*
X918287Y113053D01*
X903447Y98213D01*
X864528Y98213D01*
X864432Y98197D01*
X864335Y98188D01*
X864312Y98178D01*
X864288Y98174D01*
X864202Y98128D01*
X864113Y98087D01*
X864087Y98066D01*
X864073Y98059D01*
X864056Y98040D01*
X863999Y97994D01*
X861198Y95193D01*
X856802Y95193D01*
G37*
%LPD*%
%LPC*%
G36*
X451302Y229193D02*
X451302Y229193D01*
X448193Y232302D01*
X448193Y236698D01*
X450994Y239499D01*
X451051Y239578D01*
X451113Y239653D01*
X451121Y239677D01*
X451136Y239697D01*
X451164Y239790D01*
X451199Y239882D01*
X451202Y239915D01*
X451207Y239931D01*
X451206Y239955D01*
X451213Y240028D01*
X451213Y314972D01*
X451197Y315068D01*
X451188Y315165D01*
X451178Y315188D01*
X451174Y315212D01*
X451128Y315298D01*
X451087Y315387D01*
X451066Y315413D01*
X451059Y315427D01*
X451040Y315444D01*
X450994Y315501D01*
X448193Y318302D01*
X448193Y322698D01*
X451302Y325807D01*
X455698Y325807D01*
X458807Y322698D01*
X458807Y318302D01*
X456006Y315501D01*
X455949Y315422D01*
X455887Y315347D01*
X455879Y315323D01*
X455864Y315303D01*
X455836Y315210D01*
X455801Y315118D01*
X455798Y315085D01*
X455793Y315069D01*
X455794Y315045D01*
X455787Y314972D01*
X455787Y240028D01*
X455803Y239932D01*
X455812Y239835D01*
X455822Y239812D01*
X455826Y239788D01*
X455872Y239702D01*
X455913Y239613D01*
X455934Y239587D01*
X455941Y239573D01*
X455960Y239556D01*
X456006Y239499D01*
X458807Y236698D01*
X458807Y232302D01*
X455698Y229193D01*
X451302Y229193D01*
G37*
%LPD*%
%LPC*%
G36*
X644302Y189193D02*
X644302Y189193D01*
X641193Y192302D01*
X641193Y196698D01*
X644302Y199807D01*
X648698Y199807D01*
X650991Y197514D01*
X651070Y197457D01*
X651145Y197395D01*
X651169Y197387D01*
X651189Y197372D01*
X651282Y197344D01*
X651374Y197309D01*
X651407Y197306D01*
X651423Y197301D01*
X651447Y197302D01*
X651520Y197295D01*
X674532Y197295D01*
X674628Y197311D01*
X674725Y197320D01*
X674748Y197330D01*
X674773Y197334D01*
X674859Y197380D01*
X674948Y197421D01*
X674973Y197442D01*
X674988Y197449D01*
X675005Y197468D01*
X675062Y197514D01*
X686986Y209438D01*
X687043Y209518D01*
X687105Y209593D01*
X687113Y209616D01*
X687128Y209637D01*
X687156Y209730D01*
X687191Y209821D01*
X687194Y209854D01*
X687199Y209870D01*
X687198Y209895D01*
X687205Y209968D01*
X687205Y221980D01*
X687189Y222076D01*
X687180Y222173D01*
X687170Y222196D01*
X687166Y222220D01*
X687120Y222306D01*
X687079Y222395D01*
X687058Y222421D01*
X687051Y222435D01*
X687032Y222452D01*
X686986Y222509D01*
X684693Y224802D01*
X684693Y229198D01*
X687802Y232307D01*
X692198Y232307D01*
X695307Y229198D01*
X695307Y224802D01*
X693014Y222509D01*
X692957Y222430D01*
X692895Y222355D01*
X692887Y222331D01*
X692872Y222311D01*
X692844Y222218D01*
X692809Y222126D01*
X692806Y222093D01*
X692801Y222077D01*
X692802Y222053D01*
X692795Y221980D01*
X692795Y207342D01*
X677158Y191705D01*
X651520Y191705D01*
X651424Y191689D01*
X651327Y191680D01*
X651304Y191670D01*
X651280Y191666D01*
X651194Y191620D01*
X651105Y191579D01*
X651079Y191558D01*
X651065Y191551D01*
X651048Y191532D01*
X650991Y191486D01*
X648698Y189193D01*
X644302Y189193D01*
G37*
%LPD*%
%LPC*%
G36*
X370802Y491693D02*
X370802Y491693D01*
X367693Y494802D01*
X367693Y499198D01*
X369756Y501261D01*
X369813Y501340D01*
X369875Y501415D01*
X369883Y501439D01*
X369898Y501459D01*
X369926Y501552D01*
X369961Y501644D01*
X369964Y501677D01*
X369969Y501693D01*
X369968Y501717D01*
X369975Y501790D01*
X369975Y512437D01*
X369959Y512533D01*
X369950Y512630D01*
X369940Y512653D01*
X369936Y512678D01*
X369890Y512764D01*
X369849Y512852D01*
X369828Y512878D01*
X369821Y512893D01*
X369802Y512910D01*
X369756Y512967D01*
X342249Y540474D01*
X342169Y540531D01*
X342094Y540593D01*
X342071Y540601D01*
X342050Y540616D01*
X341957Y540644D01*
X341866Y540679D01*
X341833Y540682D01*
X341817Y540687D01*
X341792Y540686D01*
X341719Y540693D01*
X338802Y540693D01*
X335693Y543802D01*
X335693Y548198D01*
X338802Y551307D01*
X343198Y551307D01*
X346307Y548198D01*
X346307Y545281D01*
X346323Y545185D01*
X346332Y545088D01*
X346342Y545065D01*
X346346Y545040D01*
X346392Y544954D01*
X346433Y544866D01*
X346454Y544840D01*
X346461Y544825D01*
X346480Y544808D01*
X346526Y544751D01*
X376025Y515253D01*
X376025Y501790D01*
X376041Y501694D01*
X376050Y501597D01*
X376060Y501574D01*
X376064Y501550D01*
X376110Y501464D01*
X376151Y501375D01*
X376172Y501349D01*
X376179Y501335D01*
X376198Y501318D01*
X376244Y501261D01*
X378307Y499198D01*
X378307Y494802D01*
X375198Y491693D01*
X370802Y491693D01*
G37*
%LPD*%
%LPC*%
G36*
X883302Y813693D02*
X883302Y813693D01*
X880193Y816802D01*
X880193Y821198D01*
X883302Y824307D01*
X887698Y824307D01*
X889761Y822244D01*
X889840Y822187D01*
X889915Y822125D01*
X889939Y822117D01*
X889959Y822102D01*
X890052Y822074D01*
X890144Y822039D01*
X890177Y822036D01*
X890193Y822031D01*
X890217Y822032D01*
X890290Y822025D01*
X935710Y822025D01*
X935806Y822041D01*
X935903Y822050D01*
X935926Y822060D01*
X935950Y822064D01*
X936036Y822110D01*
X936125Y822151D01*
X936151Y822172D01*
X936165Y822179D01*
X936182Y822198D01*
X936239Y822244D01*
X938302Y824307D01*
X942698Y824307D01*
X945807Y821198D01*
X945807Y816802D01*
X942698Y813693D01*
X938302Y813693D01*
X936239Y815756D01*
X936160Y815813D01*
X936085Y815875D01*
X936061Y815883D01*
X936041Y815898D01*
X935948Y815926D01*
X935856Y815961D01*
X935823Y815964D01*
X935807Y815969D01*
X935783Y815968D01*
X935710Y815975D01*
X890290Y815975D01*
X890194Y815959D01*
X890097Y815950D01*
X890074Y815940D01*
X890050Y815936D01*
X889964Y815890D01*
X889875Y815849D01*
X889849Y815828D01*
X889835Y815821D01*
X889818Y815802D01*
X889761Y815756D01*
X887698Y813693D01*
X883302Y813693D01*
G37*
%LPD*%
%LPC*%
G36*
X467802Y229693D02*
X467802Y229693D01*
X464693Y232802D01*
X464693Y237198D01*
X467494Y239999D01*
X467551Y240078D01*
X467613Y240153D01*
X467621Y240177D01*
X467636Y240197D01*
X467664Y240290D01*
X467699Y240382D01*
X467702Y240415D01*
X467707Y240431D01*
X467706Y240455D01*
X467713Y240528D01*
X467713Y285972D01*
X467697Y286068D01*
X467688Y286165D01*
X467678Y286188D01*
X467674Y286212D01*
X467628Y286298D01*
X467587Y286387D01*
X467566Y286413D01*
X467559Y286427D01*
X467540Y286444D01*
X467494Y286501D01*
X465193Y288802D01*
X465193Y293198D01*
X468302Y296307D01*
X472698Y296307D01*
X475807Y293198D01*
X475807Y288802D01*
X472506Y285501D01*
X472449Y285422D01*
X472387Y285347D01*
X472379Y285323D01*
X472364Y285303D01*
X472336Y285210D01*
X472301Y285118D01*
X472298Y285085D01*
X472293Y285069D01*
X472294Y285045D01*
X472287Y284972D01*
X472287Y240528D01*
X472303Y240432D01*
X472312Y240335D01*
X472322Y240312D01*
X472326Y240288D01*
X472372Y240202D01*
X472413Y240113D01*
X472434Y240087D01*
X472441Y240073D01*
X472460Y240056D01*
X472506Y239999D01*
X475307Y237198D01*
X475307Y232802D01*
X472198Y229693D01*
X467802Y229693D01*
G37*
%LPD*%
%LPC*%
G36*
X578588Y118655D02*
X578588Y118655D01*
X577695Y119548D01*
X577695Y124912D01*
X577986Y125202D01*
X578043Y125281D01*
X578105Y125357D01*
X578113Y125380D01*
X578128Y125400D01*
X578156Y125494D01*
X578191Y125585D01*
X578194Y125618D01*
X578199Y125634D01*
X578198Y125659D01*
X578205Y125732D01*
X578205Y135980D01*
X578189Y136076D01*
X578180Y136173D01*
X578170Y136196D01*
X578166Y136220D01*
X578120Y136306D01*
X578079Y136395D01*
X578058Y136421D01*
X578051Y136435D01*
X578032Y136452D01*
X577986Y136509D01*
X575693Y138802D01*
X575693Y143198D01*
X578802Y146307D01*
X583198Y146307D01*
X585970Y143535D01*
X585990Y143520D01*
X586006Y143501D01*
X586089Y143450D01*
X586169Y143393D01*
X586192Y143385D01*
X586213Y143372D01*
X586308Y143350D01*
X586402Y143322D01*
X586427Y143322D01*
X586450Y143317D01*
X586548Y143326D01*
X586646Y143330D01*
X586669Y143338D01*
X586693Y143341D01*
X586782Y143381D01*
X586874Y143415D01*
X586893Y143431D01*
X586916Y143441D01*
X587030Y143535D01*
X589802Y146307D01*
X594198Y146307D01*
X597307Y143198D01*
X597307Y138802D01*
X594514Y136009D01*
X594457Y135930D01*
X594395Y135855D01*
X594387Y135831D01*
X594372Y135811D01*
X594344Y135718D01*
X594309Y135626D01*
X594306Y135593D01*
X594301Y135577D01*
X594302Y135553D01*
X594295Y135480D01*
X594295Y121802D01*
X594064Y121572D01*
X594020Y121510D01*
X593979Y121466D01*
X593970Y121448D01*
X593945Y121417D01*
X593937Y121394D01*
X593922Y121373D01*
X593894Y121280D01*
X593890Y121270D01*
X593878Y121244D01*
X593877Y121237D01*
X593859Y121189D01*
X593856Y121156D01*
X593851Y121140D01*
X593852Y121115D01*
X593845Y121042D01*
X593845Y119548D01*
X592952Y118655D01*
X588588Y118655D01*
X587695Y119548D01*
X587695Y124912D01*
X588486Y125702D01*
X588543Y125782D01*
X588605Y125857D01*
X588613Y125880D01*
X588628Y125900D01*
X588656Y125994D01*
X588691Y126085D01*
X588694Y126118D01*
X588699Y126134D01*
X588698Y126159D01*
X588705Y126232D01*
X588705Y136480D01*
X588689Y136576D01*
X588680Y136673D01*
X588670Y136695D01*
X588666Y136720D01*
X588619Y136806D01*
X588579Y136895D01*
X588558Y136921D01*
X588551Y136935D01*
X588532Y136953D01*
X588486Y137009D01*
X587030Y138465D01*
X587010Y138480D01*
X586994Y138499D01*
X586911Y138550D01*
X586831Y138607D01*
X586808Y138615D01*
X586787Y138628D01*
X586692Y138650D01*
X586598Y138678D01*
X586574Y138678D01*
X586550Y138683D01*
X586452Y138674D01*
X586354Y138670D01*
X586331Y138662D01*
X586307Y138659D01*
X586218Y138619D01*
X586126Y138585D01*
X586107Y138569D01*
X586084Y138559D01*
X585970Y138465D01*
X584014Y136509D01*
X583957Y136430D01*
X583895Y136355D01*
X583887Y136331D01*
X583872Y136311D01*
X583844Y136218D01*
X583809Y136126D01*
X583806Y136093D01*
X583801Y136077D01*
X583802Y136053D01*
X583795Y135980D01*
X583795Y125272D01*
X583811Y125175D01*
X583820Y125078D01*
X583830Y125056D01*
X583834Y125031D01*
X583845Y125012D01*
X583845Y119548D01*
X582952Y118655D01*
X578588Y118655D01*
G37*
%LPD*%
%LPC*%
G36*
X300802Y613693D02*
X300802Y613693D01*
X297693Y616802D01*
X297693Y621198D01*
X299986Y623491D01*
X300043Y623570D01*
X300105Y623645D01*
X300113Y623669D01*
X300128Y623689D01*
X300156Y623782D01*
X300191Y623874D01*
X300194Y623907D01*
X300199Y623923D01*
X300198Y623947D01*
X300205Y624020D01*
X300205Y636158D01*
X308242Y644194D01*
X308256Y644214D01*
X308275Y644229D01*
X308327Y644312D01*
X308384Y644392D01*
X308391Y644416D01*
X308404Y644437D01*
X308426Y644532D01*
X308455Y644626D01*
X308454Y644650D01*
X308459Y644674D01*
X308450Y644772D01*
X308447Y644870D01*
X308438Y644893D01*
X308436Y644917D01*
X308395Y645006D01*
X308361Y645098D01*
X308345Y645117D01*
X308335Y645139D01*
X308242Y645254D01*
X306693Y646802D01*
X306693Y651198D01*
X309802Y654307D01*
X314198Y654307D01*
X317307Y651198D01*
X317307Y646802D01*
X315014Y644509D01*
X314957Y644430D01*
X314895Y644355D01*
X314887Y644331D01*
X314872Y644311D01*
X314844Y644218D01*
X314809Y644126D01*
X314806Y644093D01*
X314801Y644077D01*
X314802Y644053D01*
X314795Y643980D01*
X314795Y642842D01*
X306014Y634062D01*
X305970Y634001D01*
X305926Y633953D01*
X305917Y633933D01*
X305895Y633907D01*
X305887Y633884D01*
X305872Y633863D01*
X305846Y633776D01*
X305825Y633731D01*
X305824Y633717D01*
X305809Y633679D01*
X305806Y633646D01*
X305801Y633630D01*
X305802Y633605D01*
X305795Y633532D01*
X305795Y624020D01*
X305811Y623924D01*
X305820Y623827D01*
X305830Y623804D01*
X305834Y623780D01*
X305880Y623694D01*
X305921Y623605D01*
X305942Y623579D01*
X305949Y623565D01*
X305968Y623548D01*
X306014Y623491D01*
X308307Y621198D01*
X308307Y616802D01*
X305198Y613693D01*
X300802Y613693D01*
G37*
%LPD*%
%LPC*%
G36*
X140802Y733693D02*
X140802Y733693D01*
X137693Y736802D01*
X137693Y741198D01*
X140802Y744307D01*
X145198Y744307D01*
X147491Y742014D01*
X147570Y741957D01*
X147645Y741895D01*
X147669Y741887D01*
X147689Y741872D01*
X147782Y741844D01*
X147874Y741809D01*
X147907Y741806D01*
X147923Y741801D01*
X147947Y741802D01*
X148020Y741795D01*
X154532Y741795D01*
X154628Y741811D01*
X154725Y741820D01*
X154748Y741830D01*
X154773Y741834D01*
X154859Y741880D01*
X154948Y741921D01*
X154973Y741942D01*
X154988Y741949D01*
X155005Y741968D01*
X155062Y742014D01*
X164474Y751426D01*
X164524Y751497D01*
X164529Y751502D01*
X164531Y751506D01*
X164593Y751581D01*
X164601Y751604D01*
X164616Y751625D01*
X164644Y751718D01*
X164679Y751809D01*
X164682Y751842D01*
X164687Y751858D01*
X164686Y751883D01*
X164693Y751956D01*
X164693Y755198D01*
X167802Y758307D01*
X172198Y758307D01*
X175307Y755198D01*
X175307Y750802D01*
X172198Y747693D01*
X168956Y747693D01*
X168860Y747677D01*
X168763Y747668D01*
X168740Y747658D01*
X168715Y747654D01*
X168629Y747608D01*
X168540Y747567D01*
X168515Y747546D01*
X168500Y747539D01*
X168483Y747520D01*
X168426Y747474D01*
X157158Y736205D01*
X148020Y736205D01*
X147924Y736189D01*
X147827Y736180D01*
X147804Y736170D01*
X147780Y736166D01*
X147694Y736120D01*
X147605Y736079D01*
X147579Y736058D01*
X147565Y736051D01*
X147548Y736032D01*
X147545Y736030D01*
X147543Y736029D01*
X147542Y736028D01*
X147491Y735986D01*
X145198Y733693D01*
X140802Y733693D01*
G37*
%LPD*%
%LPC*%
G36*
X239338Y558405D02*
X239338Y558405D01*
X238445Y559298D01*
X238445Y570262D01*
X239338Y571155D01*
X250602Y571155D01*
X251495Y570262D01*
X251495Y567544D01*
X251499Y567520D01*
X251496Y567495D01*
X251518Y567400D01*
X251534Y567303D01*
X251546Y567282D01*
X251552Y567258D01*
X251603Y567174D01*
X251649Y567088D01*
X251667Y567071D01*
X251680Y567050D01*
X251756Y566988D01*
X251827Y566921D01*
X251850Y566911D01*
X251869Y566895D01*
X251960Y566861D01*
X252050Y566820D01*
X252074Y566818D01*
X252097Y566809D01*
X252244Y566795D01*
X252980Y566795D01*
X253076Y566811D01*
X253173Y566820D01*
X253196Y566830D01*
X253220Y566834D01*
X253306Y566880D01*
X253395Y566921D01*
X253421Y566942D01*
X253435Y566949D01*
X253452Y566968D01*
X253509Y567014D01*
X255802Y569307D01*
X260198Y569307D01*
X263307Y566198D01*
X263307Y561802D01*
X260198Y558693D01*
X255802Y558693D01*
X253509Y560986D01*
X253430Y561043D01*
X253355Y561105D01*
X253331Y561113D01*
X253311Y561128D01*
X253218Y561156D01*
X253126Y561191D01*
X253093Y561194D01*
X253077Y561199D01*
X253053Y561198D01*
X252980Y561205D01*
X252244Y561205D01*
X252220Y561201D01*
X252195Y561204D01*
X252100Y561182D01*
X252003Y561166D01*
X251982Y561154D01*
X251958Y561148D01*
X251874Y561097D01*
X251788Y561051D01*
X251771Y561033D01*
X251750Y561020D01*
X251688Y560944D01*
X251621Y560873D01*
X251611Y560850D01*
X251595Y560831D01*
X251561Y560740D01*
X251520Y560650D01*
X251518Y560626D01*
X251509Y560603D01*
X251495Y560456D01*
X251495Y559298D01*
X250602Y558405D01*
X239338Y558405D01*
G37*
%LPD*%
%LPC*%
G36*
X224638Y558405D02*
X224638Y558405D01*
X223745Y559298D01*
X223745Y559432D01*
X223733Y559504D01*
X223731Y559577D01*
X223714Y559624D01*
X223706Y559672D01*
X223671Y559737D01*
X223645Y559806D01*
X223614Y559844D01*
X223591Y559888D01*
X223537Y559938D01*
X223490Y559995D01*
X223448Y560021D01*
X223413Y560054D01*
X223346Y560085D01*
X223283Y560124D01*
X223235Y560135D01*
X223190Y560155D01*
X223117Y560162D01*
X223046Y560179D01*
X222997Y560174D01*
X222947Y560179D01*
X222876Y560163D01*
X222803Y560155D01*
X222758Y560135D01*
X222710Y560124D01*
X222647Y560085D01*
X222580Y560055D01*
X222524Y560008D01*
X222502Y559995D01*
X222492Y559982D01*
X222466Y559961D01*
X221198Y558693D01*
X216802Y558693D01*
X213693Y561802D01*
X213693Y566198D01*
X216802Y569307D01*
X221198Y569307D01*
X222466Y568039D01*
X222526Y567996D01*
X222580Y567946D01*
X222624Y567925D01*
X222665Y567896D01*
X222735Y567875D01*
X222802Y567845D01*
X222851Y567840D01*
X222898Y567826D01*
X222971Y567828D01*
X223045Y567821D01*
X223093Y567832D01*
X223142Y567834D01*
X223211Y567859D01*
X223282Y567876D01*
X223324Y567902D01*
X223370Y567919D01*
X223427Y567966D01*
X223490Y568005D01*
X223521Y568043D01*
X223559Y568074D01*
X223598Y568136D01*
X223645Y568193D01*
X223662Y568239D01*
X223688Y568281D01*
X223705Y568353D01*
X223731Y568421D01*
X223738Y568495D01*
X223744Y568519D01*
X223742Y568535D01*
X223745Y568568D01*
X223745Y570262D01*
X224638Y571155D01*
X235902Y571155D01*
X236795Y570262D01*
X236795Y559298D01*
X235902Y558405D01*
X224638Y558405D01*
G37*
%LPD*%
%LPC*%
G36*
X224638Y574405D02*
X224638Y574405D01*
X223745Y575298D01*
X223745Y576432D01*
X223733Y576504D01*
X223731Y576577D01*
X223714Y576624D01*
X223706Y576672D01*
X223671Y576737D01*
X223645Y576806D01*
X223614Y576844D01*
X223591Y576888D01*
X223537Y576938D01*
X223490Y576995D01*
X223448Y577021D01*
X223413Y577054D01*
X223346Y577085D01*
X223283Y577124D01*
X223235Y577135D01*
X223190Y577155D01*
X223117Y577162D01*
X223046Y577179D01*
X222997Y577174D01*
X222947Y577179D01*
X222876Y577163D01*
X222803Y577155D01*
X222758Y577135D01*
X222710Y577124D01*
X222647Y577085D01*
X222580Y577055D01*
X222524Y577008D01*
X222502Y576995D01*
X222492Y576982D01*
X222466Y576961D01*
X221198Y575693D01*
X216802Y575693D01*
X213693Y578802D01*
X213693Y583198D01*
X216802Y586307D01*
X221198Y586307D01*
X222466Y585039D01*
X222526Y584996D01*
X222580Y584946D01*
X222624Y584925D01*
X222665Y584896D01*
X222735Y584875D01*
X222802Y584845D01*
X222851Y584840D01*
X222898Y584826D01*
X222971Y584828D01*
X223045Y584821D01*
X223093Y584832D01*
X223142Y584834D01*
X223211Y584859D01*
X223282Y584876D01*
X223324Y584902D01*
X223370Y584919D01*
X223427Y584966D01*
X223490Y585005D01*
X223521Y585043D01*
X223559Y585074D01*
X223598Y585136D01*
X223645Y585193D01*
X223662Y585239D01*
X223688Y585281D01*
X223705Y585353D01*
X223716Y585382D01*
X223720Y585390D01*
X223720Y585393D01*
X223731Y585421D01*
X223738Y585495D01*
X223744Y585519D01*
X223742Y585535D01*
X223745Y585568D01*
X223745Y586262D01*
X224638Y587155D01*
X235902Y587155D01*
X236795Y586262D01*
X236795Y575298D01*
X235902Y574405D01*
X224638Y574405D01*
G37*
%LPD*%
%LPC*%
G36*
X957760Y264449D02*
X957760Y264449D01*
X957759Y264450D01*
X957759Y280450D01*
X957760Y280451D01*
X973760Y280451D01*
X973761Y280450D01*
X973761Y264450D01*
X973760Y264449D01*
X957760Y264449D01*
G37*
%LPD*%
%LPC*%
G36*
X562500Y768999D02*
X562500Y768999D01*
X562499Y769000D01*
X562499Y785000D01*
X562500Y785001D01*
X578500Y785001D01*
X578501Y785000D01*
X578501Y769000D01*
X578500Y768999D01*
X562500Y768999D01*
G37*
%LPD*%
%LPC*%
G36*
X958220Y470979D02*
X958220Y470979D01*
X958219Y470980D01*
X958219Y486980D01*
X958220Y486981D01*
X974220Y486981D01*
X974221Y486980D01*
X974221Y470980D01*
X974220Y470979D01*
X958220Y470979D01*
G37*
%LPD*%
%LPC*%
G36*
X36802Y715693D02*
X36802Y715693D01*
X33693Y718802D01*
X33693Y723198D01*
X35986Y725491D01*
X36043Y725570D01*
X36105Y725645D01*
X36113Y725669D01*
X36128Y725689D01*
X36156Y725782D01*
X36191Y725874D01*
X36194Y725907D01*
X36199Y725923D01*
X36198Y725947D01*
X36205Y726020D01*
X36205Y732980D01*
X36189Y733076D01*
X36180Y733173D01*
X36170Y733196D01*
X36166Y733220D01*
X36120Y733306D01*
X36079Y733395D01*
X36058Y733421D01*
X36051Y733435D01*
X36032Y733452D01*
X35986Y733509D01*
X33693Y735802D01*
X33693Y740198D01*
X36802Y743307D01*
X41198Y743307D01*
X44307Y740198D01*
X44307Y735802D01*
X42014Y733509D01*
X41957Y733430D01*
X41895Y733355D01*
X41887Y733331D01*
X41872Y733311D01*
X41844Y733218D01*
X41809Y733126D01*
X41806Y733093D01*
X41801Y733077D01*
X41802Y733053D01*
X41795Y732980D01*
X41795Y726020D01*
X41811Y725924D01*
X41820Y725827D01*
X41830Y725804D01*
X41834Y725780D01*
X41880Y725694D01*
X41921Y725605D01*
X41942Y725579D01*
X41949Y725565D01*
X41968Y725548D01*
X42014Y725491D01*
X44307Y723198D01*
X44307Y718802D01*
X41198Y715693D01*
X36802Y715693D01*
G37*
%LPD*%
%LPC*%
G36*
X958896Y600835D02*
X958896Y600835D01*
X955932Y602063D01*
X953663Y604332D01*
X952435Y607296D01*
X952435Y610504D01*
X953663Y613468D01*
X955932Y615737D01*
X958896Y616965D01*
X962104Y616965D01*
X965068Y615737D01*
X967337Y613468D01*
X968565Y610504D01*
X968565Y607296D01*
X967337Y604332D01*
X965068Y602063D01*
X962104Y600835D01*
X958896Y600835D01*
G37*
%LPD*%
%LPC*%
G36*
X37026Y638775D02*
X37026Y638775D01*
X34062Y640003D01*
X31793Y642272D01*
X30565Y645236D01*
X30565Y648444D01*
X31793Y651408D01*
X34062Y653677D01*
X37026Y654905D01*
X40234Y654905D01*
X43198Y653677D01*
X45467Y651408D01*
X46695Y648444D01*
X46695Y645236D01*
X45467Y642272D01*
X43198Y640003D01*
X40234Y638775D01*
X37026Y638775D01*
G37*
%LPD*%
D10*
X230270Y564780D03*
X244970Y564780D03*
D11*
X38630Y646840D03*
X38630Y570640D03*
D10*
X230270Y580780D03*
X244970Y580780D03*
D12*
X461500Y112500D03*
X455000Y112500D03*
X448500Y112500D03*
X448500Y131500D03*
X455000Y131500D03*
X461500Y131500D03*
D13*
X580770Y122230D03*
X580770Y111230D03*
X590770Y122230D03*
X590770Y111230D03*
X614000Y123000D03*
X614000Y112000D03*
X634000Y123000D03*
X634000Y112000D03*
X644000Y123000D03*
X644000Y112000D03*
X654000Y123000D03*
X654000Y112000D03*
D14*
X623900Y67470D03*
X623900Y84650D03*
X639900Y67470D03*
X639900Y84650D03*
X655900Y67470D03*
X655900Y84650D03*
D13*
X624000Y123000D03*
X624000Y112000D03*
D11*
X960500Y608900D03*
X960500Y685100D03*
D15*
X114000Y377000D03*
D16*
X114000Y232000D01*
X113000Y231000D01*
D15*
X113000Y231000D03*
X44000Y389500D03*
X294020Y233980D03*
D16*
X233020Y233980D01*
X231000Y236000D01*
D15*
X21500Y390000D03*
X21500Y370500D03*
X43000Y370000D03*
X22000Y352000D03*
X41500Y351000D03*
X21500Y336500D03*
X41000Y336000D03*
X21000Y273000D03*
X21000Y251000D03*
X48000Y273000D03*
X48000Y251000D03*
X47000Y202000D03*
X20000Y203000D03*
X21000Y184000D03*
X47000Y183000D03*
X163000Y215000D03*
X163000Y200000D03*
X163000Y183000D03*
X178000Y200000D03*
X178000Y215000D03*
X178000Y183000D03*
X193000Y183000D03*
X193000Y200000D03*
X193000Y215000D03*
X162000Y144000D03*
X179000Y144000D03*
X195000Y144000D03*
X263000Y138000D03*
X277000Y138000D03*
X263000Y124000D03*
X277000Y123500D03*
X256000Y59000D03*
X284000Y59000D03*
X284000Y41000D03*
X256000Y41000D03*
X231000Y41000D03*
X231000Y24000D03*
X256000Y24000D03*
X284000Y24000D03*
X32000Y285000D03*
D16*
X32000Y180000D01*
X50000Y162000D01*
X274000Y162000D02*
X274000Y172000D01*
D15*
X274000Y172000D03*
D16*
X274000Y162000D02*
X50000Y162000D01*
D15*
X490500Y155000D03*
X502000Y167500D03*
X533500Y231500D03*
X517500Y231500D03*
X501500Y231500D03*
X472000Y182000D03*
X437500Y184000D03*
X405500Y182500D03*
X602000Y132500D03*
X381010Y428560D03*
X981500Y180000D03*
X981000Y17000D03*
X981000Y37500D03*
X981000Y57500D03*
X981000Y77500D03*
X981500Y101500D03*
X981500Y122000D03*
X982000Y136500D03*
X960000Y181500D03*
X980500Y198500D03*
X960500Y198000D03*
X960500Y215000D03*
X981500Y156000D03*
X981000Y215000D03*
X981000Y234000D03*
X960500Y233000D03*
X395010Y360560D03*
X395010Y349560D03*
X395010Y338560D03*
X383010Y338560D03*
X383010Y349560D03*
X383010Y360560D03*
X381010Y417560D03*
X381010Y439100D03*
X393010Y439100D03*
X393010Y428560D03*
X393010Y417560D03*
X894500Y266000D03*
X872500Y266500D03*
X872500Y283000D03*
X872500Y308000D03*
X872500Y324500D03*
X872500Y345500D03*
X872500Y362000D03*
X983500Y333000D03*
X962500Y333000D03*
X941500Y332500D03*
X922000Y332500D03*
X921000Y351000D03*
X941000Y351500D03*
X962000Y352000D03*
X983000Y352000D03*
X982500Y373500D03*
X961500Y373500D03*
X940500Y373000D03*
X920500Y371500D03*
X921000Y392000D03*
X940000Y392500D03*
X961000Y393000D03*
X982000Y393000D03*
X981500Y416000D03*
X960500Y416000D03*
X939500Y415500D03*
X921000Y416500D03*
X981500Y442500D03*
X960000Y442500D03*
X877000Y423500D03*
X877000Y445000D03*
X876500Y462000D03*
X877000Y484500D03*
X888000Y516000D03*
X924000Y510000D03*
X923500Y526500D03*
X946000Y510000D03*
X945000Y527500D03*
X966500Y510500D03*
X966000Y528500D03*
X983000Y528000D03*
X983500Y510000D03*
X603500Y798500D03*
X625500Y797500D03*
X625000Y776000D03*
X604000Y774500D03*
X596000Y725500D03*
X620000Y727000D03*
X620000Y709000D03*
X596500Y709000D03*
X596500Y692500D03*
X620000Y689500D03*
X618820Y668860D03*
X598020Y669410D03*
X584500Y689000D03*
X584500Y676000D03*
X584500Y664000D03*
X584500Y652000D03*
X584500Y640500D03*
X598000Y647000D03*
X619000Y647000D03*
X643500Y623000D03*
X643500Y608500D03*
X643500Y636500D03*
X584500Y628500D03*
X584500Y615000D03*
X598500Y622500D03*
X617500Y622000D03*
X586500Y603500D03*
X596500Y598500D03*
X607500Y597500D03*
X619500Y597500D03*
X631500Y598000D03*
X644000Y597500D03*
X656500Y594500D03*
X666500Y588000D03*
X672500Y576500D03*
X554500Y795500D03*
X535500Y794500D03*
X512000Y794500D03*
X488000Y794500D03*
X487500Y775500D03*
X512500Y776000D03*
X536000Y776500D03*
X536000Y755000D03*
X512000Y756500D03*
X487000Y756500D03*
X486500Y739500D03*
X512500Y741000D03*
X536500Y740500D03*
X486500Y686500D03*
X507000Y686500D03*
X526000Y686000D03*
X544500Y685500D03*
X557000Y689000D03*
X556500Y678500D03*
X556500Y666500D03*
X556500Y654000D03*
X544000Y661000D03*
X525500Y661500D03*
X506500Y662000D03*
X486000Y662000D03*
X486500Y639000D03*
X556500Y642000D03*
X544500Y638000D03*
X526000Y638500D03*
X507000Y639000D03*
X487000Y617000D03*
X507500Y617000D03*
X526500Y616500D03*
X545000Y616000D03*
X557000Y629000D03*
X557000Y616500D03*
X556500Y600500D03*
X561000Y587500D03*
X570000Y579000D03*
X580500Y572500D03*
X594000Y569000D03*
X605000Y569000D03*
X618500Y569500D03*
X633000Y569000D03*
X646000Y568000D03*
X626000Y554500D03*
X599000Y548000D03*
X618000Y541000D03*
X626500Y527500D03*
X643000Y527000D03*
X657500Y527000D03*
X670000Y526500D03*
X253000Y426000D03*
X277500Y492000D03*
X278000Y474500D03*
X255000Y473500D03*
X255500Y491500D03*
X279000Y426000D03*
X302500Y426000D03*
X304500Y474000D03*
X30500Y516000D03*
X59500Y516000D03*
X90000Y516000D03*
X114500Y516500D03*
X31000Y493500D03*
X60000Y493500D03*
X90500Y493500D03*
X115000Y494000D03*
X30000Y472000D03*
X59000Y472000D03*
X89500Y472000D03*
X114000Y472500D03*
X30500Y429500D03*
X59500Y429500D03*
X90000Y429500D03*
X114500Y430000D03*
X771000Y758000D03*
X789000Y758000D03*
X339500Y778000D03*
X358500Y778500D03*
X341500Y751500D03*
X366000Y701500D03*
X341000Y725500D03*
X341500Y701500D03*
X346000Y670000D03*
X372500Y669500D03*
X386000Y641500D03*
X424000Y772500D03*
X423500Y744000D03*
X424500Y712500D03*
X656500Y776000D03*
X683000Y776000D03*
X658500Y748000D03*
X683500Y748000D03*
X653500Y673500D03*
X872000Y661000D03*
X872000Y637000D03*
X873500Y606500D03*
X873000Y577500D03*
X898000Y577500D03*
X898500Y606500D03*
X898000Y637000D03*
X897500Y661500D03*
X724500Y821500D03*
X766000Y822500D03*
X725000Y796500D03*
X766500Y794000D03*
X627500Y440500D03*
X661000Y441000D03*
X693000Y441500D03*
X721500Y441500D03*
X750500Y442000D03*
X774500Y442000D03*
X773000Y666000D03*
X796000Y665500D03*
X814000Y665500D03*
X773500Y645000D03*
X795500Y645000D03*
X813500Y645500D03*
X773500Y625000D03*
X794500Y625000D03*
X628500Y406000D03*
X662000Y406500D03*
X694000Y407000D03*
X722500Y407000D03*
X751500Y407500D03*
X775500Y407500D03*
X629000Y367500D03*
X662500Y368000D03*
X694500Y368500D03*
X723000Y368500D03*
X752000Y369000D03*
X776000Y369000D03*
X630000Y333000D03*
X663500Y333500D03*
X695500Y334000D03*
X724000Y334000D03*
X753000Y334500D03*
X777000Y334500D03*
X659500Y479000D03*
X691500Y479500D03*
X720000Y479500D03*
X749000Y480000D03*
X773000Y480000D03*
X631000Y304500D03*
X664500Y305000D03*
X696500Y305500D03*
X725000Y305500D03*
X754000Y306000D03*
X778000Y306000D03*
X760500Y202000D03*
X761000Y187500D03*
X760500Y172500D03*
X760500Y157000D03*
X760000Y138000D03*
X632000Y270000D03*
X665500Y270500D03*
X697500Y271000D03*
X726000Y271000D03*
X755000Y271500D03*
X779000Y271500D03*
X742500Y200000D03*
X743000Y185500D03*
X742500Y170500D03*
X742500Y155000D03*
X742000Y136000D03*
X887000Y216000D03*
X885000Y189000D03*
X888000Y164500D03*
X877000Y152500D03*
X877500Y136500D03*
X806500Y78500D03*
X821000Y78500D03*
X836500Y78500D03*
X850000Y78500D03*
X891000Y62500D03*
X910500Y62000D03*
X892500Y42000D03*
X912000Y42000D03*
X928500Y61000D03*
X904000Y216000D03*
X906000Y188500D03*
X906000Y164000D03*
X82000Y276000D03*
X82000Y264000D03*
X93000Y276000D03*
X104000Y276000D03*
X104000Y264000D03*
X93000Y264000D03*
X258000Y564000D03*
D16*
X245750Y564000D01*
X244970Y564780D01*
D15*
X428080Y627570D03*
D17*
X470000Y669490D01*
X470000Y725500D01*
X470000Y799000D01*
X497000Y826000D01*
X637000Y826000D01*
X637000Y819500D01*
D15*
X637000Y819500D03*
X477500Y725500D03*
D18*
X470000Y725500D01*
D17*
X637000Y826000D02*
X665500Y826000D01*
X724000Y767500D01*
D19*
X724500Y767000D01*
D15*
X724000Y767500D03*
D20*
X724500Y767000D02*
X794500Y767000D01*
X809000Y752500D01*
X809000Y724000D01*
D15*
X809000Y724000D03*
X312000Y649000D03*
D16*
X312000Y644000D01*
X303000Y635000D02*
X303000Y619000D01*
D15*
X303000Y619000D03*
D16*
X303000Y635000D02*
X312000Y644000D01*
D15*
X39000Y721000D03*
X39000Y738000D03*
X143000Y739000D03*
D16*
X156000Y739000D01*
X170000Y753000D01*
D15*
X170000Y753000D03*
D16*
X39000Y738000D02*
X39000Y721000D01*
D15*
X310000Y771000D03*
D16*
X199000Y771000D01*
X197000Y769000D01*
D15*
X197000Y769000D03*
X310000Y711000D03*
D16*
X310000Y673000D01*
X298000Y661000D01*
X223000Y661000D01*
X219000Y657000D01*
X219000Y599000D01*
D15*
X219000Y599000D03*
X412000Y585500D03*
D21*
X520000Y585500D01*
X596000Y509500D01*
X679830Y509500D01*
X686000Y515670D01*
X686000Y637500D01*
X698000Y649500D01*
X733500Y649500D01*
D15*
X733500Y649500D03*
X411000Y600000D03*
D21*
X524500Y600000D01*
X608000Y516500D01*
X674000Y516500D01*
X679000Y521500D01*
X679000Y649000D01*
X688500Y658500D01*
X702500Y658500D01*
D15*
X702500Y658500D03*
X341000Y546000D03*
D18*
X373000Y514000D01*
X373000Y497000D01*
D15*
X373000Y497000D03*
X368000Y44500D03*
D18*
X871500Y13879D02*
X949999Y13879D01*
X871500Y13879D02*
X398621Y13879D01*
X368000Y44500D01*
X949999Y13879D02*
X962000Y25880D01*
X962000Y157000D01*
D15*
X962000Y157000D03*
X360000Y548000D03*
D18*
X422000Y548000D01*
X505000Y465000D01*
D15*
X505000Y465000D03*
X367000Y559000D03*
D18*
X500000Y559000D01*
X511000Y548000D02*
X511000Y504000D01*
X511000Y548000D02*
X500000Y559000D01*
D15*
X511000Y504000D03*
X219000Y564000D03*
D16*
X229490Y564000D01*
X230270Y564780D01*
X230270Y580780D02*
X220220Y580780D01*
X220000Y581000D01*
X219000Y581000D01*
D15*
X219000Y581000D03*
X778000Y124000D03*
D22*
X793000Y139000D01*
X793000Y186000D01*
X795720Y188720D01*
X824770Y188720D01*
D15*
X824770Y188720D03*
X885500Y819000D03*
X940500Y819000D03*
D18*
X885500Y819000D01*
D15*
X859000Y100500D03*
D21*
X902500Y100500D01*
X916000Y114000D01*
X916000Y143000D01*
D15*
X916000Y143000D03*
X573500Y349000D03*
D18*
X570500Y352000D01*
X570500Y496000D01*
X577000Y502500D01*
X689000Y502500D01*
X696000Y509500D01*
X696000Y604000D01*
D15*
X696000Y604000D03*
D23*
X746500Y604000D01*
X755500Y613000D01*
X755500Y627000D01*
D15*
X755500Y627000D03*
D18*
X763600Y685100D02*
X960500Y685100D01*
X755500Y677000D02*
X755500Y627000D01*
X755500Y677000D02*
X763600Y685100D01*
D21*
X448500Y118000D02*
X448500Y112500D01*
X448500Y118000D02*
X449500Y119000D01*
X474000Y119000D01*
X478000Y123000D01*
X478000Y155000D01*
D15*
X478000Y155000D03*
X470000Y235000D03*
D21*
X470000Y290500D02*
X470500Y291000D01*
X470000Y290500D02*
X470000Y235000D01*
D15*
X470500Y291000D03*
X453500Y234500D03*
D21*
X453500Y320500D01*
D15*
X453500Y320500D03*
D21*
X448500Y131500D02*
X448500Y124500D01*
X449500Y123500D01*
X464500Y123500D02*
X468000Y127000D01*
X468000Y141500D01*
X453500Y156000D01*
X453541Y156041D01*
D15*
X453541Y156041D03*
D21*
X449500Y123500D02*
X464500Y123500D01*
X455000Y131500D02*
X455000Y136500D01*
X448000Y143500D01*
X434000Y143500D01*
X427000Y150500D01*
X427000Y154000D01*
D15*
X427000Y154000D03*
D21*
X444000Y150500D02*
X448000Y150500D01*
X444000Y150500D02*
X440000Y154500D01*
X440000Y155000D01*
D15*
X440000Y155000D03*
D21*
X461500Y137000D02*
X461500Y131500D01*
X461500Y137000D02*
X448000Y150500D01*
D15*
X703000Y84500D03*
D24*
X656050Y84500D01*
X655900Y84650D01*
X639900Y84650D01*
X623900Y84650D01*
D15*
X625000Y141500D03*
D24*
X625000Y124000D01*
X624000Y123000D01*
X623900Y101900D02*
X623900Y84650D01*
X623900Y101900D02*
X624000Y102000D01*
D15*
X624000Y102000D03*
X614000Y141000D03*
D16*
X614000Y123000D01*
D15*
X623000Y177500D03*
D16*
X625500Y180000D01*
X698500Y180000D02*
X702500Y184000D01*
D15*
X702500Y184000D03*
D16*
X698500Y180000D02*
X625500Y180000D01*
D15*
X635500Y141000D03*
D16*
X634000Y139500D01*
X634000Y123000D01*
D15*
X592000Y141000D03*
D16*
X591500Y140500D01*
X591500Y122960D01*
X590770Y122230D01*
D15*
X601000Y220000D03*
D16*
X653000Y220000D01*
X660000Y227000D01*
D15*
X660000Y227000D03*
X581000Y141000D03*
D16*
X581000Y122460D01*
X580770Y122230D01*
D15*
X580000Y191000D03*
D16*
X619317Y208064D02*
X664000Y208064D01*
X602253Y191000D02*
X580000Y191000D01*
X602253Y191000D02*
X619317Y208064D01*
X664000Y208064D02*
X671000Y215064D01*
X671000Y228000D01*
D15*
X671000Y228000D03*
X658000Y140500D03*
D16*
X654000Y136500D02*
X654000Y123000D01*
X654000Y136500D02*
X658000Y140500D01*
D15*
X647000Y140500D03*
D16*
X644000Y137500D02*
X644000Y123000D01*
X644000Y137500D02*
X647000Y140500D01*
D15*
X646500Y194500D03*
D16*
X676000Y194500D01*
X690000Y208500D01*
X690000Y227000D01*
D15*
X690000Y227000D03*
X750000Y729500D03*
X853000Y781500D03*
D22*
X834000Y781500D02*
X818500Y781500D01*
X834000Y781500D02*
X853000Y781500D01*
D15*
X834000Y781500D03*
D22*
X765500Y714000D02*
X750000Y729500D01*
X765500Y714000D02*
X814500Y714000D01*
X818500Y718000D01*
X818500Y781500D01*
M02*
