G04 EAGLE Gerber RS-274X export*
G75*
%MOMM*%
%FSLAX34Y34*%
%LPD*%
%INSilkscreen Bottom*%
%IPPOS*%
%AMOC8*
5,1,8,0,0,1.08239X$1,22.5*%
G01*
%ADD10C,0.200000*%
%ADD11C,0.101600*%
%ADD12C,0.127000*%
%ADD13C,0.076200*%


D10*
X222620Y572780D02*
X252620Y572780D01*
X252620Y556780D01*
X222620Y556780D01*
X222620Y572780D01*
X222620Y588780D02*
X252620Y588780D01*
X252620Y572780D01*
X222620Y572780D01*
X222620Y588780D01*
D11*
X466986Y104480D02*
X466986Y92774D01*
X466986Y104480D02*
X463734Y104480D01*
X463621Y104478D01*
X463507Y104472D01*
X463394Y104462D01*
X463281Y104448D01*
X463169Y104431D01*
X463058Y104409D01*
X462947Y104383D01*
X462838Y104354D01*
X462729Y104321D01*
X462622Y104284D01*
X462516Y104243D01*
X462411Y104199D01*
X462308Y104151D01*
X462207Y104099D01*
X462108Y104044D01*
X462011Y103986D01*
X461916Y103924D01*
X461823Y103859D01*
X461732Y103791D01*
X461644Y103719D01*
X461558Y103645D01*
X461475Y103567D01*
X461395Y103487D01*
X461317Y103404D01*
X461243Y103318D01*
X461171Y103230D01*
X461103Y103139D01*
X461038Y103047D01*
X460976Y102951D01*
X460918Y102854D01*
X460863Y102755D01*
X460811Y102654D01*
X460763Y102551D01*
X460719Y102446D01*
X460678Y102340D01*
X460641Y102233D01*
X460608Y102124D01*
X460579Y102015D01*
X460553Y101904D01*
X460531Y101793D01*
X460514Y101681D01*
X460500Y101568D01*
X460490Y101455D01*
X460484Y101342D01*
X460482Y101228D01*
X460483Y101228D02*
X460483Y96026D01*
X460482Y96026D02*
X460484Y95915D01*
X460490Y95804D01*
X460499Y95693D01*
X460512Y95583D01*
X460529Y95473D01*
X460550Y95364D01*
X460574Y95256D01*
X460603Y95149D01*
X460634Y95042D01*
X460670Y94937D01*
X460709Y94833D01*
X460751Y94730D01*
X460797Y94629D01*
X460847Y94530D01*
X460899Y94432D01*
X460955Y94336D01*
X461015Y94242D01*
X461077Y94151D01*
X461143Y94061D01*
X461211Y93974D01*
X461283Y93889D01*
X461357Y93806D01*
X461434Y93726D01*
X461514Y93649D01*
X461597Y93575D01*
X461682Y93503D01*
X461769Y93435D01*
X461859Y93369D01*
X461950Y93307D01*
X462044Y93247D01*
X462140Y93191D01*
X462238Y93139D01*
X462337Y93089D01*
X462438Y93043D01*
X462541Y93001D01*
X462645Y92962D01*
X462750Y92926D01*
X462857Y92895D01*
X462964Y92866D01*
X463072Y92842D01*
X463181Y92821D01*
X463291Y92804D01*
X463401Y92791D01*
X463512Y92782D01*
X463623Y92776D01*
X463734Y92774D01*
X466986Y92774D01*
X455155Y103179D02*
X455155Y104480D01*
X448652Y104480D01*
X451903Y92774D01*
D12*
X579970Y132730D02*
X579972Y132786D01*
X579978Y132843D01*
X579988Y132898D01*
X580002Y132953D01*
X580019Y133007D01*
X580041Y133059D01*
X580066Y133109D01*
X580094Y133158D01*
X580126Y133205D01*
X580161Y133249D01*
X580199Y133291D01*
X580240Y133330D01*
X580284Y133365D01*
X580330Y133398D01*
X580378Y133427D01*
X580428Y133453D01*
X580480Y133476D01*
X580534Y133494D01*
X580588Y133509D01*
X580643Y133520D01*
X580699Y133527D01*
X580756Y133530D01*
X580812Y133529D01*
X580869Y133524D01*
X580924Y133515D01*
X580979Y133502D01*
X581033Y133485D01*
X581086Y133465D01*
X581137Y133441D01*
X581186Y133413D01*
X581233Y133382D01*
X581278Y133348D01*
X581321Y133310D01*
X581360Y133270D01*
X581397Y133227D01*
X581430Y133182D01*
X581460Y133134D01*
X581487Y133084D01*
X581510Y133033D01*
X581530Y132980D01*
X581546Y132926D01*
X581558Y132870D01*
X581566Y132815D01*
X581570Y132758D01*
X581570Y132702D01*
X581566Y132645D01*
X581558Y132590D01*
X581546Y132534D01*
X581530Y132480D01*
X581510Y132427D01*
X581487Y132376D01*
X581460Y132326D01*
X581430Y132278D01*
X581397Y132233D01*
X581360Y132190D01*
X581321Y132150D01*
X581278Y132112D01*
X581233Y132078D01*
X581186Y132047D01*
X581137Y132019D01*
X581086Y131995D01*
X581033Y131975D01*
X580979Y131958D01*
X580924Y131945D01*
X580869Y131936D01*
X580812Y131931D01*
X580756Y131930D01*
X580699Y131933D01*
X580643Y131940D01*
X580588Y131951D01*
X580534Y131966D01*
X580480Y131984D01*
X580428Y132007D01*
X580378Y132033D01*
X580330Y132062D01*
X580284Y132095D01*
X580240Y132130D01*
X580199Y132169D01*
X580161Y132211D01*
X580126Y132255D01*
X580094Y132302D01*
X580066Y132351D01*
X580041Y132401D01*
X580019Y132453D01*
X580002Y132507D01*
X579988Y132562D01*
X579978Y132617D01*
X579972Y132674D01*
X579970Y132730D01*
D10*
X585770Y127730D02*
X585770Y105730D01*
X575770Y105730D01*
X575770Y127730D01*
X585770Y127730D01*
D13*
X585829Y89484D02*
X576591Y89484D01*
X585829Y89484D02*
X585829Y92050D01*
X585827Y92148D01*
X585821Y92246D01*
X585812Y92344D01*
X585799Y92442D01*
X585782Y92539D01*
X585762Y92635D01*
X585737Y92730D01*
X585709Y92824D01*
X585678Y92917D01*
X585643Y93009D01*
X585604Y93100D01*
X585563Y93189D01*
X585517Y93276D01*
X585469Y93361D01*
X585417Y93445D01*
X585362Y93526D01*
X585304Y93606D01*
X585243Y93683D01*
X585179Y93757D01*
X585112Y93829D01*
X585042Y93899D01*
X584970Y93966D01*
X584896Y94030D01*
X584819Y94091D01*
X584739Y94149D01*
X584658Y94204D01*
X584574Y94256D01*
X584489Y94304D01*
X584402Y94350D01*
X584313Y94391D01*
X584222Y94430D01*
X584130Y94465D01*
X584037Y94496D01*
X583943Y94524D01*
X583848Y94549D01*
X583752Y94569D01*
X583655Y94586D01*
X583557Y94599D01*
X583459Y94608D01*
X583361Y94614D01*
X583263Y94616D01*
X579157Y94616D01*
X579059Y94614D01*
X578961Y94608D01*
X578863Y94599D01*
X578765Y94586D01*
X578668Y94569D01*
X578572Y94549D01*
X578477Y94524D01*
X578383Y94496D01*
X578290Y94465D01*
X578198Y94430D01*
X578107Y94391D01*
X578018Y94350D01*
X577931Y94304D01*
X577846Y94256D01*
X577762Y94204D01*
X577681Y94149D01*
X577601Y94091D01*
X577524Y94030D01*
X577450Y93966D01*
X577378Y93899D01*
X577308Y93829D01*
X577241Y93757D01*
X577177Y93683D01*
X577116Y93606D01*
X577058Y93526D01*
X577003Y93445D01*
X576951Y93361D01*
X576903Y93276D01*
X576857Y93189D01*
X576816Y93100D01*
X576777Y93009D01*
X576742Y92917D01*
X576711Y92824D01*
X576683Y92730D01*
X576658Y92635D01*
X576638Y92539D01*
X576621Y92442D01*
X576608Y92344D01*
X576599Y92246D01*
X576593Y92148D01*
X576591Y92050D01*
X576591Y89484D01*
X579157Y98784D02*
X579256Y98786D01*
X579356Y98792D01*
X579455Y98801D01*
X579553Y98815D01*
X579651Y98832D01*
X579749Y98853D01*
X579845Y98878D01*
X579940Y98907D01*
X580035Y98939D01*
X580127Y98975D01*
X580219Y99014D01*
X580309Y99057D01*
X580397Y99103D01*
X580483Y99153D01*
X580567Y99206D01*
X580649Y99262D01*
X580729Y99322D01*
X580806Y99384D01*
X580881Y99450D01*
X580954Y99518D01*
X581023Y99589D01*
X581090Y99663D01*
X581154Y99739D01*
X581215Y99818D01*
X581273Y99899D01*
X581328Y99982D01*
X581379Y100067D01*
X581427Y100154D01*
X581472Y100243D01*
X581513Y100334D01*
X581551Y100426D01*
X581585Y100519D01*
X581615Y100614D01*
X581642Y100710D01*
X581665Y100807D01*
X581684Y100904D01*
X581699Y101003D01*
X581711Y101102D01*
X581719Y101201D01*
X581723Y101300D01*
X581723Y101400D01*
X581719Y101499D01*
X581711Y101598D01*
X581699Y101697D01*
X581684Y101796D01*
X581665Y101893D01*
X581642Y101990D01*
X581615Y102086D01*
X581585Y102181D01*
X581551Y102274D01*
X581513Y102366D01*
X581472Y102457D01*
X581427Y102546D01*
X581379Y102633D01*
X581328Y102718D01*
X581273Y102801D01*
X581215Y102882D01*
X581154Y102961D01*
X581090Y103037D01*
X581023Y103111D01*
X580954Y103182D01*
X580881Y103250D01*
X580806Y103316D01*
X580729Y103378D01*
X580649Y103438D01*
X580567Y103494D01*
X580483Y103547D01*
X580397Y103597D01*
X580309Y103643D01*
X580219Y103686D01*
X580127Y103725D01*
X580035Y103761D01*
X579940Y103793D01*
X579845Y103822D01*
X579749Y103847D01*
X579651Y103868D01*
X579553Y103885D01*
X579455Y103899D01*
X579356Y103908D01*
X579256Y103914D01*
X579157Y103916D01*
X579058Y103914D01*
X578958Y103908D01*
X578859Y103899D01*
X578761Y103885D01*
X578663Y103868D01*
X578565Y103847D01*
X578469Y103822D01*
X578374Y103793D01*
X578279Y103761D01*
X578187Y103725D01*
X578095Y103686D01*
X578005Y103643D01*
X577917Y103597D01*
X577831Y103547D01*
X577747Y103494D01*
X577665Y103438D01*
X577585Y103378D01*
X577508Y103316D01*
X577433Y103250D01*
X577360Y103182D01*
X577291Y103111D01*
X577224Y103037D01*
X577160Y102961D01*
X577099Y102882D01*
X577041Y102801D01*
X576986Y102718D01*
X576935Y102633D01*
X576887Y102546D01*
X576842Y102457D01*
X576801Y102366D01*
X576763Y102274D01*
X576729Y102181D01*
X576699Y102086D01*
X576672Y101990D01*
X576649Y101893D01*
X576630Y101796D01*
X576615Y101697D01*
X576603Y101598D01*
X576595Y101499D01*
X576591Y101400D01*
X576591Y101300D01*
X576595Y101201D01*
X576603Y101102D01*
X576615Y101003D01*
X576630Y100904D01*
X576649Y100807D01*
X576672Y100710D01*
X576699Y100614D01*
X576729Y100519D01*
X576763Y100426D01*
X576801Y100334D01*
X576842Y100243D01*
X576887Y100154D01*
X576935Y100067D01*
X576986Y99982D01*
X577041Y99899D01*
X577099Y99818D01*
X577160Y99739D01*
X577224Y99663D01*
X577291Y99589D01*
X577360Y99518D01*
X577433Y99450D01*
X577508Y99384D01*
X577585Y99322D01*
X577665Y99262D01*
X577747Y99206D01*
X577831Y99153D01*
X577917Y99103D01*
X578005Y99057D01*
X578095Y99014D01*
X578187Y98975D01*
X578279Y98939D01*
X578374Y98907D01*
X578469Y98878D01*
X578565Y98853D01*
X578663Y98832D01*
X578761Y98815D01*
X578859Y98801D01*
X578958Y98792D01*
X579058Y98786D01*
X579157Y98784D01*
X583776Y99297D02*
X583866Y99299D01*
X583955Y99305D01*
X584044Y99315D01*
X584132Y99328D01*
X584220Y99346D01*
X584307Y99367D01*
X584393Y99392D01*
X584478Y99421D01*
X584562Y99453D01*
X584644Y99489D01*
X584724Y99529D01*
X584803Y99572D01*
X584879Y99619D01*
X584954Y99668D01*
X585026Y99721D01*
X585096Y99777D01*
X585163Y99836D01*
X585228Y99898D01*
X585290Y99963D01*
X585349Y100030D01*
X585405Y100100D01*
X585458Y100172D01*
X585507Y100247D01*
X585554Y100324D01*
X585597Y100402D01*
X585637Y100482D01*
X585673Y100564D01*
X585705Y100648D01*
X585734Y100733D01*
X585759Y100819D01*
X585780Y100906D01*
X585798Y100994D01*
X585811Y101082D01*
X585821Y101171D01*
X585827Y101260D01*
X585829Y101350D01*
X585827Y101440D01*
X585821Y101529D01*
X585811Y101618D01*
X585798Y101706D01*
X585780Y101794D01*
X585759Y101881D01*
X585734Y101967D01*
X585705Y102052D01*
X585673Y102136D01*
X585637Y102218D01*
X585597Y102298D01*
X585554Y102377D01*
X585507Y102453D01*
X585458Y102528D01*
X585405Y102600D01*
X585349Y102670D01*
X585290Y102737D01*
X585228Y102802D01*
X585163Y102864D01*
X585096Y102923D01*
X585026Y102979D01*
X584954Y103032D01*
X584879Y103081D01*
X584803Y103128D01*
X584724Y103171D01*
X584644Y103211D01*
X584562Y103247D01*
X584478Y103279D01*
X584393Y103308D01*
X584307Y103333D01*
X584220Y103354D01*
X584132Y103372D01*
X584044Y103385D01*
X583955Y103395D01*
X583866Y103401D01*
X583776Y103403D01*
X583686Y103401D01*
X583597Y103395D01*
X583508Y103385D01*
X583420Y103372D01*
X583332Y103354D01*
X583245Y103333D01*
X583159Y103308D01*
X583074Y103279D01*
X582990Y103247D01*
X582908Y103211D01*
X582828Y103171D01*
X582750Y103128D01*
X582673Y103081D01*
X582598Y103032D01*
X582526Y102979D01*
X582456Y102923D01*
X582389Y102864D01*
X582324Y102802D01*
X582262Y102737D01*
X582203Y102670D01*
X582147Y102600D01*
X582094Y102528D01*
X582045Y102453D01*
X581998Y102377D01*
X581955Y102298D01*
X581915Y102218D01*
X581879Y102136D01*
X581847Y102052D01*
X581818Y101967D01*
X581793Y101881D01*
X581772Y101794D01*
X581754Y101706D01*
X581741Y101618D01*
X581731Y101529D01*
X581725Y101440D01*
X581723Y101350D01*
X581725Y101260D01*
X581731Y101171D01*
X581741Y101082D01*
X581754Y100994D01*
X581772Y100906D01*
X581793Y100819D01*
X581818Y100733D01*
X581847Y100648D01*
X581879Y100564D01*
X581915Y100482D01*
X581955Y100402D01*
X581998Y100324D01*
X582045Y100247D01*
X582094Y100172D01*
X582147Y100100D01*
X582203Y100030D01*
X582262Y99963D01*
X582324Y99898D01*
X582389Y99836D01*
X582456Y99777D01*
X582526Y99721D01*
X582598Y99668D01*
X582673Y99619D01*
X582750Y99572D01*
X582828Y99529D01*
X582908Y99489D01*
X582990Y99453D01*
X583074Y99421D01*
X583159Y99392D01*
X583245Y99367D01*
X583332Y99346D01*
X583420Y99328D01*
X583508Y99315D01*
X583597Y99305D01*
X583686Y99299D01*
X583776Y99297D01*
D12*
X589970Y132730D02*
X589972Y132786D01*
X589978Y132843D01*
X589988Y132898D01*
X590002Y132953D01*
X590019Y133007D01*
X590041Y133059D01*
X590066Y133109D01*
X590094Y133158D01*
X590126Y133205D01*
X590161Y133249D01*
X590199Y133291D01*
X590240Y133330D01*
X590284Y133365D01*
X590330Y133398D01*
X590378Y133427D01*
X590428Y133453D01*
X590480Y133476D01*
X590534Y133494D01*
X590588Y133509D01*
X590643Y133520D01*
X590699Y133527D01*
X590756Y133530D01*
X590812Y133529D01*
X590869Y133524D01*
X590924Y133515D01*
X590979Y133502D01*
X591033Y133485D01*
X591086Y133465D01*
X591137Y133441D01*
X591186Y133413D01*
X591233Y133382D01*
X591278Y133348D01*
X591321Y133310D01*
X591360Y133270D01*
X591397Y133227D01*
X591430Y133182D01*
X591460Y133134D01*
X591487Y133084D01*
X591510Y133033D01*
X591530Y132980D01*
X591546Y132926D01*
X591558Y132870D01*
X591566Y132815D01*
X591570Y132758D01*
X591570Y132702D01*
X591566Y132645D01*
X591558Y132590D01*
X591546Y132534D01*
X591530Y132480D01*
X591510Y132427D01*
X591487Y132376D01*
X591460Y132326D01*
X591430Y132278D01*
X591397Y132233D01*
X591360Y132190D01*
X591321Y132150D01*
X591278Y132112D01*
X591233Y132078D01*
X591186Y132047D01*
X591137Y132019D01*
X591086Y131995D01*
X591033Y131975D01*
X590979Y131958D01*
X590924Y131945D01*
X590869Y131936D01*
X590812Y131931D01*
X590756Y131930D01*
X590699Y131933D01*
X590643Y131940D01*
X590588Y131951D01*
X590534Y131966D01*
X590480Y131984D01*
X590428Y132007D01*
X590378Y132033D01*
X590330Y132062D01*
X590284Y132095D01*
X590240Y132130D01*
X590199Y132169D01*
X590161Y132211D01*
X590126Y132255D01*
X590094Y132302D01*
X590066Y132351D01*
X590041Y132401D01*
X590019Y132453D01*
X590002Y132507D01*
X589988Y132562D01*
X589978Y132617D01*
X589972Y132674D01*
X589970Y132730D01*
D10*
X595770Y127730D02*
X595770Y105730D01*
X585770Y105730D01*
X585770Y127730D01*
X595770Y127730D01*
D13*
X596709Y89344D02*
X587471Y89344D01*
X596709Y89344D02*
X596709Y91910D01*
X596707Y92008D01*
X596701Y92106D01*
X596692Y92204D01*
X596679Y92302D01*
X596662Y92399D01*
X596642Y92495D01*
X596617Y92590D01*
X596589Y92684D01*
X596558Y92777D01*
X596523Y92869D01*
X596484Y92960D01*
X596443Y93049D01*
X596397Y93136D01*
X596349Y93221D01*
X596297Y93305D01*
X596242Y93386D01*
X596184Y93466D01*
X596123Y93543D01*
X596059Y93617D01*
X595992Y93689D01*
X595922Y93759D01*
X595850Y93826D01*
X595776Y93890D01*
X595699Y93951D01*
X595619Y94009D01*
X595538Y94064D01*
X595454Y94116D01*
X595369Y94164D01*
X595282Y94210D01*
X595193Y94251D01*
X595102Y94290D01*
X595010Y94325D01*
X594917Y94356D01*
X594823Y94384D01*
X594728Y94409D01*
X594632Y94429D01*
X594535Y94446D01*
X594437Y94459D01*
X594339Y94468D01*
X594241Y94474D01*
X594143Y94476D01*
X590037Y94476D01*
X589939Y94474D01*
X589841Y94468D01*
X589743Y94459D01*
X589645Y94446D01*
X589548Y94429D01*
X589452Y94409D01*
X589357Y94384D01*
X589263Y94356D01*
X589170Y94325D01*
X589078Y94290D01*
X588987Y94251D01*
X588898Y94210D01*
X588811Y94164D01*
X588726Y94116D01*
X588642Y94064D01*
X588561Y94009D01*
X588481Y93951D01*
X588404Y93890D01*
X588330Y93826D01*
X588258Y93759D01*
X588188Y93689D01*
X588121Y93617D01*
X588057Y93543D01*
X587996Y93466D01*
X587938Y93386D01*
X587883Y93305D01*
X587831Y93221D01*
X587783Y93136D01*
X587737Y93049D01*
X587696Y92960D01*
X587657Y92869D01*
X587622Y92777D01*
X587591Y92684D01*
X587563Y92590D01*
X587538Y92495D01*
X587518Y92399D01*
X587501Y92302D01*
X587488Y92204D01*
X587479Y92106D01*
X587473Y92008D01*
X587471Y91910D01*
X587471Y89344D01*
X591577Y100697D02*
X591577Y103776D01*
X591577Y100697D02*
X591579Y100607D01*
X591585Y100518D01*
X591595Y100429D01*
X591608Y100340D01*
X591626Y100253D01*
X591647Y100166D01*
X591672Y100080D01*
X591701Y99995D01*
X591733Y99911D01*
X591769Y99829D01*
X591809Y99749D01*
X591852Y99670D01*
X591899Y99594D01*
X591948Y99519D01*
X592001Y99447D01*
X592057Y99377D01*
X592116Y99310D01*
X592178Y99245D01*
X592243Y99183D01*
X592310Y99124D01*
X592380Y99068D01*
X592452Y99015D01*
X592527Y98966D01*
X592604Y98919D01*
X592682Y98876D01*
X592762Y98836D01*
X592844Y98800D01*
X592928Y98768D01*
X593013Y98739D01*
X593099Y98714D01*
X593186Y98693D01*
X593274Y98675D01*
X593362Y98662D01*
X593451Y98652D01*
X593540Y98646D01*
X593630Y98644D01*
X594143Y98644D01*
X594242Y98646D01*
X594342Y98652D01*
X594441Y98661D01*
X594539Y98675D01*
X594637Y98692D01*
X594735Y98713D01*
X594831Y98738D01*
X594926Y98767D01*
X595021Y98799D01*
X595113Y98835D01*
X595205Y98874D01*
X595295Y98917D01*
X595383Y98963D01*
X595469Y99013D01*
X595553Y99066D01*
X595635Y99122D01*
X595715Y99182D01*
X595792Y99244D01*
X595867Y99310D01*
X595940Y99378D01*
X596009Y99449D01*
X596076Y99523D01*
X596140Y99599D01*
X596201Y99678D01*
X596259Y99759D01*
X596314Y99842D01*
X596365Y99927D01*
X596413Y100014D01*
X596458Y100103D01*
X596499Y100194D01*
X596537Y100286D01*
X596571Y100379D01*
X596601Y100474D01*
X596628Y100570D01*
X596651Y100667D01*
X596670Y100764D01*
X596685Y100863D01*
X596697Y100962D01*
X596705Y101061D01*
X596709Y101160D01*
X596709Y101260D01*
X596705Y101359D01*
X596697Y101458D01*
X596685Y101557D01*
X596670Y101656D01*
X596651Y101753D01*
X596628Y101850D01*
X596601Y101946D01*
X596571Y102041D01*
X596537Y102134D01*
X596499Y102226D01*
X596458Y102317D01*
X596413Y102406D01*
X596365Y102493D01*
X596314Y102578D01*
X596259Y102661D01*
X596201Y102742D01*
X596140Y102821D01*
X596076Y102897D01*
X596009Y102971D01*
X595940Y103042D01*
X595867Y103110D01*
X595792Y103176D01*
X595715Y103238D01*
X595635Y103298D01*
X595553Y103354D01*
X595469Y103407D01*
X595383Y103457D01*
X595295Y103503D01*
X595205Y103546D01*
X595113Y103585D01*
X595021Y103621D01*
X594926Y103653D01*
X594831Y103682D01*
X594735Y103707D01*
X594637Y103728D01*
X594539Y103745D01*
X594441Y103759D01*
X594342Y103768D01*
X594242Y103774D01*
X594143Y103776D01*
X591577Y103776D01*
X591451Y103774D01*
X591324Y103768D01*
X591198Y103758D01*
X591072Y103745D01*
X590947Y103727D01*
X590823Y103706D01*
X590699Y103681D01*
X590575Y103652D01*
X590453Y103619D01*
X590332Y103583D01*
X590212Y103543D01*
X590094Y103499D01*
X589977Y103451D01*
X589861Y103400D01*
X589747Y103346D01*
X589634Y103287D01*
X589524Y103226D01*
X589415Y103161D01*
X589309Y103093D01*
X589205Y103021D01*
X589103Y102947D01*
X589003Y102869D01*
X588906Y102788D01*
X588811Y102704D01*
X588719Y102618D01*
X588629Y102528D01*
X588543Y102436D01*
X588459Y102341D01*
X588378Y102244D01*
X588300Y102144D01*
X588226Y102042D01*
X588154Y101938D01*
X588086Y101832D01*
X588021Y101723D01*
X587960Y101613D01*
X587901Y101500D01*
X587847Y101386D01*
X587796Y101270D01*
X587748Y101153D01*
X587704Y101035D01*
X587664Y100915D01*
X587628Y100794D01*
X587595Y100672D01*
X587566Y100548D01*
X587541Y100424D01*
X587520Y100300D01*
X587502Y100175D01*
X587489Y100049D01*
X587479Y99923D01*
X587473Y99796D01*
X587471Y99670D01*
D12*
X613200Y133500D02*
X613202Y133556D01*
X613208Y133613D01*
X613218Y133668D01*
X613232Y133723D01*
X613249Y133777D01*
X613271Y133829D01*
X613296Y133879D01*
X613324Y133928D01*
X613356Y133975D01*
X613391Y134019D01*
X613429Y134061D01*
X613470Y134100D01*
X613514Y134135D01*
X613560Y134168D01*
X613608Y134197D01*
X613658Y134223D01*
X613710Y134246D01*
X613764Y134264D01*
X613818Y134279D01*
X613873Y134290D01*
X613929Y134297D01*
X613986Y134300D01*
X614042Y134299D01*
X614099Y134294D01*
X614154Y134285D01*
X614209Y134272D01*
X614263Y134255D01*
X614316Y134235D01*
X614367Y134211D01*
X614416Y134183D01*
X614463Y134152D01*
X614508Y134118D01*
X614551Y134080D01*
X614590Y134040D01*
X614627Y133997D01*
X614660Y133952D01*
X614690Y133904D01*
X614717Y133854D01*
X614740Y133803D01*
X614760Y133750D01*
X614776Y133696D01*
X614788Y133640D01*
X614796Y133585D01*
X614800Y133528D01*
X614800Y133472D01*
X614796Y133415D01*
X614788Y133360D01*
X614776Y133304D01*
X614760Y133250D01*
X614740Y133197D01*
X614717Y133146D01*
X614690Y133096D01*
X614660Y133048D01*
X614627Y133003D01*
X614590Y132960D01*
X614551Y132920D01*
X614508Y132882D01*
X614463Y132848D01*
X614416Y132817D01*
X614367Y132789D01*
X614316Y132765D01*
X614263Y132745D01*
X614209Y132728D01*
X614154Y132715D01*
X614099Y132706D01*
X614042Y132701D01*
X613986Y132700D01*
X613929Y132703D01*
X613873Y132710D01*
X613818Y132721D01*
X613764Y132736D01*
X613710Y132754D01*
X613658Y132777D01*
X613608Y132803D01*
X613560Y132832D01*
X613514Y132865D01*
X613470Y132900D01*
X613429Y132939D01*
X613391Y132981D01*
X613356Y133025D01*
X613324Y133072D01*
X613296Y133121D01*
X613271Y133171D01*
X613249Y133223D01*
X613232Y133277D01*
X613218Y133332D01*
X613208Y133387D01*
X613202Y133444D01*
X613200Y133500D01*
D10*
X619000Y128500D02*
X619000Y106500D01*
X609000Y106500D01*
X609000Y128500D01*
X619000Y128500D01*
D13*
X607939Y102614D02*
X598701Y102614D01*
X607939Y102614D02*
X607939Y105180D01*
X607937Y105278D01*
X607931Y105376D01*
X607922Y105474D01*
X607909Y105572D01*
X607892Y105669D01*
X607872Y105765D01*
X607847Y105860D01*
X607819Y105954D01*
X607788Y106047D01*
X607753Y106139D01*
X607714Y106230D01*
X607673Y106319D01*
X607627Y106406D01*
X607579Y106491D01*
X607527Y106575D01*
X607472Y106656D01*
X607414Y106736D01*
X607353Y106813D01*
X607289Y106887D01*
X607222Y106959D01*
X607152Y107029D01*
X607080Y107096D01*
X607006Y107160D01*
X606929Y107221D01*
X606849Y107279D01*
X606768Y107334D01*
X606684Y107386D01*
X606599Y107434D01*
X606512Y107480D01*
X606423Y107521D01*
X606332Y107560D01*
X606240Y107595D01*
X606147Y107626D01*
X606053Y107654D01*
X605958Y107679D01*
X605862Y107699D01*
X605765Y107716D01*
X605667Y107729D01*
X605569Y107738D01*
X605471Y107744D01*
X605373Y107746D01*
X601267Y107746D01*
X601169Y107744D01*
X601071Y107738D01*
X600973Y107729D01*
X600875Y107716D01*
X600778Y107699D01*
X600682Y107679D01*
X600587Y107654D01*
X600493Y107626D01*
X600400Y107595D01*
X600308Y107560D01*
X600217Y107521D01*
X600128Y107480D01*
X600041Y107434D01*
X599956Y107386D01*
X599872Y107334D01*
X599791Y107279D01*
X599711Y107221D01*
X599634Y107160D01*
X599560Y107096D01*
X599488Y107029D01*
X599418Y106959D01*
X599351Y106887D01*
X599287Y106813D01*
X599226Y106736D01*
X599168Y106656D01*
X599113Y106575D01*
X599061Y106491D01*
X599013Y106406D01*
X598967Y106319D01*
X598926Y106230D01*
X598887Y106139D01*
X598852Y106047D01*
X598821Y105954D01*
X598793Y105860D01*
X598768Y105765D01*
X598748Y105669D01*
X598731Y105572D01*
X598718Y105474D01*
X598709Y105376D01*
X598703Y105278D01*
X598701Y105180D01*
X598701Y102614D01*
X605886Y111914D02*
X607939Y114480D01*
X598701Y114480D01*
X598701Y111914D02*
X598701Y117046D01*
X603320Y120914D02*
X603502Y120916D01*
X603683Y120923D01*
X603865Y120934D01*
X604046Y120949D01*
X604227Y120968D01*
X604407Y120992D01*
X604586Y121020D01*
X604765Y121052D01*
X604943Y121089D01*
X605120Y121130D01*
X605296Y121175D01*
X605471Y121224D01*
X605645Y121278D01*
X605817Y121335D01*
X605988Y121397D01*
X606158Y121463D01*
X606326Y121532D01*
X606492Y121606D01*
X606656Y121684D01*
X606735Y121713D01*
X606812Y121745D01*
X606889Y121781D01*
X606963Y121820D01*
X607036Y121863D01*
X607106Y121909D01*
X607175Y121957D01*
X607241Y122009D01*
X607305Y122064D01*
X607367Y122121D01*
X607425Y122181D01*
X607482Y122244D01*
X607535Y122309D01*
X607585Y122376D01*
X607633Y122446D01*
X607677Y122517D01*
X607718Y122591D01*
X607756Y122666D01*
X607790Y122743D01*
X607821Y122821D01*
X607848Y122900D01*
X607872Y122981D01*
X607893Y123063D01*
X607909Y123145D01*
X607922Y123228D01*
X607932Y123312D01*
X607937Y123396D01*
X607939Y123480D01*
X607937Y123564D01*
X607932Y123648D01*
X607922Y123732D01*
X607909Y123815D01*
X607893Y123897D01*
X607872Y123979D01*
X607848Y124060D01*
X607821Y124139D01*
X607790Y124217D01*
X607756Y124294D01*
X607718Y124369D01*
X607677Y124443D01*
X607633Y124514D01*
X607585Y124584D01*
X607535Y124651D01*
X607482Y124716D01*
X607425Y124779D01*
X607366Y124839D01*
X607305Y124896D01*
X607241Y124951D01*
X607175Y125003D01*
X607106Y125051D01*
X607036Y125097D01*
X606963Y125140D01*
X606888Y125179D01*
X606812Y125215D01*
X606735Y125247D01*
X606656Y125276D01*
X606492Y125354D01*
X606326Y125428D01*
X606158Y125497D01*
X605988Y125563D01*
X605817Y125625D01*
X605645Y125682D01*
X605471Y125736D01*
X605296Y125785D01*
X605120Y125830D01*
X604943Y125871D01*
X604765Y125908D01*
X604586Y125940D01*
X604407Y125968D01*
X604227Y125992D01*
X604046Y126011D01*
X603865Y126026D01*
X603683Y126037D01*
X603502Y126044D01*
X603320Y126046D01*
X603320Y120914D02*
X603138Y120916D01*
X602957Y120923D01*
X602775Y120934D01*
X602594Y120949D01*
X602413Y120968D01*
X602233Y120992D01*
X602054Y121020D01*
X601875Y121052D01*
X601697Y121089D01*
X601520Y121130D01*
X601344Y121175D01*
X601169Y121224D01*
X600995Y121278D01*
X600823Y121335D01*
X600652Y121397D01*
X600482Y121463D01*
X600315Y121532D01*
X600148Y121606D01*
X599984Y121684D01*
X599905Y121713D01*
X599828Y121745D01*
X599751Y121781D01*
X599677Y121820D01*
X599604Y121863D01*
X599534Y121909D01*
X599465Y121957D01*
X599399Y122009D01*
X599335Y122064D01*
X599273Y122121D01*
X599215Y122181D01*
X599158Y122244D01*
X599105Y122309D01*
X599055Y122376D01*
X599007Y122446D01*
X598963Y122517D01*
X598922Y122591D01*
X598884Y122666D01*
X598850Y122743D01*
X598819Y122821D01*
X598792Y122900D01*
X598768Y122981D01*
X598747Y123063D01*
X598731Y123145D01*
X598718Y123228D01*
X598708Y123312D01*
X598703Y123396D01*
X598701Y123480D01*
X599984Y125276D02*
X600148Y125354D01*
X600314Y125428D01*
X600482Y125497D01*
X600652Y125563D01*
X600823Y125625D01*
X600995Y125682D01*
X601169Y125736D01*
X601344Y125785D01*
X601520Y125830D01*
X601697Y125871D01*
X601875Y125908D01*
X602054Y125940D01*
X602233Y125968D01*
X602413Y125992D01*
X602594Y126011D01*
X602775Y126026D01*
X602957Y126037D01*
X603138Y126044D01*
X603320Y126046D01*
X599984Y125276D02*
X599905Y125247D01*
X599828Y125215D01*
X599751Y125179D01*
X599677Y125140D01*
X599604Y125097D01*
X599534Y125051D01*
X599465Y125003D01*
X599399Y124951D01*
X599335Y124896D01*
X599273Y124839D01*
X599215Y124779D01*
X599158Y124716D01*
X599105Y124651D01*
X599055Y124584D01*
X599007Y124514D01*
X598963Y124443D01*
X598922Y124369D01*
X598884Y124294D01*
X598850Y124217D01*
X598819Y124139D01*
X598792Y124060D01*
X598768Y123979D01*
X598747Y123897D01*
X598731Y123815D01*
X598718Y123732D01*
X598708Y123648D01*
X598703Y123564D01*
X598701Y123480D01*
X600754Y121427D02*
X605886Y125533D01*
D12*
X633200Y133500D02*
X633202Y133556D01*
X633208Y133613D01*
X633218Y133668D01*
X633232Y133723D01*
X633249Y133777D01*
X633271Y133829D01*
X633296Y133879D01*
X633324Y133928D01*
X633356Y133975D01*
X633391Y134019D01*
X633429Y134061D01*
X633470Y134100D01*
X633514Y134135D01*
X633560Y134168D01*
X633608Y134197D01*
X633658Y134223D01*
X633710Y134246D01*
X633764Y134264D01*
X633818Y134279D01*
X633873Y134290D01*
X633929Y134297D01*
X633986Y134300D01*
X634042Y134299D01*
X634099Y134294D01*
X634154Y134285D01*
X634209Y134272D01*
X634263Y134255D01*
X634316Y134235D01*
X634367Y134211D01*
X634416Y134183D01*
X634463Y134152D01*
X634508Y134118D01*
X634551Y134080D01*
X634590Y134040D01*
X634627Y133997D01*
X634660Y133952D01*
X634690Y133904D01*
X634717Y133854D01*
X634740Y133803D01*
X634760Y133750D01*
X634776Y133696D01*
X634788Y133640D01*
X634796Y133585D01*
X634800Y133528D01*
X634800Y133472D01*
X634796Y133415D01*
X634788Y133360D01*
X634776Y133304D01*
X634760Y133250D01*
X634740Y133197D01*
X634717Y133146D01*
X634690Y133096D01*
X634660Y133048D01*
X634627Y133003D01*
X634590Y132960D01*
X634551Y132920D01*
X634508Y132882D01*
X634463Y132848D01*
X634416Y132817D01*
X634367Y132789D01*
X634316Y132765D01*
X634263Y132745D01*
X634209Y132728D01*
X634154Y132715D01*
X634099Y132706D01*
X634042Y132701D01*
X633986Y132700D01*
X633929Y132703D01*
X633873Y132710D01*
X633818Y132721D01*
X633764Y132736D01*
X633710Y132754D01*
X633658Y132777D01*
X633608Y132803D01*
X633560Y132832D01*
X633514Y132865D01*
X633470Y132900D01*
X633429Y132939D01*
X633391Y132981D01*
X633356Y133025D01*
X633324Y133072D01*
X633296Y133121D01*
X633271Y133171D01*
X633249Y133223D01*
X633232Y133277D01*
X633218Y133332D01*
X633208Y133387D01*
X633202Y133444D01*
X633200Y133500D01*
D10*
X639000Y128500D02*
X639000Y106500D01*
X629000Y106500D01*
X629000Y128500D01*
X639000Y128500D01*
D13*
X671701Y106114D02*
X680939Y106114D01*
X680939Y108680D01*
X680937Y108778D01*
X680931Y108876D01*
X680922Y108974D01*
X680909Y109072D01*
X680892Y109169D01*
X680872Y109265D01*
X680847Y109360D01*
X680819Y109454D01*
X680788Y109547D01*
X680753Y109639D01*
X680714Y109730D01*
X680673Y109819D01*
X680627Y109906D01*
X680579Y109991D01*
X680527Y110075D01*
X680472Y110156D01*
X680414Y110236D01*
X680353Y110313D01*
X680289Y110387D01*
X680222Y110459D01*
X680152Y110529D01*
X680080Y110596D01*
X680006Y110660D01*
X679929Y110721D01*
X679849Y110779D01*
X679768Y110834D01*
X679684Y110886D01*
X679599Y110934D01*
X679512Y110980D01*
X679423Y111021D01*
X679332Y111060D01*
X679240Y111095D01*
X679147Y111126D01*
X679053Y111154D01*
X678958Y111179D01*
X678862Y111199D01*
X678765Y111216D01*
X678667Y111229D01*
X678569Y111238D01*
X678471Y111244D01*
X678373Y111246D01*
X674267Y111246D01*
X674169Y111244D01*
X674071Y111238D01*
X673973Y111229D01*
X673875Y111216D01*
X673778Y111199D01*
X673682Y111179D01*
X673587Y111154D01*
X673493Y111126D01*
X673400Y111095D01*
X673308Y111060D01*
X673217Y111021D01*
X673128Y110980D01*
X673041Y110934D01*
X672956Y110886D01*
X672872Y110834D01*
X672791Y110779D01*
X672711Y110721D01*
X672634Y110660D01*
X672560Y110596D01*
X672488Y110529D01*
X672418Y110459D01*
X672351Y110387D01*
X672287Y110313D01*
X672226Y110236D01*
X672168Y110156D01*
X672113Y110075D01*
X672061Y109991D01*
X672013Y109906D01*
X671967Y109819D01*
X671926Y109730D01*
X671887Y109639D01*
X671852Y109547D01*
X671821Y109454D01*
X671793Y109360D01*
X671768Y109265D01*
X671748Y109169D01*
X671731Y109072D01*
X671718Y108974D01*
X671709Y108876D01*
X671703Y108778D01*
X671701Y108680D01*
X671701Y106114D01*
X678886Y115414D02*
X680939Y117980D01*
X671701Y117980D01*
X671701Y115414D02*
X671701Y120546D01*
X678886Y124414D02*
X680939Y126980D01*
X671701Y126980D01*
X671701Y124414D02*
X671701Y129546D01*
D12*
X643200Y133500D02*
X643202Y133556D01*
X643208Y133613D01*
X643218Y133668D01*
X643232Y133723D01*
X643249Y133777D01*
X643271Y133829D01*
X643296Y133879D01*
X643324Y133928D01*
X643356Y133975D01*
X643391Y134019D01*
X643429Y134061D01*
X643470Y134100D01*
X643514Y134135D01*
X643560Y134168D01*
X643608Y134197D01*
X643658Y134223D01*
X643710Y134246D01*
X643764Y134264D01*
X643818Y134279D01*
X643873Y134290D01*
X643929Y134297D01*
X643986Y134300D01*
X644042Y134299D01*
X644099Y134294D01*
X644154Y134285D01*
X644209Y134272D01*
X644263Y134255D01*
X644316Y134235D01*
X644367Y134211D01*
X644416Y134183D01*
X644463Y134152D01*
X644508Y134118D01*
X644551Y134080D01*
X644590Y134040D01*
X644627Y133997D01*
X644660Y133952D01*
X644690Y133904D01*
X644717Y133854D01*
X644740Y133803D01*
X644760Y133750D01*
X644776Y133696D01*
X644788Y133640D01*
X644796Y133585D01*
X644800Y133528D01*
X644800Y133472D01*
X644796Y133415D01*
X644788Y133360D01*
X644776Y133304D01*
X644760Y133250D01*
X644740Y133197D01*
X644717Y133146D01*
X644690Y133096D01*
X644660Y133048D01*
X644627Y133003D01*
X644590Y132960D01*
X644551Y132920D01*
X644508Y132882D01*
X644463Y132848D01*
X644416Y132817D01*
X644367Y132789D01*
X644316Y132765D01*
X644263Y132745D01*
X644209Y132728D01*
X644154Y132715D01*
X644099Y132706D01*
X644042Y132701D01*
X643986Y132700D01*
X643929Y132703D01*
X643873Y132710D01*
X643818Y132721D01*
X643764Y132736D01*
X643710Y132754D01*
X643658Y132777D01*
X643608Y132803D01*
X643560Y132832D01*
X643514Y132865D01*
X643470Y132900D01*
X643429Y132939D01*
X643391Y132981D01*
X643356Y133025D01*
X643324Y133072D01*
X643296Y133121D01*
X643271Y133171D01*
X643249Y133223D01*
X643232Y133277D01*
X643218Y133332D01*
X643208Y133387D01*
X643202Y133444D01*
X643200Y133500D01*
D10*
X649000Y128500D02*
X649000Y106500D01*
X639000Y106500D01*
X639000Y128500D01*
X649000Y128500D01*
D13*
X682201Y107114D02*
X691439Y107114D01*
X691439Y109680D01*
X691437Y109778D01*
X691431Y109876D01*
X691422Y109974D01*
X691409Y110072D01*
X691392Y110169D01*
X691372Y110265D01*
X691347Y110360D01*
X691319Y110454D01*
X691288Y110547D01*
X691253Y110639D01*
X691214Y110730D01*
X691173Y110819D01*
X691127Y110906D01*
X691079Y110991D01*
X691027Y111075D01*
X690972Y111156D01*
X690914Y111236D01*
X690853Y111313D01*
X690789Y111387D01*
X690722Y111459D01*
X690652Y111529D01*
X690580Y111596D01*
X690506Y111660D01*
X690429Y111721D01*
X690349Y111779D01*
X690268Y111834D01*
X690184Y111886D01*
X690099Y111934D01*
X690012Y111980D01*
X689923Y112021D01*
X689832Y112060D01*
X689740Y112095D01*
X689647Y112126D01*
X689553Y112154D01*
X689458Y112179D01*
X689362Y112199D01*
X689265Y112216D01*
X689167Y112229D01*
X689069Y112238D01*
X688971Y112244D01*
X688873Y112246D01*
X684767Y112246D01*
X684669Y112244D01*
X684571Y112238D01*
X684473Y112229D01*
X684375Y112216D01*
X684278Y112199D01*
X684182Y112179D01*
X684087Y112154D01*
X683993Y112126D01*
X683900Y112095D01*
X683808Y112060D01*
X683717Y112021D01*
X683628Y111980D01*
X683541Y111934D01*
X683456Y111886D01*
X683372Y111834D01*
X683291Y111779D01*
X683211Y111721D01*
X683134Y111660D01*
X683060Y111596D01*
X682988Y111529D01*
X682918Y111459D01*
X682851Y111387D01*
X682787Y111313D01*
X682726Y111236D01*
X682668Y111156D01*
X682613Y111075D01*
X682561Y110991D01*
X682513Y110906D01*
X682467Y110819D01*
X682426Y110730D01*
X682387Y110639D01*
X682352Y110547D01*
X682321Y110454D01*
X682293Y110360D01*
X682268Y110265D01*
X682248Y110169D01*
X682231Y110072D01*
X682218Y109974D01*
X682209Y109876D01*
X682203Y109778D01*
X682201Y109680D01*
X682201Y107114D01*
X689386Y116414D02*
X691439Y118980D01*
X682201Y118980D01*
X682201Y116414D02*
X682201Y121546D01*
X689130Y130546D02*
X689225Y130544D01*
X689321Y130538D01*
X689416Y130528D01*
X689510Y130514D01*
X689604Y130497D01*
X689697Y130475D01*
X689789Y130450D01*
X689880Y130421D01*
X689970Y130388D01*
X690058Y130351D01*
X690145Y130311D01*
X690229Y130268D01*
X690312Y130220D01*
X690393Y130170D01*
X690472Y130116D01*
X690549Y130059D01*
X690623Y129999D01*
X690695Y129936D01*
X690763Y129869D01*
X690830Y129801D01*
X690893Y129729D01*
X690953Y129655D01*
X691010Y129578D01*
X691064Y129499D01*
X691114Y129418D01*
X691162Y129335D01*
X691205Y129251D01*
X691245Y129164D01*
X691282Y129076D01*
X691315Y128986D01*
X691344Y128895D01*
X691369Y128803D01*
X691391Y128710D01*
X691408Y128616D01*
X691422Y128522D01*
X691432Y128427D01*
X691438Y128331D01*
X691440Y128236D01*
X691439Y128236D02*
X691437Y128129D01*
X691431Y128023D01*
X691422Y127917D01*
X691408Y127811D01*
X691391Y127706D01*
X691370Y127601D01*
X691346Y127498D01*
X691317Y127395D01*
X691285Y127293D01*
X691250Y127193D01*
X691210Y127094D01*
X691167Y126996D01*
X691121Y126900D01*
X691071Y126806D01*
X691018Y126713D01*
X690962Y126623D01*
X690902Y126534D01*
X690840Y126448D01*
X690774Y126364D01*
X690705Y126283D01*
X690634Y126204D01*
X690559Y126127D01*
X690482Y126054D01*
X690402Y125983D01*
X690320Y125915D01*
X690236Y125850D01*
X690149Y125788D01*
X690060Y125730D01*
X689969Y125674D01*
X689876Y125622D01*
X689781Y125573D01*
X689684Y125528D01*
X689586Y125486D01*
X689487Y125448D01*
X689386Y125413D01*
X687333Y129776D02*
X687401Y129844D01*
X687471Y129909D01*
X687543Y129972D01*
X687618Y130032D01*
X687695Y130089D01*
X687774Y130142D01*
X687855Y130193D01*
X687938Y130241D01*
X688022Y130285D01*
X688109Y130326D01*
X688197Y130364D01*
X688286Y130398D01*
X688377Y130429D01*
X688468Y130456D01*
X688561Y130480D01*
X688655Y130500D01*
X688749Y130517D01*
X688844Y130529D01*
X688939Y130539D01*
X689034Y130544D01*
X689130Y130546D01*
X687334Y129776D02*
X682201Y125414D01*
X682201Y130546D01*
D12*
X653200Y133500D02*
X653202Y133556D01*
X653208Y133613D01*
X653218Y133668D01*
X653232Y133723D01*
X653249Y133777D01*
X653271Y133829D01*
X653296Y133879D01*
X653324Y133928D01*
X653356Y133975D01*
X653391Y134019D01*
X653429Y134061D01*
X653470Y134100D01*
X653514Y134135D01*
X653560Y134168D01*
X653608Y134197D01*
X653658Y134223D01*
X653710Y134246D01*
X653764Y134264D01*
X653818Y134279D01*
X653873Y134290D01*
X653929Y134297D01*
X653986Y134300D01*
X654042Y134299D01*
X654099Y134294D01*
X654154Y134285D01*
X654209Y134272D01*
X654263Y134255D01*
X654316Y134235D01*
X654367Y134211D01*
X654416Y134183D01*
X654463Y134152D01*
X654508Y134118D01*
X654551Y134080D01*
X654590Y134040D01*
X654627Y133997D01*
X654660Y133952D01*
X654690Y133904D01*
X654717Y133854D01*
X654740Y133803D01*
X654760Y133750D01*
X654776Y133696D01*
X654788Y133640D01*
X654796Y133585D01*
X654800Y133528D01*
X654800Y133472D01*
X654796Y133415D01*
X654788Y133360D01*
X654776Y133304D01*
X654760Y133250D01*
X654740Y133197D01*
X654717Y133146D01*
X654690Y133096D01*
X654660Y133048D01*
X654627Y133003D01*
X654590Y132960D01*
X654551Y132920D01*
X654508Y132882D01*
X654463Y132848D01*
X654416Y132817D01*
X654367Y132789D01*
X654316Y132765D01*
X654263Y132745D01*
X654209Y132728D01*
X654154Y132715D01*
X654099Y132706D01*
X654042Y132701D01*
X653986Y132700D01*
X653929Y132703D01*
X653873Y132710D01*
X653818Y132721D01*
X653764Y132736D01*
X653710Y132754D01*
X653658Y132777D01*
X653608Y132803D01*
X653560Y132832D01*
X653514Y132865D01*
X653470Y132900D01*
X653429Y132939D01*
X653391Y132981D01*
X653356Y133025D01*
X653324Y133072D01*
X653296Y133121D01*
X653271Y133171D01*
X653249Y133223D01*
X653232Y133277D01*
X653218Y133332D01*
X653208Y133387D01*
X653202Y133444D01*
X653200Y133500D01*
D10*
X659000Y128500D02*
X659000Y106500D01*
X649000Y106500D01*
X649000Y128500D01*
X659000Y128500D01*
D13*
X693201Y107114D02*
X702439Y107114D01*
X702439Y109680D01*
X702437Y109778D01*
X702431Y109876D01*
X702422Y109974D01*
X702409Y110072D01*
X702392Y110169D01*
X702372Y110265D01*
X702347Y110360D01*
X702319Y110454D01*
X702288Y110547D01*
X702253Y110639D01*
X702214Y110730D01*
X702173Y110819D01*
X702127Y110906D01*
X702079Y110991D01*
X702027Y111075D01*
X701972Y111156D01*
X701914Y111236D01*
X701853Y111313D01*
X701789Y111387D01*
X701722Y111459D01*
X701652Y111529D01*
X701580Y111596D01*
X701506Y111660D01*
X701429Y111721D01*
X701349Y111779D01*
X701268Y111834D01*
X701184Y111886D01*
X701099Y111934D01*
X701012Y111980D01*
X700923Y112021D01*
X700832Y112060D01*
X700740Y112095D01*
X700647Y112126D01*
X700553Y112154D01*
X700458Y112179D01*
X700362Y112199D01*
X700265Y112216D01*
X700167Y112229D01*
X700069Y112238D01*
X699971Y112244D01*
X699873Y112246D01*
X695767Y112246D01*
X695669Y112244D01*
X695571Y112238D01*
X695473Y112229D01*
X695375Y112216D01*
X695278Y112199D01*
X695182Y112179D01*
X695087Y112154D01*
X694993Y112126D01*
X694900Y112095D01*
X694808Y112060D01*
X694717Y112021D01*
X694628Y111980D01*
X694541Y111934D01*
X694456Y111886D01*
X694372Y111834D01*
X694291Y111779D01*
X694211Y111721D01*
X694134Y111660D01*
X694060Y111596D01*
X693988Y111529D01*
X693918Y111459D01*
X693851Y111387D01*
X693787Y111313D01*
X693726Y111236D01*
X693668Y111156D01*
X693613Y111075D01*
X693561Y110991D01*
X693513Y110906D01*
X693467Y110819D01*
X693426Y110730D01*
X693387Y110639D01*
X693352Y110547D01*
X693321Y110454D01*
X693293Y110360D01*
X693268Y110265D01*
X693248Y110169D01*
X693231Y110072D01*
X693218Y109974D01*
X693209Y109876D01*
X693203Y109778D01*
X693201Y109680D01*
X693201Y107114D01*
X700386Y116414D02*
X702439Y118980D01*
X693201Y118980D01*
X693201Y116414D02*
X693201Y121546D01*
X693201Y125414D02*
X693201Y127980D01*
X693203Y128079D01*
X693209Y128179D01*
X693218Y128278D01*
X693232Y128376D01*
X693249Y128474D01*
X693270Y128572D01*
X693295Y128668D01*
X693324Y128763D01*
X693356Y128858D01*
X693392Y128950D01*
X693431Y129042D01*
X693474Y129132D01*
X693520Y129220D01*
X693570Y129306D01*
X693623Y129390D01*
X693679Y129472D01*
X693739Y129552D01*
X693801Y129629D01*
X693867Y129704D01*
X693935Y129777D01*
X694006Y129846D01*
X694080Y129913D01*
X694156Y129977D01*
X694235Y130038D01*
X694316Y130096D01*
X694399Y130151D01*
X694484Y130202D01*
X694571Y130250D01*
X694660Y130295D01*
X694751Y130336D01*
X694843Y130374D01*
X694936Y130408D01*
X695031Y130438D01*
X695127Y130465D01*
X695224Y130488D01*
X695321Y130507D01*
X695420Y130522D01*
X695519Y130534D01*
X695618Y130542D01*
X695717Y130546D01*
X695817Y130546D01*
X695916Y130542D01*
X696015Y130534D01*
X696114Y130522D01*
X696213Y130507D01*
X696310Y130488D01*
X696407Y130465D01*
X696503Y130438D01*
X696598Y130408D01*
X696691Y130374D01*
X696783Y130336D01*
X696874Y130295D01*
X696963Y130250D01*
X697050Y130202D01*
X697135Y130151D01*
X697218Y130096D01*
X697299Y130038D01*
X697378Y129977D01*
X697454Y129913D01*
X697528Y129846D01*
X697599Y129777D01*
X697667Y129704D01*
X697733Y129629D01*
X697795Y129552D01*
X697855Y129472D01*
X697911Y129390D01*
X697964Y129306D01*
X698014Y129220D01*
X698060Y129132D01*
X698103Y129042D01*
X698142Y128950D01*
X698178Y128858D01*
X698210Y128763D01*
X698239Y128668D01*
X698264Y128572D01*
X698285Y128474D01*
X698302Y128376D01*
X698316Y128278D01*
X698325Y128179D01*
X698331Y128079D01*
X698333Y127980D01*
X702439Y128493D02*
X702439Y125414D01*
X702439Y128493D02*
X702437Y128583D01*
X702431Y128672D01*
X702421Y128761D01*
X702408Y128849D01*
X702390Y128937D01*
X702369Y129024D01*
X702344Y129110D01*
X702315Y129195D01*
X702283Y129279D01*
X702247Y129361D01*
X702207Y129441D01*
X702164Y129520D01*
X702117Y129596D01*
X702068Y129671D01*
X702015Y129743D01*
X701959Y129813D01*
X701900Y129880D01*
X701838Y129945D01*
X701773Y130007D01*
X701706Y130066D01*
X701636Y130122D01*
X701564Y130175D01*
X701489Y130224D01*
X701413Y130271D01*
X701334Y130314D01*
X701254Y130354D01*
X701172Y130390D01*
X701088Y130422D01*
X701003Y130451D01*
X700917Y130476D01*
X700830Y130497D01*
X700742Y130515D01*
X700654Y130528D01*
X700565Y130538D01*
X700476Y130544D01*
X700386Y130546D01*
X700296Y130544D01*
X700207Y130538D01*
X700118Y130528D01*
X700030Y130515D01*
X699942Y130497D01*
X699855Y130476D01*
X699769Y130451D01*
X699684Y130422D01*
X699600Y130390D01*
X699518Y130354D01*
X699438Y130314D01*
X699360Y130271D01*
X699283Y130224D01*
X699208Y130175D01*
X699136Y130122D01*
X699066Y130066D01*
X698999Y130007D01*
X698934Y129945D01*
X698872Y129880D01*
X698813Y129813D01*
X698757Y129743D01*
X698704Y129671D01*
X698655Y129596D01*
X698608Y129520D01*
X698565Y129441D01*
X698525Y129361D01*
X698489Y129279D01*
X698457Y129195D01*
X698428Y129110D01*
X698403Y129024D01*
X698382Y128937D01*
X698364Y128849D01*
X698351Y128761D01*
X698341Y128672D01*
X698335Y128583D01*
X698333Y128493D01*
X698334Y128493D02*
X698334Y126440D01*
D10*
X615900Y93560D02*
X615900Y58560D01*
X615900Y93560D02*
X631900Y93560D01*
X631900Y58560D01*
X615900Y58560D01*
D11*
X618508Y31900D02*
X618508Y29459D01*
X618510Y29363D01*
X618516Y29267D01*
X618525Y29172D01*
X618538Y29077D01*
X618555Y28983D01*
X618575Y28889D01*
X618600Y28796D01*
X618627Y28705D01*
X618659Y28614D01*
X618694Y28525D01*
X618732Y28437D01*
X618774Y28351D01*
X618819Y28266D01*
X618868Y28184D01*
X618919Y28103D01*
X618974Y28024D01*
X619032Y27948D01*
X619093Y27874D01*
X619157Y27802D01*
X619223Y27733D01*
X619292Y27667D01*
X619364Y27603D01*
X619438Y27542D01*
X619514Y27484D01*
X619593Y27429D01*
X619674Y27378D01*
X619756Y27329D01*
X619841Y27284D01*
X619927Y27242D01*
X620015Y27204D01*
X620104Y27169D01*
X620195Y27137D01*
X620286Y27110D01*
X620379Y27085D01*
X620473Y27065D01*
X620567Y27048D01*
X620662Y27035D01*
X620757Y27026D01*
X620853Y27020D01*
X620949Y27018D01*
X627051Y27018D01*
X627147Y27020D01*
X627243Y27026D01*
X627338Y27035D01*
X627433Y27048D01*
X627527Y27065D01*
X627621Y27085D01*
X627714Y27110D01*
X627805Y27137D01*
X627896Y27169D01*
X627985Y27204D01*
X628073Y27242D01*
X628159Y27284D01*
X628244Y27329D01*
X628326Y27378D01*
X628407Y27429D01*
X628486Y27484D01*
X628562Y27542D01*
X628636Y27603D01*
X628708Y27667D01*
X628777Y27733D01*
X628843Y27802D01*
X628907Y27874D01*
X628968Y27948D01*
X629026Y28024D01*
X629081Y28103D01*
X629132Y28184D01*
X629181Y28266D01*
X629226Y28351D01*
X629268Y28437D01*
X629306Y28525D01*
X629341Y28614D01*
X629373Y28705D01*
X629400Y28796D01*
X629425Y28889D01*
X629445Y28983D01*
X629462Y29077D01*
X629475Y29172D01*
X629484Y29267D01*
X629490Y29363D01*
X629492Y29459D01*
X629492Y31900D01*
X618508Y36050D02*
X618508Y39712D01*
X618510Y39810D01*
X618516Y39908D01*
X618526Y40006D01*
X618540Y40104D01*
X618557Y40200D01*
X618579Y40296D01*
X618604Y40391D01*
X618634Y40485D01*
X618667Y40578D01*
X618703Y40669D01*
X618744Y40758D01*
X618788Y40846D01*
X618835Y40932D01*
X618886Y41017D01*
X618940Y41099D01*
X618998Y41178D01*
X619058Y41256D01*
X619122Y41331D01*
X619189Y41403D01*
X619258Y41472D01*
X619330Y41539D01*
X619405Y41603D01*
X619483Y41663D01*
X619562Y41721D01*
X619644Y41775D01*
X619728Y41826D01*
X619815Y41873D01*
X619903Y41917D01*
X619992Y41958D01*
X620083Y41994D01*
X620176Y42027D01*
X620270Y42057D01*
X620365Y42082D01*
X620461Y42104D01*
X620557Y42121D01*
X620655Y42135D01*
X620753Y42145D01*
X620851Y42151D01*
X620949Y42153D01*
X620949Y42152D02*
X622169Y42152D01*
X622169Y42153D02*
X622265Y42151D01*
X622361Y42145D01*
X622456Y42136D01*
X622551Y42123D01*
X622645Y42106D01*
X622739Y42086D01*
X622832Y42061D01*
X622923Y42034D01*
X623014Y42002D01*
X623103Y41967D01*
X623191Y41929D01*
X623277Y41887D01*
X623362Y41842D01*
X623444Y41793D01*
X623525Y41742D01*
X623604Y41687D01*
X623680Y41629D01*
X623754Y41568D01*
X623826Y41504D01*
X623895Y41438D01*
X623961Y41369D01*
X624025Y41297D01*
X624086Y41223D01*
X624144Y41147D01*
X624199Y41068D01*
X624250Y40987D01*
X624299Y40905D01*
X624344Y40820D01*
X624386Y40734D01*
X624424Y40646D01*
X624459Y40557D01*
X624491Y40466D01*
X624518Y40375D01*
X624543Y40282D01*
X624563Y40188D01*
X624580Y40094D01*
X624593Y39999D01*
X624602Y39904D01*
X624608Y39808D01*
X624610Y39712D01*
X624610Y36050D01*
X629492Y36050D01*
X629492Y42152D01*
X618508Y46850D02*
X618508Y50512D01*
X618510Y50610D01*
X618516Y50708D01*
X618526Y50806D01*
X618540Y50904D01*
X618557Y51000D01*
X618579Y51096D01*
X618604Y51191D01*
X618634Y51285D01*
X618667Y51378D01*
X618703Y51469D01*
X618744Y51558D01*
X618788Y51646D01*
X618835Y51732D01*
X618886Y51817D01*
X618940Y51899D01*
X618998Y51978D01*
X619058Y52056D01*
X619122Y52131D01*
X619189Y52203D01*
X619258Y52272D01*
X619330Y52339D01*
X619405Y52403D01*
X619483Y52463D01*
X619562Y52521D01*
X619644Y52575D01*
X619728Y52626D01*
X619815Y52673D01*
X619903Y52717D01*
X619992Y52758D01*
X620083Y52794D01*
X620176Y52827D01*
X620270Y52857D01*
X620365Y52882D01*
X620461Y52904D01*
X620557Y52921D01*
X620655Y52935D01*
X620753Y52945D01*
X620851Y52951D01*
X620949Y52953D01*
X620949Y52952D02*
X622169Y52952D01*
X622169Y52953D02*
X622265Y52951D01*
X622361Y52945D01*
X622456Y52936D01*
X622551Y52923D01*
X622645Y52906D01*
X622739Y52886D01*
X622832Y52861D01*
X622923Y52834D01*
X623014Y52802D01*
X623103Y52767D01*
X623191Y52729D01*
X623277Y52687D01*
X623362Y52642D01*
X623444Y52593D01*
X623525Y52542D01*
X623604Y52487D01*
X623680Y52429D01*
X623754Y52368D01*
X623826Y52304D01*
X623895Y52238D01*
X623961Y52169D01*
X624025Y52097D01*
X624086Y52023D01*
X624144Y51947D01*
X624199Y51868D01*
X624250Y51787D01*
X624299Y51705D01*
X624344Y51620D01*
X624386Y51534D01*
X624424Y51446D01*
X624459Y51357D01*
X624491Y51266D01*
X624518Y51175D01*
X624543Y51082D01*
X624563Y50988D01*
X624580Y50894D01*
X624593Y50799D01*
X624602Y50704D01*
X624608Y50608D01*
X624610Y50512D01*
X624610Y46850D01*
X629492Y46850D01*
X629492Y52952D01*
D10*
X631900Y58560D02*
X631900Y93560D01*
X647900Y93560D01*
X647900Y58560D01*
X631900Y58560D01*
D11*
X635408Y31850D02*
X635408Y29409D01*
X635410Y29313D01*
X635416Y29217D01*
X635425Y29122D01*
X635438Y29027D01*
X635455Y28933D01*
X635475Y28839D01*
X635500Y28746D01*
X635527Y28655D01*
X635559Y28564D01*
X635594Y28475D01*
X635632Y28387D01*
X635674Y28301D01*
X635719Y28216D01*
X635768Y28134D01*
X635819Y28053D01*
X635874Y27974D01*
X635932Y27898D01*
X635993Y27824D01*
X636057Y27752D01*
X636123Y27683D01*
X636192Y27617D01*
X636264Y27553D01*
X636338Y27492D01*
X636414Y27434D01*
X636493Y27379D01*
X636574Y27328D01*
X636656Y27279D01*
X636741Y27234D01*
X636827Y27192D01*
X636915Y27154D01*
X637004Y27119D01*
X637095Y27087D01*
X637186Y27060D01*
X637279Y27035D01*
X637373Y27015D01*
X637467Y26998D01*
X637562Y26985D01*
X637657Y26976D01*
X637753Y26970D01*
X637849Y26968D01*
X643951Y26968D01*
X644047Y26970D01*
X644143Y26976D01*
X644238Y26985D01*
X644333Y26998D01*
X644427Y27015D01*
X644521Y27035D01*
X644614Y27060D01*
X644705Y27087D01*
X644796Y27119D01*
X644885Y27154D01*
X644973Y27192D01*
X645059Y27234D01*
X645144Y27279D01*
X645226Y27328D01*
X645307Y27379D01*
X645386Y27434D01*
X645462Y27492D01*
X645536Y27553D01*
X645608Y27617D01*
X645677Y27683D01*
X645743Y27752D01*
X645807Y27824D01*
X645868Y27898D01*
X645926Y27974D01*
X645981Y28053D01*
X646032Y28134D01*
X646081Y28216D01*
X646126Y28301D01*
X646168Y28387D01*
X646206Y28475D01*
X646241Y28564D01*
X646273Y28655D01*
X646300Y28746D01*
X646325Y28839D01*
X646345Y28933D01*
X646362Y29027D01*
X646375Y29122D01*
X646384Y29217D01*
X646390Y29313D01*
X646392Y29409D01*
X646392Y31850D01*
X635408Y36000D02*
X635408Y39662D01*
X635410Y39760D01*
X635416Y39858D01*
X635426Y39956D01*
X635440Y40054D01*
X635457Y40150D01*
X635479Y40246D01*
X635504Y40341D01*
X635534Y40435D01*
X635567Y40528D01*
X635603Y40619D01*
X635644Y40708D01*
X635688Y40796D01*
X635735Y40882D01*
X635786Y40967D01*
X635840Y41049D01*
X635898Y41128D01*
X635958Y41206D01*
X636022Y41281D01*
X636089Y41353D01*
X636158Y41422D01*
X636230Y41489D01*
X636305Y41553D01*
X636383Y41613D01*
X636462Y41671D01*
X636544Y41725D01*
X636628Y41776D01*
X636715Y41823D01*
X636803Y41867D01*
X636892Y41908D01*
X636983Y41944D01*
X637076Y41977D01*
X637170Y42007D01*
X637265Y42032D01*
X637361Y42054D01*
X637457Y42071D01*
X637555Y42085D01*
X637653Y42095D01*
X637751Y42101D01*
X637849Y42103D01*
X637849Y42102D02*
X639069Y42102D01*
X639069Y42103D02*
X639165Y42101D01*
X639261Y42095D01*
X639356Y42086D01*
X639451Y42073D01*
X639545Y42056D01*
X639639Y42036D01*
X639732Y42011D01*
X639823Y41984D01*
X639914Y41952D01*
X640003Y41917D01*
X640091Y41879D01*
X640177Y41837D01*
X640262Y41792D01*
X640344Y41743D01*
X640425Y41692D01*
X640504Y41637D01*
X640580Y41579D01*
X640654Y41518D01*
X640726Y41454D01*
X640795Y41388D01*
X640861Y41319D01*
X640925Y41247D01*
X640986Y41173D01*
X641044Y41097D01*
X641099Y41018D01*
X641150Y40937D01*
X641199Y40855D01*
X641244Y40770D01*
X641286Y40684D01*
X641324Y40596D01*
X641359Y40507D01*
X641391Y40416D01*
X641418Y40325D01*
X641443Y40232D01*
X641463Y40138D01*
X641480Y40044D01*
X641493Y39949D01*
X641502Y39854D01*
X641508Y39758D01*
X641510Y39662D01*
X641510Y36000D01*
X646392Y36000D01*
X646392Y42102D01*
X641510Y46800D02*
X641510Y50462D01*
X641508Y50558D01*
X641502Y50654D01*
X641493Y50749D01*
X641480Y50844D01*
X641463Y50938D01*
X641443Y51032D01*
X641418Y51125D01*
X641391Y51216D01*
X641359Y51307D01*
X641324Y51396D01*
X641286Y51484D01*
X641244Y51570D01*
X641199Y51655D01*
X641150Y51737D01*
X641099Y51818D01*
X641044Y51897D01*
X640986Y51973D01*
X640925Y52047D01*
X640861Y52119D01*
X640795Y52188D01*
X640726Y52254D01*
X640654Y52318D01*
X640580Y52379D01*
X640504Y52437D01*
X640425Y52492D01*
X640344Y52543D01*
X640262Y52592D01*
X640177Y52637D01*
X640091Y52679D01*
X640003Y52717D01*
X639914Y52752D01*
X639823Y52784D01*
X639732Y52811D01*
X639639Y52836D01*
X639545Y52856D01*
X639451Y52873D01*
X639356Y52886D01*
X639261Y52895D01*
X639165Y52901D01*
X639069Y52903D01*
X639069Y52902D02*
X638459Y52902D01*
X638350Y52900D01*
X638241Y52894D01*
X638133Y52885D01*
X638025Y52871D01*
X637917Y52854D01*
X637810Y52832D01*
X637704Y52807D01*
X637599Y52778D01*
X637495Y52746D01*
X637393Y52710D01*
X637291Y52670D01*
X637192Y52626D01*
X637093Y52579D01*
X636997Y52529D01*
X636902Y52475D01*
X636810Y52418D01*
X636719Y52357D01*
X636631Y52293D01*
X636545Y52227D01*
X636461Y52157D01*
X636380Y52084D01*
X636302Y52008D01*
X636226Y51930D01*
X636153Y51849D01*
X636083Y51765D01*
X636017Y51679D01*
X635953Y51591D01*
X635892Y51500D01*
X635835Y51408D01*
X635781Y51313D01*
X635731Y51217D01*
X635684Y51118D01*
X635640Y51019D01*
X635600Y50917D01*
X635564Y50815D01*
X635532Y50711D01*
X635503Y50606D01*
X635478Y50500D01*
X635456Y50393D01*
X635439Y50285D01*
X635425Y50177D01*
X635416Y50069D01*
X635410Y49960D01*
X635408Y49851D01*
X635410Y49742D01*
X635416Y49633D01*
X635425Y49525D01*
X635439Y49417D01*
X635456Y49309D01*
X635478Y49202D01*
X635503Y49096D01*
X635532Y48991D01*
X635564Y48887D01*
X635600Y48785D01*
X635640Y48683D01*
X635684Y48584D01*
X635731Y48485D01*
X635781Y48389D01*
X635835Y48294D01*
X635892Y48202D01*
X635953Y48111D01*
X636017Y48023D01*
X636083Y47937D01*
X636153Y47853D01*
X636226Y47772D01*
X636302Y47694D01*
X636380Y47618D01*
X636461Y47545D01*
X636545Y47475D01*
X636631Y47409D01*
X636719Y47345D01*
X636810Y47284D01*
X636902Y47227D01*
X636997Y47173D01*
X637093Y47123D01*
X637192Y47076D01*
X637291Y47032D01*
X637393Y46992D01*
X637495Y46956D01*
X637599Y46924D01*
X637704Y46895D01*
X637810Y46870D01*
X637917Y46848D01*
X638025Y46831D01*
X638133Y46817D01*
X638241Y46808D01*
X638350Y46802D01*
X638459Y46800D01*
X641510Y46800D01*
X641649Y46802D01*
X641789Y46808D01*
X641928Y46818D01*
X642067Y46832D01*
X642205Y46850D01*
X642342Y46872D01*
X642480Y46897D01*
X642616Y46927D01*
X642751Y46960D01*
X642885Y46998D01*
X643019Y47039D01*
X643151Y47084D01*
X643281Y47133D01*
X643410Y47185D01*
X643538Y47241D01*
X643664Y47301D01*
X643788Y47364D01*
X643911Y47431D01*
X644031Y47501D01*
X644149Y47575D01*
X644266Y47652D01*
X644380Y47732D01*
X644491Y47816D01*
X644600Y47903D01*
X644707Y47992D01*
X644811Y48085D01*
X644912Y48181D01*
X645011Y48280D01*
X645107Y48381D01*
X645200Y48485D01*
X645289Y48592D01*
X645376Y48701D01*
X645460Y48812D01*
X645540Y48926D01*
X645617Y49043D01*
X645691Y49161D01*
X645761Y49281D01*
X645828Y49404D01*
X645891Y49528D01*
X645951Y49654D01*
X646007Y49782D01*
X646059Y49911D01*
X646108Y50041D01*
X646153Y50173D01*
X646194Y50307D01*
X646232Y50441D01*
X646265Y50576D01*
X646295Y50712D01*
X646320Y50849D01*
X646342Y50987D01*
X646360Y51125D01*
X646374Y51264D01*
X646384Y51403D01*
X646390Y51543D01*
X646392Y51682D01*
D10*
X647900Y58560D02*
X647900Y93560D01*
X663900Y93560D01*
X663900Y58560D01*
X647900Y58560D01*
D11*
X666908Y63064D02*
X666908Y65661D01*
X666908Y63064D02*
X666910Y62965D01*
X666916Y62865D01*
X666925Y62766D01*
X666938Y62668D01*
X666955Y62570D01*
X666976Y62472D01*
X667001Y62376D01*
X667029Y62281D01*
X667061Y62187D01*
X667096Y62094D01*
X667135Y62002D01*
X667178Y61912D01*
X667223Y61824D01*
X667273Y61737D01*
X667325Y61653D01*
X667381Y61570D01*
X667439Y61490D01*
X667501Y61412D01*
X667566Y61337D01*
X667634Y61264D01*
X667704Y61194D01*
X667777Y61126D01*
X667852Y61061D01*
X667930Y60999D01*
X668010Y60941D01*
X668093Y60885D01*
X668177Y60833D01*
X668264Y60783D01*
X668352Y60738D01*
X668442Y60695D01*
X668534Y60656D01*
X668627Y60621D01*
X668721Y60589D01*
X668816Y60561D01*
X668912Y60536D01*
X669010Y60515D01*
X669108Y60498D01*
X669206Y60485D01*
X669305Y60476D01*
X669405Y60470D01*
X669504Y60468D01*
X675996Y60468D01*
X676095Y60470D01*
X676195Y60476D01*
X676294Y60485D01*
X676392Y60498D01*
X676490Y60515D01*
X676588Y60536D01*
X676684Y60561D01*
X676779Y60589D01*
X676873Y60621D01*
X676966Y60656D01*
X677058Y60695D01*
X677148Y60738D01*
X677236Y60783D01*
X677323Y60833D01*
X677407Y60885D01*
X677490Y60941D01*
X677570Y60999D01*
X677648Y61061D01*
X677723Y61126D01*
X677796Y61194D01*
X677866Y61264D01*
X677934Y61337D01*
X677999Y61412D01*
X678061Y61490D01*
X678119Y61570D01*
X678175Y61653D01*
X678227Y61737D01*
X678277Y61824D01*
X678322Y61912D01*
X678365Y62002D01*
X678404Y62094D01*
X678439Y62186D01*
X678471Y62281D01*
X678499Y62376D01*
X678524Y62472D01*
X678545Y62570D01*
X678562Y62668D01*
X678575Y62766D01*
X678584Y62865D01*
X678590Y62965D01*
X678592Y63064D01*
X678592Y65661D01*
X666908Y70026D02*
X666908Y73921D01*
X666910Y74020D01*
X666916Y74120D01*
X666925Y74219D01*
X666938Y74317D01*
X666955Y74415D01*
X666976Y74513D01*
X667001Y74609D01*
X667029Y74704D01*
X667061Y74798D01*
X667096Y74891D01*
X667135Y74983D01*
X667178Y75073D01*
X667223Y75161D01*
X667273Y75248D01*
X667325Y75332D01*
X667381Y75415D01*
X667439Y75495D01*
X667501Y75573D01*
X667566Y75648D01*
X667634Y75721D01*
X667704Y75791D01*
X667777Y75859D01*
X667852Y75924D01*
X667930Y75986D01*
X668010Y76044D01*
X668093Y76100D01*
X668177Y76152D01*
X668264Y76202D01*
X668352Y76247D01*
X668442Y76290D01*
X668534Y76329D01*
X668627Y76364D01*
X668721Y76396D01*
X668816Y76424D01*
X668912Y76449D01*
X669010Y76470D01*
X669108Y76487D01*
X669206Y76500D01*
X669305Y76509D01*
X669405Y76515D01*
X669504Y76517D01*
X670803Y76517D01*
X670902Y76515D01*
X671002Y76509D01*
X671101Y76500D01*
X671199Y76487D01*
X671297Y76470D01*
X671395Y76449D01*
X671491Y76424D01*
X671586Y76396D01*
X671680Y76364D01*
X671773Y76329D01*
X671865Y76290D01*
X671955Y76247D01*
X672043Y76202D01*
X672130Y76152D01*
X672214Y76100D01*
X672297Y76044D01*
X672377Y75986D01*
X672455Y75924D01*
X672530Y75859D01*
X672603Y75791D01*
X672673Y75721D01*
X672741Y75648D01*
X672806Y75573D01*
X672868Y75495D01*
X672926Y75415D01*
X672982Y75332D01*
X673034Y75248D01*
X673084Y75161D01*
X673129Y75073D01*
X673172Y74983D01*
X673211Y74891D01*
X673246Y74798D01*
X673278Y74704D01*
X673306Y74609D01*
X673331Y74513D01*
X673352Y74415D01*
X673369Y74317D01*
X673382Y74219D01*
X673391Y74120D01*
X673397Y74020D01*
X673399Y73921D01*
X673399Y70026D01*
X678592Y70026D01*
X678592Y76517D01*
X678592Y81456D02*
X677294Y81456D01*
X678592Y81456D02*
X678592Y87947D01*
X666908Y84702D01*
D12*
X623200Y133500D02*
X623202Y133556D01*
X623208Y133613D01*
X623218Y133668D01*
X623232Y133723D01*
X623249Y133777D01*
X623271Y133829D01*
X623296Y133879D01*
X623324Y133928D01*
X623356Y133975D01*
X623391Y134019D01*
X623429Y134061D01*
X623470Y134100D01*
X623514Y134135D01*
X623560Y134168D01*
X623608Y134197D01*
X623658Y134223D01*
X623710Y134246D01*
X623764Y134264D01*
X623818Y134279D01*
X623873Y134290D01*
X623929Y134297D01*
X623986Y134300D01*
X624042Y134299D01*
X624099Y134294D01*
X624154Y134285D01*
X624209Y134272D01*
X624263Y134255D01*
X624316Y134235D01*
X624367Y134211D01*
X624416Y134183D01*
X624463Y134152D01*
X624508Y134118D01*
X624551Y134080D01*
X624590Y134040D01*
X624627Y133997D01*
X624660Y133952D01*
X624690Y133904D01*
X624717Y133854D01*
X624740Y133803D01*
X624760Y133750D01*
X624776Y133696D01*
X624788Y133640D01*
X624796Y133585D01*
X624800Y133528D01*
X624800Y133472D01*
X624796Y133415D01*
X624788Y133360D01*
X624776Y133304D01*
X624760Y133250D01*
X624740Y133197D01*
X624717Y133146D01*
X624690Y133096D01*
X624660Y133048D01*
X624627Y133003D01*
X624590Y132960D01*
X624551Y132920D01*
X624508Y132882D01*
X624463Y132848D01*
X624416Y132817D01*
X624367Y132789D01*
X624316Y132765D01*
X624263Y132745D01*
X624209Y132728D01*
X624154Y132715D01*
X624099Y132706D01*
X624042Y132701D01*
X623986Y132700D01*
X623929Y132703D01*
X623873Y132710D01*
X623818Y132721D01*
X623764Y132736D01*
X623710Y132754D01*
X623658Y132777D01*
X623608Y132803D01*
X623560Y132832D01*
X623514Y132865D01*
X623470Y132900D01*
X623429Y132939D01*
X623391Y132981D01*
X623356Y133025D01*
X623324Y133072D01*
X623296Y133121D01*
X623271Y133171D01*
X623249Y133223D01*
X623232Y133277D01*
X623218Y133332D01*
X623208Y133387D01*
X623202Y133444D01*
X623200Y133500D01*
D10*
X629000Y128500D02*
X629000Y106500D01*
X619000Y106500D01*
X619000Y128500D01*
X629000Y128500D01*
D13*
X661201Y107114D02*
X670439Y107114D01*
X670439Y109680D01*
X670437Y109778D01*
X670431Y109876D01*
X670422Y109974D01*
X670409Y110072D01*
X670392Y110169D01*
X670372Y110265D01*
X670347Y110360D01*
X670319Y110454D01*
X670288Y110547D01*
X670253Y110639D01*
X670214Y110730D01*
X670173Y110819D01*
X670127Y110906D01*
X670079Y110991D01*
X670027Y111075D01*
X669972Y111156D01*
X669914Y111236D01*
X669853Y111313D01*
X669789Y111387D01*
X669722Y111459D01*
X669652Y111529D01*
X669580Y111596D01*
X669506Y111660D01*
X669429Y111721D01*
X669349Y111779D01*
X669268Y111834D01*
X669184Y111886D01*
X669099Y111934D01*
X669012Y111980D01*
X668923Y112021D01*
X668832Y112060D01*
X668740Y112095D01*
X668647Y112126D01*
X668553Y112154D01*
X668458Y112179D01*
X668362Y112199D01*
X668265Y112216D01*
X668167Y112229D01*
X668069Y112238D01*
X667971Y112244D01*
X667873Y112246D01*
X663767Y112246D01*
X663669Y112244D01*
X663571Y112238D01*
X663473Y112229D01*
X663375Y112216D01*
X663278Y112199D01*
X663182Y112179D01*
X663087Y112154D01*
X662993Y112126D01*
X662900Y112095D01*
X662808Y112060D01*
X662717Y112021D01*
X662628Y111980D01*
X662541Y111934D01*
X662456Y111886D01*
X662372Y111834D01*
X662291Y111779D01*
X662211Y111721D01*
X662134Y111660D01*
X662060Y111596D01*
X661988Y111529D01*
X661918Y111459D01*
X661851Y111387D01*
X661787Y111313D01*
X661726Y111236D01*
X661668Y111156D01*
X661613Y111075D01*
X661561Y110991D01*
X661513Y110906D01*
X661467Y110819D01*
X661426Y110730D01*
X661387Y110639D01*
X661352Y110547D01*
X661321Y110454D01*
X661293Y110360D01*
X661268Y110265D01*
X661248Y110169D01*
X661231Y110072D01*
X661218Y109974D01*
X661209Y109876D01*
X661203Y109778D01*
X661201Y109680D01*
X661201Y107114D01*
X668386Y116414D02*
X670439Y118980D01*
X661201Y118980D01*
X661201Y116414D02*
X661201Y121546D01*
X663254Y125414D02*
X670439Y127467D01*
X663254Y125414D02*
X663254Y130546D01*
X665307Y129006D02*
X661201Y129006D01*
M02*
