G04 EAGLE Gerber RS-274X export*
G75*
%MOMM*%
%FSLAX34Y34*%
%LPD*%
%INSoldermask Bottom*%
%IPPOS*%
%AMOC8*
5,1,8,0,0,1.08239X$1,22.5*%
G01*
%ADD10C,2.003200*%
%ADD11C,1.803200*%
%ADD12R,1.203200X1.173200*%
%ADD13C,1.511200*%
%ADD14C,1.053200*%
%ADD15R,0.450997X0.901600*%
%ADD16R,0.450200X0.901250*%
%ADD17R,0.449778X0.900731*%
%ADD18R,0.448763X0.898544*%
%ADD19R,0.450038X0.899919*%
%ADD20R,0.451438X0.899178*%
%ADD21C,1.453200*%
%ADD22R,0.513200X0.613200*%
%ADD23R,1.203200X1.303200*%
%ADD24C,0.959600*%


D10*
X166090Y104530D03*
D11*
X166090Y59530D03*
D12*
X230270Y564780D03*
X244970Y564780D03*
D13*
X38630Y646840D03*
X38630Y570640D03*
D12*
X230270Y580780D03*
X244970Y580780D03*
D14*
X405430Y803720D03*
X367430Y803720D03*
D15*
X461505Y112492D03*
D16*
X455001Y112494D03*
D17*
X448499Y112496D03*
D18*
X448494Y131507D03*
D19*
X455000Y131500D03*
D20*
X461507Y131504D03*
D21*
X667000Y46000D03*
X587000Y46000D03*
D22*
X580770Y122230D03*
X580770Y111230D03*
X590770Y122230D03*
X590770Y111230D03*
X614000Y123000D03*
X614000Y112000D03*
X634000Y123000D03*
X634000Y112000D03*
X644000Y123000D03*
X644000Y112000D03*
X654000Y123000D03*
X654000Y112000D03*
D23*
X623900Y67470D03*
X623900Y84650D03*
X639900Y67470D03*
X639900Y84650D03*
X655900Y67470D03*
X655900Y84650D03*
D22*
X624000Y123000D03*
X624000Y112000D03*
D13*
X960500Y608900D03*
X960500Y685100D03*
D14*
X852000Y802000D03*
X814000Y802000D03*
D24*
X114000Y377000D03*
X113000Y231000D03*
X44000Y389500D03*
X294020Y233980D03*
X21500Y390000D03*
X21500Y370500D03*
X43000Y370000D03*
X22000Y352000D03*
X41500Y351000D03*
X21500Y336500D03*
X41000Y336000D03*
X21000Y273000D03*
X21000Y251000D03*
X48000Y273000D03*
X48000Y251000D03*
X47000Y202000D03*
X20000Y203000D03*
X21000Y184000D03*
X47000Y183000D03*
X163000Y215000D03*
X163000Y200000D03*
X163000Y183000D03*
X178000Y200000D03*
X178000Y215000D03*
X178000Y183000D03*
X193000Y183000D03*
X193000Y200000D03*
X193000Y215000D03*
X162000Y144000D03*
X179000Y144000D03*
X195000Y144000D03*
X263000Y138000D03*
X277000Y138000D03*
X263000Y124000D03*
X277000Y123500D03*
X256000Y59000D03*
X284000Y59000D03*
X284000Y41000D03*
X256000Y41000D03*
X231000Y41000D03*
X231000Y24000D03*
X256000Y24000D03*
X284000Y24000D03*
X32000Y285000D03*
X274000Y172000D03*
X490500Y155000D03*
X502000Y167500D03*
X533500Y231500D03*
X517500Y231500D03*
X501500Y231500D03*
X472000Y182000D03*
X437500Y184000D03*
X405500Y182500D03*
X602000Y132500D03*
X381010Y428560D03*
X981500Y180000D03*
X981000Y17000D03*
X981000Y37500D03*
X981000Y57500D03*
X981000Y77500D03*
X981500Y101500D03*
X981500Y122000D03*
X982000Y136500D03*
X960000Y181500D03*
X980500Y198500D03*
X960500Y198000D03*
X960500Y215000D03*
X981500Y156000D03*
X981000Y215000D03*
X981000Y234000D03*
X960500Y233000D03*
X395010Y360560D03*
X395010Y349560D03*
X395010Y338560D03*
X383010Y338560D03*
X383010Y349560D03*
X383010Y360560D03*
X381010Y417560D03*
X381010Y439100D03*
X393010Y439100D03*
X393010Y428560D03*
X393010Y417560D03*
X894500Y266000D03*
X872500Y266500D03*
X872500Y283000D03*
X872500Y308000D03*
X872500Y324500D03*
X872500Y345500D03*
X872500Y362000D03*
X983500Y333000D03*
X962500Y333000D03*
X941500Y332500D03*
X922000Y332500D03*
X921000Y351000D03*
X941000Y351500D03*
X962000Y352000D03*
X983000Y352000D03*
X982500Y373500D03*
X961500Y373500D03*
X940500Y373000D03*
X920500Y371500D03*
X921000Y392000D03*
X940000Y392500D03*
X961000Y393000D03*
X982000Y393000D03*
X981500Y416000D03*
X960500Y416000D03*
X939500Y415500D03*
X921000Y416500D03*
X981500Y442500D03*
X960000Y442500D03*
X877000Y423500D03*
X877000Y445000D03*
X876500Y462000D03*
X877000Y484500D03*
X888000Y516000D03*
X924000Y510000D03*
X923500Y526500D03*
X946000Y510000D03*
X945000Y527500D03*
X966500Y510500D03*
X966000Y528500D03*
X983000Y528000D03*
X983500Y510000D03*
X603500Y798500D03*
X625500Y797500D03*
X625000Y776000D03*
X604000Y774500D03*
X596000Y725500D03*
X620000Y727000D03*
X620000Y709000D03*
X596500Y709000D03*
X596500Y692500D03*
X620000Y689500D03*
X618820Y668860D03*
X598020Y669410D03*
X584500Y689000D03*
X584500Y676000D03*
X584500Y664000D03*
X584500Y652000D03*
X584500Y640500D03*
X598000Y647000D03*
X619000Y647000D03*
X643500Y623000D03*
X643500Y608500D03*
X643500Y636500D03*
X584500Y628500D03*
X584500Y615000D03*
X598500Y622500D03*
X617500Y622000D03*
X586500Y603500D03*
X596500Y598500D03*
X607500Y597500D03*
X619500Y597500D03*
X631500Y598000D03*
X644000Y597500D03*
X656500Y594500D03*
X666500Y588000D03*
X672500Y576500D03*
X554500Y795500D03*
X535500Y794500D03*
X512000Y794500D03*
X488000Y794500D03*
X487500Y775500D03*
X512500Y776000D03*
X536000Y776500D03*
X536000Y755000D03*
X512000Y756500D03*
X487000Y756500D03*
X486500Y739500D03*
X512500Y741000D03*
X536500Y740500D03*
X486500Y686500D03*
X507000Y686500D03*
X526000Y686000D03*
X544500Y685500D03*
X557000Y689000D03*
X556500Y678500D03*
X556500Y666500D03*
X556500Y654000D03*
X544000Y661000D03*
X525500Y661500D03*
X506500Y662000D03*
X486000Y662000D03*
X486500Y639000D03*
X556500Y642000D03*
X544500Y638000D03*
X526000Y638500D03*
X507000Y639000D03*
X487000Y617000D03*
X507500Y617000D03*
X526500Y616500D03*
X545000Y616000D03*
X557000Y629000D03*
X557000Y616500D03*
X556500Y600500D03*
X561000Y587500D03*
X570000Y579000D03*
X580500Y572500D03*
X594000Y569000D03*
X605000Y569000D03*
X618500Y569500D03*
X633000Y569000D03*
X646000Y568000D03*
X626000Y554500D03*
X599000Y548000D03*
X618000Y541000D03*
X626500Y527500D03*
X643000Y527000D03*
X657500Y527000D03*
X670000Y526500D03*
X253000Y426000D03*
X277500Y492000D03*
X278000Y474500D03*
X255000Y473500D03*
X255500Y491500D03*
X279000Y426000D03*
X302500Y426000D03*
X304500Y474000D03*
X30500Y516000D03*
X59500Y516000D03*
X90000Y516000D03*
X114500Y516500D03*
X31000Y493500D03*
X60000Y493500D03*
X90500Y493500D03*
X115000Y494000D03*
X30000Y472000D03*
X59000Y472000D03*
X89500Y472000D03*
X114000Y472500D03*
X30500Y429500D03*
X59500Y429500D03*
X90000Y429500D03*
X114500Y430000D03*
X771000Y758000D03*
X789000Y758000D03*
X339500Y778000D03*
X358500Y778500D03*
X341500Y751500D03*
X366000Y701500D03*
X341000Y725500D03*
X341500Y701500D03*
X346000Y670000D03*
X372500Y669500D03*
X386000Y641500D03*
X424000Y772500D03*
X423500Y744000D03*
X424500Y712500D03*
X656500Y776000D03*
X683000Y776000D03*
X658500Y748000D03*
X683500Y748000D03*
X653500Y673500D03*
X872000Y661000D03*
X872000Y637000D03*
X873500Y606500D03*
X873000Y577500D03*
X898000Y577500D03*
X898500Y606500D03*
X898000Y637000D03*
X897500Y661500D03*
X724500Y821500D03*
X766000Y822500D03*
X725000Y796500D03*
X766500Y794000D03*
X627500Y440500D03*
X661000Y441000D03*
X693000Y441500D03*
X721500Y441500D03*
X750500Y442000D03*
X774500Y442000D03*
X773000Y666000D03*
X796000Y665500D03*
X814000Y665500D03*
X773500Y645000D03*
X795500Y645000D03*
X813500Y645500D03*
X773500Y625000D03*
X794500Y625000D03*
X628500Y406000D03*
X662000Y406500D03*
X694000Y407000D03*
X722500Y407000D03*
X751500Y407500D03*
X775500Y407500D03*
X629000Y367500D03*
X662500Y368000D03*
X694500Y368500D03*
X723000Y368500D03*
X752000Y369000D03*
X776000Y369000D03*
X630000Y333000D03*
X663500Y333500D03*
X695500Y334000D03*
X724000Y334000D03*
X753000Y334500D03*
X777000Y334500D03*
X659500Y479000D03*
X691500Y479500D03*
X720000Y479500D03*
X749000Y480000D03*
X773000Y480000D03*
X631000Y304500D03*
X664500Y305000D03*
X696500Y305500D03*
X725000Y305500D03*
X754000Y306000D03*
X778000Y306000D03*
X760500Y202000D03*
X761000Y187500D03*
X760500Y172500D03*
X760500Y157000D03*
X760000Y138000D03*
X632000Y270000D03*
X665500Y270500D03*
X697500Y271000D03*
X726000Y271000D03*
X755000Y271500D03*
X779000Y271500D03*
X742500Y200000D03*
X743000Y185500D03*
X742500Y170500D03*
X742500Y155000D03*
X742000Y136000D03*
X887000Y216000D03*
X885000Y189000D03*
X888000Y164500D03*
X877000Y152500D03*
X877500Y136500D03*
X806500Y78500D03*
X821000Y78500D03*
X836500Y78500D03*
X850000Y78500D03*
X891000Y62500D03*
X910500Y62000D03*
X892500Y42000D03*
X912000Y42000D03*
X928500Y61000D03*
X904000Y216000D03*
X906000Y188500D03*
X906000Y164000D03*
X82000Y276000D03*
X82000Y264000D03*
X93000Y276000D03*
X104000Y276000D03*
X104000Y264000D03*
X93000Y264000D03*
X258000Y564000D03*
X428080Y627570D03*
X637000Y819500D03*
X477500Y725500D03*
X724000Y767500D03*
X809000Y724000D03*
X312000Y649000D03*
X303000Y619000D03*
X39000Y721000D03*
X39000Y738000D03*
X143000Y739000D03*
X170000Y753000D03*
X310000Y771000D03*
X197000Y769000D03*
X310000Y711000D03*
X219000Y599000D03*
X412000Y585500D03*
X733500Y649500D03*
X411000Y600000D03*
X702500Y658500D03*
X341000Y546000D03*
X373000Y497000D03*
X368000Y44500D03*
X962000Y157000D03*
X360000Y548000D03*
X505000Y465000D03*
X367000Y559000D03*
X511000Y504000D03*
X219000Y564000D03*
X219000Y581000D03*
X778000Y124000D03*
X824770Y188720D03*
X885500Y819000D03*
X940500Y819000D03*
X859000Y100500D03*
X916000Y143000D03*
X573500Y349000D03*
X696000Y604000D03*
X755500Y627000D03*
X478000Y155000D03*
X470000Y235000D03*
X470500Y291000D03*
X453500Y234500D03*
X453500Y320500D03*
X453541Y156041D03*
X427000Y154000D03*
X440000Y155000D03*
X703000Y84500D03*
X625000Y141500D03*
X624000Y102000D03*
X614000Y141000D03*
X623000Y177500D03*
X702500Y184000D03*
X635500Y141000D03*
X592000Y141000D03*
X601000Y220000D03*
X660000Y227000D03*
X581000Y141000D03*
X580000Y191000D03*
X671000Y228000D03*
X658000Y140500D03*
X647000Y140500D03*
X646500Y194500D03*
X690000Y227000D03*
X750000Y729500D03*
X853000Y781500D03*
X834000Y781500D03*
M02*
