G04 EAGLE Gerber RS-274X export*
G75*
%MOMM*%
%FSLAX34Y34*%
%LPD*%
%INSoldermask Top*%
%IPPOS*%
%AMOC8*
5,1,8,0,0,1.08239X$1,22.5*%
G01*
%ADD10R,1.493200X2.113200*%
%ADD11R,1.303200X1.203200*%
%ADD12R,1.203200X1.303200*%
%ADD13R,1.673200X1.473200*%
%ADD14R,1.113200X1.133200*%
%ADD15R,1.473200X1.673200*%
%ADD16R,2.453200X2.303200*%
%ADD17C,0.885322*%
%ADD18R,2.203200X2.203200*%
%ADD19C,2.003200*%
%ADD20C,1.803200*%
%ADD21R,3.203200X3.403200*%
%ADD22R,1.503200X1.703200*%
%ADD23R,0.803200X2.173200*%
%ADD24R,3.503200X2.613200*%
%ADD25R,0.803200X1.403200*%
%ADD26R,1.473200X3.883200*%
%ADD27C,0.267388*%
%ADD28C,1.511200*%
%ADD29R,1.803200X2.503200*%
%ADD30R,1.603200X2.003200*%
%ADD31R,1.303200X2.103200*%
%ADD32R,1.303200X2.403200*%
%ADD33R,1.153200X0.553200*%
%ADD34R,2.503200X3.433200*%
%ADD35R,2.113200X1.493200*%
%ADD36R,1.173200X1.203200*%
%ADD37R,1.003200X0.603200*%
%ADD38C,0.803200*%
%ADD39C,0.268653*%
%ADD40R,2.253200X2.253200*%
%ADD41R,1.103200X0.903200*%
%ADD42C,0.297181*%
%ADD43R,0.603200X1.653200*%
%ADD44C,1.053200*%
%ADD45R,2.000000X1.700000*%
%ADD46R,2.700000X1.700000*%
%ADD47R,1.203200X1.403200*%
%ADD48R,1.703200X1.903200*%
%ADD49R,1.203200X1.173200*%
%ADD50R,0.903200X1.603200*%
%ADD51R,1.603200X2.203200*%
%ADD52R,1.483200X1.603200*%
%ADD53R,2.153200X1.603200*%
%ADD54C,1.453200*%
%ADD55R,1.403200X0.803200*%
%ADD56R,0.603200X1.003200*%
%ADD57R,0.903200X1.103200*%
%ADD58R,2.403200X1.053200*%
%ADD59R,1.253200X1.203200*%
%ADD60R,1.053200X2.403200*%
%ADD61R,1.203200X1.253200*%
%ADD62R,1.173200X1.103200*%
%ADD63C,0.333503*%
%ADD64R,3.353200X3.353200*%
%ADD65C,0.959600*%


D10*
X128600Y219000D03*
X99400Y219000D03*
D11*
X122090Y198000D03*
X104910Y198000D03*
X122090Y182000D03*
X104910Y182000D03*
D12*
X139100Y265190D03*
X139100Y248010D03*
D10*
X228400Y191000D03*
X257600Y191000D03*
X228400Y217000D03*
X257600Y217000D03*
D11*
X233910Y238000D03*
X251090Y238000D03*
X233910Y254000D03*
X251090Y254000D03*
D12*
X84000Y341090D03*
X84000Y323910D03*
D13*
X171000Y229500D03*
X171000Y272500D03*
D14*
X309200Y140800D03*
X294000Y140800D03*
D15*
X22140Y133480D03*
X65140Y133480D03*
D16*
X26700Y101100D03*
X70700Y101100D03*
D17*
X30340Y70500D02*
X30340Y63820D01*
X30340Y70500D02*
X57820Y70500D01*
X57820Y63820D01*
X30340Y63820D01*
X30340Y28540D02*
X30340Y21860D01*
X30340Y28540D02*
X57820Y28540D01*
X57820Y21860D01*
X30340Y21860D01*
D18*
X111090Y121030D03*
X111090Y59530D03*
X221090Y59530D03*
X221090Y121030D03*
D19*
X166090Y104530D03*
D20*
X166090Y59530D03*
D21*
X170500Y324000D03*
X225500Y324000D03*
D12*
X100000Y323500D03*
X100000Y340500D03*
D22*
X294020Y190950D03*
X313020Y190950D03*
X294020Y212950D03*
X313020Y212950D03*
D11*
X58780Y223260D03*
X75780Y223260D03*
X32500Y312000D03*
X49500Y312000D03*
X32500Y295800D03*
X49500Y295800D03*
D12*
X68000Y340500D03*
X68000Y323500D03*
D11*
X310150Y165400D03*
X293150Y165400D03*
D12*
X116000Y340500D03*
X116000Y323500D03*
D23*
X112050Y295750D03*
X99350Y295750D03*
X86650Y295750D03*
X73950Y295750D03*
X73950Y246250D03*
X86650Y246250D03*
X99350Y246250D03*
X112050Y246250D03*
D24*
X93000Y271000D03*
D25*
X344940Y377330D03*
X354440Y377330D03*
X363940Y377330D03*
X363940Y402330D03*
X344940Y402330D03*
D11*
X365100Y342560D03*
X347920Y342560D03*
X365100Y358560D03*
X347920Y358560D03*
X363100Y421560D03*
X345920Y421560D03*
X363100Y437560D03*
X345920Y437560D03*
D26*
X310440Y795480D03*
X310440Y745980D03*
X285040Y795480D03*
X285040Y745980D03*
X259640Y795480D03*
X259640Y745980D03*
X234240Y795480D03*
X234240Y745980D03*
D12*
X40750Y782300D03*
X40750Y765300D03*
X21340Y782820D03*
X21340Y765640D03*
D27*
X197891Y628351D02*
X211949Y628351D01*
X197891Y628351D02*
X197891Y630209D01*
X211949Y630209D01*
X211949Y628351D01*
X211949Y623351D02*
X197891Y623351D01*
X197891Y625209D01*
X211949Y625209D01*
X211949Y623351D01*
X211949Y618351D02*
X197891Y618351D01*
X197891Y620209D01*
X211949Y620209D01*
X211949Y618351D01*
X211949Y613351D02*
X197891Y613351D01*
X197891Y615209D01*
X211949Y615209D01*
X211949Y613351D01*
X211949Y608351D02*
X197891Y608351D01*
X197891Y610209D01*
X211949Y610209D01*
X211949Y608351D01*
X211949Y603351D02*
X197891Y603351D01*
X197891Y605209D01*
X211949Y605209D01*
X211949Y603351D01*
X211949Y598351D02*
X197891Y598351D01*
X197891Y600209D01*
X211949Y600209D01*
X211949Y598351D01*
X211949Y593351D02*
X197891Y593351D01*
X197891Y595209D01*
X211949Y595209D01*
X211949Y593351D01*
X211949Y588351D02*
X197891Y588351D01*
X197891Y590209D01*
X211949Y590209D01*
X211949Y588351D01*
X211949Y583351D02*
X197891Y583351D01*
X197891Y585209D01*
X211949Y585209D01*
X211949Y583351D01*
X211949Y578351D02*
X197891Y578351D01*
X197891Y580209D01*
X211949Y580209D01*
X211949Y578351D01*
X211949Y573351D02*
X197891Y573351D01*
X197891Y575209D01*
X211949Y575209D01*
X211949Y573351D01*
X211949Y568351D02*
X197891Y568351D01*
X197891Y570209D01*
X211949Y570209D01*
X211949Y568351D01*
X211949Y563351D02*
X197891Y563351D01*
X197891Y565209D01*
X211949Y565209D01*
X211949Y563351D01*
X211949Y558351D02*
X197891Y558351D01*
X197891Y560209D01*
X211949Y560209D01*
X211949Y558351D01*
X211949Y553351D02*
X197891Y553351D01*
X197891Y555209D01*
X211949Y555209D01*
X211949Y553351D01*
X225049Y542109D02*
X225049Y528051D01*
X223191Y528051D01*
X223191Y542109D01*
X225049Y542109D01*
X225049Y530591D02*
X223191Y530591D01*
X223191Y533131D02*
X225049Y533131D01*
X225049Y535671D02*
X223191Y535671D01*
X223191Y538211D02*
X225049Y538211D01*
X225049Y540751D02*
X223191Y540751D01*
X230049Y542109D02*
X230049Y528051D01*
X228191Y528051D01*
X228191Y542109D01*
X230049Y542109D01*
X230049Y530591D02*
X228191Y530591D01*
X228191Y533131D02*
X230049Y533131D01*
X230049Y535671D02*
X228191Y535671D01*
X228191Y538211D02*
X230049Y538211D01*
X230049Y540751D02*
X228191Y540751D01*
X235049Y542109D02*
X235049Y528051D01*
X233191Y528051D01*
X233191Y542109D01*
X235049Y542109D01*
X235049Y530591D02*
X233191Y530591D01*
X233191Y533131D02*
X235049Y533131D01*
X235049Y535671D02*
X233191Y535671D01*
X233191Y538211D02*
X235049Y538211D01*
X235049Y540751D02*
X233191Y540751D01*
X240049Y542109D02*
X240049Y528051D01*
X238191Y528051D01*
X238191Y542109D01*
X240049Y542109D01*
X240049Y530591D02*
X238191Y530591D01*
X238191Y533131D02*
X240049Y533131D01*
X240049Y535671D02*
X238191Y535671D01*
X238191Y538211D02*
X240049Y538211D01*
X240049Y540751D02*
X238191Y540751D01*
X245049Y542109D02*
X245049Y528051D01*
X243191Y528051D01*
X243191Y542109D01*
X245049Y542109D01*
X245049Y530591D02*
X243191Y530591D01*
X243191Y533131D02*
X245049Y533131D01*
X245049Y535671D02*
X243191Y535671D01*
X243191Y538211D02*
X245049Y538211D01*
X245049Y540751D02*
X243191Y540751D01*
X250049Y542109D02*
X250049Y528051D01*
X248191Y528051D01*
X248191Y542109D01*
X250049Y542109D01*
X250049Y530591D02*
X248191Y530591D01*
X248191Y533131D02*
X250049Y533131D01*
X250049Y535671D02*
X248191Y535671D01*
X248191Y538211D02*
X250049Y538211D01*
X250049Y540751D02*
X248191Y540751D01*
X255049Y542109D02*
X255049Y528051D01*
X253191Y528051D01*
X253191Y542109D01*
X255049Y542109D01*
X255049Y530591D02*
X253191Y530591D01*
X253191Y533131D02*
X255049Y533131D01*
X255049Y535671D02*
X253191Y535671D01*
X253191Y538211D02*
X255049Y538211D01*
X255049Y540751D02*
X253191Y540751D01*
X260049Y542109D02*
X260049Y528051D01*
X258191Y528051D01*
X258191Y542109D01*
X260049Y542109D01*
X260049Y530591D02*
X258191Y530591D01*
X258191Y533131D02*
X260049Y533131D01*
X260049Y535671D02*
X258191Y535671D01*
X258191Y538211D02*
X260049Y538211D01*
X260049Y540751D02*
X258191Y540751D01*
X265049Y542109D02*
X265049Y528051D01*
X263191Y528051D01*
X263191Y542109D01*
X265049Y542109D01*
X265049Y530591D02*
X263191Y530591D01*
X263191Y533131D02*
X265049Y533131D01*
X265049Y535671D02*
X263191Y535671D01*
X263191Y538211D02*
X265049Y538211D01*
X265049Y540751D02*
X263191Y540751D01*
X270049Y542109D02*
X270049Y528051D01*
X268191Y528051D01*
X268191Y542109D01*
X270049Y542109D01*
X270049Y530591D02*
X268191Y530591D01*
X268191Y533131D02*
X270049Y533131D01*
X270049Y535671D02*
X268191Y535671D01*
X268191Y538211D02*
X270049Y538211D01*
X270049Y540751D02*
X268191Y540751D01*
X275049Y542109D02*
X275049Y528051D01*
X273191Y528051D01*
X273191Y542109D01*
X275049Y542109D01*
X275049Y530591D02*
X273191Y530591D01*
X273191Y533131D02*
X275049Y533131D01*
X275049Y535671D02*
X273191Y535671D01*
X273191Y538211D02*
X275049Y538211D01*
X275049Y540751D02*
X273191Y540751D01*
X280049Y542109D02*
X280049Y528051D01*
X278191Y528051D01*
X278191Y542109D01*
X280049Y542109D01*
X280049Y530591D02*
X278191Y530591D01*
X278191Y533131D02*
X280049Y533131D01*
X280049Y535671D02*
X278191Y535671D01*
X278191Y538211D02*
X280049Y538211D01*
X280049Y540751D02*
X278191Y540751D01*
X285049Y542109D02*
X285049Y528051D01*
X283191Y528051D01*
X283191Y542109D01*
X285049Y542109D01*
X285049Y530591D02*
X283191Y530591D01*
X283191Y533131D02*
X285049Y533131D01*
X285049Y535671D02*
X283191Y535671D01*
X283191Y538211D02*
X285049Y538211D01*
X285049Y540751D02*
X283191Y540751D01*
X290049Y542109D02*
X290049Y528051D01*
X288191Y528051D01*
X288191Y542109D01*
X290049Y542109D01*
X290049Y530591D02*
X288191Y530591D01*
X288191Y533131D02*
X290049Y533131D01*
X290049Y535671D02*
X288191Y535671D01*
X288191Y538211D02*
X290049Y538211D01*
X290049Y540751D02*
X288191Y540751D01*
X295049Y542109D02*
X295049Y528051D01*
X293191Y528051D01*
X293191Y542109D01*
X295049Y542109D01*
X295049Y530591D02*
X293191Y530591D01*
X293191Y533131D02*
X295049Y533131D01*
X295049Y535671D02*
X293191Y535671D01*
X293191Y538211D02*
X295049Y538211D01*
X295049Y540751D02*
X293191Y540751D01*
X300049Y542109D02*
X300049Y528051D01*
X298191Y528051D01*
X298191Y542109D01*
X300049Y542109D01*
X300049Y530591D02*
X298191Y530591D01*
X298191Y533131D02*
X300049Y533131D01*
X300049Y535671D02*
X298191Y535671D01*
X298191Y538211D02*
X300049Y538211D01*
X300049Y540751D02*
X298191Y540751D01*
X311291Y553351D02*
X325349Y553351D01*
X311291Y553351D02*
X311291Y555209D01*
X325349Y555209D01*
X325349Y553351D01*
X325349Y558351D02*
X311291Y558351D01*
X311291Y560209D01*
X325349Y560209D01*
X325349Y558351D01*
X325349Y563351D02*
X311291Y563351D01*
X311291Y565209D01*
X325349Y565209D01*
X325349Y563351D01*
X325349Y568351D02*
X311291Y568351D01*
X311291Y570209D01*
X325349Y570209D01*
X325349Y568351D01*
X325349Y573351D02*
X311291Y573351D01*
X311291Y575209D01*
X325349Y575209D01*
X325349Y573351D01*
X325349Y578351D02*
X311291Y578351D01*
X311291Y580209D01*
X325349Y580209D01*
X325349Y578351D01*
X325349Y583351D02*
X311291Y583351D01*
X311291Y585209D01*
X325349Y585209D01*
X325349Y583351D01*
X325349Y588351D02*
X311291Y588351D01*
X311291Y590209D01*
X325349Y590209D01*
X325349Y588351D01*
X325349Y593351D02*
X311291Y593351D01*
X311291Y595209D01*
X325349Y595209D01*
X325349Y593351D01*
X325349Y598351D02*
X311291Y598351D01*
X311291Y600209D01*
X325349Y600209D01*
X325349Y598351D01*
X325349Y603351D02*
X311291Y603351D01*
X311291Y605209D01*
X325349Y605209D01*
X325349Y603351D01*
X325349Y608351D02*
X311291Y608351D01*
X311291Y610209D01*
X325349Y610209D01*
X325349Y608351D01*
X325349Y613351D02*
X311291Y613351D01*
X311291Y615209D01*
X325349Y615209D01*
X325349Y613351D01*
X325349Y618351D02*
X311291Y618351D01*
X311291Y620209D01*
X325349Y620209D01*
X325349Y618351D01*
X325349Y623351D02*
X311291Y623351D01*
X311291Y625209D01*
X325349Y625209D01*
X325349Y623351D01*
X325349Y628351D02*
X311291Y628351D01*
X311291Y630209D01*
X325349Y630209D01*
X325349Y628351D01*
X300049Y641451D02*
X300049Y655509D01*
X300049Y641451D02*
X298191Y641451D01*
X298191Y655509D01*
X300049Y655509D01*
X300049Y643991D02*
X298191Y643991D01*
X298191Y646531D02*
X300049Y646531D01*
X300049Y649071D02*
X298191Y649071D01*
X298191Y651611D02*
X300049Y651611D01*
X300049Y654151D02*
X298191Y654151D01*
X295049Y655509D02*
X295049Y641451D01*
X293191Y641451D01*
X293191Y655509D01*
X295049Y655509D01*
X295049Y643991D02*
X293191Y643991D01*
X293191Y646531D02*
X295049Y646531D01*
X295049Y649071D02*
X293191Y649071D01*
X293191Y651611D02*
X295049Y651611D01*
X295049Y654151D02*
X293191Y654151D01*
X290049Y655509D02*
X290049Y641451D01*
X288191Y641451D01*
X288191Y655509D01*
X290049Y655509D01*
X290049Y643991D02*
X288191Y643991D01*
X288191Y646531D02*
X290049Y646531D01*
X290049Y649071D02*
X288191Y649071D01*
X288191Y651611D02*
X290049Y651611D01*
X290049Y654151D02*
X288191Y654151D01*
X285049Y655509D02*
X285049Y641451D01*
X283191Y641451D01*
X283191Y655509D01*
X285049Y655509D01*
X285049Y643991D02*
X283191Y643991D01*
X283191Y646531D02*
X285049Y646531D01*
X285049Y649071D02*
X283191Y649071D01*
X283191Y651611D02*
X285049Y651611D01*
X285049Y654151D02*
X283191Y654151D01*
X280049Y655509D02*
X280049Y641451D01*
X278191Y641451D01*
X278191Y655509D01*
X280049Y655509D01*
X280049Y643991D02*
X278191Y643991D01*
X278191Y646531D02*
X280049Y646531D01*
X280049Y649071D02*
X278191Y649071D01*
X278191Y651611D02*
X280049Y651611D01*
X280049Y654151D02*
X278191Y654151D01*
X275049Y655509D02*
X275049Y641451D01*
X273191Y641451D01*
X273191Y655509D01*
X275049Y655509D01*
X275049Y643991D02*
X273191Y643991D01*
X273191Y646531D02*
X275049Y646531D01*
X275049Y649071D02*
X273191Y649071D01*
X273191Y651611D02*
X275049Y651611D01*
X275049Y654151D02*
X273191Y654151D01*
X270049Y655509D02*
X270049Y641451D01*
X268191Y641451D01*
X268191Y655509D01*
X270049Y655509D01*
X270049Y643991D02*
X268191Y643991D01*
X268191Y646531D02*
X270049Y646531D01*
X270049Y649071D02*
X268191Y649071D01*
X268191Y651611D02*
X270049Y651611D01*
X270049Y654151D02*
X268191Y654151D01*
X265049Y655509D02*
X265049Y641451D01*
X263191Y641451D01*
X263191Y655509D01*
X265049Y655509D01*
X265049Y643991D02*
X263191Y643991D01*
X263191Y646531D02*
X265049Y646531D01*
X265049Y649071D02*
X263191Y649071D01*
X263191Y651611D02*
X265049Y651611D01*
X265049Y654151D02*
X263191Y654151D01*
X260049Y655509D02*
X260049Y641451D01*
X258191Y641451D01*
X258191Y655509D01*
X260049Y655509D01*
X260049Y643991D02*
X258191Y643991D01*
X258191Y646531D02*
X260049Y646531D01*
X260049Y649071D02*
X258191Y649071D01*
X258191Y651611D02*
X260049Y651611D01*
X260049Y654151D02*
X258191Y654151D01*
X255049Y655509D02*
X255049Y641451D01*
X253191Y641451D01*
X253191Y655509D01*
X255049Y655509D01*
X255049Y643991D02*
X253191Y643991D01*
X253191Y646531D02*
X255049Y646531D01*
X255049Y649071D02*
X253191Y649071D01*
X253191Y651611D02*
X255049Y651611D01*
X255049Y654151D02*
X253191Y654151D01*
X250049Y655509D02*
X250049Y641451D01*
X248191Y641451D01*
X248191Y655509D01*
X250049Y655509D01*
X250049Y643991D02*
X248191Y643991D01*
X248191Y646531D02*
X250049Y646531D01*
X250049Y649071D02*
X248191Y649071D01*
X248191Y651611D02*
X250049Y651611D01*
X250049Y654151D02*
X248191Y654151D01*
X245049Y655509D02*
X245049Y641451D01*
X243191Y641451D01*
X243191Y655509D01*
X245049Y655509D01*
X245049Y643991D02*
X243191Y643991D01*
X243191Y646531D02*
X245049Y646531D01*
X245049Y649071D02*
X243191Y649071D01*
X243191Y651611D02*
X245049Y651611D01*
X245049Y654151D02*
X243191Y654151D01*
X240049Y655509D02*
X240049Y641451D01*
X238191Y641451D01*
X238191Y655509D01*
X240049Y655509D01*
X240049Y643991D02*
X238191Y643991D01*
X238191Y646531D02*
X240049Y646531D01*
X240049Y649071D02*
X238191Y649071D01*
X238191Y651611D02*
X240049Y651611D01*
X240049Y654151D02*
X238191Y654151D01*
X235049Y655509D02*
X235049Y641451D01*
X233191Y641451D01*
X233191Y655509D01*
X235049Y655509D01*
X235049Y643991D02*
X233191Y643991D01*
X233191Y646531D02*
X235049Y646531D01*
X235049Y649071D02*
X233191Y649071D01*
X233191Y651611D02*
X235049Y651611D01*
X235049Y654151D02*
X233191Y654151D01*
X230049Y655509D02*
X230049Y641451D01*
X228191Y641451D01*
X228191Y655509D01*
X230049Y655509D01*
X230049Y643991D02*
X228191Y643991D01*
X228191Y646531D02*
X230049Y646531D01*
X230049Y649071D02*
X228191Y649071D01*
X228191Y651611D02*
X230049Y651611D01*
X230049Y654151D02*
X228191Y654151D01*
X225049Y655509D02*
X225049Y641451D01*
X223191Y641451D01*
X223191Y655509D01*
X225049Y655509D01*
X225049Y643991D02*
X223191Y643991D01*
X223191Y646531D02*
X225049Y646531D01*
X225049Y649071D02*
X223191Y649071D01*
X223191Y651611D02*
X225049Y651611D01*
X225049Y654151D02*
X223191Y654151D01*
D12*
X298710Y498330D03*
X298710Y515510D03*
X222000Y687090D03*
X222000Y669910D03*
X184620Y578820D03*
X184620Y561640D03*
X234000Y496910D03*
X234000Y514090D03*
X339000Y646090D03*
X339000Y628910D03*
D28*
X38630Y646840D03*
X38630Y570640D03*
D29*
X67110Y819080D03*
X67110Y757080D03*
D12*
X133340Y783230D03*
X133340Y766230D03*
X151340Y783820D03*
X151340Y766640D03*
D29*
X104110Y819080D03*
X104110Y757080D03*
D12*
X239000Y686500D03*
X239000Y669500D03*
D30*
X133150Y617760D03*
X133150Y573760D03*
X157150Y573760D03*
X157150Y617760D03*
D31*
X159500Y673000D03*
X184500Y673000D03*
D12*
X203000Y687090D03*
X203000Y669910D03*
X141000Y687090D03*
X141000Y669910D03*
D11*
X149580Y640100D03*
X132400Y640100D03*
X141210Y550950D03*
X158390Y550950D03*
D29*
X197340Y806530D03*
X197340Y744530D03*
D12*
X69630Y630240D03*
X69630Y647240D03*
X169340Y783820D03*
X169340Y766640D03*
X183000Y513500D03*
X183000Y496500D03*
X216000Y513500D03*
X216000Y496500D03*
X199000Y513500D03*
X199000Y496500D03*
D32*
X216040Y473580D03*
X200040Y473580D03*
X184040Y473580D03*
X184040Y425580D03*
X200040Y425580D03*
X216040Y425580D03*
D33*
X808250Y116530D03*
X808250Y108530D03*
X808250Y100530D03*
X808250Y92530D03*
X846250Y92530D03*
X846250Y100530D03*
X846250Y108530D03*
X846250Y116530D03*
D34*
X827250Y104530D03*
D35*
X877250Y79930D03*
X877250Y109130D03*
X903250Y79930D03*
X903250Y109130D03*
D12*
X926250Y85440D03*
X926250Y102620D03*
D36*
X949680Y89180D03*
X949680Y103880D03*
D11*
X930100Y142590D03*
X947100Y142590D03*
D37*
X946620Y157390D03*
X946620Y167390D03*
X930620Y162390D03*
D12*
X777910Y92360D03*
X777910Y109360D03*
X759910Y109360D03*
X759910Y92360D03*
D10*
X852350Y573330D03*
X823150Y573330D03*
X852350Y598790D03*
X823150Y598790D03*
D11*
X844840Y621790D03*
X827660Y621790D03*
D10*
X864850Y201530D03*
X835650Y201530D03*
X864850Y175530D03*
X835650Y175530D03*
D11*
X859340Y154530D03*
X842160Y154530D03*
X859340Y138530D03*
X842160Y138530D03*
D10*
X783650Y201530D03*
X812850Y201530D03*
X783650Y175530D03*
X812850Y175530D03*
D11*
X789160Y154530D03*
X806340Y154530D03*
X789160Y138530D03*
X806340Y138530D03*
D38*
X600510Y488500D02*
X588510Y488500D01*
X588510Y478500D02*
X600510Y478500D01*
X600510Y468500D02*
X588510Y468500D01*
X588510Y458500D02*
X600510Y458500D01*
X600510Y448500D02*
X588510Y448500D01*
X588510Y438500D02*
X600510Y438500D01*
X600510Y428500D02*
X588510Y428500D01*
X588510Y418500D02*
X600510Y418500D01*
X600510Y408500D02*
X588510Y408500D01*
X588510Y398500D02*
X600510Y398500D01*
X600510Y388500D02*
X588510Y388500D01*
X588510Y378500D02*
X600510Y378500D01*
X600510Y368500D02*
X588510Y368500D01*
X588510Y358500D02*
X600510Y358500D01*
X600510Y348500D02*
X588510Y348500D01*
X588510Y338500D02*
X600510Y338500D01*
X600510Y328500D02*
X588510Y328500D01*
X588510Y318500D02*
X600510Y318500D01*
X600510Y308500D02*
X588510Y308500D01*
X588510Y298500D02*
X600510Y298500D01*
X650510Y248500D02*
X650510Y236500D01*
X660510Y236500D02*
X660510Y248500D01*
X670510Y248500D02*
X670510Y236500D01*
X680510Y236500D02*
X680510Y248500D01*
X690510Y248500D02*
X690510Y236500D01*
X700510Y236500D02*
X700510Y248500D01*
X710510Y248500D02*
X710510Y236500D01*
X720510Y236500D02*
X720510Y248500D01*
X730510Y248500D02*
X730510Y236500D01*
X740510Y236500D02*
X740510Y248500D01*
X750510Y248500D02*
X750510Y236500D01*
X760510Y236500D02*
X760510Y248500D01*
X770510Y248500D02*
X770510Y236500D01*
X780510Y236500D02*
X780510Y248500D01*
X790510Y248500D02*
X790510Y236500D01*
X800510Y236500D02*
X800510Y248500D01*
X810510Y248500D02*
X810510Y236500D01*
X820510Y236500D02*
X820510Y248500D01*
X830510Y248500D02*
X830510Y236500D01*
X840510Y236500D02*
X840510Y248500D01*
X890510Y298500D02*
X902510Y298500D01*
X902510Y308500D02*
X890510Y308500D01*
X890510Y318500D02*
X902510Y318500D01*
X902510Y328500D02*
X890510Y328500D01*
X890510Y338500D02*
X902510Y338500D01*
X902510Y348500D02*
X890510Y348500D01*
X890510Y358500D02*
X902510Y358500D01*
X902510Y368500D02*
X890510Y368500D01*
X890510Y378500D02*
X902510Y378500D01*
X902510Y388500D02*
X890510Y388500D01*
X890510Y398500D02*
X902510Y398500D01*
X902510Y408500D02*
X890510Y408500D01*
X890510Y418500D02*
X902510Y418500D01*
X902510Y428500D02*
X890510Y428500D01*
X890510Y438500D02*
X902510Y438500D01*
X902510Y448500D02*
X890510Y448500D01*
X890510Y458500D02*
X902510Y458500D01*
X902510Y468500D02*
X890510Y468500D01*
X890510Y478500D02*
X902510Y478500D01*
X902510Y488500D02*
X890510Y488500D01*
X840510Y538500D02*
X840510Y550500D01*
X830510Y550500D02*
X830510Y538500D01*
X820510Y538500D02*
X820510Y550500D01*
X810510Y550500D02*
X810510Y538500D01*
X800510Y538500D02*
X800510Y550500D01*
X790510Y550500D02*
X790510Y538500D01*
X780510Y538500D02*
X780510Y550500D01*
X770510Y550500D02*
X770510Y538500D01*
X760510Y538500D02*
X760510Y550500D01*
X750510Y550500D02*
X750510Y538500D01*
X740510Y538500D02*
X740510Y550500D01*
X730510Y550500D02*
X730510Y538500D01*
X720510Y538500D02*
X720510Y550500D01*
X710510Y550500D02*
X710510Y538500D01*
X700510Y538500D02*
X700510Y550500D01*
X690510Y550500D02*
X690510Y538500D01*
X680510Y538500D02*
X680510Y550500D01*
X670510Y550500D02*
X670510Y538500D01*
X660510Y538500D02*
X660510Y550500D01*
X650510Y550500D02*
X650510Y538500D01*
X600510Y288500D02*
X588510Y288500D01*
X890510Y288500D02*
X902510Y288500D01*
X850510Y248500D02*
X850510Y236500D01*
X640510Y236500D02*
X640510Y248500D01*
X890510Y498500D02*
X902510Y498500D01*
X640510Y538500D02*
X640510Y550500D01*
X850510Y550500D02*
X850510Y538500D01*
D37*
X524000Y504000D03*
X524000Y494000D03*
X540000Y499000D03*
X523540Y463460D03*
X523540Y453460D03*
X539540Y458460D03*
D12*
X557440Y516780D03*
X557440Y499600D03*
X560140Y442110D03*
X560140Y459290D03*
D29*
X492440Y445250D03*
X492440Y507250D03*
D39*
X701417Y610957D02*
X709763Y610957D01*
X701417Y610957D02*
X701417Y612903D01*
X709763Y612903D01*
X709763Y610957D01*
X713413Y606753D02*
X713413Y598407D01*
X711467Y598407D01*
X711467Y606753D01*
X713413Y606753D01*
X713413Y600960D02*
X711467Y600960D01*
X711467Y603513D02*
X713413Y603513D01*
X713413Y606066D02*
X711467Y606066D01*
X718413Y606753D02*
X718413Y598407D01*
X716467Y598407D01*
X716467Y606753D01*
X718413Y606753D01*
X718413Y600960D02*
X716467Y600960D01*
X716467Y603513D02*
X718413Y603513D01*
X718413Y606066D02*
X716467Y606066D01*
X723413Y606753D02*
X723413Y598407D01*
X721467Y598407D01*
X721467Y606753D01*
X723413Y606753D01*
X723413Y600960D02*
X721467Y600960D01*
X721467Y603513D02*
X723413Y603513D01*
X723413Y606066D02*
X721467Y606066D01*
X728413Y606753D02*
X728413Y598407D01*
X726467Y598407D01*
X726467Y606753D01*
X728413Y606753D01*
X728413Y600960D02*
X726467Y600960D01*
X726467Y603513D02*
X728413Y603513D01*
X728413Y606066D02*
X726467Y606066D01*
X733413Y606753D02*
X733413Y598407D01*
X731467Y598407D01*
X731467Y606753D01*
X733413Y606753D01*
X733413Y600960D02*
X731467Y600960D01*
X731467Y603513D02*
X733413Y603513D01*
X733413Y606066D02*
X731467Y606066D01*
X735117Y610957D02*
X743463Y610957D01*
X735117Y610957D02*
X735117Y612903D01*
X743463Y612903D01*
X743463Y610957D01*
X743463Y625957D02*
X735117Y625957D01*
X735117Y627903D01*
X743463Y627903D01*
X743463Y625957D01*
X733413Y632107D02*
X733413Y640453D01*
X733413Y632107D02*
X731467Y632107D01*
X731467Y640453D01*
X733413Y640453D01*
X733413Y634660D02*
X731467Y634660D01*
X731467Y637213D02*
X733413Y637213D01*
X733413Y639766D02*
X731467Y639766D01*
X728413Y640453D02*
X728413Y632107D01*
X726467Y632107D01*
X726467Y640453D01*
X728413Y640453D01*
X728413Y634660D02*
X726467Y634660D01*
X726467Y637213D02*
X728413Y637213D01*
X728413Y639766D02*
X726467Y639766D01*
X723413Y640453D02*
X723413Y632107D01*
X721467Y632107D01*
X721467Y640453D01*
X723413Y640453D01*
X723413Y634660D02*
X721467Y634660D01*
X721467Y637213D02*
X723413Y637213D01*
X723413Y639766D02*
X721467Y639766D01*
X718413Y640453D02*
X718413Y632107D01*
X716467Y632107D01*
X716467Y640453D01*
X718413Y640453D01*
X718413Y634660D02*
X716467Y634660D01*
X716467Y637213D02*
X718413Y637213D01*
X718413Y639766D02*
X716467Y639766D01*
X713413Y640453D02*
X713413Y632107D01*
X711467Y632107D01*
X711467Y640453D01*
X713413Y640453D01*
X713413Y634660D02*
X711467Y634660D01*
X711467Y637213D02*
X713413Y637213D01*
X713413Y639766D02*
X711467Y639766D01*
X709763Y625957D02*
X701417Y625957D01*
X701417Y627903D01*
X709763Y627903D01*
X709763Y625957D01*
D40*
X722440Y619430D03*
D11*
X663410Y611770D03*
X680590Y611770D03*
X680590Y627770D03*
X663410Y627770D03*
D41*
X698340Y569510D03*
X698340Y582510D03*
X714340Y569510D03*
X714340Y582510D03*
X732340Y569510D03*
X732340Y582510D03*
X748340Y569510D03*
X748340Y582510D03*
D42*
X378530Y741920D02*
X378530Y754580D01*
X378530Y741920D02*
X373470Y741920D01*
X373470Y754580D01*
X378530Y754580D01*
X378530Y744743D02*
X373470Y744743D01*
X373470Y747566D02*
X378530Y747566D01*
X378530Y750389D02*
X373470Y750389D01*
X373470Y753212D02*
X378530Y753212D01*
X388030Y754580D02*
X388030Y741920D01*
X382970Y741920D01*
X382970Y754580D01*
X388030Y754580D01*
X388030Y744743D02*
X382970Y744743D01*
X382970Y747566D02*
X388030Y747566D01*
X388030Y750389D02*
X382970Y750389D01*
X382970Y753212D02*
X388030Y753212D01*
X397530Y754580D02*
X397530Y741920D01*
X392470Y741920D01*
X392470Y754580D01*
X397530Y754580D01*
X397530Y744743D02*
X392470Y744743D01*
X392470Y747566D02*
X397530Y747566D01*
X397530Y750389D02*
X392470Y750389D01*
X392470Y753212D02*
X397530Y753212D01*
X397530Y765420D02*
X397530Y778080D01*
X397530Y765420D02*
X392470Y765420D01*
X392470Y778080D01*
X397530Y778080D01*
X397530Y768243D02*
X392470Y768243D01*
X392470Y771066D02*
X397530Y771066D01*
X397530Y773889D02*
X392470Y773889D01*
X392470Y776712D02*
X397530Y776712D01*
X388030Y778080D02*
X388030Y765420D01*
X382970Y765420D01*
X382970Y778080D01*
X388030Y778080D01*
X388030Y768243D02*
X382970Y768243D01*
X382970Y771066D02*
X388030Y771066D01*
X388030Y773889D02*
X382970Y773889D01*
X382970Y776712D02*
X388030Y776712D01*
X378530Y778080D02*
X378530Y765420D01*
X373470Y765420D01*
X373470Y778080D01*
X378530Y778080D01*
X378530Y768243D02*
X373470Y768243D01*
X373470Y771066D02*
X378530Y771066D01*
X378530Y773889D02*
X373470Y773889D01*
X373470Y776712D02*
X378530Y776712D01*
D43*
X386430Y798470D03*
X392930Y798470D03*
X399430Y798470D03*
X379930Y798470D03*
X373430Y798470D03*
D44*
X405430Y803720D03*
X367430Y803720D03*
D45*
X423270Y825720D03*
X349590Y825720D03*
D46*
X386430Y825720D03*
D47*
X477970Y168360D03*
X490670Y168360D03*
X452570Y168360D03*
X465270Y168360D03*
X427170Y168360D03*
X439870Y168360D03*
D48*
X528170Y59860D03*
X384170Y59860D03*
D12*
X517300Y213970D03*
X517300Y196790D03*
X469460Y196370D03*
X469460Y213370D03*
X485460Y196780D03*
X485460Y213960D03*
X501300Y213970D03*
X501300Y196790D03*
X533300Y213970D03*
X533300Y196790D03*
X421460Y196370D03*
X421460Y213370D03*
X453460Y196370D03*
X453460Y213370D03*
X405460Y196780D03*
X405460Y213960D03*
X437460Y196780D03*
X437460Y213960D03*
X857320Y53690D03*
X857320Y36510D03*
X873260Y53540D03*
X873260Y36360D03*
X798320Y54690D03*
X798320Y37510D03*
X782320Y54690D03*
X782320Y37510D03*
X766320Y54690D03*
X766320Y37510D03*
D49*
X750670Y37600D03*
X735970Y37600D03*
D50*
X658000Y154700D03*
X647000Y154700D03*
X636000Y154700D03*
X625000Y154700D03*
X614000Y154700D03*
X603000Y154700D03*
X592000Y154700D03*
X581000Y154700D03*
X570000Y154700D03*
D51*
X715000Y50000D03*
X557000Y50000D03*
D52*
X556400Y146000D03*
D53*
X706250Y146000D03*
D54*
X667000Y46000D03*
X587000Y46000D03*
D55*
X840320Y37600D03*
X840320Y47100D03*
X840320Y56600D03*
X815320Y56600D03*
X815320Y37600D03*
D12*
X703000Y200000D03*
X703000Y217000D03*
D56*
X954710Y771140D03*
X964710Y771140D03*
X959710Y787140D03*
X917400Y771410D03*
X927400Y771410D03*
X922400Y787410D03*
D11*
X950710Y802640D03*
X967710Y802640D03*
X930530Y802960D03*
X913530Y802960D03*
D14*
X952110Y818640D03*
X967310Y818640D03*
X929230Y818790D03*
X914030Y818790D03*
D11*
X917500Y289500D03*
X934500Y289500D03*
D12*
X917000Y255410D03*
X917000Y272590D03*
D57*
X923500Y304000D03*
X936500Y304000D03*
D58*
X965760Y258700D03*
X965760Y286200D03*
D59*
X950510Y272450D03*
X981010Y272450D03*
D12*
X935000Y255410D03*
X935000Y272590D03*
X917600Y444880D03*
X917600Y462060D03*
D11*
X918100Y478970D03*
X935100Y478970D03*
D12*
X935600Y444880D03*
X935600Y462060D03*
D57*
X924100Y493970D03*
X937100Y493970D03*
D58*
X966220Y465230D03*
X966220Y492730D03*
D59*
X950970Y478980D03*
X981470Y478980D03*
D12*
X570540Y722170D03*
X570540Y704990D03*
D60*
X584250Y777000D03*
X556750Y777000D03*
D61*
X570500Y761750D03*
X570500Y792250D03*
D57*
X572050Y738360D03*
X559050Y738360D03*
D12*
X539500Y707910D03*
X539500Y725090D03*
X523790Y708150D03*
X523790Y725150D03*
D62*
X555370Y723470D03*
X555370Y707770D03*
D28*
X960500Y608900D03*
X960500Y685100D03*
D43*
X833000Y796750D03*
X839500Y796750D03*
X846000Y796750D03*
X826500Y796750D03*
X820000Y796750D03*
D44*
X852000Y802000D03*
X814000Y802000D03*
D45*
X869840Y824000D03*
X796160Y824000D03*
D46*
X833000Y824000D03*
D42*
X827870Y751080D02*
X827870Y738420D01*
X822810Y738420D01*
X822810Y751080D01*
X827870Y751080D01*
X827870Y741243D02*
X822810Y741243D01*
X822810Y744066D02*
X827870Y744066D01*
X827870Y746889D02*
X822810Y746889D01*
X822810Y749712D02*
X827870Y749712D01*
X837370Y751080D02*
X837370Y738420D01*
X832310Y738420D01*
X832310Y751080D01*
X837370Y751080D01*
X837370Y741243D02*
X832310Y741243D01*
X832310Y744066D02*
X837370Y744066D01*
X837370Y746889D02*
X832310Y746889D01*
X832310Y749712D02*
X837370Y749712D01*
X846870Y751080D02*
X846870Y738420D01*
X841810Y738420D01*
X841810Y751080D01*
X846870Y751080D01*
X846870Y741243D02*
X841810Y741243D01*
X841810Y744066D02*
X846870Y744066D01*
X846870Y746889D02*
X841810Y746889D01*
X841810Y749712D02*
X846870Y749712D01*
X846870Y761920D02*
X846870Y774580D01*
X846870Y761920D02*
X841810Y761920D01*
X841810Y774580D01*
X846870Y774580D01*
X846870Y764743D02*
X841810Y764743D01*
X841810Y767566D02*
X846870Y767566D01*
X846870Y770389D02*
X841810Y770389D01*
X841810Y773212D02*
X846870Y773212D01*
X837370Y774580D02*
X837370Y761920D01*
X832310Y761920D01*
X832310Y774580D01*
X837370Y774580D01*
X837370Y764743D02*
X832310Y764743D01*
X832310Y767566D02*
X837370Y767566D01*
X837370Y770389D02*
X832310Y770389D01*
X832310Y773212D02*
X837370Y773212D01*
X827870Y774580D02*
X827870Y761920D01*
X822810Y761920D01*
X822810Y774580D01*
X827870Y774580D01*
X827870Y764743D02*
X822810Y764743D01*
X822810Y767566D02*
X827870Y767566D01*
X827870Y770389D02*
X822810Y770389D01*
X822810Y773212D02*
X827870Y773212D01*
D63*
X752899Y691149D02*
X752899Y689851D01*
X744501Y689851D01*
X744501Y691149D01*
X752899Y691149D01*
X752899Y694851D02*
X752899Y696149D01*
X752899Y694851D02*
X744501Y694851D01*
X744501Y696149D01*
X752899Y696149D01*
X752899Y699851D02*
X752899Y701149D01*
X752899Y699851D02*
X744501Y699851D01*
X744501Y701149D01*
X752899Y701149D01*
X752899Y704851D02*
X752899Y706149D01*
X752899Y704851D02*
X744501Y704851D01*
X744501Y706149D01*
X752899Y706149D01*
X752899Y709851D02*
X752899Y711149D01*
X752899Y709851D02*
X744501Y709851D01*
X744501Y711149D01*
X752899Y711149D01*
X752899Y714851D02*
X752899Y716149D01*
X752899Y714851D02*
X744501Y714851D01*
X744501Y716149D01*
X752899Y716149D01*
X752899Y719851D02*
X752899Y721149D01*
X752899Y719851D02*
X744501Y719851D01*
X744501Y721149D01*
X752899Y721149D01*
X740649Y733399D02*
X739351Y733399D01*
X740649Y733399D02*
X740649Y725001D01*
X739351Y725001D01*
X739351Y733399D01*
X739351Y728169D02*
X740649Y728169D01*
X740649Y731337D02*
X739351Y731337D01*
X735649Y733399D02*
X734351Y733399D01*
X735649Y733399D02*
X735649Y725001D01*
X734351Y725001D01*
X734351Y733399D01*
X734351Y728169D02*
X735649Y728169D01*
X735649Y731337D02*
X734351Y731337D01*
X730649Y733399D02*
X729351Y733399D01*
X730649Y733399D02*
X730649Y725001D01*
X729351Y725001D01*
X729351Y733399D01*
X729351Y728169D02*
X730649Y728169D01*
X730649Y731337D02*
X729351Y731337D01*
X725649Y733399D02*
X724351Y733399D01*
X725649Y733399D02*
X725649Y725001D01*
X724351Y725001D01*
X724351Y733399D01*
X724351Y728169D02*
X725649Y728169D01*
X725649Y731337D02*
X724351Y731337D01*
X720649Y733399D02*
X719351Y733399D01*
X720649Y733399D02*
X720649Y725001D01*
X719351Y725001D01*
X719351Y733399D01*
X719351Y728169D02*
X720649Y728169D01*
X720649Y731337D02*
X719351Y731337D01*
X715649Y733399D02*
X714351Y733399D01*
X715649Y733399D02*
X715649Y725001D01*
X714351Y725001D01*
X714351Y733399D01*
X714351Y728169D02*
X715649Y728169D01*
X715649Y731337D02*
X714351Y731337D01*
X710649Y733399D02*
X709351Y733399D01*
X710649Y733399D02*
X710649Y725001D01*
X709351Y725001D01*
X709351Y733399D01*
X709351Y728169D02*
X710649Y728169D01*
X710649Y731337D02*
X709351Y731337D01*
X705499Y721149D02*
X705499Y719851D01*
X697101Y719851D01*
X697101Y721149D01*
X705499Y721149D01*
X705499Y716149D02*
X705499Y714851D01*
X697101Y714851D01*
X697101Y716149D01*
X705499Y716149D01*
X705499Y711149D02*
X705499Y709851D01*
X697101Y709851D01*
X697101Y711149D01*
X705499Y711149D01*
X705499Y706149D02*
X705499Y704851D01*
X697101Y704851D01*
X697101Y706149D01*
X705499Y706149D01*
X705499Y701149D02*
X705499Y699851D01*
X697101Y699851D01*
X697101Y701149D01*
X705499Y701149D01*
X705499Y696149D02*
X705499Y694851D01*
X697101Y694851D01*
X697101Y696149D01*
X705499Y696149D01*
X705499Y691149D02*
X705499Y689851D01*
X697101Y689851D01*
X697101Y691149D01*
X705499Y691149D01*
X709351Y685999D02*
X710649Y685999D01*
X710649Y677601D01*
X709351Y677601D01*
X709351Y685999D01*
X709351Y680769D02*
X710649Y680769D01*
X710649Y683937D02*
X709351Y683937D01*
X714351Y685999D02*
X715649Y685999D01*
X715649Y677601D01*
X714351Y677601D01*
X714351Y685999D01*
X714351Y680769D02*
X715649Y680769D01*
X715649Y683937D02*
X714351Y683937D01*
X719351Y685999D02*
X720649Y685999D01*
X720649Y677601D01*
X719351Y677601D01*
X719351Y685999D01*
X719351Y680769D02*
X720649Y680769D01*
X720649Y683937D02*
X719351Y683937D01*
X724351Y685999D02*
X725649Y685999D01*
X725649Y677601D01*
X724351Y677601D01*
X724351Y685999D01*
X724351Y680769D02*
X725649Y680769D01*
X725649Y683937D02*
X724351Y683937D01*
X729351Y685999D02*
X730649Y685999D01*
X730649Y677601D01*
X729351Y677601D01*
X729351Y685999D01*
X729351Y680769D02*
X730649Y680769D01*
X730649Y683937D02*
X729351Y683937D01*
X734351Y685999D02*
X735649Y685999D01*
X735649Y677601D01*
X734351Y677601D01*
X734351Y685999D01*
X734351Y680769D02*
X735649Y680769D01*
X735649Y683937D02*
X734351Y683937D01*
X739351Y685999D02*
X740649Y685999D01*
X740649Y677601D01*
X739351Y677601D01*
X739351Y685999D01*
X739351Y680769D02*
X740649Y680769D01*
X740649Y683937D02*
X739351Y683937D01*
D64*
X725000Y705500D03*
D11*
X664180Y705540D03*
X681360Y705540D03*
D12*
X798200Y741500D03*
X798200Y724320D03*
X782200Y741500D03*
X782200Y724320D03*
X741210Y767500D03*
X741210Y750500D03*
D65*
X114000Y377000D03*
X113000Y231000D03*
X44000Y389500D03*
X294020Y233980D03*
X21500Y390000D03*
X21500Y370500D03*
X43000Y370000D03*
X22000Y352000D03*
X41500Y351000D03*
X21500Y336500D03*
X41000Y336000D03*
X21000Y273000D03*
X21000Y251000D03*
X48000Y273000D03*
X48000Y251000D03*
X47000Y202000D03*
X20000Y203000D03*
X21000Y184000D03*
X47000Y183000D03*
X163000Y215000D03*
X163000Y200000D03*
X163000Y183000D03*
X178000Y200000D03*
X178000Y215000D03*
X178000Y183000D03*
X193000Y183000D03*
X193000Y200000D03*
X193000Y215000D03*
X162000Y144000D03*
X179000Y144000D03*
X195000Y144000D03*
X263000Y138000D03*
X277000Y138000D03*
X263000Y124000D03*
X277000Y123500D03*
X256000Y59000D03*
X284000Y59000D03*
X284000Y41000D03*
X256000Y41000D03*
X231000Y41000D03*
X231000Y24000D03*
X256000Y24000D03*
X284000Y24000D03*
X32000Y285000D03*
X274000Y172000D03*
X490500Y155000D03*
X502000Y167500D03*
X533500Y231500D03*
X517500Y231500D03*
X501500Y231500D03*
X472000Y182000D03*
X437500Y184000D03*
X405500Y182500D03*
X602000Y132500D03*
X381010Y428560D03*
X981500Y180000D03*
X981000Y17000D03*
X981000Y37500D03*
X981000Y57500D03*
X981000Y77500D03*
X981500Y101500D03*
X981500Y122000D03*
X982000Y136500D03*
X960000Y181500D03*
X980500Y198500D03*
X960500Y198000D03*
X960500Y215000D03*
X981500Y156000D03*
X981000Y215000D03*
X981000Y234000D03*
X960500Y233000D03*
X395010Y360560D03*
X395010Y349560D03*
X395010Y338560D03*
X383010Y338560D03*
X383010Y349560D03*
X383010Y360560D03*
X381010Y417560D03*
X381010Y439100D03*
X393010Y439100D03*
X393010Y428560D03*
X393010Y417560D03*
X894500Y266000D03*
X872500Y266500D03*
X872500Y283000D03*
X872500Y308000D03*
X872500Y324500D03*
X872500Y345500D03*
X872500Y362000D03*
X983500Y333000D03*
X962500Y333000D03*
X941500Y332500D03*
X922000Y332500D03*
X921000Y351000D03*
X941000Y351500D03*
X962000Y352000D03*
X983000Y352000D03*
X982500Y373500D03*
X961500Y373500D03*
X940500Y373000D03*
X920500Y371500D03*
X921000Y392000D03*
X940000Y392500D03*
X961000Y393000D03*
X982000Y393000D03*
X981500Y416000D03*
X960500Y416000D03*
X939500Y415500D03*
X921000Y416500D03*
X981500Y442500D03*
X960000Y442500D03*
X877000Y423500D03*
X877000Y445000D03*
X876500Y462000D03*
X877000Y484500D03*
X888000Y516000D03*
X924000Y510000D03*
X923500Y526500D03*
X946000Y510000D03*
X945000Y527500D03*
X966500Y510500D03*
X966000Y528500D03*
X983000Y528000D03*
X983500Y510000D03*
X603500Y798500D03*
X625500Y797500D03*
X625000Y776000D03*
X604000Y774500D03*
X596000Y725500D03*
X620000Y727000D03*
X620000Y709000D03*
X596500Y709000D03*
X596500Y692500D03*
X620000Y689500D03*
X618820Y668860D03*
X598020Y669410D03*
X584500Y689000D03*
X584500Y676000D03*
X584500Y664000D03*
X584500Y652000D03*
X584500Y640500D03*
X598000Y647000D03*
X619000Y647000D03*
X643500Y623000D03*
X643500Y608500D03*
X643500Y636500D03*
X584500Y628500D03*
X584500Y615000D03*
X598500Y622500D03*
X617500Y622000D03*
X586500Y603500D03*
X596500Y598500D03*
X607500Y597500D03*
X619500Y597500D03*
X631500Y598000D03*
X644000Y597500D03*
X656500Y594500D03*
X666500Y588000D03*
X672500Y576500D03*
X554500Y795500D03*
X535500Y794500D03*
X512000Y794500D03*
X488000Y794500D03*
X487500Y775500D03*
X512500Y776000D03*
X536000Y776500D03*
X536000Y755000D03*
X512000Y756500D03*
X487000Y756500D03*
X486500Y739500D03*
X512500Y741000D03*
X536500Y740500D03*
X486500Y686500D03*
X507000Y686500D03*
X526000Y686000D03*
X544500Y685500D03*
X557000Y689000D03*
X556500Y678500D03*
X556500Y666500D03*
X556500Y654000D03*
X544000Y661000D03*
X525500Y661500D03*
X506500Y662000D03*
X486000Y662000D03*
X486500Y639000D03*
X556500Y642000D03*
X544500Y638000D03*
X526000Y638500D03*
X507000Y639000D03*
X487000Y617000D03*
X507500Y617000D03*
X526500Y616500D03*
X545000Y616000D03*
X557000Y629000D03*
X557000Y616500D03*
X556500Y600500D03*
X561000Y587500D03*
X570000Y579000D03*
X580500Y572500D03*
X594000Y569000D03*
X605000Y569000D03*
X618500Y569500D03*
X633000Y569000D03*
X646000Y568000D03*
X626000Y554500D03*
X599000Y548000D03*
X618000Y541000D03*
X626500Y527500D03*
X643000Y527000D03*
X657500Y527000D03*
X670000Y526500D03*
X253000Y426000D03*
X277500Y492000D03*
X278000Y474500D03*
X255000Y473500D03*
X255500Y491500D03*
X279000Y426000D03*
X302500Y426000D03*
X304500Y474000D03*
X30500Y516000D03*
X59500Y516000D03*
X90000Y516000D03*
X114500Y516500D03*
X31000Y493500D03*
X60000Y493500D03*
X90500Y493500D03*
X115000Y494000D03*
X30000Y472000D03*
X59000Y472000D03*
X89500Y472000D03*
X114000Y472500D03*
X30500Y429500D03*
X59500Y429500D03*
X90000Y429500D03*
X114500Y430000D03*
X771000Y758000D03*
X789000Y758000D03*
X339500Y778000D03*
X358500Y778500D03*
X341500Y751500D03*
X366000Y701500D03*
X341000Y725500D03*
X341500Y701500D03*
X346000Y670000D03*
X372500Y669500D03*
X386000Y641500D03*
X424000Y772500D03*
X423500Y744000D03*
X424500Y712500D03*
X656500Y776000D03*
X683000Y776000D03*
X658500Y748000D03*
X683500Y748000D03*
X653500Y673500D03*
X872000Y661000D03*
X872000Y637000D03*
X873500Y606500D03*
X873000Y577500D03*
X898000Y577500D03*
X898500Y606500D03*
X898000Y637000D03*
X897500Y661500D03*
X724500Y821500D03*
X766000Y822500D03*
X725000Y796500D03*
X766500Y794000D03*
X627500Y440500D03*
X661000Y441000D03*
X693000Y441500D03*
X721500Y441500D03*
X750500Y442000D03*
X774500Y442000D03*
X773000Y666000D03*
X796000Y665500D03*
X814000Y665500D03*
X773500Y645000D03*
X795500Y645000D03*
X813500Y645500D03*
X773500Y625000D03*
X794500Y625000D03*
X628500Y406000D03*
X662000Y406500D03*
X694000Y407000D03*
X722500Y407000D03*
X751500Y407500D03*
X775500Y407500D03*
X629000Y367500D03*
X662500Y368000D03*
X694500Y368500D03*
X723000Y368500D03*
X752000Y369000D03*
X776000Y369000D03*
X630000Y333000D03*
X663500Y333500D03*
X695500Y334000D03*
X724000Y334000D03*
X753000Y334500D03*
X777000Y334500D03*
X659500Y479000D03*
X691500Y479500D03*
X720000Y479500D03*
X749000Y480000D03*
X773000Y480000D03*
X631000Y304500D03*
X664500Y305000D03*
X696500Y305500D03*
X725000Y305500D03*
X754000Y306000D03*
X778000Y306000D03*
X760500Y202000D03*
X761000Y187500D03*
X760500Y172500D03*
X760500Y157000D03*
X760000Y138000D03*
X632000Y270000D03*
X665500Y270500D03*
X697500Y271000D03*
X726000Y271000D03*
X755000Y271500D03*
X779000Y271500D03*
X742500Y200000D03*
X743000Y185500D03*
X742500Y170500D03*
X742500Y155000D03*
X742000Y136000D03*
X887000Y216000D03*
X885000Y189000D03*
X888000Y164500D03*
X877000Y152500D03*
X877500Y136500D03*
X806500Y78500D03*
X821000Y78500D03*
X836500Y78500D03*
X850000Y78500D03*
X891000Y62500D03*
X910500Y62000D03*
X892500Y42000D03*
X912000Y42000D03*
X928500Y61000D03*
X904000Y216000D03*
X906000Y188500D03*
X906000Y164000D03*
X82000Y276000D03*
X82000Y264000D03*
X93000Y276000D03*
X104000Y276000D03*
X104000Y264000D03*
X93000Y264000D03*
X258000Y564000D03*
X428080Y627570D03*
X637000Y819500D03*
X477500Y725500D03*
X724000Y767500D03*
X809000Y724000D03*
X312000Y649000D03*
X303000Y619000D03*
X39000Y721000D03*
X39000Y738000D03*
X143000Y739000D03*
X170000Y753000D03*
X310000Y771000D03*
X197000Y769000D03*
X310000Y711000D03*
X219000Y599000D03*
X412000Y585500D03*
X733500Y649500D03*
X411000Y600000D03*
X702500Y658500D03*
X341000Y546000D03*
X373000Y497000D03*
X368000Y44500D03*
X962000Y157000D03*
X360000Y548000D03*
X505000Y465000D03*
X367000Y559000D03*
X511000Y504000D03*
X219000Y564000D03*
X219000Y581000D03*
X778000Y124000D03*
X824770Y188720D03*
X885500Y819000D03*
X940500Y819000D03*
X859000Y100500D03*
X916000Y143000D03*
X573500Y349000D03*
X696000Y604000D03*
X755500Y627000D03*
X478000Y155000D03*
X470000Y235000D03*
X470500Y291000D03*
X453500Y234500D03*
X453500Y320500D03*
X453541Y156041D03*
X427000Y154000D03*
X440000Y155000D03*
X703000Y84500D03*
X625000Y141500D03*
X624000Y102000D03*
X614000Y141000D03*
X623000Y177500D03*
X702500Y184000D03*
X635500Y141000D03*
X592000Y141000D03*
X601000Y220000D03*
X660000Y227000D03*
X581000Y141000D03*
X580000Y191000D03*
X671000Y228000D03*
X658000Y140500D03*
X647000Y140500D03*
X646500Y194500D03*
X690000Y227000D03*
X750000Y729500D03*
X853000Y781500D03*
X834000Y781500D03*
M02*
