G04*
G04 #@! TF.GenerationSoftware,Altium Limited,CircuitMaker,2.2.1 (2.2.1.6)*
G04*
G04 Layer_Color=16740166*
%FSAX24Y24*%
%MOIN*%
G70*
G04*
G04 #@! TF.SameCoordinates,9E9C5540-E167-4C1C-9640-90AE9AA1DF71*
G04*
G04*
G04 #@! TF.FilePolarity,Positive*
G04*
G01*
G75*
%ADD13C,0.0100*%
%ADD56C,0.0039*%
D13*
X101650Y049300D02*
G03*
X101600Y049350I-000050J000000D01*
G01*
X101650Y049300D02*
G03*
X101600Y049350I-000050J000000D01*
G01*
Y009950D02*
G03*
X101650Y010000I000000J000050D01*
G01*
X101600Y009950D02*
G03*
X101650Y010000I000000J000050D01*
G01*
X010000Y049350D02*
G03*
X009950Y049300I000000J-000050D01*
G01*
X010000Y049350D02*
G03*
X009950Y049300I000000J-000050D01*
G01*
Y010000D02*
G03*
X010000Y009950I000050J000000D01*
G01*
X009950Y010000D02*
G03*
X010000Y009950I000050J000000D01*
G01*
X101650Y010000D02*
Y049300D01*
X010000Y049350D02*
X101600D01*
X010000Y009950D02*
X101600D01*
X009950Y010000D02*
Y049300D01*
D56*
X092946Y020763D02*
X093654D01*
X092946Y018459D02*
X093654D01*
Y020763D01*
X092946Y018459D02*
Y020763D01*
X076345Y039446D02*
Y040154D01*
X078648Y039446D02*
Y040154D01*
X076345D02*
X078648D01*
X076345Y039446D02*
X078648D01*
X076353Y043146D02*
Y043854D01*
X078656Y043146D02*
Y043854D01*
X076353D02*
X078656D01*
X076353Y043146D02*
X078656D01*
M02*
