G04*
G04 #@! TF.GenerationSoftware,Altium Limited,CircuitMaker,2.2.1 (2.2.1.6)*
G04*
G04 Layer_Color=20142*
%FSAX24Y24*%
%MOIN*%
G70*
G04*
G04 #@! TF.SameCoordinates,9E9C5540-E167-4C1C-9640-90AE9AA1DF71*
G04*
G04*
G04 #@! TF.FilePolarity,Negative*
G04*
G01*
G75*
%ADD20R,0.0867X0.0867*%
%ADD21C,0.0749*%
%ADD22C,0.0867*%
%ADD23R,0.0680X0.0680*%
%ADD24C,0.0680*%
%ADD25C,0.1580*%
%ADD26C,0.0671*%
%ADD27R,0.0671X0.0671*%
%ADD28C,0.0710*%
%ADD29R,0.0671X0.0671*%
%ADD30O,0.0867X0.0474*%
%ADD31O,0.0867X0.0474*%
%ADD32C,0.2442*%
%ADD33C,0.1655*%
%ADD34R,0.0680X0.0680*%
%ADD35R,0.0690X0.0690*%
%ADD36C,0.0690*%
D20*
X099300Y021300D02*
D03*
X069000Y041500D02*
D03*
X099300Y019700D02*
D03*
X046900Y039132D02*
D03*
D21*
X056500Y027700D02*
D03*
Y023700D02*
D03*
X045500Y027700D02*
D03*
Y023700D02*
D03*
X048250Y027700D02*
D03*
Y023700D02*
D03*
X053750Y027700D02*
D03*
Y023700D02*
D03*
X051000Y027700D02*
D03*
Y023700D02*
D03*
X062000Y027700D02*
D03*
Y023700D02*
D03*
X067500Y027700D02*
D03*
Y023700D02*
D03*
X070250Y027700D02*
D03*
Y023700D02*
D03*
X078500Y027700D02*
D03*
Y023700D02*
D03*
X075750Y027700D02*
D03*
Y023700D02*
D03*
X072950Y027700D02*
D03*
Y023700D02*
D03*
X064750D02*
D03*
Y027700D02*
D03*
X079400Y045700D02*
D03*
X075400D02*
D03*
X061400Y037500D02*
D03*
Y041500D02*
D03*
X058400D02*
D03*
Y037500D02*
D03*
D22*
X046900Y043068D02*
D03*
D23*
X065892Y041500D02*
D03*
X086900Y019600D02*
D03*
D24*
X064908Y041500D02*
D03*
X064750Y018700D02*
D03*
Y020700D02*
D03*
X085916Y019600D02*
D03*
X096700Y015900D02*
D03*
Y011900D02*
D03*
X078500Y014350D02*
D03*
Y012350D02*
D03*
X073000Y014350D02*
D03*
Y012350D02*
D03*
X075750Y020700D02*
D03*
Y018700D02*
D03*
X070250Y020700D02*
D03*
Y018700D02*
D03*
X067500Y014350D02*
D03*
Y012350D02*
D03*
X062000Y014350D02*
D03*
Y012350D02*
D03*
X056500Y014350D02*
D03*
Y012350D02*
D03*
X053750Y020700D02*
D03*
Y018700D02*
D03*
X051000Y014350D02*
D03*
Y012350D02*
D03*
X048250Y020700D02*
D03*
Y018700D02*
D03*
X045500Y014350D02*
D03*
Y012350D02*
D03*
X053400Y041500D02*
D03*
X054400D02*
D03*
X055400D02*
D03*
X077000D02*
D03*
X078000D02*
D03*
X050500Y044100D02*
D03*
D25*
X099800Y047500D02*
D03*
Y011800D02*
D03*
X011800D02*
D03*
Y047500D02*
D03*
D26*
X093300Y019116D02*
D03*
Y020100D02*
D03*
X096700D02*
D03*
X087884Y012200D02*
D03*
X088869D02*
D03*
X077992Y039800D02*
D03*
X077008D02*
D03*
X078000Y043500D02*
D03*
X077016D02*
D03*
X073914Y040471D02*
D03*
Y041471D02*
D03*
Y042471D02*
D03*
Y043471D02*
D03*
X070914Y040471D02*
D03*
Y041471D02*
D03*
Y042471D02*
D03*
D27*
X096700Y019313D02*
D03*
D28*
X093300Y012900D02*
D03*
Y011900D02*
D03*
D29*
X086900Y012200D02*
D03*
X070914Y043471D02*
D03*
D30*
X090500Y020100D02*
D03*
D31*
Y019600D02*
D03*
Y019100D02*
D03*
D32*
X097482Y030448D02*
D03*
X088100D02*
D03*
Y039200D02*
D03*
X097482D02*
D03*
D33*
X095291Y045200D02*
D03*
X090291D02*
D03*
D34*
X050500Y043100D02*
D03*
D35*
X042800Y042100D02*
D03*
D36*
Y043100D02*
D03*
M02*
