M48
;GenerationSoftware,Autodesk,EAGLE,9.6.2*%
;CreationDate,2023-11-18T20:27:51Z*%
FMAT,2
ICI,OFF
METRIC,TZ,000.000
T6C0.350
T5C0.800
T4C0.850
T3C1.250
T2C1.600
T1C1.800
%
G90
M71
T1
X16609Y10453
T2
X16609Y5953
T3
X66700Y4600
X58700Y4600
T4
X40543Y80372
X36743Y80372
X85200Y80200
X81400Y80200
T5
X96050Y68510
X3863Y64684
X3863Y57064
X96050Y60890
T6
X2100Y25100
X4800Y27300
X4800Y25100
X4700Y20200
X2000Y20300
X2100Y18400
X4700Y18300
X16300Y21500
X16300Y20000
X16300Y18300
X17800Y20000
X17800Y21500
X17800Y18300
X19300Y18300
X19300Y20000
X19300Y21500
X16200Y14400
X17900Y14400
X19500Y14400
X26300Y13800
X27700Y13800
X26300Y12400
X27700Y12350
X25600Y5900
X28400Y5900
X28400Y4100
X25600Y4100
X23100Y4100
X23100Y2400
X25600Y2400
X28400Y2400
X3200Y28500
X27400Y17200
X49050Y15500
X50200Y16750
X53350Y23150
X51750Y23150
X50150Y23150
X47200Y18200
X43750Y18400
X40550Y18250
X60200Y13250
X38101Y42856
X98150Y18000
X98100Y1700
X98100Y3750
X98100Y5750
X98100Y7750
X98150Y10150
X98150Y12200
X98200Y13650
X96000Y18150
X98050Y19850
X96050Y19800
X96050Y21500
X98150Y15600
X98100Y21500
X98100Y23400
X96050Y23300
X39501Y36056
X39501Y34956
X39501Y33856
X38301Y33856
X38301Y34956
X38301Y36056
X38101Y41756
X38101Y43910
X39301Y43910
X39301Y42856
X39301Y41756
X89450Y26600
X87250Y26650
X87250Y28300
X87250Y30800
X87250Y32450
X87250Y34550
X87250Y36200
X98350Y33300
X96250Y33300
X94150Y33250
X92200Y33250
X92100Y35100
X94100Y35150
X96200Y35200
X98300Y35200
X98250Y37350
X96150Y37350
X94050Y37300
X92050Y37150
X92100Y39200
X94000Y39250
X96100Y39300
X98200Y39300
X98150Y41600
X96050Y41600
X93950Y41550
X92100Y41650
X98150Y44250
X96000Y44250
X87700Y42350
X87700Y44500
X87650Y46200
X87700Y48450
X88800Y51600
X92400Y51000
X92350Y52650
X94600Y51000
X94500Y52750
X96650Y51050
X96600Y52850
X98300Y52800
X98350Y51000
X60350Y79850
X62550Y79750
X62500Y77600
X60400Y77450
X59600Y72550
X62000Y72700
X62000Y70900
X59650Y70900
X59650Y69250
X62000Y68950
X61882Y66886
X59802Y66941
X58450Y68900
X58450Y67600
X58450Y66400
X58450Y65200
X58450Y64050
X59800Y64700
X61900Y64700
X64350Y62300
X64350Y60850
X64350Y63650
X58450Y62850
X58450Y61500
X59850Y62250
X61750Y62200
X58650Y60350
X59650Y59850
X60750Y59750
X61950Y59750
X63150Y59800
X64400Y59750
X65650Y59450
X66650Y58800
X67250Y57650
X55450Y79550
X53550Y79450
X51200Y79450
X48800Y79450
X48750Y77550
X51250Y77600
X53600Y77650
X53600Y75500
X51200Y75650
X48700Y75650
X48650Y73950
X51250Y74100
X53650Y74050
X48650Y68650
X50700Y68650
X52600Y68600
X54450Y68550
X55700Y68900
X55650Y67850
X55650Y66650
X55650Y65400
X54400Y66100
X52550Y66150
X50650Y66200
X48600Y66200
X48650Y63900
X55650Y64200
X54450Y63800
X52600Y63850
X50700Y63900
X48700Y61700
X50750Y61700
X52650Y61650
X54500Y61600
X55700Y62900
X55700Y61650
X55650Y60050
X56100Y58750
X57000Y57900
X58050Y57250
X59400Y56900
X60500Y56900
X61850Y56950
X63300Y56900
X64600Y56800
X62600Y55450
X59900Y54800
X61800Y54100
X62650Y52750
X64300Y52700
X65750Y52700
X67000Y52650
X25300Y42600
X27750Y49200
X27800Y47450
X25500Y47350
X25550Y49150
X27900Y42600
X30250Y42600
X30450Y47400
X3050Y51600
X5950Y51600
X9000Y51600
X11450Y51650
X3100Y49350
X6000Y49350
X9050Y49350
X11500Y49400
X3000Y47200
X5900Y47200
X8950Y47200
X11400Y47250
X3050Y42950
X5950Y42950
X9000Y42950
X11450Y43000
X77100Y75800
X78900Y75800
X33950Y77800
X35850Y77850
X34150Y75150
X36600Y70150
X34100Y72550
X34150Y70150
X34600Y67000
X37250Y66950
X38600Y64150
X42400Y77250
X42350Y74400
X42450Y71250
X65650Y77600
X68300Y77600
X65850Y74800
X68350Y74800
X65350Y67350
X87200Y66100
X87200Y63700
X87350Y60650
X87300Y57750
X89800Y57750
X89850Y60650
X89800Y63700
X89750Y66150
X72450Y82150
X76600Y82250
X72500Y79650
X76650Y79400
X62750Y44050
X66100Y44100
X69300Y44150
X72150Y44150
X75050Y44200
X77450Y44200
X77300Y66600
X79600Y66550
X81400Y66550
X77350Y64500
X79550Y64500
X81350Y64550
X77350Y62500
X79450Y62500
X62850Y40600
X66200Y40650
X69400Y40700
X72250Y40700
X75150Y40750
X77550Y40750
X62900Y36750
X66250Y36800
X69450Y36850
X72300Y36850
X75200Y36900
X77600Y36900
X63000Y33300
X66350Y33350
X69550Y33400
X72400Y33400
X75300Y33450
X77700Y33450
X65950Y47900
X69150Y47950
X72000Y47950
X74900Y48000
X77300Y48000
X63100Y30450
X66450Y30500
X69650Y30550
X72500Y30550
X75400Y30600
X77800Y30600
X76050Y20200
X76100Y18750
X76050Y17250
X76050Y15700
X76000Y13800
X63200Y27000
X66550Y27050
X69750Y27100
X72600Y27100
X75500Y27150
X77900Y27150
X11400Y37700
X74300Y18550
X74250Y17050
X74250Y15500
X74200Y13600
X88700Y21600
X88500Y18900
X88800Y16450
X87700Y15250
X87750Y13650
X80650Y7850
X82100Y7850
X83650Y7850
X85000Y7850
X89100Y6250
X91050Y6200
X89250Y4200
X91200Y4200
X92850Y6100
X90400Y21600
X90600Y18850
X90600Y16400
X8200Y27600
X8200Y26400
X9300Y27600
X10400Y27600
X10400Y26400
X9300Y26400
X25800Y56400
X42808Y62757
X63700Y81950
X47750Y72550
X72400Y76750
X80900Y72400
X31200Y64900
X30300Y61900
X3900Y72100
X3900Y73800
X14300Y73900
X17000Y75300
X31000Y77100
X19700Y76900
X31000Y71100
X21900Y59900
X41200Y58550
X73350Y64950
X41100Y60000
X70250Y65850
X34100Y54600
X37300Y49700
X36800Y4450
X96200Y15700
X36000Y54800
X74250Y20000
X36700Y55900
X51100Y50400
X21900Y56400
X21900Y58100
X77800Y12400
X82477Y18872
X88550Y81900
X94050Y81900
X85900Y10050
X91600Y14300
X57350Y34900
X69600Y60400
X75550Y62700
X47800Y15500
X47000Y23500
X47050Y29100
X45350Y23450
X45350Y32050
X45354Y15604
X42700Y15400
X44000Y15500
X70300Y8450
X62500Y14150
X62400Y10200
X61400Y14100
X62300Y17750
X70250Y18400
X63550Y14100
X59200Y14100
X60100Y22000
X66000Y22700
X58100Y14100
X58000Y19100
X67100Y22800
X65800Y14050
X64700Y14050
X64650Y19450
X69000Y22700
X75000Y72950
X85300Y78150
X83400Y78150
X11300Y23100
X4400Y38950
X29402Y23398
X2150Y39000
X2150Y37050
X4300Y37000
X2200Y35200
X4150Y35100
X2150Y33650
X4100Y33600
X2100Y27300
X50500Y46500
M30