M48
;Layer_Color=6321
;FILE_FORMAT=2:4
INCH
;TYPE=PLATED
T1F00S00C0.0250
T2F00S00C0.0300
T3F00S00C0.0319
T4F00S00C0.0354
T5F00S00C0.0394
T6F00S00C0.0472
%
T01
X018700Y030200
X021700
X026700
X029700
X013700
X010700
X005700
X002700
X006700Y037000
X009700
X014800
X017800
X022700
X025700
X030700
X033700
T02
X058350Y030450
X059350Y031450
X057350
X058350Y034700
X059350Y035700
X057350
T03
X041600Y036200
Y037200
X047800Y037000
Y036000
X052000Y036453
X053000
X053300Y033000
X054300
Y031700
X053300
T04
X066000Y030013
Y030800
X046400Y031000
X043400
X040100
Y030000
X037100
Y031000
Y032000
Y033000
Y034000
Y035000
Y036000
Y037000
X040100
Y036000
Y035000
Y034000
Y033000
Y032000
X043400
Y033000
Y034000
Y035000
Y036000
Y037000
X046400
Y036000
Y035000
Y034000
Y033000
Y032000
X049000
Y033000
Y034000
Y035000
X052000
Y034000
Y033000
Y032000
T05
X003700Y033600
X004700
X007700Y033600
X008700
X011700
X012700
X015700
X016700
X019700
X020700
X023700
X024700
X027700
X028700
X031700
X032700
X063666Y033400
X064650
X065634
T06
X069500Y033522
X087100
X089900Y033500
X107500
X110300
X127900
M30
